<svg xmlns="http://www.w3.org/2000/svg" xmlns:xlink="http://www.w3.org/1999/xlink" contentStyleType="text/css" data-diagram-type="CLASS" height="1081px" preserveAspectRatio="none" style="width:1406px;height:1081px;background:#FFFFFF;" version="1.1" viewBox="0 0 1406 1081" width="1406px" zoomAndPan="magnify"><defs/><g><!--cluster context map--><g class="cluster" data-entity="context map" data-source-line="2" data-uid="ent0002" id="cluster_context map"><path d="M8.5,6 L108.2246,6 A3.75,3.75 0 0 1 110.7246,8.5 L117.7246,28.2969 L1396.5,28.2969 A2.5,2.5 0 0 1 1399,30.7969 L1399,1071.5 A2.5,2.5 0 0 1 1396.5,1074 L8.5,1074 A2.5,2.5 0 0 1 6,1071.5 L6,8.5 A2.5,2.5 0 0 1 8.5,6" fill="none" style="stroke:#000000;stroke-width:1.5;"/><line style="stroke:#000000;stroke-width:1.5;" x1="6" x2="117.7246" y1="28.2969" y2="28.2969"/><text fill="#000000" font-family="sans-serif" font-size="14" font-weight="bold" lengthAdjust="spacing" textLength="98.7246" x="10" y="20.9951">context map</text></g><!--cluster board context--><g class="cluster" data-entity="board context" data-source-line="3" data-uid="ent0003" id="cluster_board context"><path d="M411.5,49 L523.1807,49 A3.75,3.75 0 0 1 525.6807,51.5 L532.6807,71.2969 L1346.5,71.2969 A2.5,2.5 0 0 1 1349,73.7969 L1349,733.5 A2.5,2.5 0 0 1 1346.5,736 L411.5,736 A2.5,2.5 0 0 1 409,733.5 L409,51.5 A2.5,2.5 0 0 1 411.5,49" fill="none" style="stroke:#000000;stroke-width:1.5;"/><line style="stroke:#000000;stroke-width:1.5;" x1="409" x2="532.6807" y1="71.2969" y2="71.2969"/><text fill="#000000" font-family="sans-serif" font-size="14" font-weight="bold" lengthAdjust="spacing" textLength="110.6807" x="413" y="63.9951">board context</text></g><!--cluster board--><g class="cluster" data-entity="board" data-source-line="4" data-uid="ent0004" id="cluster_board"><path d="M1157.5,208 L1204.5127,208 A3.75,3.75 0 0 1 1207.0127,210.5 L1214.0127,230.2969 L1322.5,230.2969 A2.5,2.5 0 0 1 1325,232.7969 L1325,312.5 A2.5,2.5 0 0 1 1322.5,315 L1157.5,315 A2.5,2.5 0 0 1 1155,312.5 L1155,210.5 A2.5,2.5 0 0 1 1157.5,208" fill="none" style="stroke:#000000;stroke-width:1.5;"/><line style="stroke:#000000;stroke-width:1.5;" x1="1155" x2="1214.0127" y1="230.2969" y2="230.2969"/><text fill="#000000" font-family="sans-serif" font-size="14" font-weight="bold" lengthAdjust="spacing" textLength="46.0127" x="1159" y="222.9951">board</text></g><!--cluster post--><g class="cluster" data-entity="post" data-source-line="9" data-uid="ent0006" id="cluster_post"><path d="M826.5,208 L862.165,208 A3.75,3.75 0 0 1 864.665,210.5 L871.665,230.2969 L1128.5,230.2969 A2.5,2.5 0 0 1 1131,232.7969 L1131,709.5 A2.5,2.5 0 0 1 1128.5,712 L826.5,712 A2.5,2.5 0 0 1 824,709.5 L824,210.5 A2.5,2.5 0 0 1 826.5,208" fill="none" style="stroke:#000000;stroke-width:1.5;"/><line style="stroke:#000000;stroke-width:1.5;" x1="824" x2="871.665" y1="230.2969" y2="230.2969"/><text fill="#000000" font-family="sans-serif" font-size="14" font-weight="bold" lengthAdjust="spacing" textLength="34.665" x="828" y="222.9951">post</text></g><!--cluster comment--><g class="cluster" data-entity="comment" data-source-line="32" data-uid="ent0018" id="cluster_comment"><path d="M435.5,92 L509.7471,92 A3.75,3.75 0 0 1 512.2471,94.5 L519.2471,114.2969 L797.5,114.2969 A2.5,2.5 0 0 1 800,116.7969 L800,312.5 A2.5,2.5 0 0 1 797.5,315 L435.5,315 A2.5,2.5 0 0 1 433,312.5 L433,94.5 A2.5,2.5 0 0 1 435.5,92" fill="none" style="stroke:#000000;stroke-width:1.5;"/><line style="stroke:#000000;stroke-width:1.5;" x1="433" x2="519.2471" y1="114.2969" y2="114.2969"/><text fill="#000000" font-family="sans-serif" font-size="14" font-weight="bold" lengthAdjust="spacing" textLength="73.2471" x="437" y="106.9951">comment</text></g><!--cluster userBoardRole--><g class="cluster" data-entity="userBoardRole" data-source-line="41" data-uid="ent0022" id="cluster_userBoardRole"><path d="M1157.5,339 L1274.5537,339 A3.75,3.75 0 0 1 1277.0537,341.5 L1284.0537,361.2969 L1322.5,361.2969 A2.5,2.5 0 0 1 1325,363.7969 L1325,443.5 A2.5,2.5 0 0 1 1322.5,446 L1157.5,446 A2.5,2.5 0 0 1 1155,443.5 L1155,341.5 A2.5,2.5 0 0 1 1157.5,339" fill="none" style="stroke:#000000;stroke-width:1.5;"/><line style="stroke:#000000;stroke-width:1.5;" x1="1155" x2="1284.0537" y1="361.2969" y2="361.2969"/><text fill="#000000" font-family="sans-serif" font-size="14" font-weight="bold" lengthAdjust="spacing" textLength="116.0537" x="1159" y="353.9951">userBoardRole</text></g><!--cluster member context--><g class="cluster" data-entity="member context" data-source-line="53" data-uid="ent0028" id="cluster_member context"><path d="M1009.5,760 L1140.2598,760 A3.75,3.75 0 0 1 1142.7598,762.5 L1149.7598,782.2969 L1359.5,782.2969 A2.5,2.5 0 0 1 1362,784.7969 L1362,1047.5 A2.5,2.5 0 0 1 1359.5,1050 L1009.5,1050 A2.5,2.5 0 0 1 1007,1047.5 L1007,762.5 A2.5,2.5 0 0 1 1009.5,760" fill="none" style="stroke:#000000;stroke-width:1.5;"/><line style="stroke:#000000;stroke-width:1.5;" x1="1007" x2="1149.7598" y1="782.2969" y2="782.2969"/><text fill="#000000" font-family="sans-serif" font-size="14" font-weight="bold" lengthAdjust="spacing" textLength="129.7598" x="1011" y="774.9951">member context</text></g><!--cluster member--><g class="cluster" data-entity="member" data-source-line="54" data-uid="ent0029" id="cluster_member"><path d="M1033.5,803 L1099.5918,803 A3.75,3.75 0 0 1 1102.0918,805.5 L1109.0918,825.2969 L1335.5,825.2969 A2.5,2.5 0 0 1 1338,827.7969 L1338,1023.5 A2.5,2.5 0 0 1 1335.5,1026 L1033.5,1026 A2.5,2.5 0 0 1 1031,1023.5 L1031,805.5 A2.5,2.5 0 0 1 1033.5,803" fill="none" style="stroke:#000000;stroke-width:1.5;"/><line style="stroke:#000000;stroke-width:1.5;" x1="1031" x2="1109.0918" y1="825.2969" y2="825.2969"/><text fill="#000000" font-family="sans-serif" font-size="14" font-weight="bold" lengthAdjust="spacing" textLength="65.0918" x="1035" y="817.9951">member</text></g><!--cluster auth context--><g class="cluster" data-entity="auth context" data-source-line="66" data-uid="ent0035" id="cluster_auth context"><path d="M32.5,562 L134.2412,562 A3.75,3.75 0 0 1 136.7412,564.5 L143.7412,584.2969 L382.5,584.2969 A2.5,2.5 0 0 1 385,586.7969 L385,931.5 A2.5,2.5 0 0 1 382.5,934 L32.5,934 A2.5,2.5 0 0 1 30,931.5 L30,564.5 A2.5,2.5 0 0 1 32.5,562" fill="none" style="stroke:#000000;stroke-width:1.5;"/><line style="stroke:#000000;stroke-width:1.5;" x1="30" x2="143.7412" y1="584.2969" y2="584.2969"/><text fill="#000000" font-family="sans-serif" font-size="14" font-weight="bold" lengthAdjust="spacing" textLength="100.7412" x="34" y="576.9951">auth context</text></g><!--cluster Auth--><g class="cluster" data-entity="Auth" data-source-line="67" data-uid="ent0036" id="cluster_Auth"><path d="M56.5,605 L94.9609,605 A3.75,3.75 0 0 1 97.4609,607.5 L104.4609,627.2969 L358.5,627.2969 A2.5,2.5 0 0 1 361,629.7969 L361,907.5 A2.5,2.5 0 0 1 358.5,910 L56.5,910 A2.5,2.5 0 0 1 54,907.5 L54,607.5 A2.5,2.5 0 0 1 56.5,605" fill="none" style="stroke:#000000;stroke-width:1.5;"/><line style="stroke:#000000;stroke-width:1.5;" x1="54" x2="104.4609" y1="627.2969" y2="627.2969"/><text fill="#000000" font-family="sans-serif" font-size="14" font-weight="bold" lengthAdjust="spacing" textLength="37.4609" x="58" y="619.9951">Auth</text></g><!--class Board--><g class="entity" data-entity="Board" data-source-line="5" data-uid="ent0005" id="entity_Board"><rect fill="#F1F1F1" height="56.2656" rx="2.5" ry="2.5" style="stroke:#181818;stroke-width:0.5;" width="137.1719" x="1171.5" y="243"/><ellipse cx="1186.5" cy="263.1328" fill="#A9DCDF" rx="11" ry="11" style="stroke:#181818;stroke-width:1;"/><path d="M1186.6094,258.4766 L1185.4531,263.5547 L1187.7813,263.5547 L1186.6094,258.4766 Z M1185.125,256.2422 L1188.1094,256.2422 L1191.4688,268.6328 L1189.0156,268.6328 L1188.25,265.5703 L1184.9688,265.5703 L1184.2188,268.6328 L1181.7813,268.6328 L1185.125,256.2422 Z " fill="#000000"/><text fill="#000000" font-family="sans-serif" font-size="12" font-style="italic" lengthAdjust="spacing" textLength="109.1719" x="1198.5" y="259.1387">&#171;Aggregate Root&#187;</text><text fill="#000000" font-family="sans-serif" font-size="14" font-style="italic" lengthAdjust="spacing" textLength="41.3916" x="1232.3901" y="274.9639">Board</text><line style="stroke:#181818;stroke-width:0.5;" x1="1172.5" x2="1307.6719" y1="283.2656" y2="283.2656"/><line style="stroke:#181818;stroke-width:0.5;" x1="1172.5" x2="1307.6719" y1="291.2656" y2="291.2656"/></g><!--class Post--><g class="entity" data-entity="Post" data-source-line="10" data-uid="ent0007" id="entity_Post"><rect fill="#F1F1F1" height="56.2656" rx="2.5" ry="2.5" style="stroke:#181818;stroke-width:0.5;" width="137.1719" x="908.5" y="374"/><ellipse cx="923.5" cy="394.1328" fill="#A9DCDF" rx="11" ry="11" style="stroke:#181818;stroke-width:1;"/><path d="M923.6094,389.4766 L922.4531,394.5547 L924.7813,394.5547 L923.6094,389.4766 Z M922.125,387.2422 L925.1094,387.2422 L928.4688,399.6328 L926.0156,399.6328 L925.25,396.5703 L921.9688,396.5703 L921.2188,399.6328 L918.7813,399.6328 L922.125,387.2422 Z " fill="#000000"/><text fill="#000000" font-family="sans-serif" font-size="12" font-style="italic" lengthAdjust="spacing" textLength="109.1719" x="935.5" y="390.1387">&#171;Aggregate Root&#187;</text><text fill="#000000" font-family="sans-serif" font-size="14" font-style="italic" lengthAdjust="spacing" textLength="29.791" x="975.1904" y="405.9639">Post</text><line style="stroke:#181818;stroke-width:0.5;" x1="909.5" x2="1044.6719" y1="414.2656" y2="414.2656"/><line style="stroke:#181818;stroke-width:0.5;" x1="909.5" x2="1044.6719" y1="422.2656" y2="422.2656"/></g><!--class GuestPost--><g class="entity" data-entity="GuestPost" data-source-line="12" data-uid="ent0008" id="entity_GuestPost"><rect fill="#F1F1F1" height="56.2656" rx="2.5" ry="2.5" style="stroke:#181818;stroke-width:0.5;" width="102.9092" x="857.5" y="243"/><ellipse cx="872.5" cy="263.1328" fill="#ADD1B2" rx="11" ry="11" style="stroke:#181818;stroke-width:1;"/><path d="M875.4688,268.7734 Q874.8906,269.0703 874.25,269.2109 Q873.6094,269.3672 872.9063,269.3672 Q870.4063,269.3672 869.0781,267.7266 Q867.7656,266.0703 867.7656,262.9453 Q867.7656,259.8203 869.0781,258.1641 Q870.4063,256.5078 872.9063,256.5078 Q873.6094,256.5078 874.25,256.6641 Q874.9063,256.8203 875.4688,257.1172 L875.4688,259.8359 Q874.8438,259.2578 874.25,258.9922 Q873.6563,258.7109 873.0313,258.7109 Q871.6875,258.7109 871,259.7891 Q870.3125,260.8516 870.3125,262.9453 Q870.3125,265.0391 871,266.1172 Q871.6875,267.1797 873.0313,267.1797 Q873.6563,267.1797 874.25,266.9141 Q874.8438,266.6328 875.4688,266.0547 L875.4688,268.7734 Z " fill="#000000"/><text fill="#000000" font-family="sans-serif" font-size="12" font-style="italic" lengthAdjust="spacing" textLength="72.5625" x="885.6733" y="259.1387">&#171;ImplClass&#187;</text><text fill="#000000" font-family="sans-serif" font-size="14" lengthAdjust="spacing" textLength="70.9092" x="886.5" y="274.9639">GuestPost</text><line style="stroke:#181818;stroke-width:0.5;" x1="858.5" x2="959.4092" y1="283.2656" y2="283.2656"/><line style="stroke:#181818;stroke-width:0.5;" x1="858.5" x2="959.4092" y1="291.2656" y2="291.2656"/></g><!--class MemberPost--><g class="entity" data-entity="MemberPost" data-source-line="14" data-uid="ent0009" id="entity_MemberPost"><rect fill="#F1F1F1" height="56.2656" rx="2.5" ry="2.5" style="stroke:#181818;stroke-width:0.5;" width="119.377" x="995.5" y="243"/><ellipse cx="1010.5" cy="263.1328" fill="#ADD1B2" rx="11" ry="11" style="stroke:#181818;stroke-width:1;"/><path d="M1013.4688,268.7734 Q1012.8906,269.0703 1012.25,269.2109 Q1011.6094,269.3672 1010.9063,269.3672 Q1008.4063,269.3672 1007.0781,267.7266 Q1005.7656,266.0703 1005.7656,262.9453 Q1005.7656,259.8203 1007.0781,258.1641 Q1008.4063,256.5078 1010.9063,256.5078 Q1011.6094,256.5078 1012.25,256.6641 Q1012.9063,256.8203 1013.4688,257.1172 L1013.4688,259.8359 Q1012.8438,259.2578 1012.25,258.9922 Q1011.6563,258.7109 1011.0313,258.7109 Q1009.6875,258.7109 1009,259.7891 Q1008.3125,260.8516 1008.3125,262.9453 Q1008.3125,265.0391 1009,266.1172 Q1009.6875,267.1797 1011.0313,267.1797 Q1011.6563,267.1797 1012.25,266.9141 Q1012.8438,266.6328 1013.4688,266.0547 L1013.4688,268.7734 Z " fill="#000000"/><text fill="#000000" font-family="sans-serif" font-size="12" font-style="italic" lengthAdjust="spacing" textLength="72.5625" x="1031.9072" y="259.1387">&#171;ImplClass&#187;</text><text fill="#000000" font-family="sans-serif" font-size="14" lengthAdjust="spacing" textLength="87.377" x="1024.5" y="274.9639">MemberPost</text><line style="stroke:#181818;stroke-width:0.5;" x1="996.5" x2="1113.877" y1="283.2656" y2="283.2656"/><line style="stroke:#181818;stroke-width:0.5;" x1="996.5" x2="1113.877" y1="291.2656" y2="291.2656"/></g><!--class HashTag--><g class="entity" data-entity="HashTag" data-source-line="17" data-uid="ent0010" id="entity_HashTag"><rect fill="#F1F1F1" height="56.2656" rx="2.5" ry="2.5" style="stroke:#181818;stroke-width:0.5;" width="93.291" x="853.5" y="640"/><ellipse cx="868.5" cy="660.1328" fill="#ADD1B2" rx="11" ry="11" style="stroke:#181818;stroke-width:1;"/><path d="M872.6094,666.1328 L864.8906,666.1328 L864.8906,653.7422 L872.6094,653.7422 L872.6094,655.8984 L867.3438,655.8984 L867.3438,658.5703 L872.1094,658.5703 L872.1094,660.7266 L867.3438,660.7266 L867.3438,663.9766 L872.6094,663.9766 L872.6094,666.1328 Z " fill="#000000"/><text fill="#000000" font-family="sans-serif" font-size="12" font-style="italic" lengthAdjust="spacing" textLength="49.8457" x="888.2227" y="656.1387">&#171;Entity&#187;</text><text fill="#000000" font-family="sans-serif" font-size="14" lengthAdjust="spacing" textLength="61.291" x="882.5" y="671.9639">HashTag</text><line style="stroke:#181818;stroke-width:0.5;" x1="854.5" x2="945.791" y1="680.2656" y2="680.2656"/><line style="stroke:#181818;stroke-width:0.5;" x1="854.5" x2="945.791" y1="688.2656" y2="688.2656"/></g><!--class Tags--><g class="entity" data-entity="Tags" data-source-line="19" data-uid="ent0011" id="entity_Tags"><rect fill="#F1F1F1" height="56.2656" rx="2.5" ry="2.5" style="stroke:#181818;stroke-width:0.5;" width="119.5938" x="840" y="490"/><ellipse cx="855" cy="510.1328" fill="#F1F1F1" rx="11" ry="11" style="stroke:#181818;stroke-width:1;"/><path d="M854.4844,510.6953 Q852.625,509.9922 851.9688,509.2266 Q851.3281,508.4453 851.3281,507.1328 Q851.3281,505.4453 852.4063,504.4766 Q853.4844,503.5078 855.3594,503.5078 Q856.2188,503.5078 857.0625,503.7109 Q857.9219,503.8984 858.7656,504.2891 L858.7656,506.6797 Q857.9844,506.1172 857.1563,505.8359 Q856.3438,505.5391 855.5469,505.5391 Q854.6719,505.5391 854.1875,505.8984 Q853.7188,506.2578 853.7188,506.9141 Q853.7188,507.4297 854.0625,507.7734 Q854.4063,508.1016 855.5,508.5078 L856.5625,508.9141 Q858.0469,509.4609 858.75,510.3672 Q859.4688,511.2734 859.4688,512.6484 Q859.4688,514.5234 858.3594,515.4453 Q857.25,516.3672 855,516.3672 Q854.0781,516.3672 853.1563,516.1484 Q852.2344,515.9297 851.375,515.5078 L851.375,512.9766 Q852.3438,513.6641 853.2656,514.0078 Q854.1875,514.3516 855.0781,514.3516 Q855.9844,514.3516 856.4844,513.9453 Q856.9844,513.5234 856.9844,512.7891 Q856.9844,512.2266 856.6406,511.8203 Q856.3125,511.3984 855.6875,511.1484 L854.4844,510.6953 Z " fill="#000000"/><text fill="#000000" font-family="sans-serif" font-size="12" font-style="italic" lengthAdjust="spacing" textLength="91.5938" x="867" y="506.1387">&#171;Value Object&#187;</text><text fill="#000000" font-family="sans-serif" font-size="14" lengthAdjust="spacing" textLength="33.3115" x="896.1411" y="521.9639">Tags</text><line style="stroke:#181818;stroke-width:0.5;" x1="841" x2="958.5938" y1="530.2656" y2="530.2656"/><line style="stroke:#181818;stroke-width:0.5;" x1="841" x2="958.5938" y1="538.2656" y2="538.2656"/></g><!--class PostLike--><g class="entity" data-entity="PostLike" data-source-line="24" data-uid="ent0014" id="entity_PostLike"><rect fill="#F1F1F1" height="56.2656" rx="2.5" ry="2.5" style="stroke:#181818;stroke-width:0.5;" width="90.2012" x="1017" y="640"/><ellipse cx="1032" cy="660.1328" fill="#ADD1B2" rx="11" ry="11" style="stroke:#181818;stroke-width:1;"/><path d="M1036.1094,666.1328 L1028.3906,666.1328 L1028.3906,653.7422 L1036.1094,653.7422 L1036.1094,655.8984 L1030.8438,655.8984 L1030.8438,658.5703 L1035.6094,658.5703 L1035.6094,660.7266 L1030.8438,660.7266 L1030.8438,663.9766 L1036.1094,663.9766 L1036.1094,666.1328 Z " fill="#000000"/><text fill="#000000" font-family="sans-serif" font-size="12" font-style="italic" lengthAdjust="spacing" textLength="49.8457" x="1050.1777" y="656.1387">&#171;Entity&#187;</text><text fill="#000000" font-family="sans-serif" font-size="14" lengthAdjust="spacing" textLength="58.2012" x="1046" y="671.9639">PostLike</text><line style="stroke:#181818;stroke-width:0.5;" x1="1018" x2="1106.2012" y1="680.2656" y2="680.2656"/><line style="stroke:#181818;stroke-width:0.5;" x1="1018" x2="1106.2012" y1="688.2656" y2="688.2656"/></g><!--class Likes--><g class="entity" data-entity="Likes" data-source-line="26" data-uid="ent0015" id="entity_Likes"><rect fill="#F1F1F1" height="56.2656" rx="2.5" ry="2.5" style="stroke:#181818;stroke-width:0.5;" width="119.5938" x="995" y="490"/><ellipse cx="1010" cy="510.1328" fill="#F1F1F1" rx="11" ry="11" style="stroke:#181818;stroke-width:1;"/><path d="M1009.4844,510.6953 Q1007.625,509.9922 1006.9688,509.2266 Q1006.3281,508.4453 1006.3281,507.1328 Q1006.3281,505.4453 1007.4063,504.4766 Q1008.4844,503.5078 1010.3594,503.5078 Q1011.2188,503.5078 1012.0625,503.7109 Q1012.9219,503.8984 1013.7656,504.2891 L1013.7656,506.6797 Q1012.9844,506.1172 1012.1563,505.8359 Q1011.3438,505.5391 1010.5469,505.5391 Q1009.6719,505.5391 1009.1875,505.8984 Q1008.7188,506.2578 1008.7188,506.9141 Q1008.7188,507.4297 1009.0625,507.7734 Q1009.4063,508.1016 1010.5,508.5078 L1011.5625,508.9141 Q1013.0469,509.4609 1013.75,510.3672 Q1014.4688,511.2734 1014.4688,512.6484 Q1014.4688,514.5234 1013.3594,515.4453 Q1012.25,516.3672 1010,516.3672 Q1009.0781,516.3672 1008.1563,516.1484 Q1007.2344,515.9297 1006.375,515.5078 L1006.375,512.9766 Q1007.3438,513.6641 1008.2656,514.0078 Q1009.1875,514.3516 1010.0781,514.3516 Q1010.9844,514.3516 1011.4844,513.9453 Q1011.9844,513.5234 1011.9844,512.7891 Q1011.9844,512.2266 1011.6406,511.8203 Q1011.3125,511.3984 1010.6875,511.1484 L1009.4844,510.6953 Z " fill="#000000"/><text fill="#000000" font-family="sans-serif" font-size="12" font-style="italic" lengthAdjust="spacing" textLength="91.5938" x="1022" y="506.1387">&#171;Value Object&#187;</text><text fill="#000000" font-family="sans-serif" font-size="14" lengthAdjust="spacing" textLength="35.7041" x="1049.9448" y="521.9639">Likes</text><line style="stroke:#181818;stroke-width:0.5;" x1="996" x2="1113.5938" y1="530.2656" y2="530.2656"/><line style="stroke:#181818;stroke-width:0.5;" x1="996" x2="1113.5938" y1="538.2656" y2="538.2656"/></g><!--class Comment--><g class="entity" data-entity="Comment" data-source-line="33" data-uid="ent0019" id="entity_Comment"><rect fill="#F1F1F1" height="56.2656" rx="2.5" ry="2.5" style="stroke:#181818;stroke-width:0.5;" width="137.1719" x="628.5" y="243"/><ellipse cx="643.5" cy="263.1328" fill="#A9DCDF" rx="11" ry="11" style="stroke:#181818;stroke-width:1;"/><path d="M643.6094,258.4766 L642.4531,263.5547 L644.7813,263.5547 L643.6094,258.4766 Z M642.125,256.2422 L645.1094,256.2422 L648.4688,268.6328 L646.0156,268.6328 L645.25,265.5703 L641.9688,265.5703 L641.2188,268.6328 L638.7813,268.6328 L642.125,256.2422 Z " fill="#000000"/><text fill="#000000" font-family="sans-serif" font-size="12" font-style="italic" lengthAdjust="spacing" textLength="109.1719" x="655.5" y="259.1387">&#171;Aggregate Root&#187;</text><text fill="#000000" font-family="sans-serif" font-size="14" font-style="italic" lengthAdjust="spacing" textLength="68.5918" x="675.79" y="274.9639">Comment</text><line style="stroke:#181818;stroke-width:0.5;" x1="629.5" x2="764.6719" y1="283.2656" y2="283.2656"/><line style="stroke:#181818;stroke-width:0.5;" x1="629.5" x2="764.6719" y1="291.2656" y2="291.2656"/></g><!--class GuestComment--><g class="entity" data-entity="GuestComment" data-source-line="35" data-uid="ent0020" id="entity_GuestComment"><rect fill="#F1F1F1" height="56.2656" rx="2.5" ry="2.5" style="stroke:#181818;stroke-width:0.5;" width="141.71" x="449" y="127"/><ellipse cx="464" cy="147.1328" fill="#ADD1B2" rx="11" ry="11" style="stroke:#181818;stroke-width:1;"/><path d="M466.9688,152.7734 Q466.3906,153.0703 465.75,153.2109 Q465.1094,153.3672 464.4063,153.3672 Q461.9063,153.3672 460.5781,151.7266 Q459.2656,150.0703 459.2656,146.9453 Q459.2656,143.8203 460.5781,142.1641 Q461.9063,140.5078 464.4063,140.5078 Q465.1094,140.5078 465.75,140.6641 Q466.4063,140.8203 466.9688,141.1172 L466.9688,143.8359 Q466.3438,143.2578 465.75,142.9922 Q465.1563,142.7109 464.5313,142.7109 Q463.1875,142.7109 462.5,143.7891 Q461.8125,144.8516 461.8125,146.9453 Q461.8125,149.0391 462.5,150.1172 Q463.1875,151.1797 464.5313,151.1797 Q465.1563,151.1797 465.75,150.9141 Q466.3438,150.6328 466.9688,150.0547 L466.9688,152.7734 Z " fill="#000000"/><text fill="#000000" font-family="sans-serif" font-size="12" font-style="italic" lengthAdjust="spacing" textLength="72.5625" x="496.5737" y="143.1387">&#171;ImplClass&#187;</text><text fill="#000000" font-family="sans-serif" font-size="14" lengthAdjust="spacing" textLength="109.71" x="478" y="158.9639">GuestComment</text><line style="stroke:#181818;stroke-width:0.5;" x1="450" x2="589.71" y1="167.2656" y2="167.2656"/><line style="stroke:#181818;stroke-width:0.5;" x1="450" x2="589.71" y1="175.2656" y2="175.2656"/></g><!--class MemberComment--><g class="entity" data-entity="MemberComment" data-source-line="37" data-uid="ent0021" id="entity_MemberComment"><rect fill="#F1F1F1" height="56.2656" rx="2.5" ry="2.5" style="stroke:#181818;stroke-width:0.5;" width="158.1777" x="626" y="127"/><ellipse cx="641" cy="147.1328" fill="#ADD1B2" rx="11" ry="11" style="stroke:#181818;stroke-width:1;"/><path d="M643.9688,152.7734 Q643.3906,153.0703 642.75,153.2109 Q642.1094,153.3672 641.4063,153.3672 Q638.9063,153.3672 637.5781,151.7266 Q636.2656,150.0703 636.2656,146.9453 Q636.2656,143.8203 637.5781,142.1641 Q638.9063,140.5078 641.4063,140.5078 Q642.1094,140.5078 642.75,140.6641 Q643.4063,140.8203 643.9688,141.1172 L643.9688,143.8359 Q643.3438,143.2578 642.75,142.9922 Q642.1563,142.7109 641.5313,142.7109 Q640.1875,142.7109 639.5,143.7891 Q638.8125,144.8516 638.8125,146.9453 Q638.8125,149.0391 639.5,150.1172 Q640.1875,151.1797 641.5313,151.1797 Q642.1563,151.1797 642.75,150.9141 Q643.3438,150.6328 643.9688,150.0547 L643.9688,152.7734 Z " fill="#000000"/><text fill="#000000" font-family="sans-serif" font-size="12" font-style="italic" lengthAdjust="spacing" textLength="72.5625" x="681.8076" y="143.1387">&#171;ImplClass&#187;</text><text fill="#000000" font-family="sans-serif" font-size="14" lengthAdjust="spacing" textLength="126.1777" x="655" y="158.9639">MemberComment</text><line style="stroke:#181818;stroke-width:0.5;" x1="627" x2="783.1777" y1="167.2656" y2="167.2656"/><line style="stroke:#181818;stroke-width:0.5;" x1="627" x2="783.1777" y1="175.2656" y2="175.2656"/></g><!--class UserBoardRole--><g class="entity" data-entity="UserBoardRole" data-source-line="42" data-uid="ent0023" id="entity_UserBoardRole"><rect fill="#F1F1F1" height="56.2656" rx="2.5" ry="2.5" style="stroke:#181818;stroke-width:0.5;" width="137.1719" x="1171.5" y="374"/><ellipse cx="1186.5" cy="394.1328" fill="#A9DCDF" rx="11" ry="11" style="stroke:#181818;stroke-width:1;"/><path d="M1186.6094,389.4766 L1185.4531,394.5547 L1187.7813,394.5547 L1186.6094,389.4766 Z M1185.125,387.2422 L1188.1094,387.2422 L1191.4688,399.6328 L1189.0156,399.6328 L1188.25,396.5703 L1184.9688,396.5703 L1184.2188,399.6328 L1181.7813,399.6328 L1185.125,387.2422 Z " fill="#000000"/><text fill="#000000" font-family="sans-serif" font-size="12" font-style="italic" lengthAdjust="spacing" textLength="109.1719" x="1198.5" y="390.1387">&#171;Aggregate Root&#187;</text><text fill="#000000" font-family="sans-serif" font-size="14" font-style="italic" lengthAdjust="spacing" textLength="104.0977" x="1201.0371" y="405.9639">UserBoardRole</text><line style="stroke:#181818;stroke-width:0.5;" x1="1172.5" x2="1307.6719" y1="414.2656" y2="414.2656"/><line style="stroke:#181818;stroke-width:0.5;" x1="1172.5" x2="1307.6719" y1="422.2656" y2="422.2656"/></g><!--class Member--><g class="entity" data-entity="Member" data-source-line="55" data-uid="ent0030" id="entity_Member"><rect fill="#F1F1F1" height="56.2656" rx="2.5" ry="2.5" style="stroke:#181818;stroke-width:0.5;" width="137.1719" x="1171.5" y="838"/><ellipse cx="1186.5" cy="858.1328" fill="#A9DCDF" rx="11" ry="11" style="stroke:#181818;stroke-width:1;"/><path d="M1186.6094,853.4766 L1185.4531,858.5547 L1187.7813,858.5547 L1186.6094,853.4766 Z M1185.125,851.2422 L1188.1094,851.2422 L1191.4688,863.6328 L1189.0156,863.6328 L1188.25,860.5703 L1184.9688,860.5703 L1184.2188,863.6328 L1181.7813,863.6328 L1185.125,851.2422 Z " fill="#000000"/><text fill="#000000" font-family="sans-serif" font-size="12" font-style="italic" lengthAdjust="spacing" textLength="109.1719" x="1198.5" y="854.1387">&#171;Aggregate Root&#187;</text><text fill="#000000" font-family="sans-serif" font-size="14" font-style="italic" lengthAdjust="spacing" textLength="57.5859" x="1224.293" y="869.9639">Member</text><line style="stroke:#181818;stroke-width:0.5;" x1="1172.5" x2="1307.6719" y1="878.2656" y2="878.2656"/><line style="stroke:#181818;stroke-width:0.5;" x1="1172.5" x2="1307.6719" y1="886.2656" y2="886.2656"/></g><!--class NickName--><g class="entity" data-entity="NickName" data-source-line="57" data-uid="ent0031" id="entity_NickName"><rect fill="#F1F1F1" height="56.2656" rx="2.5" ry="2.5" style="stroke:#181818;stroke-width:0.5;" width="119.5938" x="1047" y="954"/><ellipse cx="1062" cy="974.1328" fill="#F1F1F1" rx="11" ry="11" style="stroke:#181818;stroke-width:1;"/><path d="M1061.4844,974.6953 Q1059.625,973.9922 1058.9688,973.2266 Q1058.3281,972.4453 1058.3281,971.1328 Q1058.3281,969.4453 1059.4063,968.4766 Q1060.4844,967.5078 1062.3594,967.5078 Q1063.2188,967.5078 1064.0625,967.7109 Q1064.9219,967.8984 1065.7656,968.2891 L1065.7656,970.6797 Q1064.9844,970.1172 1064.1563,969.8359 Q1063.3438,969.5391 1062.5469,969.5391 Q1061.6719,969.5391 1061.1875,969.8984 Q1060.7188,970.2578 1060.7188,970.9141 Q1060.7188,971.4297 1061.0625,971.7734 Q1061.4063,972.1016 1062.5,972.5078 L1063.5625,972.9141 Q1065.0469,973.4609 1065.75,974.3672 Q1066.4688,975.2734 1066.4688,976.6484 Q1066.4688,978.5234 1065.3594,979.4453 Q1064.25,980.3672 1062,980.3672 Q1061.0781,980.3672 1060.1563,980.1484 Q1059.2344,979.9297 1058.375,979.5078 L1058.375,976.9766 Q1059.3438,977.6641 1060.2656,978.0078 Q1061.1875,978.3516 1062.0781,978.3516 Q1062.9844,978.3516 1063.4844,977.9453 Q1063.9844,977.5234 1063.9844,976.7891 Q1063.9844,976.2266 1063.6406,975.8203 Q1063.3125,975.3984 1062.6875,975.1484 L1061.4844,974.6953 Z " fill="#000000"/><text fill="#000000" font-family="sans-serif" font-size="12" font-style="italic" lengthAdjust="spacing" textLength="91.5938" x="1074" y="970.1387">&#171;Value Object&#187;</text><text fill="#000000" font-family="sans-serif" font-size="14" lengthAdjust="spacing" textLength="71.4697" x="1084.062" y="985.9639">NickName</text><line style="stroke:#181818;stroke-width:0.5;" x1="1048" x2="1165.5938" y1="994.2656" y2="994.2656"/><line style="stroke:#181818;stroke-width:0.5;" x1="1048" x2="1165.5938" y1="1002.2656" y2="1002.2656"/></g><!--class BirthYear--><g class="entity" data-entity="BirthYear" data-source-line="59" data-uid="ent0032" id="entity_BirthYear"><rect fill="#F1F1F1" height="56.2656" rx="2.5" ry="2.5" style="stroke:#181818;stroke-width:0.5;" width="119.5938" x="1202" y="954"/><ellipse cx="1217" cy="974.1328" fill="#F1F1F1" rx="11" ry="11" style="stroke:#181818;stroke-width:1;"/><path d="M1216.4844,974.6953 Q1214.625,973.9922 1213.9688,973.2266 Q1213.3281,972.4453 1213.3281,971.1328 Q1213.3281,969.4453 1214.4063,968.4766 Q1215.4844,967.5078 1217.3594,967.5078 Q1218.2188,967.5078 1219.0625,967.7109 Q1219.9219,967.8984 1220.7656,968.2891 L1220.7656,970.6797 Q1219.9844,970.1172 1219.1563,969.8359 Q1218.3438,969.5391 1217.5469,969.5391 Q1216.6719,969.5391 1216.1875,969.8984 Q1215.7188,970.2578 1215.7188,970.9141 Q1215.7188,971.4297 1216.0625,971.7734 Q1216.4063,972.1016 1217.5,972.5078 L1218.5625,972.9141 Q1220.0469,973.4609 1220.75,974.3672 Q1221.4688,975.2734 1221.4688,976.6484 Q1221.4688,978.5234 1220.3594,979.4453 Q1219.25,980.3672 1217,980.3672 Q1216.0781,980.3672 1215.1563,980.1484 Q1214.2344,979.9297 1213.375,979.5078 L1213.375,976.9766 Q1214.3438,977.6641 1215.2656,978.0078 Q1216.1875,978.3516 1217.0781,978.3516 Q1217.9844,978.3516 1218.4844,977.9453 Q1218.9844,977.5234 1218.9844,976.7891 Q1218.9844,976.2266 1218.6406,975.8203 Q1218.3125,975.3984 1217.6875,975.1484 L1216.4844,974.6953 Z " fill="#000000"/><text fill="#000000" font-family="sans-serif" font-size="12" font-style="italic" lengthAdjust="spacing" textLength="91.5938" x="1229" y="970.1387">&#171;Value Object&#187;</text><text fill="#000000" font-family="sans-serif" font-size="14" lengthAdjust="spacing" textLength="65.1123" x="1242.2407" y="985.9639">BirthYear</text><line style="stroke:#181818;stroke-width:0.5;" x1="1203" x2="1320.5938" y1="994.2656" y2="994.2656"/><line style="stroke:#181818;stroke-width:0.5;" x1="1203" x2="1320.5938" y1="1002.2656" y2="1002.2656"/></g><!--class AuthCredential--><g class="entity" data-entity="AuthCredential" data-source-line="68" data-uid="ent0037" id="entity_AuthCredential"><rect fill="#F1F1F1" height="56.2656" rx="2.5" ry="2.5" style="stroke:#181818;stroke-width:0.5;" width="137.1777" x="207.5" y="640"/><ellipse cx="222.5" cy="660.1328" fill="#A9DCDF" rx="11" ry="11" style="stroke:#181818;stroke-width:1;"/><path d="M222.6094,655.4766 L221.4531,660.5547 L223.7813,660.5547 L222.6094,655.4766 Z M221.125,653.2422 L224.1094,653.2422 L227.4688,665.6328 L225.0156,665.6328 L224.25,662.5703 L220.9688,662.5703 L220.2188,665.6328 L217.7813,665.6328 L221.125,653.2422 Z " fill="#000000"/><text fill="#000000" font-family="sans-serif" font-size="12" font-style="italic" lengthAdjust="spacing" textLength="109.1719" x="234.5029" y="656.1387">&#171;Aggregate Root&#187;</text><text fill="#000000" font-family="sans-serif" font-size="14" font-style="italic" lengthAdjust="spacing" textLength="105.1777" x="236.5" y="671.9639">AuthCredential</text><line style="stroke:#181818;stroke-width:0.5;" x1="208.5" x2="343.6777" y1="680.2656" y2="680.2656"/><line style="stroke:#181818;stroke-width:0.5;" x1="208.5" x2="343.6777" y1="688.2656" y2="688.2656"/></g><!--class Email--><g class="entity" data-entity="Email" data-source-line="70" data-uid="ent0038" id="entity_Email"><rect fill="#F1F1F1" height="56.2656" rx="2.5" ry="2.5" style="stroke:#181818;stroke-width:0.5;" width="119.5938" x="70" y="838"/><ellipse cx="85" cy="858.1328" fill="#F1F1F1" rx="11" ry="11" style="stroke:#181818;stroke-width:1;"/><path d="M84.4844,858.6953 Q82.625,857.9922 81.9688,857.2266 Q81.3281,856.4453 81.3281,855.1328 Q81.3281,853.4453 82.4063,852.4766 Q83.4844,851.5078 85.3594,851.5078 Q86.2188,851.5078 87.0625,851.7109 Q87.9219,851.8984 88.7656,852.2891 L88.7656,854.6797 Q87.9844,854.1172 87.1563,853.8359 Q86.3438,853.5391 85.5469,853.5391 Q84.6719,853.5391 84.1875,853.8984 Q83.7188,854.2578 83.7188,854.9141 Q83.7188,855.4297 84.0625,855.7734 Q84.4063,856.1016 85.5,856.5078 L86.5625,856.9141 Q88.0469,857.4609 88.75,858.3672 Q89.4688,859.2734 89.4688,860.6484 Q89.4688,862.5234 88.3594,863.4453 Q87.25,864.3672 85,864.3672 Q84.0781,864.3672 83.1563,864.1484 Q82.2344,863.9297 81.375,863.5078 L81.375,860.9766 Q82.3438,861.6641 83.2656,862.0078 Q84.1875,862.3516 85.0781,862.3516 Q85.9844,862.3516 86.4844,861.9453 Q86.9844,861.5234 86.9844,860.7891 Q86.9844,860.2266 86.6406,859.8203 Q86.3125,859.3984 85.6875,859.1484 L84.4844,858.6953 Z " fill="#000000"/><text fill="#000000" font-family="sans-serif" font-size="12" font-style="italic" lengthAdjust="spacing" textLength="91.5938" x="97" y="854.1387">&#171;Value Object&#187;</text><text fill="#000000" font-family="sans-serif" font-size="14" lengthAdjust="spacing" textLength="38.8418" x="123.376" y="869.9639">Email</text><line style="stroke:#181818;stroke-width:0.5;" x1="71" x2="188.5938" y1="878.2656" y2="878.2656"/><line style="stroke:#181818;stroke-width:0.5;" x1="71" x2="188.5938" y1="886.2656" y2="886.2656"/></g><!--class Password--><g class="entity" data-entity="Password" data-source-line="72" data-uid="ent0039" id="entity_Password"><rect fill="#F1F1F1" height="56.2656" rx="2.5" ry="2.5" style="stroke:#181818;stroke-width:0.5;" width="119.5938" x="225" y="838"/><ellipse cx="240" cy="858.1328" fill="#F1F1F1" rx="11" ry="11" style="stroke:#181818;stroke-width:1;"/><path d="M239.4844,858.6953 Q237.625,857.9922 236.9688,857.2266 Q236.3281,856.4453 236.3281,855.1328 Q236.3281,853.4453 237.4063,852.4766 Q238.4844,851.5078 240.3594,851.5078 Q241.2188,851.5078 242.0625,851.7109 Q242.9219,851.8984 243.7656,852.2891 L243.7656,854.6797 Q242.9844,854.1172 242.1563,853.8359 Q241.3438,853.5391 240.5469,853.5391 Q239.6719,853.5391 239.1875,853.8984 Q238.7188,854.2578 238.7188,854.9141 Q238.7188,855.4297 239.0625,855.7734 Q239.4063,856.1016 240.5,856.5078 L241.5625,856.9141 Q243.0469,857.4609 243.75,858.3672 Q244.4688,859.2734 244.4688,860.6484 Q244.4688,862.5234 243.3594,863.4453 Q242.25,864.3672 240,864.3672 Q239.0781,864.3672 238.1563,864.1484 Q237.2344,863.9297 236.375,863.5078 L236.375,860.9766 Q237.3438,861.6641 238.2656,862.0078 Q239.1875,862.3516 240.0781,862.3516 Q240.9844,862.3516 241.4844,861.9453 Q241.9844,861.5234 241.9844,860.7891 Q241.9844,860.2266 241.6406,859.8203 Q241.3125,859.3984 240.6875,859.1484 L239.4844,858.6953 Z " fill="#000000"/><text fill="#000000" font-family="sans-serif" font-size="12" font-style="italic" lengthAdjust="spacing" textLength="91.5938" x="252" y="854.1387">&#171;Value Object&#187;</text><text fill="#000000" font-family="sans-serif" font-size="14" lengthAdjust="spacing" textLength="66.2676" x="264.6631" y="869.9639">Password</text><line style="stroke:#181818;stroke-width:0.5;" x1="226" x2="343.5938" y1="878.2656" y2="878.2656"/><line style="stroke:#181818;stroke-width:0.5;" x1="226" x2="343.5938" y1="886.2656" y2="886.2656"/></g><!--link Post to Tags--><g class="link" data-entity-1="Post" data-entity-2="Tags" data-source-line="21" data-uid="lnk12" id="link_Post_Tags"><path codeLine="21" d="M958.75,430.02 C946.57,448.06 930.6,471.7 918.38,489.78" fill="none" id="Post-Tags" style="stroke:#181818;stroke-width:1;"/></g><!--link Tags to HashTag--><g class="link" data-entity-1="Tags" data-entity-2="HashTag" data-source-line="22" data-uid="lnk13" id="link_Tags_HashTag"><path codeLine="22" d="M900,546.15 C900,572.77 900,607.13 900,633.78" fill="none" id="Tags-to-HashTag" style="stroke:#181818;stroke-width:1;"/><polygon fill="#181818" points="900,639.78,904,630.78,900,634.78,896,630.78,900,639.78" style="stroke:#181818;stroke-width:1;"/><text fill="#000000" font-family="sans-serif" font-size="13" lengthAdjust="spacing" textLength="8.271" x="891.1533" y="566.4456">1</text><text fill="#000000" font-family="sans-serif" font-size="13" lengthAdjust="spacing" textLength="9.7246" x="890.063" y="629.0186">N</text></g><!--link Post to Likes--><g class="link" data-entity-1="Post" data-entity-2="Likes" data-source-line="28" data-uid="lnk16" id="link_Post_Likes"><path codeLine="28" d="M995.48,430.02 C1007.83,448.06 1024.01,471.7 1036.38,489.78" fill="none" id="Post-Likes" style="stroke:#181818;stroke-width:1;"/></g><!--link Likes to PostLike--><g class="link" data-entity-1="Likes" data-entity-2="PostLike" data-source-line="29" data-uid="lnk17" id="link_Likes_PostLike"><path codeLine="29" d="M1056.28,546.15 C1057.54,572.77 1059.1666,607.1367 1060.4266,633.7867" fill="none" id="Likes-to-PostLike" style="stroke:#181818;stroke-width:1;"/><polygon fill="#181818" points="1060.71,639.78,1064.2805,630.6011,1060.4739,634.7856,1056.2894,630.9789,1060.71,639.78" style="stroke:#181818;stroke-width:1;"/><text fill="#000000" font-family="sans-serif" font-size="13" lengthAdjust="spacing" textLength="8.271" x="1047.7293" y="566.4456">1</text><text fill="#000000" font-family="sans-serif" font-size="13" lengthAdjust="spacing" textLength="9.7246" x="1050.5007" y="629.0186">N</text></g><!--link GuestPost to Post--><g class="link" data-entity-1="GuestPost" data-entity-2="Post" data-source-line="46" data-uid="lnk24" id="link_GuestPost_Post"><path codeLine="46" d="M923.26,299.04 C934.86,321.06 942.7646,336.0678 954.3646,358.0678" fill="none" id="GuestPost-to-Post" style="stroke:#181818;stroke-width:1;"/><polygon fill="none" points="962.76,373.99,959.672,355.2693,949.0572,360.8662,962.76,373.99" style="stroke:#181818;stroke-width:1;"/></g><!--link MemberPost to Post--><g class="link" data-entity-1="MemberPost" data-entity-2="Post" data-source-line="47" data-uid="lnk25" id="link_MemberPost_Post"><path codeLine="47" d="M1038.65,299.04 C1025.34,321.06 1015.9575,336.5892 1002.6475,358.5892" fill="none" id="MemberPost-to-Post" style="stroke:#181818;stroke-width:1;"/><polygon fill="none" points="993.33,373.99,1007.7811,361.695,997.5139,355.4834,993.33,373.99" style="stroke:#181818;stroke-width:1;"/></g><!--link GuestComment to Comment--><g class="link" data-entity-1="GuestComment" data-entity-2="Comment" data-source-line="48" data-uid="lnk26" id="link_GuestComment_Comment"><path codeLine="48" d="M561.95,183.02 C590.06,201.12 611.7968,215.1239 639.9168,233.2339" fill="none" id="GuestComment-to-Comment" style="stroke:#181818;stroke-width:1;"/><polygon fill="none" points="655.05,242.98,643.1656,228.1895,636.6681,238.2782,655.05,242.98" style="stroke:#181818;stroke-width:1;"/></g><!--link MemberComment to Comment--><g class="link" data-entity-1="MemberComment" data-entity-2="Comment" data-source-line="49" data-uid="lnk27" id="link_MemberComment_Comment"><path codeLine="49" d="M703.1,183.02 C701.84,201.06 701.4413,206.7442 700.1713,224.8242" fill="none" id="MemberComment-to-Comment" style="stroke:#181818;stroke-width:1;"/><polygon fill="none" points="698.91,242.78,706.1565,225.2447,694.186,224.4038,698.91,242.78" style="stroke:#181818;stroke-width:1;"/></g><!--link Member to NickName--><g class="link" data-entity-1="Member" data-entity-2="NickName" data-source-line="61" data-uid="lnk33" id="link_Member_NickName"><path codeLine="61" d="M1208.48,894.02 C1187.43,912.06 1159.85,935.7 1138.75,953.78" fill="none" id="Member-NickName" style="stroke:#181818;stroke-width:1;"/></g><!--link Member to BirthYear--><g class="link" data-entity-1="Member" data-entity-2="BirthYear" data-source-line="62" data-uid="lnk34" id="link_Member_BirthYear"><path codeLine="62" d="M1245.21,894.02 C1248.7,912.06 1253.26,935.7 1256.75,953.78" fill="none" id="Member-BirthYear" style="stroke:#181818;stroke-width:1;"/></g><!--link AuthCredential to Email--><g class="link" data-entity-1="AuthCredential" data-entity-2="Email" data-source-line="74" data-uid="lnk40" id="link_AuthCredential_Email"><path codeLine="74" d="M252.33,696.13 C238.69,712.1 221.44,732.85 207,752 C185.57,780.44 162.82,814.35 147.65,837.55" fill="none" id="AuthCredential-Email" style="stroke:#181818;stroke-width:1;"/></g><!--link AuthCredential to Password--><g class="link" data-entity-1="AuthCredential" data-entity-2="Password" data-source-line="75" data-uid="lnk41" id="link_AuthCredential_Password"><path codeLine="75" d="M277.25,696.25 C278.97,733.7 282.05,800.65 283.76,837.98" fill="none" id="AuthCredential-Password" style="stroke:#181818;stroke-width:1;"/></g><!--reverse link Board to UserBoardRole--><g class="link" data-entity-1="Board" data-entity-2="UserBoardRole" data-source-line="80" data-uid="lnk42" id="link_Board_UserBoardRole"><path codeLine="80" d="M1240,305.04 C1240,327.06 1240,351.99 1240,373.99" fill="none" id="Board-backto-UserBoardRole" style="stroke:#181818;stroke-width:1;stroke-dasharray:7.0,7.0;"/><polygon fill="#181818" points="1240,299.04,1236,308.04,1240,304.04,1244,308.04,1240,299.04" style="stroke:#181818;stroke-width:1;"/></g><!--reverse link Board to Post--><g class="link" data-entity-1="Board" data-entity-2="Post" data-source-line="81" data-uid="lnk43" id="link_Board_Post"><path codeLine="81" d="M1179.4832,301.6824 C1134.5932,323.7024 1076.93,351.99 1032.06,373.99" fill="none" id="Board-backto-Post" style="stroke:#181818;stroke-width:1;stroke-dasharray:7.0,7.0;"/><polygon fill="#181818" points="1184.87,299.04,1175.0282,299.4124,1180.381,301.242,1178.5514,306.5948,1184.87,299.04" style="stroke:#181818;stroke-width:1;"/></g><!--link AuthCredential to Member--><g class="link" data-entity-1="AuthCredential" data-entity-2="Member" data-source-line="83" data-uid="lnk44" id="link_AuthCredential_Member"><path codeLine="83" d="M344.56,682.94 C521.88,718.99 988.2903,813.8245 1165.5903,849.8745" fill="none" id="AuthCredential-to-Member" style="stroke:#181818;stroke-width:1;stroke-dasharray:7.0,7.0;"/><polygon fill="#181818" points="1171.47,851.07,1163.4475,845.3569,1166.5703,850.0737,1161.8535,853.1965,1171.47,851.07" style="stroke:#181818;stroke-width:1;"/></g><!--link UserBoardRole to Member--><g class="link" data-entity-1="UserBoardRole" data-entity-2="Member" data-source-line="84" data-uid="lnk45" id="link_UserBoardRole_Member"><path codeLine="84" d="M1240,430.18 C1240,512.09 1240,749.99 1240,831.86" fill="none" id="UserBoardRole-to-Member" style="stroke:#181818;stroke-width:1;stroke-dasharray:7.0,7.0;"/><polygon fill="#181818" points="1240,837.86,1244,828.86,1240,832.86,1236,828.86,1240,837.86" style="stroke:#181818;stroke-width:1;"/></g><!--link MemberPost to Member--><g class="link" data-entity-1="MemberPost" data-entity-2="Member" data-source-line="85" data-uid="lnk46" id="link_MemberPost_Member"><path codeLine="85" d="M1098.18,299.09 C1115.23,308.41 1135.41,317.8 1155,323 C1173.28,327.85 1311.95,317.32 1325,331 C1395.55,404.95 1286.5893,733.7929 1251.8493,832.0929" fill="none" id="MemberPost-to-Member" style="stroke:#181818;stroke-width:1;stroke-dasharray:7.0,7.0;"/><polygon fill="#181818" points="1249.85,837.75,1256.6203,830.5972,1251.5161,833.0357,1249.0775,827.9315,1249.85,837.75" style="stroke:#181818;stroke-width:1;"/></g><!--link PostLike to Member--><g class="link" data-entity-1="PostLike" data-entity-2="Member" data-source-line="86" data-uid="lnk47" id="link_PostLike_Member"><path codeLine="86" d="M1086.75,696.25 C1120.76,733.7 1177.5263,796.2082 1211.4263,833.5382" fill="none" id="PostLike-to-Member" style="stroke:#181818;stroke-width:1;stroke-dasharray:7.0,7.0;"/><polygon fill="#181818" points="1215.46,837.98,1212.3707,828.6282,1212.0986,834.2785,1206.4483,834.0064,1215.46,837.98" style="stroke:#181818;stroke-width:1;"/></g><!--link MemberComment to Member--><g class="link" data-entity-1="MemberComment" data-entity-2="Member" data-source-line="87" data-uid="lnk48" id="link_MemberComment_Member"><path codeLine="87" d="M784.15,156.62 C941.9,158.56 1283.95,166.62 1325,200 C1397.05,258.58 1382,308.14 1382,401 C1382,401 1382,401 1382,519 C1382,646.27 1302.1741,776.5361 1263.1541,832.9261" fill="none" id="MemberComment-to-Member" style="stroke:#181818;stroke-width:1;stroke-dasharray:7.0,7.0;"/><polygon fill="#181818" points="1259.74,837.86,1268.1505,832.7352,1262.5851,833.7484,1261.5719,828.183,1259.74,837.86" style="stroke:#181818;stroke-width:1;"/></g><!--link Comment to Post--><g class="link" data-entity-1="Comment" data-entity-2="Post" data-source-line="88" data-uid="lnk49" id="link_Comment_Post"><path codeLine="88" d="M755.7,299.04 C803.48,321.06 865.1602,349.4801 912.9302,371.4801" fill="none" id="Comment-to-Post" style="stroke:#181818;stroke-width:1;stroke-dasharray:7.0,7.0;"/><polygon fill="#181818" points="918.38,373.99,911.8785,366.592,913.8385,371.8984,908.532,373.8584,918.38,373.99" style="stroke:#181818;stroke-width:1;"/></g><!--link Comment to Comment--><g class="link" data-entity-1="Comment" data-entity-2="Comment" data-source-line="89" data-uid="lnk50" id="link_Comment_Comment"><path codeLine="89" d="M765.68,249.33 C785.34,250.18 800.5,257.41 800.5,271 C800.5,284.59 791.3344,291.5608 771.6744,292.4108" fill="none" id="Comment-to-Comment" style="stroke:#181818;stroke-width:1;"/><polygon fill="#181818" points="765.68,292.67,774.8444,296.2775,770.6753,292.454,774.4988,288.285,765.68,292.67" style="stroke:#181818;stroke-width:1;"/></g><!--SRC=[dLL1JuCm5BxpAnekdY3nlf1iow8cEfT5JJmMrZ0S359ArEXEUjlLNSnE_WOJ_Ks6_GTBAT02OmCk6_tUzrw_n_lQ05eBQ2EWMlwIe2S2F1Yeu4K1z0aopFGXdW4UeQPWDK00aWUQ8S7G8c30sBrUtxOniY51OEhxn33ay9LI_AiM2FoGxCi_eLYBzCbZkJ0CmLc4GiBP5rxW3fFLOuXNo3CHRiSysMs-u_LszxRz-_cL4BGa3da6vp2Stq2RPXonXUPqL7j4jLD2I1btq8qGk3OVa7L0ETkqfZ6Y1B1CwgbAGGEeOpNRZomY_bh7c_VuywDEGPBxqbcWTX8IHZSDZ2aXQIvHHRQdnkcoVC-Z6lODs325kyzOaQ33cBKYrwcBGeIP1wU-Y_Pfl1M3kfcri9EclHgiypacEAOAIZrYC7yfqMj3564NkMIFnJUTM6c4r8sy5scr0qqGFnYVvB5ZBSRGGut3NCCRE9ZCxn74HnFv3ga7ifgrO9vOaPEKsmKZCczgLf_YsQLGwLO23Z6Q9OS0T5kQX7TWv477RNK6SEA4kk7HPzVByTpIZccZMFq3CLcfQY_PBx_bT5ssKWbZSw_K5D1rWtyuXifsB862cKf8VWBNCZB_b41nEVTbuJN1Qgj_]--></g></svg>