<svg xmlns="http://www.w3.org/2000/svg" xmlns:xlink="http://www.w3.org/1999/xlink" contentStyleType="text/css" data-diagram-type="SEQUENCE" height="542px" preserveAspectRatio="none" style="width:1037px;height:542px;background:#FFFFFF;" version="1.1" viewBox="0 0 1037 542" width="1037px" zoomAndPan="magnify"><title>Sequence: enrollBlacklist (or logout)</title><defs/><g><text fill="#000000" font-family="sans-serif" font-size="14" font-weight="bold" lengthAdjust="spacing" textLength="289.8096" x="374.7913" y="27.9951">Sequence: enrollBlacklist (or logout)</text><rect fill="none" height="221.5391" style="stroke:#000000;stroke-width:1.5;" width="1020.3921" x="10" y="222.9922"/><g><title>Caller</title><rect fill="#000000" fill-opacity="0.00000" height="342.9375" width="8" x="39.2515" y="118.5938"/><line style="stroke:#181818;stroke-width:0.5;stroke-dasharray:5.0,5.0;" x1="43" x2="43" y1="118.5938" y2="461.5313"/></g><g><title>TokenDomainService</title><rect fill="#000000" fill-opacity="0.00000" height="342.9375" width="8" x="349.7212" y="118.5938"/><line style="stroke:#181818;stroke-width:0.5;stroke-dasharray:5.0,5.0;" x1="353.3325" x2="353.3325" y1="118.5938" y2="461.5313"/></g><g><title>TokenProvider</title><rect fill="#000000" fill-opacity="0.00000" height="342.9375" width="8" x="635.3145" y="118.5938"/><line style="stroke:#181818;stroke-width:0.5;stroke-dasharray:5.0,5.0;" x1="638.8618" x2="638.8618" y1="118.5938" y2="461.5313"/></g><g><title>ClockManager</title><rect fill="#000000" fill-opacity="0.00000" height="342.9375" width="8" x="759.4678" y="118.5938"/><line style="stroke:#181818;stroke-width:0.5;stroke-dasharray:5.0,5.0;" x1="762.7671" x2="762.7671" y1="118.5938" y2="461.5313"/></g><g><title>TokenBlacklistRepository</title><rect fill="#000000" fill-opacity="0.00000" height="342.9375" width="8" x="921.2803" y="118.5938"/><line style="stroke:#181818;stroke-width:0.5;stroke-dasharray:5.0,5.0;" x1="925.1685" x2="925.1685" y1="118.5938" y2="461.5313"/></g><g class="participant participant-head" data-participant="Caller"><text fill="#000000" font-family="sans-serif" font-size="14" lengthAdjust="spacing" textLength="40.5029" x="20" y="115.292">Caller</text><ellipse cx="43.2515" cy="50.7969" fill="#E2E2F0" rx="8" ry="8" style="stroke:#181818;stroke-width:0.5;"/><path d="M43.2515,58.7969 L43.2515,85.7969 M30.2515,66.7969 L56.2515,66.7969 M43.2515,85.7969 L30.2515,100.7969 M43.2515,85.7969 L56.2515,100.7969" fill="none" style="stroke:#181818;stroke-width:0.5;"/></g><g class="participant participant-tail" data-participant="Caller"><text fill="#000000" font-family="sans-serif" font-size="14" lengthAdjust="spacing" textLength="40.5029" x="20" y="473.5264">Caller</text><ellipse cx="43.2515" cy="485.3281" fill="#E2E2F0" rx="8" ry="8" style="stroke:#181818;stroke-width:0.5;"/><path d="M43.2515,493.3281 L43.2515,520.3281 M30.2515,501.3281 L56.2515,501.3281 M43.2515,520.3281 L30.2515,535.3281 M43.2515,520.3281 L56.2515,535.3281" fill="none" style="stroke:#181818;stroke-width:0.5;"/></g><g class="participant participant-head" data-participant="TDS"><rect fill="#E2E2F0" height="30.2969" rx="2.5" ry="2.5" style="stroke:#181818;stroke-width:0.5;" width="162.7773" x="272.3325" y="87.2969"/><text fill="#000000" font-family="sans-serif" font-size="14" lengthAdjust="spacing" textLength="148.7773" x="279.3325" y="107.292">TokenDomainService</text></g><g class="participant participant-tail" data-participant="TDS"><rect fill="#E2E2F0" height="30.2969" rx="2.5" ry="2.5" style="stroke:#181818;stroke-width:0.5;" width="162.7773" x="272.3325" y="460.5313"/><text fill="#000000" font-family="sans-serif" font-size="14" lengthAdjust="spacing" textLength="148.7773" x="279.3325" y="480.5264">TokenDomainService</text></g><g class="participant participant-head" data-participant="TP"><rect fill="#E2E2F0" height="30.2969" rx="2.5" ry="2.5" style="stroke:#181818;stroke-width:0.5;" width="114.9053" x="581.8618" y="87.2969"/><text fill="#000000" font-family="sans-serif" font-size="14" lengthAdjust="spacing" textLength="100.9053" x="588.8618" y="107.292">TokenProvider</text></g><g class="participant participant-tail" data-participant="TP"><rect fill="#E2E2F0" height="30.2969" rx="2.5" ry="2.5" style="stroke:#181818;stroke-width:0.5;" width="114.9053" x="581.8618" y="460.5313"/><text fill="#000000" font-family="sans-serif" font-size="14" lengthAdjust="spacing" textLength="100.9053" x="588.8618" y="480.5264">TokenProvider</text></g><g class="participant participant-head" data-participant="CLK"><rect fill="#E2E2F0" height="30.2969" rx="2.5" ry="2.5" style="stroke:#181818;stroke-width:0.5;" width="113.4014" x="706.7671" y="87.2969"/><text fill="#000000" font-family="sans-serif" font-size="14" lengthAdjust="spacing" textLength="99.4014" x="713.7671" y="107.292">ClockManager</text></g><g class="participant participant-tail" data-participant="CLK"><rect fill="#E2E2F0" height="30.2969" rx="2.5" ry="2.5" style="stroke:#181818;stroke-width:0.5;" width="113.4014" x="706.7671" y="460.5313"/><text fill="#000000" font-family="sans-serif" font-size="14" lengthAdjust="spacing" textLength="99.4014" x="713.7671" y="480.5264">ClockManager</text></g><g class="participant participant-head" data-participant="BL"><rect fill="#E2E2F0" height="30.2969" rx="2.5" ry="2.5" style="stroke:#181818;stroke-width:0.5;" width="190.2236" x="830.1685" y="87.2969"/><text fill="#000000" font-family="sans-serif" font-size="14" lengthAdjust="spacing" textLength="176.2236" x="837.1685" y="107.292">TokenBlacklistRepository</text></g><g class="participant participant-tail" data-participant="BL"><rect fill="#E2E2F0" height="30.2969" rx="2.5" ry="2.5" style="stroke:#181818;stroke-width:0.5;" width="190.2236" x="830.1685" y="460.5313"/><text fill="#000000" font-family="sans-serif" font-size="14" lengthAdjust="spacing" textLength="176.2236" x="837.1685" y="480.5264">TokenBlacklistRepository</text></g><g class="message" data-participant-1="Caller" data-participant-2="TDS"><polygon fill="#181818" points="341.7212,145.7266,351.7212,149.7266,341.7212,153.7266,345.7212,149.7266" style="stroke:#181818;stroke-width:1;"/><line style="stroke:#181818;stroke-width:1;" x1="43.2515" x2="347.7212" y1="149.7266" y2="149.7266"/><text fill="#000000" font-family="sans-serif" font-size="13" lengthAdjust="spacing" textLength="214.7349" x="50.2515" y="144.6606">enrollBlacklist(refreshTokenRaw)</text></g><g class="message" data-participant-1="TDS" data-participant-2="TP"><polygon fill="#181818" points="627.3145,174.8594,637.3145,178.8594,627.3145,182.8594,631.3145,178.8594" style="stroke:#181818;stroke-width:1;"/><line style="stroke:#181818;stroke-width:1;" x1="353.7212" x2="633.3145" y1="178.8594" y2="178.8594"/><text fill="#000000" font-family="sans-serif" font-size="13" lengthAdjust="spacing" textLength="261.5933" x="360.7212" y="173.7935">verifyAndParseToken(refreshTokenRaw)</text></g><g class="message" data-participant-1="TP" data-participant-2="TDS"><polygon fill="#181818" points="364.7212,203.9922,354.7212,207.9922,364.7212,211.9922,360.7212,207.9922" style="stroke:#181818;stroke-width:1;"/><line style="stroke:#181818;stroke-width:1;" x1="358.7212" x2="638.3145" y1="207.9922" y2="207.9922"/><text fill="#000000" font-family="sans-serif" font-size="13" lengthAdjust="spacing" textLength="83.3638" x="370.7212" y="202.9263">TokenClaims</text></g><path d="M10,222.9922 L74.4429,222.9922 L74.4429,230.125 L64.4429,240.125 L10,240.125 L10,222.9922" fill="#EEEEEE" style="stroke:#000000;stroke-width:1.5;"/><rect fill="none" height="221.5391" style="stroke:#000000;stroke-width:1.5;" width="1020.3921" x="10" y="222.9922"/><text fill="#000000" font-family="sans-serif" font-size="13" font-weight="bold" lengthAdjust="spacing" textLength="19.4429" x="25" y="236.0591">alt</text><text fill="#000000" font-family="sans-serif" font-size="11" font-weight="bold" lengthAdjust="spacing" textLength="182.7998" x="89.4429" y="235.2026">[claims.purpose != REFRESH]</text><g class="message" data-participant-1="TDS" data-participant-2="Caller"><polygon fill="#181818" points="54.2515,257.2578,44.2515,261.2578,54.2515,265.2578,50.2515,261.2578" style="stroke:#181818;stroke-width:1;"/><line style="stroke:#181818;stroke-width:1;" x1="48.2515" x2="352.7212" y1="261.2578" y2="261.2578"/><text fill="#000000" font-family="sans-serif" font-size="13" lengthAdjust="spacing" textLength="286.4697" x="60.2515" y="256.1919">throw RefreshTokenEnrollBlacklistException</text></g><line style="stroke:#000000;stroke-width:1;stroke-dasharray:2.0,2.0;" x1="10" x2="1030.3921" y1="270.2578" y2="270.2578"/><text fill="#000000" font-family="sans-serif" font-size="11" font-weight="bold" lengthAdjust="spacing" textLength="146.6631" x="15" y="280.4683">[claims.isExpired(now)]</text><g class="message" data-participant-1="TDS" data-participant-2="CLK"><polygon fill="#181818" points="751.4678,301.1953,761.4678,305.1953,751.4678,309.1953,755.4678,305.1953" style="stroke:#181818;stroke-width:1;"/><line style="stroke:#181818;stroke-width:1;" x1="353.7212" x2="757.4678" y1="305.1953" y2="305.1953"/><text fill="#000000" font-family="sans-serif" font-size="13" lengthAdjust="spacing" textLength="36.9688" x="360.7212" y="300.1294">now()</text></g><g class="message" data-participant-1="CLK" data-participant-2="TDS"><polygon fill="#181818" points="364.7212,330.3281,354.7212,334.3281,364.7212,338.3281,360.7212,334.3281" style="stroke:#181818;stroke-width:1;"/><line style="stroke:#181818;stroke-width:1;" x1="358.7212" x2="762.4678" y1="334.3281" y2="334.3281"/><text fill="#000000" font-family="sans-serif" font-size="13" lengthAdjust="spacing" textLength="26.8252" x="370.7212" y="329.2622">now</text></g><g class="message" data-participant-1="TDS" data-participant-2="Caller"><polygon fill="#181818" points="54.2515,359.4609,44.2515,363.4609,54.2515,367.4609,50.2515,363.4609" style="stroke:#181818;stroke-width:1;"/><line style="stroke:#181818;stroke-width:1;" x1="48.2515" x2="352.7212" y1="363.4609" y2="363.4609"/><text fill="#000000" font-family="sans-serif" font-size="13" lengthAdjust="spacing" textLength="238.437" x="60.2515" y="358.395">throw RefreshTokenInvalidException</text></g><line style="stroke:#000000;stroke-width:1;stroke-dasharray:2.0,2.0;" x1="10" x2="1030.3921" y1="372.4609" y2="372.4609"/><text fill="#000000" font-family="sans-serif" font-size="11" font-weight="bold" lengthAdjust="spacing" textLength="24.9272" x="15" y="382.6714">[ok]</text><g class="message" data-participant-1="TDS" data-participant-2="BL"><polygon fill="#181818" points="913.2803,403.3984,923.2803,407.3984,913.2803,411.3984,917.2803,407.3984" style="stroke:#181818;stroke-width:1;"/><line style="stroke:#181818;stroke-width:1;" x1="353.7212" x2="919.2803" y1="407.3984" y2="407.3984"/><text fill="#000000" font-family="sans-serif" font-size="13" lengthAdjust="spacing" textLength="160.8813" x="360.7212" y="402.3325">save(tokenId, expiredAt)</text></g><g class="message" data-participant-1="TDS" data-participant-2="Caller"><polygon fill="#181818" points="54.2515,432.5313,44.2515,436.5313,54.2515,440.5313,50.2515,436.5313" style="stroke:#181818;stroke-width:1;"/><line style="stroke:#181818;stroke-width:1;stroke-dasharray:2.0,2.0;" x1="48.2515" x2="352.7212" y1="436.5313" y2="436.5313"/><text fill="#000000" font-family="sans-serif" font-size="13" lengthAdjust="spacing" textLength="27.5107" x="60.2515" y="431.4653">void</text></g><!--SRC=[ZP3TRe9048NlzoccNc5I-m2cRQ98qqQQ4F05Dike4zPTEhkWldrNeFwqNlGE9jyvvmDFNYCK-DMWKJW5D6ordckfAatEGsGPjDtOne-5aCg7rrXgZIngoPuKrT9u6AriXMPXTv9CWToImX581wj5SOVBsBPK8lT8Tal4sghgKngv6O0uNTxfE1lcM5j7mUlOqVDKY5uG9g-dVVZpJH7Zcj5jkvvSxiVYX9teBC0jCgsFCrDcaXrspFt0ywGFTDTOIzgvy8Uq1zKzFzKD1pE4XnV8axSyATu5mB0q64x1Rzdk8R_gJsvbauF2sfCr0dKe6xh99OUQ6Cl8sA1pwKsNeJJSefzZi3mV_xN_OLgfgVorQwjBU9w6e9CjHhuBb8-0lStCdrskHrfBfK1JVWC0]--></g></svg>