<svg xmlns="http://www.w3.org/2000/svg" xmlns:xlink="http://www.w3.org/1999/xlink" contentStyleType="text/css" data-diagram-type="CLASS" height="557px" preserveAspectRatio="none" style="width:1782px;height:557px;background:#FFFFFF;" version="1.1" viewBox="0 0 1782 557" width="1782px" zoomAndPan="magnify"><defs/><g><!--cluster AuthCredential--><g class="cluster" data-entity="AuthCredential" data-source-line="1" data-uid="ent0002" id="cluster_AuthCredential"><path d="M8.5,6 L128.8555,6 A3.75,3.75 0 0 1 131.3555,8.5 L138.3555,28.2969 L996.5,28.2969 A2.5,2.5 0 0 1 999,30.7969 L999,547.5 A2.5,2.5 0 0 1 996.5,550 L8.5,550 A2.5,2.5 0 0 1 6,547.5 L6,8.5 A2.5,2.5 0 0 1 8.5,6" fill="none" style="stroke:#000000;stroke-width:1.5;"/><line style="stroke:#000000;stroke-width:1.5;" x1="6" x2="138.3555" y1="28.2969" y2="28.2969"/><text fill="#000000" font-family="sans-serif" font-size="14" font-weight="bold" lengthAdjust="spacing" textLength="119.3555" x="10" y="20.9951">AuthCredential</text></g><!--cluster OAuth (Spring Security)--><g class="cluster" data-entity="OAuth (Spring Security)" data-source-line="59" data-uid="ent0017" id="cluster_OAuth (Spring Security)"><path d="M1025.5,51 L1215.5684,51 A3.75,3.75 0 0 1 1218.0684,53.5 L1225.0684,73.2969 L1772.5,73.2969 A2.5,2.5 0 0 1 1775,75.7969 L1775,394 A2.5,2.5 0 0 1 1772.5,396.5 L1025.5,396.5 A2.5,2.5 0 0 1 1023,394 L1023,53.5 A2.5,2.5 0 0 1 1025.5,51" fill="none" style="stroke:#000000;stroke-width:1.5;"/><line style="stroke:#000000;stroke-width:1.5;" x1="1023" x2="1225.0684" y1="73.2969" y2="73.2969"/><text fill="#000000" font-family="sans-serif" font-size="14" font-weight="bold" lengthAdjust="spacing" textLength="189.0684" x="1027" y="65.9951">OAuth (Spring Security)</text></g><!--class AuthCredential--><g class="entity" data-entity="AuthCredential" data-source-line="4" data-uid="ent0003" id="entity_AuthCredential"><rect fill="#F1F1F1" height="154.0469" rx="2.5" ry="2.5" style="stroke:#181818;stroke-width:0.5;" width="413.9189" x="561" y="41"/><ellipse cx="711.1206" cy="61.1328" fill="#ADD1B2" rx="11" ry="11" style="stroke:#181818;stroke-width:1;"/><path d="M715.23,67.1328 L707.5112,67.1328 L707.5112,54.7422 L715.23,54.7422 L715.23,56.8984 L709.9644,56.8984 L709.9644,59.5703 L714.73,59.5703 L714.73,61.7266 L709.9644,61.7266 L709.9644,64.9766 L715.23,64.9766 L715.23,67.1328 Z " fill="#000000"/><text fill="#000000" font-family="sans-serif" font-size="12" font-style="italic" lengthAdjust="spacing" textLength="109.1719" x="729.6235" y="57.1387">&#171;Aggregate Root&#187;</text><text fill="#000000" font-family="sans-serif" font-size="14" lengthAdjust="spacing" textLength="105.1777" x="731.6206" y="72.9639">AuthCredential</text><line style="stroke:#181818;stroke-width:0.5;" x1="562" x2="973.9189" y1="81.2656" y2="81.2656"/><ellipse cx="572" cy="94.9141" fill="none" rx="3" ry="3" style="stroke:#038048;stroke-width:1;"/><text fill="#000000" font-family="sans-serif" font-size="14" lengthAdjust="spacing" textLength="111.7744" x="581" y="98.2607">CredentialId : id</text><ellipse cx="572" cy="111.2109" fill="none" rx="3" ry="3" style="stroke:#038048;stroke-width:1;"/><text fill="#000000" font-family="sans-serif" font-size="14" lengthAdjust="spacing" textLength="91.0684" x="581" y="114.5576">Email : email</text><ellipse cx="572" cy="127.5078" fill="none" rx="3" ry="3" style="stroke:#038048;stroke-width:1;"/><text fill="#000000" font-family="sans-serif" font-size="14" lengthAdjust="spacing" textLength="146.5967" x="581" y="130.8545">Password : password</text><ellipse cx="572" cy="143.8047" fill="none" rx="3" ry="3" style="stroke:#038048;stroke-width:1;"/><text fill="#000000" font-family="sans-serif" font-size="14" lengthAdjust="spacing" textLength="156.3789" x="581" y="147.1514">MemberId : memberId</text><line style="stroke:#181818;stroke-width:1;" x1="562" x2="973.9189" y1="154.4531" y2="154.4531"/><ellipse cx="572" cy="168.1016" fill="#84BE84" rx="3" ry="3" style="stroke:#038048;stroke-width:1;"/><text fill="#000000" font-family="sans-serif" font-size="14" lengthAdjust="spacing" textLength="247.4336" x="581" y="171.4482">authenticate(rawPassword : String)</text><ellipse cx="572" cy="184.3984" fill="#84BE84" rx="3" ry="3" style="stroke:#038048;stroke-width:1;"/><text fill="#000000" font-family="sans-serif" font-size="14" lengthAdjust="spacing" textLength="387.9189" x="581" y="187.7451">changePassword(currentRaw : String, newRaw : String)</text></g><!--class Password--><g class="entity" data-entity="Password" data-source-line="14" data-uid="ent0004" id="entity_Password"><rect fill="#F1F1F1" height="137.75" rx="2.5" ry="2.5" style="stroke:#181818;stroke-width:0.5;" width="459.6309" x="213" y="255"/><ellipse cx="394.7686" cy="275.1328" fill="#ADD1B2" rx="11" ry="11" style="stroke:#181818;stroke-width:1;"/><path d="M397.7373,280.7734 Q397.1592,281.0703 396.5186,281.2109 Q395.8779,281.3672 395.1748,281.3672 Q392.6748,281.3672 391.3467,279.7266 Q390.0342,278.0703 390.0342,274.9453 Q390.0342,271.8203 391.3467,270.1641 Q392.6748,268.5078 395.1748,268.5078 Q395.8779,268.5078 396.5186,268.6641 Q397.1748,268.8203 397.7373,269.1172 L397.7373,271.8359 Q397.1123,271.2578 396.5186,270.9922 Q395.9248,270.7109 395.2998,270.7109 Q393.9561,270.7109 393.2686,271.7891 Q392.5811,272.8516 392.5811,274.9453 Q392.5811,277.0391 393.2686,278.1172 Q393.9561,279.1797 395.2998,279.1797 Q395.9248,279.1797 396.5186,278.9141 Q397.1123,278.6328 397.7373,278.0547 L397.7373,280.7734 Z " fill="#000000"/><text fill="#000000" font-family="sans-serif" font-size="12" font-style="italic" lengthAdjust="spacing" textLength="91.5938" x="413.2686" y="271.1387">&#171;Value Object&#187;</text><text fill="#000000" font-family="sans-serif" font-size="14" lengthAdjust="spacing" textLength="66.2676" x="425.9316" y="286.9639">Password</text><line style="stroke:#181818;stroke-width:0.5;" x1="214" x2="671.6309" y1="295.2656" y2="295.2656"/><ellipse cx="224" cy="308.9141" fill="none" rx="3" ry="3" style="stroke:#038048;stroke-width:1;"/><text fill="#000000" font-family="sans-serif" font-size="14" lengthAdjust="spacing" textLength="106.5176" x="233" y="312.2607">String : hashed</text><line style="stroke:#181818;stroke-width:1;" x1="214" x2="671.6309" y1="319.5625" y2="319.5625"/><ellipse cx="224" cy="333.2109" fill="#84BE84" rx="3" ry="3" style="stroke:#038048;stroke-width:1;"/><text fill="#000000" font-family="sans-serif" font-size="14" lengthAdjust="spacing" textLength="67.1357" x="233" y="336.5576">validate()</text><ellipse cx="224" cy="349.5078" fill="#84BE84" rx="3" ry="3" style="stroke:#038048;stroke-width:1;"/><text fill="#000000" font-family="sans-serif" font-size="14" lengthAdjust="spacing" textLength="288.8662" x="233" y="352.8545">matches(rawPassword : String) : Boolean</text><ellipse cx="224" cy="365.8047" fill="#84BE84" rx="3" ry="3" style="stroke:#038048;stroke-width:1;"/><text fill="#000000" font-family="sans-serif" font-size="14" lengthAdjust="spacing" textLength="433.6309" x="233" y="369.1514">changeWith(currentRaw : String, newRaw : String) : Password</text><ellipse cx="224" cy="382.1016" fill="#84BE84" rx="3" ry="3" style="stroke:#038048;stroke-width:1;"/><text fill="#000000" font-family="sans-serif" font-size="14" lengthAdjust="spacing" textLength="248.5" x="233" y="385.4482">static hash(raw : String) : Password</text></g><!--class Email--><g class="entity" data-entity="Email" data-source-line="23" data-uid="ent0005" id="entity_Email"><rect fill="#F1F1F1" height="88.8594" rx="2.5" ry="2.5" style="stroke:#181818;stroke-width:0.5;" width="120.0078" x="708" y="279.5"/><ellipse cx="723.1863" cy="299.6328" fill="#ADD1B2" rx="11" ry="11" style="stroke:#181818;stroke-width:1;"/><path d="M726.1551,305.2734 Q725.577,305.5703 724.9363,305.7109 Q724.2957,305.8672 723.5926,305.8672 Q721.0926,305.8672 719.7645,304.2266 Q718.452,302.5703 718.452,299.4453 Q718.452,296.3203 719.7645,294.6641 Q721.0926,293.0078 723.5926,293.0078 Q724.2957,293.0078 724.9363,293.1641 Q725.5926,293.3203 726.1551,293.6172 L726.1551,296.3359 Q725.5301,295.7578 724.9363,295.4922 Q724.3426,295.2109 723.7176,295.2109 Q722.3738,295.2109 721.6863,296.2891 Q720.9988,297.3516 720.9988,299.4453 Q720.9988,301.5391 721.6863,302.6172 Q722.3738,303.6797 723.7176,303.6797 Q724.3426,303.6797 724.9363,303.4141 Q725.5301,303.1328 726.1551,302.5547 L726.1551,305.2734 Z " fill="#000000"/><text fill="#000000" font-family="sans-serif" font-size="12" font-style="italic" lengthAdjust="spacing" textLength="91.5938" x="735.2277" y="295.6387">&#171;Value Object&#187;</text><text fill="#000000" font-family="sans-serif" font-size="14" lengthAdjust="spacing" textLength="38.8418" x="761.6037" y="311.4639">Email</text><line style="stroke:#181818;stroke-width:0.5;" x1="709" x2="827.0078" y1="319.7656" y2="319.7656"/><ellipse cx="719" cy="333.4141" fill="none" rx="3" ry="3" style="stroke:#038048;stroke-width:1;"/><text fill="#000000" font-family="sans-serif" font-size="14" lengthAdjust="spacing" textLength="94.0078" x="728" y="336.7607">String : email</text><line style="stroke:#181818;stroke-width:1;" x1="709" x2="827.0078" y1="344.0625" y2="344.0625"/><ellipse cx="719" cy="357.7109" fill="#84BE84" rx="3" ry="3" style="stroke:#038048;stroke-width:1;"/><text fill="#000000" font-family="sans-serif" font-size="14" lengthAdjust="spacing" textLength="67.1357" x="728" y="361.0576">validate()</text></g><!--class MemberId--><g class="entity" data-entity="MemberId" data-source-line="29" data-uid="ent0006" id="entity_MemberId"><rect fill="#F1F1F1" height="72.5625" rx="2.5" ry="2.5" style="stroke:#181818;stroke-width:0.5;" width="119.5938" x="863" y="287.5"/><ellipse cx="878" cy="307.6328" fill="#ADD1B2" rx="11" ry="11" style="stroke:#181818;stroke-width:1;"/><path d="M880.9688,313.2734 Q880.3906,313.5703 879.75,313.7109 Q879.1094,313.8672 878.4063,313.8672 Q875.9063,313.8672 874.5781,312.2266 Q873.2656,310.5703 873.2656,307.4453 Q873.2656,304.3203 874.5781,302.6641 Q875.9063,301.0078 878.4063,301.0078 Q879.1094,301.0078 879.75,301.1641 Q880.4063,301.3203 880.9688,301.6172 L880.9688,304.3359 Q880.3438,303.7578 879.75,303.4922 Q879.1563,303.2109 878.5313,303.2109 Q877.1875,303.2109 876.5,304.2891 Q875.8125,305.3516 875.8125,307.4453 Q875.8125,309.5391 876.5,310.6172 Q877.1875,311.6797 878.5313,311.6797 Q879.1563,311.6797 879.75,311.4141 Q880.3438,311.1328 880.9688,310.5547 L880.9688,313.2734 Z " fill="#000000"/><text fill="#000000" font-family="sans-serif" font-size="12" font-style="italic" lengthAdjust="spacing" textLength="91.5938" x="890" y="303.6387">&#171;Value Object&#187;</text><text fill="#000000" font-family="sans-serif" font-size="14" lengthAdjust="spacing" textLength="70.6016" x="900.4961" y="319.4639">MemberId</text><line style="stroke:#181818;stroke-width:0.5;" x1="864" x2="981.5938" y1="327.7656" y2="327.7656"/><ellipse cx="874" cy="341.4141" fill="none" rx="3" ry="3" style="stroke:#038048;stroke-width:1;"/><text fill="#000000" font-family="sans-serif" font-size="14" lengthAdjust="spacing" textLength="60.5186" x="883" y="344.7607">Long : id</text><line style="stroke:#181818;stroke-width:0.5;" x1="864" x2="981.5938" y1="352.0625" y2="352.0625"/></g><!--class PasswordHasher--><g class="entity" data-entity="PasswordHasher" data-source-line="33" data-uid="ent0007" id="entity_PasswordHasher"><rect fill="#F1F1F1" height="80.5938" rx="2.5" ry="2.5" style="stroke:#181818;stroke-width:0.5;" width="364.0166" x="261" y="453"/><ellipse cx="380.8032" cy="469" fill="#B4A7E5" rx="11" ry="11" style="stroke:#181818;stroke-width:1;"/><path d="M376.7251,464.7656 L376.7251,462.6094 L384.1157,462.6094 L384.1157,464.7656 L381.647,464.7656 L381.647,472.8438 L384.1157,472.8438 L384.1157,475 L376.7251,475 L376.7251,472.8438 L379.1938,472.8438 L379.1938,464.7656 L376.7251,464.7656 Z " fill="#000000"/><text fill="#000000" font-family="sans-serif" font-size="14" font-style="italic" lengthAdjust="spacing" textLength="115.9102" x="401.3032" y="473.8467">PasswordHasher</text><line style="stroke:#181818;stroke-width:0.5;" x1="262" x2="624.0166" y1="485" y2="485"/><line style="stroke:#181818;stroke-width:0.5;" x1="262" x2="624.0166" y1="493" y2="493"/><ellipse cx="272" cy="506.6484" fill="#84BE84" rx="3" ry="3" style="stroke:#038048;stroke-width:1;"/><text fill="#000000" font-family="sans-serif" font-size="14" lengthAdjust="spacing" textLength="181.125" x="281" y="509.9951">hash(raw : String) : String</text><ellipse cx="272" cy="522.9453" fill="#84BE84" rx="3" ry="3" style="stroke:#038048;stroke-width:1;"/><text fill="#000000" font-family="sans-serif" font-size="14" lengthAdjust="spacing" textLength="338.0166" x="281" y="526.292">matches(raw : String, hashed : String) : Boolean</text></g><!--class AuthMethod--><g class="entity" data-entity="AuthMethod" data-source-line="44" data-uid="ent0012" id="entity_AuthMethod"><rect fill="#F1F1F1" height="64.2969" rx="2.5" ry="2.5" style="stroke:#181818;stroke-width:0.5;" width="441.8232" x="22" y="86"/><ellipse cx="196.002" cy="102" fill="#B4A7E5" rx="11" ry="11" style="stroke:#181818;stroke-width:1;"/><path d="M191.9238,97.7656 L191.9238,95.6094 L199.3145,95.6094 L199.3145,97.7656 L196.8457,97.7656 L196.8457,105.8438 L199.3145,105.8438 L199.3145,108 L191.9238,108 L191.9238,105.8438 L194.3926,105.8438 L194.3926,97.7656 L191.9238,97.7656 Z " fill="#000000"/><text fill="#000000" font-family="sans-serif" font-size="14" font-style="italic" lengthAdjust="spacing" textLength="85.3193" x="216.502" y="106.8467">AuthMethod</text><line style="stroke:#181818;stroke-width:0.5;" x1="23" x2="462.8232" y1="118" y2="118"/><line style="stroke:#181818;stroke-width:0.5;" x1="23" x2="462.8232" y1="126" y2="126"/><ellipse cx="33" cy="139.6484" fill="#84BE84" rx="3" ry="3" style="stroke:#038048;stroke-width:1;"/><text fill="#000000" font-family="sans-serif" font-size="14" lengthAdjust="spacing" textLength="415.8232" x="42" y="142.9951">authenticate(request: EmailLoginRequest) : AuthCredential</text></g><!--class EmailAuthMethod--><g class="entity" data-entity="EmailAuthMethod" data-source-line="48" data-uid="ent0013" id="entity_EmailAuthMethod"><rect fill="#F1F1F1" height="48" rx="2.5" ry="2.5" style="stroke:#181818;stroke-width:0.5;" width="156.1611" x="22" y="300"/><ellipse cx="37" cy="316" fill="#ADD1B2" rx="11" ry="11" style="stroke:#181818;stroke-width:1;"/><path d="M39.9688,321.6406 Q39.3906,321.9375 38.75,322.0781 Q38.1094,322.2344 37.4063,322.2344 Q34.9063,322.2344 33.5781,320.5938 Q32.2656,318.9375 32.2656,315.8125 Q32.2656,312.6875 33.5781,311.0313 Q34.9063,309.375 37.4063,309.375 Q38.1094,309.375 38.75,309.5313 Q39.4063,309.6875 39.9688,309.9844 L39.9688,312.7031 Q39.3438,312.125 38.75,311.8594 Q38.1563,311.5781 37.5313,311.5781 Q36.1875,311.5781 35.5,312.6563 Q34.8125,313.7188 34.8125,315.8125 Q34.8125,317.9063 35.5,318.9844 Q36.1875,320.0469 37.5313,320.0469 Q38.1563,320.0469 38.75,319.7813 Q39.3438,319.5 39.9688,318.9219 L39.9688,321.6406 Z " fill="#000000"/><text fill="#000000" font-family="sans-serif" font-size="14" lengthAdjust="spacing" textLength="124.1611" x="51" y="320.8467">EmailAuthMethod</text><line style="stroke:#181818;stroke-width:0.5;" x1="23" x2="177.1611" y1="332" y2="332"/><line style="stroke:#181818;stroke-width:0.5;" x1="23" x2="177.1611" y1="340" y2="340"/></g><!--class EmailLoginRequest--><g class="entity" data-entity="EmailLoginRequest" data-source-line="50" data-uid="ent0015" id="entity_EmailLoginRequest"><rect fill="#F1F1F1" height="80.5938" rx="2.5" ry="2.5" style="stroke:#181818;stroke-width:0.5;" width="166.3535" x="22" y="453"/><ellipse cx="37" cy="469" fill="#ADD1B2" rx="11" ry="11" style="stroke:#181818;stroke-width:1;"/><path d="M39.9688,474.6406 Q39.3906,474.9375 38.75,475.0781 Q38.1094,475.2344 37.4063,475.2344 Q34.9063,475.2344 33.5781,473.5938 Q32.2656,471.9375 32.2656,468.8125 Q32.2656,465.6875 33.5781,464.0313 Q34.9063,462.375 37.4063,462.375 Q38.1094,462.375 38.75,462.5313 Q39.4063,462.6875 39.9688,462.9844 L39.9688,465.7031 Q39.3438,465.125 38.75,464.8594 Q38.1563,464.5781 37.5313,464.5781 Q36.1875,464.5781 35.5,465.6563 Q34.8125,466.7188 34.8125,468.8125 Q34.8125,470.9063 35.5,471.9844 Q36.1875,473.0469 37.5313,473.0469 Q38.1563,473.0469 38.75,472.7813 Q39.3438,472.5 39.9688,471.9219 L39.9688,474.6406 Z " fill="#000000"/><text fill="#000000" font-family="sans-serif" font-size="14" lengthAdjust="spacing" textLength="134.3535" x="51" y="473.8467">EmailLoginRequest</text><line style="stroke:#181818;stroke-width:0.5;" x1="23" x2="187.3535" y1="485" y2="485"/><ellipse cx="33" cy="498.6484" fill="none" rx="3" ry="3" style="stroke:#038048;stroke-width:1;"/><text fill="#000000" font-family="sans-serif" font-size="14" lengthAdjust="spacing" textLength="94.0078" x="42" y="501.9951">String : email</text><ellipse cx="33" cy="514.9453" fill="none" rx="3" ry="3" style="stroke:#038048;stroke-width:1;"/><text fill="#000000" font-family="sans-serif" font-size="14" lengthAdjust="spacing" textLength="122.1104" x="42" y="518.292">String : password</text><line style="stroke:#181818;stroke-width:0.5;" x1="23" x2="187.3535" y1="525.5938" y2="525.5938"/></g><!--class OAuth2User--><g class="entity" data-entity="OAuth2User" data-source-line="61" data-uid="ent0018" id="entity_OAuth2User"><rect fill="#F1F1F1" height="113.1875" rx="2.5" ry="2.5" style="stroke:#181818;stroke-width:0.5;" width="153.0527" x="1345.5" y="267.5"/><ellipse cx="1376.8815" cy="283.5" fill="#ADD1B2" rx="11" ry="11" style="stroke:#181818;stroke-width:1;"/><path d="M1379.8502,289.1406 Q1379.2721,289.4375 1378.6315,289.5781 Q1377.9909,289.7344 1377.2877,289.7344 Q1374.7877,289.7344 1373.4596,288.0938 Q1372.1471,286.4375 1372.1471,283.3125 Q1372.1471,280.1875 1373.4596,278.5313 Q1374.7877,276.875 1377.2877,276.875 Q1377.9909,276.875 1378.6315,277.0313 Q1379.2877,277.1875 1379.8502,277.4844 L1379.8502,280.2031 Q1379.2252,279.625 1378.6315,279.3594 Q1378.0377,279.0781 1377.4127,279.0781 Q1376.069,279.0781 1375.3815,280.1563 Q1374.694,281.2188 1374.694,283.3125 Q1374.694,285.4063 1375.3815,286.4844 Q1376.069,287.5469 1377.4127,287.5469 Q1378.0377,287.5469 1378.6315,287.2813 Q1379.2252,287 1379.8502,286.4219 L1379.8502,289.1406 Z " fill="#000000"/><text fill="#000000" font-family="sans-serif" font-size="14" lengthAdjust="spacing" textLength="84.6494" x="1394.5218" y="288.3467">OAuth2User</text><line style="stroke:#181818;stroke-width:0.5;" x1="1346.5" x2="1497.5527" y1="299.5" y2="299.5"/><ellipse cx="1356.5" cy="313.1484" fill="none" rx="3" ry="3" style="stroke:#038048;stroke-width:1;"/><text fill="#000000" font-family="sans-serif" font-size="14" lengthAdjust="spacing" textLength="114.0371" x="1365.5" y="316.4951">String : provider</text><ellipse cx="1356.5" cy="329.4453" fill="none" rx="3" ry="3" style="stroke:#038048;stroke-width:1;"/><text fill="#000000" font-family="sans-serif" font-size="14" lengthAdjust="spacing" textLength="127.0527" x="1365.5" y="332.792">String : providerId</text><ellipse cx="1356.5" cy="345.7422" fill="none" rx="3" ry="3" style="stroke:#038048;stroke-width:1;"/><text fill="#000000" font-family="sans-serif" font-size="14" lengthAdjust="spacing" textLength="94.0078" x="1365.5" y="349.0889">String : email</text><ellipse cx="1356.5" cy="362.0391" fill="none" rx="3" ry="3" style="stroke:#038048;stroke-width:1;"/><text fill="#000000" font-family="sans-serif" font-size="14" lengthAdjust="spacing" textLength="123.6689" x="1365.5" y="365.3857">String : nickname</text><line style="stroke:#181818;stroke-width:0.5;" x1="1346.5" x2="1497.5527" y1="372.6875" y2="372.6875"/></g><!--class OAuth2UserService--><g class="entity" data-entity="OAuth2UserService" data-source-line="68" data-uid="ent0019" id="entity_OAuth2UserService"><rect fill="#F1F1F1" height="64.2969" rx="2.5" ry="2.5" style="stroke:#181818;stroke-width:0.5;" width="294.8984" x="1463.5" y="86"/><ellipse cx="1538.5039" cy="102" fill="#ADD1B2" rx="11" ry="11" style="stroke:#181818;stroke-width:1;"/><path d="M1541.4727,107.6406 Q1540.8945,107.9375 1540.2539,108.0781 Q1539.6133,108.2344 1538.9102,108.2344 Q1536.4102,108.2344 1535.082,106.5938 Q1533.7695,104.9375 1533.7695,101.8125 Q1533.7695,98.6875 1535.082,97.0313 Q1536.4102,95.375 1538.9102,95.375 Q1539.6133,95.375 1540.2539,95.5313 Q1540.9102,95.6875 1541.4727,95.9844 L1541.4727,98.7031 Q1540.8477,98.125 1540.2539,97.8594 Q1539.6602,97.5781 1539.0352,97.5781 Q1537.6914,97.5781 1537.0039,98.6563 Q1536.3164,99.7188 1536.3164,101.8125 Q1536.3164,103.9063 1537.0039,104.9844 Q1537.6914,106.0469 1539.0352,106.0469 Q1539.6602,106.0469 1540.2539,105.7813 Q1540.8477,105.5 1541.4727,104.9219 L1541.4727,107.6406 Z " fill="#000000"/><text fill="#000000" font-family="sans-serif" font-size="14" lengthAdjust="spacing" textLength="136.3906" x="1559.0039" y="106.8467">OAuth2UserService</text><line style="stroke:#181818;stroke-width:0.5;" x1="1464.5" x2="1757.3984" y1="118" y2="118"/><line style="stroke:#181818;stroke-width:0.5;" x1="1464.5" x2="1757.3984" y1="126" y2="126"/><ellipse cx="1474.5" cy="139.6484" fill="#84BE84" rx="3" ry="3" style="stroke:#038048;stroke-width:1;"/><text fill="#000000" font-family="sans-serif" font-size="14" lengthAdjust="spacing" textLength="268.8984" x="1483.5" y="142.9951">loadUser(oauthRequest) : OAuth2User</text></g><!--class OAuthJoinService--><g class="entity" data-entity="OAuthJoinService" data-source-line="72" data-uid="ent0020" id="entity_OAuthJoinService"><rect fill="#F1F1F1" height="64.2969" rx="2.5" ry="2.5" style="stroke:#181818;stroke-width:0.5;" width="388.8721" x="1039.5" y="86"/><ellipse cx="1169.1709" cy="102" fill="#ADD1B2" rx="11" ry="11" style="stroke:#181818;stroke-width:1;"/><path d="M1172.1396,107.6406 Q1171.5615,107.9375 1170.9209,108.0781 Q1170.2803,108.2344 1169.5771,108.2344 Q1167.0771,108.2344 1165.749,106.5938 Q1164.4365,104.9375 1164.4365,101.8125 Q1164.4365,98.6875 1165.749,97.0313 Q1167.0771,95.375 1169.5771,95.375 Q1170.2803,95.375 1170.9209,95.5313 Q1171.5771,95.6875 1172.1396,95.9844 L1172.1396,98.7031 Q1171.5146,98.125 1170.9209,97.8594 Q1170.3271,97.5781 1169.7021,97.5781 Q1168.3584,97.5781 1167.6709,98.6563 Q1166.9834,99.7188 1166.9834,101.8125 Q1166.9834,103.9063 1167.6709,104.9844 Q1168.3584,106.0469 1169.7021,106.0469 Q1170.3271,106.0469 1170.9209,105.7813 Q1171.5146,105.5 1172.1396,104.9219 L1172.1396,107.6406 Z " fill="#000000"/><text fill="#000000" font-family="sans-serif" font-size="14" lengthAdjust="spacing" textLength="121.0303" x="1189.6709" y="106.8467">OAuthJoinService</text><line style="stroke:#181818;stroke-width:0.5;" x1="1040.5" x2="1427.3721" y1="118" y2="118"/><line style="stroke:#181818;stroke-width:0.5;" x1="1040.5" x2="1427.3721" y1="126" y2="126"/><ellipse cx="1050.5" cy="139.6484" fill="#84BE84" rx="3" ry="3" style="stroke:#038048;stroke-width:1;"/><text fill="#000000" font-family="sans-serif" font-size="14" lengthAdjust="spacing" textLength="362.8721" x="1059.5" y="142.9951">findOrRegister(oauthUser: OAuth2User) : MemberId</text></g><!--link AuthCredential to Password--><g class="link" data-entity-1="AuthCredential" data-entity-2="Password" data-source-line="38" data-uid="lnk8" id="link_AuthCredential_Password"><path codeLine="38" d="M646.52,195.25 C615.33,214.83 581.98,235.76 551.49,254.9" fill="none" id="AuthCredential-Password" style="stroke:#181818;stroke-width:1;"/></g><!--link AuthCredential to Email--><g class="link" data-entity-1="AuthCredential" data-entity-2="Email" data-source-line="39" data-uid="lnk9" id="link_AuthCredential_Email"><path codeLine="39" d="M768,195.25 C768,223.66 768,254.91 768,279.4" fill="none" id="AuthCredential-Email" style="stroke:#181818;stroke-width:1;"/></g><!--link AuthCredential to MemberId--><g class="link" data-entity-1="AuthCredential" data-entity-2="MemberId" data-source-line="40" data-uid="lnk10" id="link_AuthCredential_MemberId"><path codeLine="40" d="M825.94,195.25 C849.93,226.83 876.59,261.92 895.9,287.33" fill="none" id="AuthCredential-MemberId" style="stroke:#181818;stroke-width:1;"/></g><!--link Password to PasswordHasher--><g class="link" data-entity-1="Password" data-entity-2="PasswordHasher" data-source-line="41" data-uid="lnk11" id="link_Password_PasswordHasher"><path codeLine="41" d="M443,393.13 C443,413.42 443,428.97 443,446.8" fill="none" id="Password-to-PasswordHasher" style="stroke:#181818;stroke-width:1;stroke-dasharray:7.0,7.0;"/><polygon fill="#181818" points="443,452.8,447,443.8,443,447.8,439,443.8,443,452.8" style="stroke:#181818;stroke-width:1;"/></g><!--reverse link AuthMethod to EmailAuthMethod--><g class="link" data-entity-1="AuthMethod" data-entity-2="EmailAuthMethod" data-source-line="49" data-uid="lnk14" id="link_AuthMethod_EmailAuthMethod"><path codeLine="49" d="M210.6376,165.1691 C181.7276,206.4091 141.99,263.1 116.27,299.79" fill="none" id="AuthMethod-backto-EmailAuthMethod" style="stroke:#181818;stroke-width:1;"/><polygon fill="none" points="220.97,150.43,205.7246,161.725,215.5506,168.6133,220.97,150.43" style="stroke:#181818;stroke-width:1;"/></g><!--link EmailAuthMethod to EmailLoginRequest--><g class="link" data-entity-1="EmailAuthMethod" data-entity-2="EmailLoginRequest" data-source-line="50" data-uid="lnk16" id="link_EmailAuthMethod_EmailLoginRequest"><path codeLine="50" d="M100.7,348.29 C101.5,375.35 102.6714,414.4327 103.6414,447.0027" fill="none" id="EmailAuthMethod-to-EmailLoginRequest" style="stroke:#181818;stroke-width:1;stroke-dasharray:7.0,7.0;"/><polygon fill="#181818" points="103.82,453,107.5503,443.8849,103.6712,448.0022,99.5539,444.1231,103.82,453" style="stroke:#181818;stroke-width:1;"/></g><!--link OAuth2UserService to OAuth2User--><g class="link" data-entity-1="OAuth2UserService" data-entity-2="OAuth2User" data-source-line="76" data-uid="lnk21" id="link_OAuth2UserService_OAuth2User"><path codeLine="76" d="M1581.88,150.43 C1553.1,181.5 1512.5079,225.3088 1477.6979,262.8788" fill="none" id="OAuth2UserService-to-OAuth2User" style="stroke:#181818;stroke-width:1;"/><polygon fill="#181818" points="1473.62,267.28,1482.671,263.3968,1477.0182,263.6123,1476.8027,257.9596,1473.62,267.28" style="stroke:#181818;stroke-width:1;"/></g><!--link OAuthJoinService to OAuth2User--><g class="link" data-entity-1="OAuthJoinService" data-entity-2="OAuth2User" data-source-line="77" data-uid="lnk22" id="link_OAuthJoinService_OAuth2User"><path codeLine="77" d="M1262.96,150.43 C1291.6,181.5 1331.9535,225.2983 1366.5835,262.8683" fill="none" id="OAuthJoinService-to-OAuth2User" style="stroke:#181818;stroke-width:1;stroke-dasharray:7.0,7.0;"/><polygon fill="#181818" points="1370.65,267.28,1367.4914,257.9514,1367.2612,263.6035,1361.6091,263.3734,1370.65,267.28" style="stroke:#181818;stroke-width:1;"/></g><!--link OAuthJoinService to MemberId--><g class="link" data-entity-1="OAuthJoinService" data-entity-2="MemberId" data-source-line="78" data-uid="lnk23" id="link_OAuthJoinService_MemberId"><path codeLine="78" d="M1184.75,150.26 C1141.84,177.61 1078.05,218.55 1023,255 C1007.25,265.43 995.17,273.5539 979.7,284.0839" fill="none" id="OAuthJoinService-to-MemberId" style="stroke:#181818;stroke-width:1;"/><polygon fill="#181818" points="974.74,287.46,984.4308,285.7025,978.8733,284.6466,979.9293,279.0891,974.74,287.46" style="stroke:#181818;stroke-width:1;"/></g><!--SRC=[ZLJBRjD05DttAwww8H6u2vQL4wcWIe0QfKe4hAVshJtKcJ7ZII84bH3g4ebD5om8WaqH4YjKe0k-2FiZcF7uCOwTG1Gfa_iuvzp7J4oyCn8Wx1xCPNXVe8zCKXBjmikT7O1RWm6aRwxJdwyXMzraLoj8trsaNo_L7nWCL82EbY-WcGokUn040WCY4IQSo-5GmO7wtAw37lgm3zGtviCPeP7wZ_hNc8v9aYovq55nSJIE4SvEKEJfi-AOEnp7-8dIeYaynTuJP6a1JQMWBEYRE2yaBC3Is_FcGgYq2LbMWNU0uT8swCnptHSlKcbG8Rlk4nBD4SOdpz2pgZLPAZqaIOXDcGiIKLzBBEJCYFH2JBeLgzCzpYCapDR-bChm_tIhqt6ZYOaagaEvBisuAT8grepedvNM4-mir0AivhW9yuZdYBGIGfb4SKeyh2G-q7qLPK9dDURKwh7LB3ES3StEYTVMst7i7hMTXqKFsfvHlR3LaFVsXclrb3Ulk7BPfulqum_ePQlh_EhzXlJpXp-_RfGx_V8Mik_lqwjlVNCVwnPfyX7AaFjbUveN0v_FCP7xHkmH3oYR69EklwcyOn5gzABEWifzLTRVY5Ypv3MtYDSeRDUMDQjjSMDlrJSktxQnfeRUDCuZfwZkZ7gr-iKZPpZpcBkFatgTQc315zHNS-as5-_FTd6CUcUCpB3PovfqYc91rTWAxeWJNvjxN4_DcaoTqO7qY5Es1dHAcJyM4mne8aiudMqZQLnhCtFKjZB76JRPMvHwgjiZD4R5TFuN]--></g></svg>