<svg xmlns="http://www.w3.org/2000/svg" xmlns:xlink="http://www.w3.org/1999/xlink" contentStyleType="text/css" data-diagram-type="SEQUENCE" height="1335px" preserveAspectRatio="none" style="width:1645px;height:1335px;background:#FFFFFF;" version="1.1" viewBox="0 0 1645 1335" width="1645px" zoomAndPan="magnify"><defs/><g><rect fill="none" height="382.6641" style="stroke:#000000;stroke-width:1.5;" width="1401.7686" x="10" y="330.2266"/><g><title>User</title><rect fill="#000000" fill-opacity="0.00000" height="1172.9844" width="8" x="34.9551" y="81.2969"/><line style="stroke:#181818;stroke-width:0.5;stroke-dasharray:5.0,5.0;" x1="38" x2="38" y1="81.2969" y2="1254.2813"/></g><g><title>OAuth2Filter</title><rect fill="#000000" fill-opacity="0.00000" height="1172.9844" width="8" x="305.3584" y="81.2969"/><line style="stroke:#181818;stroke-width:0.5;stroke-dasharray:5.0,5.0;" x1="309.1436" x2="309.1436" y1="81.2969" y2="1254.2813"/></g><g><title>AuthController</title><rect fill="#000000" fill-opacity="0.00000" height="1172.9844" width="8" x="424.5659" y="81.2969"/><line style="stroke:#181818;stroke-width:0.5;stroke-dasharray:5.0,5.0;" x1="427.5732" x2="427.5732" y1="81.2969" y2="1254.2813"/></g><g><title>OAuth2AppService</title><rect fill="#000000" fill-opacity="0.00000" height="1172.9844" width="8" x="683.5244" y="81.2969"/><line style="stroke:#181818;stroke-width:0.5;stroke-dasharray:5.0,5.0;" x1="686.6089" x2="686.6089" y1="81.2969" y2="1254.2813"/></g><g><title>TokenDomainService</title><rect fill="#000000" fill-opacity="0.00000" height="1172.9844" width="8" x="975.9795" y="81.2969"/><line style="stroke:#181818;stroke-width:0.5;stroke-dasharray:5.0,5.0;" x1="979.5908" x2="979.5908" y1="81.2969" y2="1254.2813"/></g><g><title>AuthRepository</title><rect fill="#000000" fill-opacity="0.00000" height="1172.9844" width="8" x="1128.3105" y="81.2969"/><line style="stroke:#181818;stroke-width:0.5;stroke-dasharray:5.0,5.0;" x1="1131.3682" x2="1131.3682" y1="81.2969" y2="1254.2813"/></g><g><title>AuthTemporaryRepository</title><rect fill="#000000" fill-opacity="0.00000" height="1172.9844" width="8" x="1298.5107" y="81.2969"/><line style="stroke:#181818;stroke-width:0.5;stroke-dasharray:5.0,5.0;" x1="1302.2529" x2="1302.2529" y1="81.2969" y2="1254.2813"/></g><g><title>Auth</title><rect fill="#000000" fill-opacity="0.00000" height="1172.9844" width="8" x="1427.1748" y="81.2969"/><line style="stroke:#181818;stroke-width:0.5;stroke-dasharray:5.0,5.0;" x1="1430.7686" x2="1430.7686" y1="81.2969" y2="1254.2813"/></g><g><title>DomainEventPublisher</title><rect fill="#000000" fill-opacity="0.00000" height="1172.9844" width="8" x="1543.0557" y="81.2969"/><line style="stroke:#181818;stroke-width:0.5;stroke-dasharray:5.0,5.0;" x1="1546.5811" x2="1546.5811" y1="81.2969" y2="1254.2813"/></g><g class="participant participant-head" data-participant="User"><text fill="#000000" font-family="sans-serif" font-size="14" lengthAdjust="spacing" textLength="31.9102" x="20" y="77.9951">User</text><ellipse cx="38.9551" cy="13.5" fill="#E2E2F0" rx="8" ry="8" style="stroke:#181818;stroke-width:0.5;"/><path d="M38.9551,21.5 L38.9551,48.5 M25.9551,29.5 L51.9551,29.5 M38.9551,48.5 L25.9551,63.5 M38.9551,48.5 L51.9551,63.5" fill="none" style="stroke:#181818;stroke-width:0.5;"/></g><g class="participant participant-tail" data-participant="User"><text fill="#000000" font-family="sans-serif" font-size="14" lengthAdjust="spacing" textLength="31.9102" x="20" y="1266.2764">User</text><ellipse cx="38.9551" cy="1278.0781" fill="#E2E2F0" rx="8" ry="8" style="stroke:#181818;stroke-width:0.5;"/><path d="M38.9551,1286.0781 L38.9551,1313.0781 M25.9551,1294.0781 L51.9551,1294.0781 M38.9551,1313.0781 L25.9551,1328.0781 M38.9551,1313.0781 L51.9551,1328.0781" fill="none" style="stroke:#181818;stroke-width:0.5;"/></g><g class="participant participant-head" data-participant="OAuth2Filter"><rect fill="#E2E2F0" height="30.2969" rx="2.5" ry="2.5" style="stroke:#181818;stroke-width:0.5;" width="102.4297" x="258.1436" y="50"/><text fill="#000000" font-family="sans-serif" font-size="14" lengthAdjust="spacing" textLength="88.4297" x="265.1436" y="69.9951">OAuth2Filter</text></g><g class="participant participant-tail" data-participant="OAuth2Filter"><rect fill="#E2E2F0" height="30.2969" rx="2.5" ry="2.5" style="stroke:#181818;stroke-width:0.5;" width="102.4297" x="258.1436" y="1253.2813"/><text fill="#000000" font-family="sans-serif" font-size="14" lengthAdjust="spacing" textLength="88.4297" x="265.1436" y="1273.2764">OAuth2Filter</text></g><g class="participant participant-head" data-participant="AuthController"><rect fill="#E2E2F0" height="30.2969" rx="2.5" ry="2.5" style="stroke:#181818;stroke-width:0.5;" width="115.9854" x="370.5732" y="50"/><text fill="#000000" font-family="sans-serif" font-size="14" lengthAdjust="spacing" textLength="101.9854" x="377.5732" y="69.9951">AuthController</text></g><g class="participant participant-tail" data-participant="AuthController"><rect fill="#E2E2F0" height="30.2969" rx="2.5" ry="2.5" style="stroke:#181818;stroke-width:0.5;" width="115.9854" x="370.5732" y="1253.2813"/><text fill="#000000" font-family="sans-serif" font-size="14" lengthAdjust="spacing" textLength="101.9854" x="377.5732" y="1273.2764">AuthController</text></g><g class="participant participant-head" data-participant="OAuth2AppService"><rect fill="#E2E2F0" height="30.2969" rx="2.5" ry="2.5" style="stroke:#181818;stroke-width:0.5;" width="145.8311" x="614.6089" y="50"/><text fill="#000000" font-family="sans-serif" font-size="14" lengthAdjust="spacing" textLength="131.8311" x="621.6089" y="69.9951">OAuth2AppService</text></g><g class="participant participant-tail" data-participant="OAuth2AppService"><rect fill="#E2E2F0" height="30.2969" rx="2.5" ry="2.5" style="stroke:#181818;stroke-width:0.5;" width="145.8311" x="614.6089" y="1253.2813"/><text fill="#000000" font-family="sans-serif" font-size="14" lengthAdjust="spacing" textLength="131.8311" x="621.6089" y="1273.2764">OAuth2AppService</text></g><g class="participant participant-head" data-participant="TokenDomainService"><rect fill="#E2E2F0" height="30.2969" rx="2.5" ry="2.5" style="stroke:#181818;stroke-width:0.5;" width="162.7773" x="898.5908" y="50"/><text fill="#000000" font-family="sans-serif" font-size="14" lengthAdjust="spacing" textLength="148.7773" x="905.5908" y="69.9951">TokenDomainService</text></g><g class="participant participant-tail" data-participant="TokenDomainService"><rect fill="#E2E2F0" height="30.2969" rx="2.5" ry="2.5" style="stroke:#181818;stroke-width:0.5;" width="162.7773" x="898.5908" y="1253.2813"/><text fill="#000000" font-family="sans-serif" font-size="14" lengthAdjust="spacing" textLength="148.7773" x="905.5908" y="1273.2764">TokenDomainService</text></g><g class="participant participant-head" data-participant="AuthRepository"><rect fill="#E2E2F0" height="30.2969" rx="2.5" ry="2.5" style="stroke:#181818;stroke-width:0.5;" width="121.8848" x="1071.3682" y="50"/><text fill="#000000" font-family="sans-serif" font-size="14" lengthAdjust="spacing" textLength="107.8848" x="1078.3682" y="69.9951">AuthRepository</text></g><g class="participant participant-tail" data-participant="AuthRepository"><rect fill="#E2E2F0" height="30.2969" rx="2.5" ry="2.5" style="stroke:#181818;stroke-width:0.5;" width="121.8848" x="1071.3682" y="1253.2813"/><text fill="#000000" font-family="sans-serif" font-size="14" lengthAdjust="spacing" textLength="107.8848" x="1078.3682" y="1273.2764">AuthRepository</text></g><g class="participant participant-head" data-participant="AuthTemporaryRepository"><rect fill="#E2E2F0" height="30.2969" rx="2.5" ry="2.5" style="stroke:#181818;stroke-width:0.5;" width="198.5156" x="1203.2529" y="50"/><text fill="#000000" font-family="sans-serif" font-size="14" lengthAdjust="spacing" textLength="184.5156" x="1210.2529" y="69.9951">AuthTemporaryRepository</text></g><g class="participant participant-tail" data-participant="AuthTemporaryRepository"><rect fill="#E2E2F0" height="30.2969" rx="2.5" ry="2.5" style="stroke:#181818;stroke-width:0.5;" width="198.5156" x="1203.2529" y="1253.2813"/><text fill="#000000" font-family="sans-serif" font-size="14" lengthAdjust="spacing" textLength="184.5156" x="1210.2529" y="1273.2764">AuthTemporaryRepository</text></g><g class="participant participant-head" data-participant="Auth"><text fill="#000000" font-family="sans-serif" font-size="14" lengthAdjust="spacing" textLength="32.8125" x="1411.7686" y="77.9951">Auth</text><ellipse cx="1431.1748" cy="49" fill="#E2E2F0" rx="12" ry="12" style="stroke:#181818;stroke-width:0.5;"/><line style="stroke:#181818;stroke-width:0.5;" x1="1419.1748" x2="1443.1748" y1="63" y2="63"/></g><g class="participant participant-tail" data-participant="Auth"><text fill="#000000" font-family="sans-serif" font-size="14" lengthAdjust="spacing" textLength="32.8125" x="1411.7686" y="1266.2764">Auth</text><ellipse cx="1431.1748" cy="1285.5781" fill="#E2E2F0" rx="12" ry="12" style="stroke:#181818;stroke-width:0.5;"/><line style="stroke:#181818;stroke-width:0.5;" x1="1419.1748" x2="1443.1748" y1="1299.5781" y2="1299.5781"/></g><g class="participant participant-head" data-participant="DomainEventPublisher"><rect fill="#87CEEB" height="30.2969" rx="2.5" ry="2.5" style="stroke:#181818;stroke-width:0.5;" width="172.9492" x="1460.5811" y="50"/><text fill="#000000" font-family="sans-serif" font-size="14" lengthAdjust="spacing" textLength="158.9492" x="1467.5811" y="69.9951">DomainEventPublisher</text></g><g class="participant participant-tail" data-participant="DomainEventPublisher"><rect fill="#87CEEB" height="30.2969" rx="2.5" ry="2.5" style="stroke:#181818;stroke-width:0.5;" width="172.9492" x="1460.5811" y="1253.2813"/><text fill="#000000" font-family="sans-serif" font-size="14" lengthAdjust="spacing" textLength="158.9492" x="1467.5811" y="1273.2764">DomainEventPublisher</text></g><rect fill="#EEEEEE" height="3" style="stroke:#EEEEEE;stroke-width:1;" width="1638.5303" x="0" y="111.8633"/><line style="stroke:#000000;stroke-width:1;" x1="0" x2="1638.5303" y1="111.8633" y2="111.8633"/><line style="stroke:#000000;stroke-width:1;" x1="0" x2="1638.5303" y1="114.8633" y2="114.8633"/><rect fill="#EEEEEE" height="23.1328" style="stroke:#000000;stroke-width:2;" width="80.2632" x="779.1335" y="101.2969"/><text fill="#000000" font-family="sans-serif" font-size="13" font-weight="bold" lengthAdjust="spacing" textLength="61.7373" x="785.1335" y="117.3638">Redirect</text><g class="message" data-participant-1="User" data-participant-2="OAuth2Filter"><polygon fill="#181818" points="297.3584,151.5625,307.3584,155.5625,297.3584,159.5625,301.3584,155.5625" style="stroke:#181818;stroke-width:1;"/><line style="stroke:#181818;stroke-width:1;" x1="38.9551" x2="303.3584" y1="155.5625" y2="155.5625"/><text fill="#000000" font-family="sans-serif" font-size="13" lengthAdjust="spacing" textLength="246.4033" x="45.9551" y="150.4966">GET /oauth2/authorization/{provider}</text></g><g class="message" data-participant-1="OAuth2Filter" data-participant-2="User"><polygon fill="#181818" points="49.9551,180.6953,39.9551,184.6953,49.9551,188.6953,45.9551,184.6953" style="stroke:#181818;stroke-width:1;"/><line style="stroke:#181818;stroke-width:1;stroke-dasharray:2.0,2.0;" x1="43.9551" x2="308.3584" y1="184.6953" y2="184.6953"/><text fill="#000000" font-family="sans-serif" font-size="13" lengthAdjust="spacing" textLength="173.5957" x="55.9551" y="179.6294">302 to Provider AuthZ URL</text></g><rect fill="#EEEEEE" height="3" style="stroke:#EEEEEE;stroke-width:1;" width="1638.5303" x="0" y="213.2617"/><line style="stroke:#000000;stroke-width:1;" x1="0" x2="1638.5303" y1="213.2617" y2="213.2617"/><line style="stroke:#000000;stroke-width:1;" x1="0" x2="1638.5303" y1="216.2617" y2="216.2617"/><rect fill="#EEEEEE" height="23.1328" style="stroke:#000000;stroke-width:2;" width="80.1807" x="779.1748" y="202.6953"/><text fill="#000000" font-family="sans-serif" font-size="13" font-weight="bold" lengthAdjust="spacing" textLength="61.6548" x="785.1748" y="218.7622">Callback</text><g class="message" data-participant-1="User" data-participant-2="OAuth2Filter"><polygon fill="#181818" points="297.3584,252.9609,307.3584,256.9609,297.3584,260.9609,301.3584,256.9609" style="stroke:#181818;stroke-width:1;"/><line style="stroke:#181818;stroke-width:1;" x1="38.9551" x2="303.3584" y1="256.9609" y2="256.9609"/><text fill="#000000" font-family="sans-serif" font-size="13" lengthAdjust="spacing" textLength="224.8848" x="45.9551" y="251.895">GET /callback/{provider}?code=...</text></g><g class="message" data-participant-1="OAuth2Filter" data-participant-2="OAuth2AppService"><polygon fill="#181818" points="675.5244,282.0938,685.5244,286.0938,675.5244,290.0938,679.5244,286.0938" style="stroke:#181818;stroke-width:1;"/><line style="stroke:#181818;stroke-width:1;" x1="309.3584" x2="681.5244" y1="286.0938" y2="286.0938"/><text fill="#000000" font-family="sans-serif" font-size="13" lengthAdjust="spacing" textLength="145.3296" x="316.3584" y="281.0278">Oauth2AuthCommand</text></g><g class="message" data-participant-1="OAuth2AppService" data-participant-2="AuthRepository"><polygon fill="#181818" points="1120.3105,311.2266,1130.3105,315.2266,1120.3105,319.2266,1124.3105,315.2266" style="stroke:#181818;stroke-width:1;"/><line style="stroke:#181818;stroke-width:1;" x1="687.5244" x2="1126.3105" y1="315.2266" y2="315.2266"/><text fill="#000000" font-family="sans-serif" font-size="13" lengthAdjust="spacing" textLength="90.3398" x="694.5244" y="310.1606">existByAuthId</text></g><path d="M10,330.2266 L74.4429,330.2266 L74.4429,337.3594 L64.4429,347.3594 L10,347.3594 L10,330.2266" fill="#EEEEEE" style="stroke:#000000;stroke-width:1.5;"/><rect fill="none" height="382.6641" style="stroke:#000000;stroke-width:1.5;" width="1401.7686" x="10" y="330.2266"/><text fill="#000000" font-family="sans-serif" font-size="13" font-weight="bold" lengthAdjust="spacing" textLength="19.4429" x="25" y="343.2935">alt</text><text fill="#000000" font-family="sans-serif" font-size="11" font-weight="bold" lengthAdjust="spacing" textLength="40.1865" x="89.4429" y="342.437">[exist]</text><g class="message" data-participant-1="AuthRepository" data-participant-2="OAuth2AppService"><polygon fill="#181818" points="698.5244,364.4922,688.5244,368.4922,698.5244,372.4922,694.5244,368.4922" style="stroke:#181818;stroke-width:1;"/><line style="stroke:#181818;stroke-width:1;stroke-dasharray:2.0,2.0;" x1="692.5244" x2="1131.3105" y1="368.4922" y2="368.4922"/><text fill="#000000" font-family="sans-serif" font-size="13" lengthAdjust="spacing" textLength="26.6792" x="704.5244" y="363.4263">true</text></g><g class="message" data-participant-1="OAuth2AppService" data-participant-2="TokenDomainService"><polygon fill="#181818" points="967.9795,393.625,977.9795,397.625,967.9795,401.625,971.9795,397.625" style="stroke:#181818;stroke-width:1;"/><line style="stroke:#181818;stroke-width:1;" x1="687.5244" x2="973.9795" y1="397.625" y2="397.625"/><text fill="#000000" font-family="sans-serif" font-size="13" lengthAdjust="spacing" textLength="268.4551" x="694.5244" y="392.5591">issueLoginToken(TokenCreateCommand)</text></g><g class="message" data-participant-1="TokenDomainService" data-participant-2="OAuth2AppService"><polygon fill="#181818" points="698.5244,422.7578,688.5244,426.7578,698.5244,430.7578,694.5244,426.7578" style="stroke:#181818;stroke-width:1;"/><line style="stroke:#181818;stroke-width:1;stroke-dasharray:2.0,2.0;" x1="692.5244" x2="978.9795" y1="426.7578" y2="426.7578"/><text fill="#000000" font-family="sans-serif" font-size="13" lengthAdjust="spacing" textLength="64.4224" x="704.5244" y="421.6919">TokenPair</text></g><g class="message" data-participant-1="OAuth2AppService" data-participant-2="OAuth2Filter"><polygon fill="#181818" points="320.3584,451.8906,310.3584,455.8906,320.3584,459.8906,316.3584,455.8906" style="stroke:#181818;stroke-width:1;"/><line style="stroke:#181818;stroke-width:1;stroke-dasharray:2.0,2.0;" x1="314.3584" x2="686.5244" y1="455.8906" y2="455.8906"/><text fill="#000000" font-family="sans-serif" font-size="13" lengthAdjust="spacing" textLength="120.1929" x="326.3584" y="450.8247">OAuth2AuthResult</text></g><g class="message" data-participant-1="OAuth2Filter" data-participant-2="User"><polygon fill="#181818" points="49.9551,496.1563,39.9551,500.1563,49.9551,504.1563,45.9551,500.1563" style="stroke:#181818;stroke-width:1;"/><line style="stroke:#181818;stroke-width:1;stroke-dasharray:2.0,2.0;" x1="43.9551" x2="308.3584" y1="500.1563" y2="500.1563"/><text fill="#000000" font-family="sans-serif" font-size="13" lengthAdjust="spacing" textLength="98.0269" x="55.9551" y="479.9575">302 main page</text><text fill="#000000" font-family="sans-serif" font-size="13" lengthAdjust="spacing" textLength="181.6191" x="55.9551" y="495.0903">Cookie:JWT(access, refresh)</text></g><line style="stroke:#000000;stroke-width:1;stroke-dasharray:2.0,2.0;" x1="10" x2="1411.7686" y1="509.1563" y2="509.1563"/><text fill="#000000" font-family="sans-serif" font-size="11" font-weight="bold" lengthAdjust="spacing" textLength="64.6626" x="15" y="519.3667">[not exist]</text><g class="message" data-participant-1="AuthRepository" data-participant-2="OAuth2AppService"><polygon fill="#181818" points="698.5244,540.0938,688.5244,544.0938,698.5244,548.0938,694.5244,544.0938" style="stroke:#181818;stroke-width:1;"/><line style="stroke:#181818;stroke-width:1;stroke-dasharray:2.0,2.0;" x1="692.5244" x2="1131.3105" y1="544.0938" y2="544.0938"/><text fill="#000000" font-family="sans-serif" font-size="13" lengthAdjust="spacing" textLength="30.9258" x="704.5244" y="539.0278">false</text></g><g class="message" data-participant-1="OAuth2AppService" data-participant-2="AuthTemporaryRepository"><polygon fill="#181818" points="1290.5107,569.2266,1300.5107,573.2266,1290.5107,577.2266,1294.5107,573.2266" style="stroke:#181818;stroke-width:1;"/><line style="stroke:#181818;stroke-width:1;" x1="687.5244" x2="1296.5107" y1="573.2266" y2="573.2266"/><text fill="#000000" font-family="sans-serif" font-size="13" lengthAdjust="spacing" textLength="126.293" x="694.5244" y="568.1606">save(key, UserInfo)</text></g><g class="message" data-participant-1="OAuth2AppService" data-participant-2="TokenDomainService"><polygon fill="#181818" points="967.9795,598.3594,977.9795,602.3594,967.9795,606.3594,971.9795,602.3594" style="stroke:#181818;stroke-width:1;"/><line style="stroke:#181818;stroke-width:1;" x1="687.5244" x2="973.9795" y1="602.3594" y2="602.3594"/><text fill="#000000" font-family="sans-serif" font-size="13" lengthAdjust="spacing" textLength="144.5361" x="694.5244" y="597.2935">issueVerifyToken(key)</text></g><g class="message" data-participant-1="TokenDomainService" data-participant-2="OAuth2AppService"><polygon fill="#181818" points="698.5244,627.4922,688.5244,631.4922,698.5244,635.4922,694.5244,631.4922" style="stroke:#181818;stroke-width:1;"/><line style="stroke:#181818;stroke-width:1;stroke-dasharray:2.0,2.0;" x1="692.5244" x2="978.9795" y1="631.4922" y2="631.4922"/><text fill="#000000" font-family="sans-serif" font-size="13" lengthAdjust="spacing" textLength="39.6602" x="704.5244" y="626.4263">Token</text></g><g class="message" data-participant-1="OAuth2AppService" data-participant-2="OAuth2Filter"><polygon fill="#181818" points="320.3584,656.625,310.3584,660.625,320.3584,664.625,316.3584,660.625" style="stroke:#181818;stroke-width:1;"/><line style="stroke:#181818;stroke-width:1;stroke-dasharray:2.0,2.0;" x1="314.3584" x2="686.5244" y1="660.625" y2="660.625"/><text fill="#000000" font-family="sans-serif" font-size="13" lengthAdjust="spacing" textLength="120.1929" x="326.3584" y="655.5591">OAuth2AuthResult</text></g><g class="message" data-participant-1="OAuth2Filter" data-participant-2="User"><polygon fill="#181818" points="49.9551,700.8906,39.9551,704.8906,49.9551,708.8906,45.9551,704.8906" style="stroke:#181818;stroke-width:1;"/><line style="stroke:#181818;stroke-width:1;stroke-dasharray:2.0,2.0;" x1="43.9551" x2="308.3584" y1="704.8906" y2="704.8906"/><text fill="#000000" font-family="sans-serif" font-size="13" lengthAdjust="spacing" textLength="115.9653" x="55.9551" y="684.6919">302 register page</text><text fill="#000000" font-family="sans-serif" font-size="13" lengthAdjust="spacing" textLength="121.5259" x="55.9551" y="699.8247">Cookie:Token(key)</text></g><rect fill="#EEEEEE" height="3" style="stroke:#EEEEEE;stroke-width:1;" width="1638.5303" x="0" y="740.457"/><line style="stroke:#000000;stroke-width:1;" x1="0" x2="1638.5303" y1="740.457" y2="740.457"/><line style="stroke:#000000;stroke-width:1;" x1="0" x2="1638.5303" y1="743.457" y2="743.457"/><rect fill="#EEEEEE" height="23.1328" style="stroke:#000000;stroke-width:2;" width="80.2949" x="779.1177" y="729.8906"/><text fill="#000000" font-family="sans-serif" font-size="13" font-weight="bold" lengthAdjust="spacing" textLength="61.769" x="785.1177" y="745.9575">Register</text><g class="message" data-participant-1="User" data-participant-2="AuthController"><polygon fill="#181818" points="416.5659,795.2891,426.5659,799.2891,416.5659,803.2891,420.5659,799.2891" style="stroke:#181818;stroke-width:1;"/><line style="stroke:#181818;stroke-width:1;" x1="38.9551" x2="422.5659" y1="799.2891" y2="799.2891"/><text fill="#000000" font-family="sans-serif" font-size="13" lengthAdjust="spacing" textLength="167.3496" x="45.9551" y="779.0903">POST /auth/register/email</text><text fill="#000000" font-family="sans-serif" font-size="13" lengthAdjust="spacing" textLength="174.1987" x="45.9551" y="794.2231">nicknameToken, keyToken</text></g><g class="message" data-participant-1="AuthController" data-participant-2="OAuth2AppService"><polygon fill="#181818" points="675.5244,824.4219,685.5244,828.4219,675.5244,832.4219,679.5244,828.4219" style="stroke:#181818;stroke-width:1;"/><line style="stroke:#181818;stroke-width:1;" x1="428.5659" x2="681.5244" y1="828.4219" y2="828.4219"/><text fill="#000000" font-family="sans-serif" font-size="13" lengthAdjust="spacing" textLength="234.9585" x="435.5659" y="823.356">register(MemberRegisterCommand)</text></g><g class="message" data-participant-1="OAuth2AppService" data-participant-2="TokenDomainService"><polygon fill="#181818" points="967.9795,853.5547,977.9795,857.5547,967.9795,861.5547,971.9795,857.5547" style="stroke:#181818;stroke-width:1;"/><line style="stroke:#181818;stroke-width:1;" x1="687.5244" x2="973.9795" y1="857.5547" y2="857.5547"/><text fill="#000000" font-family="sans-serif" font-size="13" lengthAdjust="spacing" textLength="261.8218" x="694.5244" y="852.4888">parseToken(keyToken, NicknameToken)</text></g><g class="message" data-participant-1="TokenDomainService" data-participant-2="OAuth2AppService"><polygon fill="#181818" points="698.5244,882.6875,688.5244,886.6875,698.5244,890.6875,694.5244,886.6875" style="stroke:#181818;stroke-width:1;"/><line style="stroke:#181818;stroke-width:1;stroke-dasharray:2.0,2.0;" x1="692.5244" x2="978.9795" y1="886.6875" y2="886.6875"/><text fill="#000000" font-family="sans-serif" font-size="13" lengthAdjust="spacing" textLength="94.8784" x="704.5244" y="881.6216">key, nickname</text></g><g class="message" data-participant-1="OAuth2AppService" data-participant-2="AuthTemporaryRepository"><polygon fill="#181818" points="1290.5107,911.8203,1300.5107,915.8203,1290.5107,919.8203,1294.5107,915.8203" style="stroke:#181818;stroke-width:1;"/><line style="stroke:#181818;stroke-width:1;" x1="687.5244" x2="1296.5107" y1="915.8203" y2="915.8203"/><text fill="#000000" font-family="sans-serif" font-size="13" lengthAdjust="spacing" textLength="98.8711" x="694.5244" y="910.7544">findByKey(key)</text></g><g class="message" data-participant-1="AuthTemporaryRepository" data-participant-2="OAuth2AppService"><polygon fill="#181818" points="698.5244,940.9531,688.5244,944.9531,698.5244,948.9531,694.5244,944.9531" style="stroke:#181818;stroke-width:1;"/><line style="stroke:#181818;stroke-width:1;stroke-dasharray:2.0,2.0;" x1="692.5244" x2="1301.5107" y1="944.9531" y2="944.9531"/><text fill="#000000" font-family="sans-serif" font-size="13" lengthAdjust="spacing" textLength="83.9287" x="704.5244" y="939.8872">TmpAuthInfo</text></g><g class="message" data-participant-1="OAuth2AppService" data-participant-2="Auth"><polygon fill="#181818" points="1419.1748,970.0859,1429.1748,974.0859,1419.1748,978.0859,1423.1748,974.0859" style="stroke:#181818;stroke-width:1;"/><line style="stroke:#181818;stroke-width:1;" x1="687.5244" x2="1425.1748" y1="974.0859" y2="974.0859"/><text fill="#000000" font-family="sans-serif" font-size="13" lengthAdjust="spacing" textLength="163.2236" x="694.5244" y="969.02">register(RegisterParams)</text></g><g class="message" data-participant-1="Auth" data-participant-2="OAuth2AppService"><polygon fill="#181818" points="698.5244,999.2188,688.5244,1003.2188,698.5244,1007.2188,694.5244,1003.2188" style="stroke:#181818;stroke-width:1;"/><line style="stroke:#181818;stroke-width:1;stroke-dasharray:2.0,2.0;" x1="692.5244" x2="1430.1748" y1="1003.2188" y2="1003.2188"/><text fill="#000000" font-family="sans-serif" font-size="13" lengthAdjust="spacing" textLength="30.4688" x="704.5244" y="998.1528">Auth</text></g><g class="message" data-participant-1="OAuth2AppService" data-participant-2="AuthRepository"><polygon fill="#181818" points="1120.3105,1028.3516,1130.3105,1032.3516,1120.3105,1036.3516,1124.3105,1032.3516" style="stroke:#181818;stroke-width:1;"/><line style="stroke:#181818;stroke-width:1;" x1="687.5244" x2="1126.3105" y1="1032.3516" y2="1032.3516"/><text fill="#000000" font-family="sans-serif" font-size="13" lengthAdjust="spacing" textLength="30.4688" x="694.5244" y="1027.2856">Auth</text></g><g class="message" data-participant-1="OAuth2AppService" data-participant-2="DomainEventPublisher"><polygon fill="#181818" points="1535.0557,1057.4844,1545.0557,1061.4844,1535.0557,1065.4844,1539.0557,1061.4844" style="stroke:#181818;stroke-width:1;"/><line style="stroke:#181818;stroke-width:1;" x1="687.5244" x2="1541.0557" y1="1061.4844" y2="1061.4844"/><text fill="#000000" font-family="sans-serif" font-size="13" lengthAdjust="spacing" textLength="161.6812" x="694.5244" y="1056.4185">OAuthUserRegisterEvent</text></g><g class="message" data-participant-1="OAuth2AppService" data-participant-2="TokenDomainService"><polygon fill="#181818" points="967.9795,1086.6172,977.9795,1090.6172,967.9795,1094.6172,971.9795,1090.6172" style="stroke:#181818;stroke-width:1;"/><line style="stroke:#181818;stroke-width:1;" x1="687.5244" x2="973.9795" y1="1090.6172" y2="1090.6172"/><text fill="#000000" font-family="sans-serif" font-size="13" lengthAdjust="spacing" textLength="268.4551" x="694.5244" y="1085.5513">issueLoginToken(TokenCreateCommand)</text></g><g class="message" data-participant-1="TokenDomainService" data-participant-2="OAuth2AppService"><polygon fill="#181818" points="698.5244,1115.75,688.5244,1119.75,698.5244,1123.75,694.5244,1119.75" style="stroke:#181818;stroke-width:1;"/><line style="stroke:#181818;stroke-width:1;stroke-dasharray:2.0,2.0;" x1="692.5244" x2="978.9795" y1="1119.75" y2="1119.75"/><text fill="#000000" font-family="sans-serif" font-size="13" lengthAdjust="spacing" textLength="64.4224" x="704.5244" y="1114.6841">TokenPair</text></g><g class="message" data-participant-1="OAuth2AppService" data-participant-2="AuthController"><polygon fill="#181818" points="439.5659,1144.8828,429.5659,1148.8828,439.5659,1152.8828,435.5659,1148.8828" style="stroke:#181818;stroke-width:1;"/><line style="stroke:#181818;stroke-width:1;stroke-dasharray:2.0,2.0;" x1="433.5659" x2="686.5244" y1="1148.8828" y2="1148.8828"/><text fill="#000000" font-family="sans-serif" font-size="13" lengthAdjust="spacing" textLength="120.1929" x="445.5659" y="1143.8169">OAuth2AuthResult</text></g><g class="message" data-participant-1="AuthController" data-participant-2="User"><polygon fill="#181818" points="49.9551,1189.1484,39.9551,1193.1484,49.9551,1197.1484,45.9551,1193.1484" style="stroke:#181818;stroke-width:1;"/><line style="stroke:#181818;stroke-width:1;stroke-dasharray:2.0,2.0;" x1="43.9551" x2="427.5659" y1="1193.1484" y2="1193.1484"/><text fill="#000000" font-family="sans-serif" font-size="13" lengthAdjust="spacing" textLength="24.813" x="55.9551" y="1172.9497">201</text><text fill="#000000" font-family="sans-serif" font-size="13" lengthAdjust="spacing" textLength="73.1313" x="55.9551" y="1188.0825">Cookie:JWT</text></g><rect fill="#EEEEEE" height="3" style="stroke:#EEEEEE;stroke-width:1;" width="1638.5303" x="0" y="1221.7148"/><line style="stroke:#000000;stroke-width:1;" x1="0" x2="1638.5303" y1="1221.7148" y2="1221.7148"/><line style="stroke:#000000;stroke-width:1;" x1="0" x2="1638.5303" y1="1224.7148" y2="1224.7148"/><rect fill="#EEEEEE" height="23.1328" style="stroke:#000000;stroke-width:2;" width="191.7344" x="723.3979" y="1211.1484"/><text fill="#000000" font-family="sans-serif" font-size="13" font-weight="bold" lengthAdjust="spacing" textLength="173.2085" x="729.3979" y="1227.2153">Register with nickname</text><!--SRC=[pLLDRzD04BtlhnY9IoAbIGatIovgGq65Gg8q1Gdrih4doShhNMjt7N0H_vtrsexisAQ9n86B3pjlljwy6TF0I0MF6XL9g38iO0aL1kRNgTbDtpDkZWpv-qmAeoJddJxNIVA0Qiy2R1XNCaBnJiQKYIvpxhh4H6fcoybQfXN6YLHKPJKC2iDCvimDV97aTc_jYtJDcTwXWbSwojOyHK9y7vOOCeM10TydUUTmSTLe63puSBk2YQJvsoJ_IiMUgM5IJ7ubIkvPYEetQVXSs20kc0TlBgTW92nAe2lnEpmkxrts6ULyJOFefUn1YQjbV1l84FtnU7oK-gh5lGqoTzKNyufZAaBI0bd79l4Uu4-cpKsMFz-5X79Jl90cpdLx7Cu3eop3NLdQq_U0QPtYlTmouQm3zvqff0RBWeUaxTUJsG4NbAcEz6r-IunhIQVST4-o66IU6nAwnISnap9Yw7tyjXhG842jHw1mer3lXWIvHX3oBBesr3hrJgL3yxPqJVSuY30RkHBln4OEJsGSIig_ecARhE3S1ZgPP2XP_kSCAznQoknpW-LQWMYrM-nj2QnjJlCUsSoB-ODTdbpxaohm16rl_4a85aI2nkX2Zy36BXewYj7TUnLiy1dZDQggbeDKJnw2lLKQ3zsLjNofbtREI9mKgiRErDA6YV0c-uHPGNCVi4yCSUAkX9LWRzuQRHLX2wfeh8jiFNlXJlhBnmh-Wkpw2PIgp9LJ5UC0_-N5QcgoOw6EHNjOgUdbw_gfQcxE3sPPh-IIxn7v0m00]--></g></svg>