<svg xmlns="http://www.w3.org/2000/svg" xmlns:xlink="http://www.w3.org/1999/xlink" contentStyleType="text/css" data-diagram-type="SEQUENCE" height="760px" preserveAspectRatio="none" style="width:963px;height:760px;background:#FFFFFF;" version="1.1" viewBox="0 0 963 760" width="963px" zoomAndPan="magnify"><title>Delete Post</title><defs/><g><text fill="#000000" font-family="sans-serif" font-size="14" font-weight="bold" lengthAdjust="spacing" textLength="91.376" x="436.95" y="27.9951">Delete Post</text><g><title>Post</title><rect fill="#FFFFFF" height="169.7969" style="stroke:#181818;stroke-width:1;" width="10" x="740.4312" y="223.125"/></g><rect fill="none" height="235.8672" style="stroke:#000000;stroke-width:1.5;" width="946.2759" x="10" y="296.3906"/><g><title>Client</title><rect fill="#000000" fill-opacity="0.00000" height="561.4609" width="8" x="39.2651" y="118.5938"/><line style="stroke:#181818;stroke-width:0.5;stroke-dasharray:5.0,5.0;" x1="43" x2="43" y1="118.5938" y2="680.0547"/></g><g><title>PostController</title><rect fill="#000000" fill-opacity="0.00000" height="561.4609" width="8" x="263.9336" y="118.5938"/><line style="stroke:#181818;stroke-width:0.5;stroke-dasharray:5.0,5.0;" x1="267.4517" x2="267.4517" y1="118.5938" y2="680.0547"/></g><g><title>PostCommandService</title><rect fill="#000000" fill-opacity="0.00000" height="561.4609" width="8" x="492.7344" y="118.5938"/><line style="stroke:#181818;stroke-width:0.5;stroke-dasharray:5.0,5.0;" x1="495.9907" x2="495.9907" y1="118.5938" y2="680.0547"/></g><g><title>PostRepository</title><rect fill="#000000" fill-opacity="0.00000" height="561.4609" width="8" x="654.104" y="118.5938"/><line style="stroke:#181818;stroke-width:0.5;stroke-dasharray:5.0,5.0;" x1="657.6724" x2="657.6724" y1="118.5938" y2="680.0547"/></g><g><title>Post</title><rect fill="#000000" fill-opacity="0.00000" height="561.4609" width="8" x="741.4312" y="118.5938"/><line style="stroke:#181818;stroke-width:0.5;stroke-dasharray:5.0,5.0;" x1="744.5356" x2="744.5356" y1="118.5938" y2="680.0547"/></g><g><title>DomainEventPublisher</title><rect fill="#000000" fill-opacity="0.00000" height="561.4609" width="8" x="855.8013" y="118.5938"/><line style="stroke:#181818;stroke-width:0.5;stroke-dasharray:5.0,5.0;" x1="859.3267" x2="859.3267" y1="118.5938" y2="680.0547"/></g><g class="participant participant-head" data-participant="Client"><text fill="#000000" font-family="sans-serif" font-size="14" lengthAdjust="spacing" textLength="40.5303" x="20" y="115.292">Client</text><ellipse cx="43.2651" cy="50.7969" fill="#E2E2F0" rx="8" ry="8" style="stroke:#181818;stroke-width:0.5;"/><path d="M43.2651,58.7969 L43.2651,85.7969 M30.2651,66.7969 L56.2651,66.7969 M43.2651,85.7969 L30.2651,100.7969 M43.2651,85.7969 L56.2651,100.7969" fill="none" style="stroke:#181818;stroke-width:0.5;"/></g><g class="participant participant-tail" data-participant="Client"><text fill="#000000" font-family="sans-serif" font-size="14" lengthAdjust="spacing" textLength="40.5303" x="20" y="692.0498">Client</text><ellipse cx="43.2651" cy="703.8516" fill="#E2E2F0" rx="8" ry="8" style="stroke:#181818;stroke-width:0.5;"/><path d="M43.2651,711.8516 L43.2651,738.8516 M30.2651,719.8516 L56.2651,719.8516 M43.2651,738.8516 L30.2651,753.8516 M43.2651,738.8516 L56.2651,753.8516" fill="none" style="stroke:#181818;stroke-width:0.5;"/></g><g class="participant participant-head" data-participant="PostController"><rect fill="#E2E2F0" height="30.2969" rx="2.5" ry="2.5" style="stroke:#181818;stroke-width:0.5;" width="112.9639" x="211.4517" y="87.2969"/><text fill="#000000" font-family="sans-serif" font-size="14" lengthAdjust="spacing" textLength="98.9639" x="218.4517" y="107.292">PostController</text></g><g class="participant participant-tail" data-participant="PostController"><rect fill="#E2E2F0" height="30.2969" rx="2.5" ry="2.5" style="stroke:#181818;stroke-width:0.5;" width="112.9639" x="211.4517" y="679.0547"/><text fill="#000000" font-family="sans-serif" font-size="14" lengthAdjust="spacing" textLength="98.9639" x="218.4517" y="699.0498">PostController</text></g><g class="participant participant-head" data-participant="PostCommandService"><rect fill="#E2E2F0" height="30.2969" rx="2.5" ry="2.5" style="stroke:#181818;stroke-width:0.5;" width="167.4873" x="412.9907" y="87.2969"/><text fill="#000000" font-family="sans-serif" font-size="14" lengthAdjust="spacing" textLength="153.4873" x="419.9907" y="107.292">PostCommandService</text></g><g class="participant participant-tail" data-participant="PostCommandService"><rect fill="#E2E2F0" height="30.2969" rx="2.5" ry="2.5" style="stroke:#181818;stroke-width:0.5;" width="167.4873" x="412.9907" y="679.0547"/><text fill="#000000" font-family="sans-serif" font-size="14" lengthAdjust="spacing" textLength="153.4873" x="419.9907" y="699.0498">PostCommandService</text></g><g class="participant participant-head" data-participant="PostRepository"><rect fill="#E2E2F0" height="30.2969" rx="2.5" ry="2.5" style="stroke:#181818;stroke-width:0.5;" width="118.8633" x="598.6724" y="87.2969"/><text fill="#000000" font-family="sans-serif" font-size="14" lengthAdjust="spacing" textLength="104.8633" x="605.6724" y="107.292">PostRepository</text></g><g class="participant participant-tail" data-participant="PostRepository"><rect fill="#E2E2F0" height="30.2969" rx="2.5" ry="2.5" style="stroke:#181818;stroke-width:0.5;" width="118.8633" x="598.6724" y="679.0547"/><text fill="#000000" font-family="sans-serif" font-size="14" lengthAdjust="spacing" textLength="104.8633" x="605.6724" y="699.0498">PostRepository</text></g><g class="participant participant-head" data-participant="Post"><text fill="#000000" font-family="sans-serif" font-size="14" lengthAdjust="spacing" textLength="29.791" x="727.5356" y="115.292">Post</text><ellipse cx="745.4312" cy="86.2969" fill="#E2E2F0" rx="12" ry="12" style="stroke:#181818;stroke-width:0.5;"/><line style="stroke:#181818;stroke-width:0.5;" x1="733.4312" x2="757.4312" y1="100.2969" y2="100.2969"/></g><g class="participant participant-tail" data-participant="Post"><text fill="#000000" font-family="sans-serif" font-size="14" lengthAdjust="spacing" textLength="29.791" x="727.5356" y="692.0498">Post</text><ellipse cx="745.4312" cy="711.3516" fill="#E2E2F0" rx="12" ry="12" style="stroke:#181818;stroke-width:0.5;"/><line style="stroke:#181818;stroke-width:0.5;" x1="733.4312" x2="757.4312" y1="725.3516" y2="725.3516"/></g><g class="participant participant-head" data-participant="DomainEventPublisher"><rect fill="#E2E2F0" height="30.2969" rx="2.5" ry="2.5" style="stroke:#181818;stroke-width:0.5;" width="172.9492" x="773.3267" y="87.2969"/><text fill="#000000" font-family="sans-serif" font-size="14" lengthAdjust="spacing" textLength="158.9492" x="780.3267" y="107.292">DomainEventPublisher</text></g><g class="participant participant-tail" data-participant="DomainEventPublisher"><rect fill="#E2E2F0" height="30.2969" rx="2.5" ry="2.5" style="stroke:#181818;stroke-width:0.5;" width="172.9492" x="773.3267" y="679.0547"/><text fill="#000000" font-family="sans-serif" font-size="14" lengthAdjust="spacing" textLength="158.9492" x="780.3267" y="699.0498">DomainEventPublisher</text></g><g><title>Post</title><rect fill="#FFFFFF" height="169.7969" style="stroke:#181818;stroke-width:1;" width="10" x="740.4312" y="223.125"/></g><g class="message" data-participant-1="Client" data-participant-2="PostController"><polygon fill="#181818" points="255.9336,160.8594,265.9336,164.8594,255.9336,168.8594,259.9336,164.8594" style="stroke:#181818;stroke-width:1;"/><line style="stroke:#181818;stroke-width:1;" x1="43.2651" x2="261.9336" y1="164.8594" y2="164.8594"/><text fill="#000000" font-family="sans-serif" font-size="13" lengthAdjust="spacing" textLength="49.8354" x="50.2651" y="144.6606">DELETE</text><text fill="#000000" font-family="sans-serif" font-size="13" lengthAdjust="spacing" textLength="100.312" x="50.2651" y="159.7935">/posts/{postId}</text></g><g class="message" data-participant-1="PostController" data-participant-2="PostCommandService"><polygon fill="#181818" points="484.7344,189.9922,494.7344,193.9922,484.7344,197.9922,488.7344,193.9922" style="stroke:#181818;stroke-width:1;"/><line style="stroke:#181818;stroke-width:1;" x1="267.9336" x2="490.7344" y1="193.9922" y2="193.9922"/><text fill="#000000" font-family="sans-serif" font-size="13" lengthAdjust="spacing" textLength="204.8008" x="274.9336" y="188.9263">deletePost(Visitor, postId, cmd)</text></g><g class="message" data-participant-1="PostCommandService" data-participant-2="PostRepository"><polygon fill="#181818" points="646.104,219.125,656.104,223.125,646.104,227.125,650.104,223.125" style="stroke:#181818;stroke-width:1;"/><line style="stroke:#181818;stroke-width:1;" x1="496.7344" x2="652.104" y1="223.125" y2="223.125"/><text fill="#000000" font-family="sans-serif" font-size="13" lengthAdjust="spacing" textLength="137.3696" x="503.7344" y="218.0591">findById(commentId)</text></g><g class="message" data-participant-1="PostRepository" data-participant-2="PostCommandService"><polygon fill="#181818" points="507.7344,248.2578,497.7344,252.2578,507.7344,256.2578,503.7344,252.2578" style="stroke:#181818;stroke-width:1;"/><line style="stroke:#181818;stroke-width:1;stroke-dasharray:2.0,2.0;" x1="501.7344" x2="657.104" y1="252.2578" y2="252.2578"/><text fill="#000000" font-family="sans-serif" font-size="13" lengthAdjust="spacing" textLength="27.6631" x="513.7344" y="247.1919">Post</text></g><g class="message" data-participant-1="PostCommandService" data-participant-2="Post"><polygon fill="#181818" points="728.4312,277.3906,738.4312,281.3906,728.4312,285.3906,732.4312,281.3906" style="stroke:#181818;stroke-width:1;"/><line style="stroke:#181818;stroke-width:1;" x1="496.7344" x2="734.4312" y1="281.3906" y2="281.3906"/><text fill="#000000" font-family="sans-serif" font-size="13" lengthAdjust="spacing" textLength="153.8228" x="503.7344" y="276.3247">canDelete(Visitor, cmd)</text></g><path d="M10,296.3906 L74.4429,296.3906 L74.4429,303.5234 L64.4429,313.5234 L10,313.5234 L10,296.3906" fill="#EEEEEE" style="stroke:#000000;stroke-width:1.5;"/><rect fill="none" height="235.8672" style="stroke:#000000;stroke-width:1.5;" width="946.2759" x="10" y="296.3906"/><text fill="#000000" font-family="sans-serif" font-size="13" font-weight="bold" lengthAdjust="spacing" textLength="19.4429" x="25" y="309.4575">alt</text><text fill="#000000" font-family="sans-serif" font-size="11" font-weight="bold" lengthAdjust="spacing" textLength="111.6865" x="89.4429" y="308.6011">[Enalbe to delete]</text><g class="message" data-participant-1="Post" data-participant-2="PostCommandService"><polygon fill="#181818" points="507.7344,330.6563,497.7344,334.6563,507.7344,338.6563,503.7344,334.6563" style="stroke:#181818;stroke-width:1;"/><line style="stroke:#181818;stroke-width:1;stroke-dasharray:2.0,2.0;" x1="501.7344" x2="739.4312" y1="334.6563" y2="334.6563"/><text fill="#000000" font-family="sans-serif" font-size="13" lengthAdjust="spacing" textLength="26.6792" x="513.7344" y="329.5903">true</text></g><g class="message" data-participant-1="PostCommandService" data-participant-2="Post"><polygon fill="#181818" points="728.4312,359.7891,738.4312,363.7891,728.4312,367.7891,732.4312,363.7891" style="stroke:#181818;stroke-width:1;"/><line style="stroke:#181818;stroke-width:1;" x1="496.7344" x2="734.4312" y1="363.7891" y2="363.7891"/><text fill="#000000" font-family="sans-serif" font-size="13" lengthAdjust="spacing" textLength="77.2573" x="503.7344" y="358.7231">softDelete()</text></g><g class="message" data-participant-1="PostCommandService" data-participant-2="PostRepository"><polygon fill="#181818" points="646.104,388.9219,656.104,392.9219,646.104,396.9219,650.104,392.9219" style="stroke:#181818;stroke-width:1;"/><line style="stroke:#181818;stroke-width:1;" x1="496.7344" x2="652.104" y1="392.9219" y2="392.9219"/><text fill="#000000" font-family="sans-serif" font-size="13" lengthAdjust="spacing" textLength="68.2373" x="503.7344" y="387.856">save(Post)</text></g><g class="message" data-participant-1="PostCommandService" data-participant-2="DomainEventPublisher"><polygon fill="#181818" points="847.8013,418.0547,857.8013,422.0547,847.8013,426.0547,851.8013,422.0547" style="stroke:#181818;stroke-width:1;"/><line style="stroke:#181818;stroke-width:1;" x1="496.7344" x2="853.8013" y1="422.0547" y2="422.0547"/><text fill="#000000" font-family="sans-serif" font-size="13" lengthAdjust="spacing" textLength="116.2827" x="503.7344" y="416.9888">postDeletedEvent</text></g><g class="message" data-participant-1="PostCommandService" data-participant-2="PostController"><polygon fill="#181818" points="278.9336,447.1875,268.9336,451.1875,278.9336,455.1875,274.9336,451.1875" style="stroke:#181818;stroke-width:1;"/><line style="stroke:#181818;stroke-width:1;stroke-dasharray:2.0,2.0;" x1="272.9336" x2="495.7344" y1="451.1875" y2="451.1875"/><text fill="#000000" font-family="sans-serif" font-size="13" lengthAdjust="spacing" textLength="111.541" x="284.9336" y="446.1216">postDeleteResult</text></g><g class="message" data-participant-1="PostController" data-participant-2="Client"><polygon fill="#181818" points="54.2651,476.3203,44.2651,480.3203,54.2651,484.3203,50.2651,480.3203" style="stroke:#181818;stroke-width:1;"/><line style="stroke:#181818;stroke-width:1;stroke-dasharray:2.0,2.0;" x1="48.2651" x2="266.9336" y1="480.3203" y2="480.3203"/><text fill="#000000" font-family="sans-serif" font-size="13" lengthAdjust="spacing" textLength="200.6685" x="60.2651" y="475.2544">200 OK + postDeleteResponse</text></g><line style="stroke:#000000;stroke-width:1;stroke-dasharray:2.0,2.0;" x1="10" x2="956.2759" y1="489.3203" y2="489.3203"/><text fill="#000000" font-family="sans-serif" font-size="11" font-weight="bold" lengthAdjust="spacing" textLength="113.1045" x="15" y="499.5308">[Unable to delete]</text><g class="message" data-participant-1="Post" data-participant-2="Client"><polygon fill="#181818" points="54.2651,520.2578,44.2651,524.2578,54.2651,528.2578,50.2651,524.2578" style="stroke:#181818;stroke-width:1;"/><line style="stroke:#181818;stroke-width:1;stroke-dasharray:2.0,2.0;" x1="48.2651" x2="744.4312" y1="524.2578" y2="524.2578"/><text fill="#000000" font-family="sans-serif" font-size="13" lengthAdjust="spacing" textLength="106.3994" x="60.2651" y="519.1919">403 FORBIDDEN</text></g><path d="M272,544.2578 L272,614.2578 L418,614.2578 L418,554.2578 L408,544.2578 L272,544.2578" fill="#FEFFDD" style="stroke:#181818;stroke-width:0.5;"/><path d="M408,544.2578 L408,554.2578 L418,554.2578 L408,544.2578" fill="#FEFFDD" style="stroke:#181818;stroke-width:0.5;"/><text fill="#000000" font-family="sans-serif" font-size="13" font-weight="bold" lengthAdjust="spacing" textLength="48.2676" x="278" y="561.3247">Visitor</text><ellipse cx="283.5" cy="572.0234" fill="#000000" rx="2.5" ry="2.5"/><text fill="#000000" font-family="sans-serif" font-size="13" lengthAdjust="spacing" textLength="113.2168" x="290" y="576.4575">Member or Guest</text><ellipse cx="283.5" cy="587.1563" fill="#000000" rx="2.5" ry="2.5"/><text fill="#000000" font-family="sans-serif" font-size="13" lengthAdjust="spacing" textLength="52.1714" x="290" y="591.5903">visitorId</text><ellipse cx="283.5" cy="602.2891" fill="#000000" rx="2.5" ry="2.5"/><text fill="#000000" font-family="sans-serif" font-size="13" lengthAdjust="spacing" textLength="67.0059" x="290" y="606.7231">memberId</text><path d="M272,624.7891 L272,664.7891 L366,664.7891 L366,634.7891 L356,624.7891 L272,624.7891" fill="#FEFFDD" style="stroke:#181818;stroke-width:0.5;"/><path d="M356,624.7891 L356,634.7891 L366,634.7891 L356,624.7891" fill="#FEFFDD" style="stroke:#181818;stroke-width:0.5;"/><text fill="#000000" font-family="sans-serif" font-size="13" font-weight="bold" lengthAdjust="spacing" textLength="30.5576" x="278" y="641.856">cmd</text><ellipse cx="283.5" cy="652.5547" fill="#000000" rx="2.5" ry="2.5"/><text fill="#000000" font-family="sans-serif" font-size="13" lengthAdjust="spacing" textLength="61.9468" x="290" y="656.9888">password</text><!--SRC=[ZPF1Rjim38RlUWhUbdGr4hGx1KKEhRt2QBi4QRTJBxB5h09aoR0O3y6mTnyjEucREcrziM6I7t_-eaYJGOZH824idISXP4wkWXkZqP8ePKKwrwMq5C8tpbBbZC5g85GKqgf7h6gTuvlm2aldDQEtWi6QjX2UqBEV6xj2QflKdBJSP4Rx5-ubMZaGpOzKm0pYv3vvIfxjXFda9t-RLwh-YIzH545Fxr7X7jLNpJWLl6X2eryw23w75daEUQ76BNStvG2Y0n_cPUXQMtMzJTKevrmU9DrnUgwmxxgMksCuGaIdvEwJXrLmHYvjUxw7US8SGXg2n4gJ8P3hvWweqzsesk3xtRnRKzTk_5btlAnnrFmT2uMlRGWcXMKu0HjQ5qOs9zRAK6rrvxOldVN38mpjrW73fHj3RvQ8YxhLd05SJAUmk8ElhylQZcWymayhCpFezXxoRNe9tnUhwpIEanzyKvGGrh4RbVxzGk3MnxVmAfjtnteroURY31wmo5WPN-7R3RA3Pr2tyLJnTn6Y_CbaQC0VqdbNEd8flV_Zgbwj-0y0]--></g></svg>