<svg xmlns="http://www.w3.org/2000/svg" xmlns:xlink="http://www.w3.org/1999/xlink" contentStyleType="text/css" data-diagram-type="SEQUENCE" height="687px" preserveAspectRatio="none" style="width:1824px;height:687px;background:#FFFFFF;" version="1.1" viewBox="0 0 1824 687" width="1824px" zoomAndPan="magnify"><title>Get post detailed</title><defs/><g><text fill="#000000" font-family="sans-serif" font-size="14" font-weight="bold" lengthAdjust="spacing" textLength="136.8623" x="844.9167" y="27.9951">Get post detailed</text><rect fill="none" height="279.8047" style="stroke:#000000;stroke-width:1.5;" width="1807.6958" x="10" y="310.3906"/><g><title>Client</title><rect fill="#000000" fill-opacity="0.00000" height="488.6016" width="8" x="39.2651" y="118.5938"/><line style="stroke:#181818;stroke-width:0.5;stroke-dasharray:5.0,5.0;" x1="43" x2="43" y1="118.5938" y2="607.1953"/></g><g><title>PostQueryController</title><rect fill="#000000" fill-opacity="0.00000" height="488.6016" width="8" x="311.1602" y="118.5938"/><line style="stroke:#181818;stroke-width:0.5;stroke-dasharray:5.0,5.0;" x1="314.4048" x2="314.4048" y1="118.5938" y2="607.1953"/></g><g><title>PostQueryService</title><rect fill="#000000" fill-opacity="0.00000" height="488.6016" width="8" x="591.9546" y="118.5938"/><line style="stroke:#181818;stroke-width:0.5;stroke-dasharray:5.0,5.0;" x1="595.915" x2="595.915" y1="118.5938" y2="607.1953"/></g><g><title>PostQueryRepository</title><rect fill="#000000" fill-opacity="0.00000" height="488.6016" width="8" x="807.2476" y="118.5938"/><line style="stroke:#181818;stroke-width:0.5;stroke-dasharray:5.0,5.0;" x1="810.5425" x2="810.5425" y1="118.5938" y2="607.1953"/></g><g><title>CommentQueryRepository</title><rect fill="#000000" fill-opacity="0.00000" height="488.6016" width="8" x="998.0581" y="118.5938"/><line style="stroke:#181818;stroke-width:0.5;stroke-dasharray:5.0,5.0;" x1="1001.9526" x2="1001.9526" y1="118.5938" y2="607.1953"/></g><g><title>DomainEventPublisher</title><rect fill="#000000" fill-opacity="0.00000" height="488.6016" width="8" x="1194.6382" y="118.5938"/><line style="stroke:#181818;stroke-width:0.5;stroke-dasharray:5.0,5.0;" x1="1198.1636" x2="1198.1636" y1="118.5938" y2="607.1953"/></g><g><title>ViewCountCacheHandler</title><rect fill="#000000" fill-opacity="0.00000" height="488.6016" width="8" x="1384.9976" y="118.5938"/><line style="stroke:#181818;stroke-width:0.5;stroke-dasharray:5.0,5.0;" x1="1388.1128" x2="1388.1128" y1="118.5938" y2="607.1953"/></g><g><title>PostWriteCacheRepository</title><rect fill="#000000" fill-opacity="0.00000" height="488.6016" width="8" x="1588.8784" y="118.5938"/><line style="stroke:#181818;stroke-width:0.5;stroke-dasharray:5.0,5.0;" x1="1591.8823" x2="1591.8823" y1="118.5938" y2="607.1953"/></g><g><title>Cache</title><rect fill="#000000" fill-opacity="0.00000" height="488.6016" width="8" x="1778.9268" y="118.5938"/><line style="stroke:#181818;stroke-width:0.5;stroke-dasharray:5.0,5.0;" x1="1782.1577" x2="1782.1577" y1="118.5938" y2="607.1953"/></g><g class="participant participant-head" data-participant="Client"><text fill="#000000" font-family="sans-serif" font-size="14" lengthAdjust="spacing" textLength="40.5303" x="20" y="115.292">Client</text><ellipse cx="43.2651" cy="50.7969" fill="#E2E2F0" rx="8" ry="8" style="stroke:#181818;stroke-width:0.5;"/><path d="M43.2651,58.7969 L43.2651,85.7969 M30.2651,66.7969 L56.2651,66.7969 M43.2651,85.7969 L30.2651,100.7969 M43.2651,85.7969 L56.2651,100.7969" fill="none" style="stroke:#181818;stroke-width:0.5;"/></g><g class="participant participant-tail" data-participant="Client"><text fill="#000000" font-family="sans-serif" font-size="14" lengthAdjust="spacing" textLength="40.5303" x="20" y="619.1904">Client</text><ellipse cx="43.2651" cy="630.9922" fill="#E2E2F0" rx="8" ry="8" style="stroke:#181818;stroke-width:0.5;"/><path d="M43.2651,638.9922 L43.2651,665.9922 M30.2651,646.9922 L56.2651,646.9922 M43.2651,665.9922 L30.2651,680.9922 M43.2651,665.9922 L56.2651,680.9922" fill="none" style="stroke:#181818;stroke-width:0.5;"/></g><g class="participant participant-head" data-participant="PostQueryController"><rect fill="#E2E2F0" height="30.2969" rx="2.5" ry="2.5" style="stroke:#181818;stroke-width:0.5;" width="155.5107" x="237.4048" y="87.2969"/><text fill="#000000" font-family="sans-serif" font-size="14" lengthAdjust="spacing" textLength="141.5107" x="244.4048" y="107.292">PostQueryController</text></g><g class="participant participant-tail" data-participant="PostQueryController"><rect fill="#E2E2F0" height="30.2969" rx="2.5" ry="2.5" style="stroke:#181818;stroke-width:0.5;" width="155.5107" x="237.4048" y="606.1953"/><text fill="#000000" font-family="sans-serif" font-size="14" lengthAdjust="spacing" textLength="141.5107" x="244.4048" y="626.1904">PostQueryController</text></g><g class="participant participant-head" data-participant="PostQueryService"><rect fill="#E2E2F0" height="30.2969" rx="2.5" ry="2.5" style="stroke:#181818;stroke-width:0.5;" width="138.0791" x="526.915" y="87.2969"/><text fill="#000000" font-family="sans-serif" font-size="14" lengthAdjust="spacing" textLength="124.0791" x="533.915" y="107.292">PostQueryService</text></g><g class="participant participant-tail" data-participant="PostQueryService"><rect fill="#E2E2F0" height="30.2969" rx="2.5" ry="2.5" style="stroke:#181818;stroke-width:0.5;" width="138.0791" x="526.915" y="606.1953"/><text fill="#000000" font-family="sans-serif" font-size="14" lengthAdjust="spacing" textLength="124.0791" x="533.915" y="626.1904">PostQueryService</text></g><g class="participant participant-head" data-participant="PostQueryRepository"><rect fill="#E2E2F0" height="30.2969" rx="2.5" ry="2.5" style="stroke:#181818;stroke-width:0.5;" width="161.4102" x="730.5425" y="87.2969"/><text fill="#000000" font-family="sans-serif" font-size="14" lengthAdjust="spacing" textLength="147.4102" x="737.5425" y="107.292">PostQueryRepository</text></g><g class="participant participant-tail" data-participant="PostQueryRepository"><rect fill="#E2E2F0" height="30.2969" rx="2.5" ry="2.5" style="stroke:#181818;stroke-width:0.5;" width="161.4102" x="730.5425" y="606.1953"/><text fill="#000000" font-family="sans-serif" font-size="14" lengthAdjust="spacing" textLength="147.4102" x="737.5425" y="626.1904">PostQueryRepository</text></g><g class="participant participant-head" data-participant="CommentQueryRepository"><rect fill="#FFA500" height="30.2969" rx="2.5" ry="2.5" style="stroke:#181818;stroke-width:0.5;" width="200.2109" x="901.9526" y="87.2969"/><text fill="#000000" font-family="sans-serif" font-size="14" lengthAdjust="spacing" textLength="186.2109" x="908.9526" y="107.292">CommentQueryRepository</text></g><g class="participant participant-tail" data-participant="CommentQueryRepository"><rect fill="#FFA500" height="30.2969" rx="2.5" ry="2.5" style="stroke:#181818;stroke-width:0.5;" width="200.2109" x="901.9526" y="606.1953"/><text fill="#000000" font-family="sans-serif" font-size="14" lengthAdjust="spacing" textLength="186.2109" x="908.9526" y="626.1904">CommentQueryRepository</text></g><g class="participant participant-head" data-participant="DomainEventPublisher"><rect fill="#87CEEB" height="46.5938" rx="2.5" ry="2.5" style="stroke:#181818;stroke-width:0.5;" width="172.9492" x="1112.1636" y="71"/><text fill="#000000" font-family="sans-serif" font-size="14" lengthAdjust="spacing" textLength="158.9492" x="1119.1636" y="90.9951">DomainEventPublisher</text><text fill="#000000" font-family="sans-serif" font-size="14" lengthAdjust="spacing" textLength="51.6523" x="1172.812" y="107.292">(async)</text></g><g class="participant participant-tail" data-participant="DomainEventPublisher"><rect fill="#87CEEB" height="46.5938" rx="2.5" ry="2.5" style="stroke:#181818;stroke-width:0.5;" width="172.9492" x="1112.1636" y="606.1953"/><text fill="#000000" font-family="sans-serif" font-size="14" lengthAdjust="spacing" textLength="158.9492" x="1119.1636" y="626.1904">DomainEventPublisher</text><text fill="#000000" font-family="sans-serif" font-size="14" lengthAdjust="spacing" textLength="51.6523" x="1172.812" y="642.4873">(async)</text></g><g class="participant participant-head" data-participant="ViewCountCacheHandler"><rect fill="#87CEEB" height="30.2969" rx="2.5" ry="2.5" style="stroke:#181818;stroke-width:0.5;" width="187.7695" x="1295.1128" y="87.2969"/><text fill="#000000" font-family="sans-serif" font-size="14" lengthAdjust="spacing" textLength="173.7695" x="1302.1128" y="107.292">ViewCountCacheHandler</text></g><g class="participant participant-tail" data-participant="ViewCountCacheHandler"><rect fill="#87CEEB" height="30.2969" rx="2.5" ry="2.5" style="stroke:#181818;stroke-width:0.5;" width="187.7695" x="1295.1128" y="606.1953"/><text fill="#000000" font-family="sans-serif" font-size="14" lengthAdjust="spacing" textLength="173.7695" x="1302.1128" y="626.1904">ViewCountCacheHandler</text></g><g class="participant participant-head" data-participant="PostCacheRepository"><rect fill="#E2E2F0" height="46.5938" rx="2.5" ry="2.5" style="stroke:#181818;stroke-width:0.5;" width="199.9922" x="1492.8823" y="71"/><text fill="#000000" font-family="sans-serif" font-size="14" lengthAdjust="spacing" textLength="185.9922" x="1499.8823" y="90.9951">PostWriteCacheRepository</text><text fill="#000000" font-family="sans-serif" font-size="14" lengthAdjust="spacing" textLength="92.0322" x="1546.8623" y="107.292">(write cache)</text></g><g class="participant participant-tail" data-participant="PostCacheRepository"><rect fill="#E2E2F0" height="46.5938" rx="2.5" ry="2.5" style="stroke:#181818;stroke-width:0.5;" width="199.9922" x="1492.8823" y="606.1953"/><text fill="#000000" font-family="sans-serif" font-size="14" lengthAdjust="spacing" textLength="185.9922" x="1499.8823" y="626.1904">PostWriteCacheRepository</text><text fill="#000000" font-family="sans-serif" font-size="14" lengthAdjust="spacing" textLength="92.0322" x="1546.8623" y="642.4873">(write cache)</text></g><g class="participant participant-head" data-participant="Cache"><text fill="#000000" font-family="sans-serif" font-size="14" lengthAdjust="spacing" textLength="43.5381" x="1758.1577" y="115.292">Cache</text><path d="M1764.9268,66.2969 C1764.9268,56.2969 1782.9268,56.2969 1782.9268,56.2969 C1782.9268,56.2969 1800.9268,56.2969 1800.9268,66.2969 L1800.9268,92.2969 C1800.9268,102.2969 1782.9268,102.2969 1782.9268,102.2969 C1782.9268,102.2969 1764.9268,102.2969 1764.9268,92.2969 L1764.9268,66.2969" fill="#E2E2F0" style="stroke:#181818;stroke-width:1.5;"/><path d="M1764.9268,66.2969 C1764.9268,76.2969 1782.9268,76.2969 1782.9268,76.2969 C1782.9268,76.2969 1800.9268,76.2969 1800.9268,66.2969" fill="none" style="stroke:#181818;stroke-width:1.5;"/></g><g class="participant participant-tail" data-participant="Cache"><text fill="#000000" font-family="sans-serif" font-size="14" lengthAdjust="spacing" textLength="43.5381" x="1758.1577" y="619.1904">Cache</text><path d="M1764.9268,632.4922 C1764.9268,622.4922 1782.9268,622.4922 1782.9268,622.4922 C1782.9268,622.4922 1800.9268,622.4922 1800.9268,632.4922 L1800.9268,658.4922 C1800.9268,668.4922 1782.9268,668.4922 1782.9268,668.4922 C1782.9268,668.4922 1764.9268,668.4922 1764.9268,658.4922 L1764.9268,632.4922" fill="#E2E2F0" style="stroke:#181818;stroke-width:1.5;"/><path d="M1764.9268,632.4922 C1764.9268,642.4922 1782.9268,642.4922 1782.9268,642.4922 C1782.9268,642.4922 1800.9268,642.4922 1800.9268,632.4922" fill="none" style="stroke:#181818;stroke-width:1.5;"/></g><g class="message" data-participant-1="Client" data-participant-2="PostQueryController"><polygon fill="#181818" points="303.1602,145.7266,313.1602,149.7266,303.1602,153.7266,307.1602,149.7266" style="stroke:#181818;stroke-width:1;"/><line style="stroke:#181818;stroke-width:1;" x1="43.2651" x2="309.1602" y1="149.7266" y2="149.7266"/><text fill="#000000" font-family="sans-serif" font-size="13" lengthAdjust="spacing" textLength="247.895" x="50.2651" y="144.6606">GET /posts/{postId}?board={bname}</text></g><g class="message" data-participant-1="PostQueryController" data-participant-2="PostQueryService"><polygon fill="#181818" points="583.9546,174.8594,593.9546,178.8594,583.9546,182.8594,587.9546,178.8594" style="stroke:#181818;stroke-width:1;"/><line style="stroke:#181818;stroke-width:1;" x1="315.1602" x2="589.9546" y1="178.8594" y2="178.8594"/><text fill="#000000" font-family="sans-serif" font-size="13" lengthAdjust="spacing" textLength="256.7944" x="322.1602" y="173.7935">getPostDetailed(Visitor, postId, bname)</text></g><g class="message" data-participant-1="PostQueryService" data-participant-2="PostQueryRepository"><polygon fill="#181818" points="799.2476,203.9922,809.2476,207.9922,799.2476,211.9922,803.2476,207.9922" style="stroke:#181818;stroke-width:1;"/><line style="stroke:#181818;stroke-width:1;" x1="595.9546" x2="805.2476" y1="207.9922" y2="207.9922"/><text fill="#000000" font-family="sans-serif" font-size="13" lengthAdjust="spacing" textLength="191.293" x="602.9546" y="202.9263">fetchDetailed(postId, bname)</text></g><g class="message" data-participant-1="PostQueryRepository" data-participant-2="PostQueryService"><polygon fill="#181818" points="606.9546,233.125,596.9546,237.125,606.9546,241.125,602.9546,237.125" style="stroke:#181818;stroke-width:1;"/><line style="stroke:#181818;stroke-width:1;stroke-dasharray:2.0,2.0;" x1="600.9546" x2="810.2476" y1="237.125" y2="237.125"/><text fill="#000000" font-family="sans-serif" font-size="13" lengthAdjust="spacing" textLength="94.1421" x="612.9546" y="232.0591">PostDetailDTO</text></g><g class="message" data-participant-1="PostQueryService" data-participant-2="CommentQueryRepository"><polygon fill="#181818" points="990.0581,262.2578,1000.0581,266.2578,990.0581,270.2578,994.0581,266.2578" style="stroke:#181818;stroke-width:1;"/><line style="stroke:#181818;stroke-width:1;" x1="595.9546" x2="996.0581" y1="266.2578" y2="266.2578"/><text fill="#000000" font-family="sans-serif" font-size="13" lengthAdjust="spacing" textLength="210.5137" x="602.9546" y="261.1919">fetchCommentList(postId, page)</text></g><g class="message" data-participant-1="CommentQueryRepository" data-participant-2="PostQueryService"><polygon fill="#181818" points="606.9546,291.3906,596.9546,295.3906,606.9546,299.3906,602.9546,295.3906" style="stroke:#181818;stroke-width:1;"/><line style="stroke:#181818;stroke-width:1;stroke-dasharray:2.0,2.0;" x1="600.9546" x2="1001.0581" y1="295.3906" y2="295.3906"/><text fill="#000000" font-family="sans-serif" font-size="13" lengthAdjust="spacing" textLength="114.6006" x="612.9546" y="290.3247">CommentListDTO</text></g><path d="M10,310.3906 L74.4429,310.3906 L74.4429,317.5234 L64.4429,327.5234 L10,327.5234 L10,310.3906" fill="#EEEEEE" style="stroke:#000000;stroke-width:1.5;"/><rect fill="none" height="279.8047" style="stroke:#000000;stroke-width:1.5;" width="1807.6958" x="10" y="310.3906"/><text fill="#000000" font-family="sans-serif" font-size="13" font-weight="bold" lengthAdjust="spacing" textLength="19.4429" x="25" y="323.4575">alt</text><text fill="#000000" font-family="sans-serif" font-size="11" font-weight="bold" lengthAdjust="spacing" textLength="166.8745" x="89.4429" y="322.6011">[Post exists &amp; not deleted]</text><g class="message" data-participant-1="PostQueryService" data-participant-2="DomainEventPublisher"><polygon fill="#181818" points="1186.6382,344.6563,1196.6382,348.6563,1186.6382,352.6563,1190.6382,348.6563" style="stroke:#181818;stroke-width:1;"/><line style="stroke:#181818;stroke-width:1;" x1="595.9546" x2="1192.6382" y1="348.6563" y2="348.6563"/><text fill="#000000" font-family="sans-serif" font-size="13" lengthAdjust="spacing" textLength="267.0205" x="602.9546" y="343.5903">publish(PostViewIncreasedEvent(postId))</text></g><g class="message" data-participant-1="PostQueryService" data-participant-2="PostQueryController"><polygon fill="#181818" points="326.1602,373.7891,316.1602,377.7891,326.1602,381.7891,322.1602,377.7891" style="stroke:#181818;stroke-width:1;"/><line style="stroke:#181818;stroke-width:1;stroke-dasharray:2.0,2.0;" x1="320.1602" x2="594.9546" y1="377.7891" y2="377.7891"/><text fill="#000000" font-family="sans-serif" font-size="13" lengthAdjust="spacing" textLength="106.7104" x="332.1602" y="372.7231">PostDetailResult</text></g><g class="message" data-participant-1="PostQueryController" data-participant-2="Client"><polygon fill="#181818" points="54.2651,402.9219,44.2651,406.9219,54.2651,410.9219,50.2651,406.9219" style="stroke:#181818;stroke-width:1;"/><line style="stroke:#181818;stroke-width:1;stroke-dasharray:2.0,2.0;" x1="48.2651" x2="314.1602" y1="406.9219" y2="406.9219"/><text fill="#000000" font-family="sans-serif" font-size="13" lengthAdjust="spacing" textLength="195.8379" x="60.2651" y="401.856">200 OK + PostDetailResponse</text></g><g class="message" data-participant-1="DomainEventPublisher" data-participant-2="ViewCountCacheHandler"><polygon fill="#181818" points="1376.9976,432.0547,1386.9976,436.0547,1376.9976,440.0547,1380.9976,436.0547" style="stroke:#181818;stroke-width:1;"/><line style="stroke:#181818;stroke-width:1;stroke-dasharray:2.0,2.0;" x1="1198.6382" x2="1382.9976" y1="436.0547" y2="436.0547"/><text fill="#000000" font-family="sans-serif" font-size="13" lengthAdjust="spacing" textLength="159.5928" x="1205.6382" y="430.9888">PostViewIncreasedEvent</text></g><g class="message" data-participant-1="ViewCountCacheHandler" data-participant-2="PostCacheRepository"><polygon fill="#181818" points="1580.8784,461.1875,1590.8784,465.1875,1580.8784,469.1875,1584.8784,465.1875" style="stroke:#181818;stroke-width:1;"/><line style="stroke:#181818;stroke-width:1;" x1="1388.9976" x2="1586.8784" y1="465.1875" y2="465.1875"/><text fill="#000000" font-family="sans-serif" font-size="13" lengthAdjust="spacing" textLength="175.1255" x="1395.9976" y="460.1216">increaseViewCount(postId)</text></g><g class="message" data-participant-1="PostCacheRepository" data-participant-2="Cache"><polygon fill="#181818" points="1770.9268,490.3203,1780.9268,494.3203,1770.9268,498.3203,1774.9268,494.3203" style="stroke:#181818;stroke-width:1;"/><line style="stroke:#181818;stroke-width:1;" x1="1592.8784" x2="1776.9268" y1="494.3203" y2="494.3203"/><text fill="#000000" font-family="sans-serif" font-size="13" lengthAdjust="spacing" textLength="166.0483" x="1599.8784" y="489.2544">INCR post:{postId}:views</text></g><line style="stroke:#000000;stroke-width:1;stroke-dasharray:2.0,2.0;" x1="10" x2="1817.6958" y1="503.3203" y2="503.3203"/><text fill="#000000" font-family="sans-serif" font-size="11" font-weight="bold" lengthAdjust="spacing" textLength="101.6641" x="15" y="513.5308">[Post not found]</text><g class="message" data-participant-1="PostQueryController" data-participant-2="Client"><polygon fill="#181818" points="54.2651,534.2578,44.2651,538.2578,54.2651,542.2578,50.2651,538.2578" style="stroke:#181818;stroke-width:1;"/><line style="stroke:#181818;stroke-width:1;stroke-dasharray:2.0,2.0;" x1="48.2651" x2="314.1602" y1="538.2578" y2="538.2578"/><text fill="#000000" font-family="sans-serif" font-size="13" lengthAdjust="spacing" textLength="153.4355" x="60.2651" y="533.1919">404_POST_NOT_FOUND</text></g><line style="stroke:#000000;stroke-width:1;stroke-dasharray:2.0,2.0;" x1="10" x2="1817.6958" y1="547.2578" y2="547.2578"/><text fill="#000000" font-family="sans-serif" font-size="11" font-weight="bold" lengthAdjust="spacing" textLength="88.4673" x="15" y="557.4683">[Post deleted]</text><g class="message" data-participant-1="PostQueryController" data-participant-2="Client"><polygon fill="#181818" points="54.2651,578.1953,44.2651,582.1953,54.2651,586.1953,50.2651,582.1953" style="stroke:#181818;stroke-width:1;"/><line style="stroke:#181818;stroke-width:1;stroke-dasharray:2.0,2.0;" x1="48.2651" x2="314.1602" y1="582.1953" y2="582.1953"/><text fill="#000000" font-family="sans-serif" font-size="13" lengthAdjust="spacing" textLength="131.9233" x="60.2651" y="577.1294">410_POST_DELETED</text></g><!--SRC=[ZPDTQzim58Rl_IiEAPI4jJGRlJ9ilR3TBgp4MUfrDuCWswU9c28PIKuNIl_x9DbDx5I6viP1Ek-ZztnfgXd27MgeXD9GeYQKOHcGGWi94QF8TL0HgMb1Ay8rB4pOpnhbFX9SIy4OIl_z0yeTBT1_kKJp73LFx7ltaTXkpOCd8N0c9E7hFceKYosXFDcP-4MTCwesAF_mCL5xNan6G1Ju8k1C_TtdhEx37Ya-HwBcEYB51hyJNhAXq97DuRUa6btiqQLv-zaUGs7F6mSszYGiA8acEL48vkVkWg0fCrn-yrKNGhXBChYo_L5NB_OpArzlSa5a-VKbvsIBhu5FryMrpJ2iDMfx6hUD7ZzIv-i26l05EE8aU2VjuZgz2U49TR4vy8Om7ScbtzdHLfobtlS7ngErqDxUKwKFBYgoDYO6T0C-EXnhXB1cRW7_cHC5vy25NHI6sko9xQBFgdVsGgYQ_sChiKCtuuL4CmobYsnjJoO3sC41EPPkYQfckg_lpeIjOZDj8NoPJY7z0P_wyafmXGxWpS4I_ElIs7YVbMFv9Mr29ojYIBGb76HlfJbaTggnYTaZ8vxDewKRv_1jMyATuQW0cLaxrqlRmYV3BJzMgUlfzMgHFcIhUPgjRjDVyxZ3yex28Edpj275oNsI9OR3o_y0]--></g></svg>