<svg xmlns="http://www.w3.org/2000/svg" xmlns:xlink="http://www.w3.org/1999/xlink" contentStyleType="text/css" data-diagram-type="SEQUENCE" height="917px" preserveAspectRatio="none" style="width:1343px;height:917px;background:#FFFFFF;" version="1.1" viewBox="0 0 1343 917" width="1343px" zoomAndPan="magnify"><title>Get comment list</title><defs/><g><text fill="#000000" font-family="sans-serif" font-size="14" font-weight="bold" lengthAdjust="spacing" textLength="135.2969" x="605.1035" y="27.9951">Get comment list</text><rect fill="none" height="294.1328" style="stroke:#000000;stroke-width:1.5;" width="1326.5039" x="10" y="238.125"/><g><title>Client</title><rect fill="#000000" fill-opacity="0.00000" height="717.6563" width="8" x="39.2651" y="118.5938"/><line style="stroke:#181818;stroke-width:0.5;stroke-dasharray:5.0,5.0;" x1="43" x2="43" y1="118.5938" y2="836.25"/></g><g><title>CommentQueryController</title><rect fill="#000000" fill-opacity="0.00000" height="717.6563" width="8" x="458.0005" y="118.5938"/><line style="stroke:#181818;stroke-width:0.5;stroke-dasharray:5.0,5.0;" x1="461.8447" x2="461.8447" y1="118.5938" y2="836.25"/></g><g><title>CommentQueryService</title><rect fill="#000000" fill-opacity="0.00000" height="717.6563" width="8" x="680.3901" y="118.5938"/><line style="stroke:#181818;stroke-width:0.5;stroke-dasharray:5.0,5.0;" x1="683.9502" x2="683.9502" y1="118.5938" y2="836.25"/></g><g><title>PostQueryRepository</title><rect fill="#000000" fill-opacity="0.00000" height="717.6563" width="8" x="859.5352" y="118.5938"/><line style="stroke:#181818;stroke-width:0.5;stroke-dasharray:5.0,5.0;" x1="862.8301" x2="862.8301" y1="118.5938" y2="836.25"/></g><g><title>CommentQueryRepository</title><rect fill="#000000" fill-opacity="0.00000" height="717.6563" width="8" x="1050.3457" y="118.5938"/><line style="stroke:#181818;stroke-width:0.5;stroke-dasharray:5.0,5.0;" x1="1054.2402" x2="1054.2402" y1="118.5938" y2="836.25"/></g><g><title>MemberFetchService</title><rect fill="#000000" fill-opacity="0.00000" height="717.6563" width="8" x="1241.4775" y="118.5938"/><line style="stroke:#181818;stroke-width:0.5;stroke-dasharray:5.0,5.0;" x1="1245.4512" x2="1245.4512" y1="118.5938" y2="836.25"/></g><g class="participant participant-head" data-participant="Client"><text fill="#000000" font-family="sans-serif" font-size="14" lengthAdjust="spacing" textLength="40.5303" x="20" y="115.292">Client</text><ellipse cx="43.2651" cy="50.7969" fill="#E2E2F0" rx="8" ry="8" style="stroke:#181818;stroke-width:0.5;"/><path d="M43.2651,58.7969 L43.2651,85.7969 M30.2651,66.7969 L56.2651,66.7969 M43.2651,85.7969 L30.2651,100.7969 M43.2651,85.7969 L56.2651,100.7969" fill="none" style="stroke:#181818;stroke-width:0.5;"/></g><g class="participant participant-tail" data-participant="Client"><text fill="#000000" font-family="sans-serif" font-size="14" lengthAdjust="spacing" textLength="40.5303" x="20" y="848.2451">Client</text><ellipse cx="43.2651" cy="860.0469" fill="#E2E2F0" rx="8" ry="8" style="stroke:#181818;stroke-width:0.5;"/><path d="M43.2651,868.0469 L43.2651,895.0469 M30.2651,876.0469 L56.2651,876.0469 M43.2651,895.0469 L30.2651,910.0469 M43.2651,895.0469 L56.2651,910.0469" fill="none" style="stroke:#181818;stroke-width:0.5;"/></g><g class="participant participant-head" data-participant="CommentQueryController"><rect fill="#E2E2F0" height="30.2969" rx="2.5" ry="2.5" style="stroke:#181818;stroke-width:0.5;" width="194.3115" x="364.8447" y="87.2969"/><text fill="#000000" font-family="sans-serif" font-size="14" lengthAdjust="spacing" textLength="180.3115" x="371.8447" y="107.292">CommentQueryController</text></g><g class="participant participant-tail" data-participant="CommentQueryController"><rect fill="#E2E2F0" height="30.2969" rx="2.5" ry="2.5" style="stroke:#181818;stroke-width:0.5;" width="194.3115" x="364.8447" y="835.25"/><text fill="#000000" font-family="sans-serif" font-size="14" lengthAdjust="spacing" textLength="180.3115" x="371.8447" y="855.2451">CommentQueryController</text></g><g class="participant participant-head" data-participant="CommentQueryService"><rect fill="#E2E2F0" height="30.2969" rx="2.5" ry="2.5" style="stroke:#181818;stroke-width:0.5;" width="176.8799" x="595.9502" y="87.2969"/><text fill="#000000" font-family="sans-serif" font-size="14" lengthAdjust="spacing" textLength="162.8799" x="602.9502" y="107.292">CommentQueryService</text></g><g class="participant participant-tail" data-participant="CommentQueryService"><rect fill="#E2E2F0" height="30.2969" rx="2.5" ry="2.5" style="stroke:#181818;stroke-width:0.5;" width="176.8799" x="595.9502" y="835.25"/><text fill="#000000" font-family="sans-serif" font-size="14" lengthAdjust="spacing" textLength="162.8799" x="602.9502" y="855.2451">CommentQueryService</text></g><g class="participant participant-head" data-participant="PostQueryRepository"><rect fill="#E2E2F0" height="30.2969" rx="2.5" ry="2.5" style="stroke:#181818;stroke-width:0.5;" width="161.4102" x="782.8301" y="87.2969"/><text fill="#000000" font-family="sans-serif" font-size="14" lengthAdjust="spacing" textLength="147.4102" x="789.8301" y="107.292">PostQueryRepository</text></g><g class="participant participant-tail" data-participant="PostQueryRepository"><rect fill="#E2E2F0" height="30.2969" rx="2.5" ry="2.5" style="stroke:#181818;stroke-width:0.5;" width="161.4102" x="782.8301" y="835.25"/><text fill="#000000" font-family="sans-serif" font-size="14" lengthAdjust="spacing" textLength="147.4102" x="789.8301" y="855.2451">PostQueryRepository</text></g><g class="participant participant-head" data-participant="CommentQueryRepository"><rect fill="#E2E2F0" height="30.2969" rx="2.5" ry="2.5" style="stroke:#181818;stroke-width:0.5;" width="200.2109" x="954.2402" y="87.2969"/><text fill="#000000" font-family="sans-serif" font-size="14" lengthAdjust="spacing" textLength="186.2109" x="961.2402" y="107.292">CommentQueryRepository</text></g><g class="participant participant-tail" data-participant="CommentQueryRepository"><rect fill="#E2E2F0" height="30.2969" rx="2.5" ry="2.5" style="stroke:#181818;stroke-width:0.5;" width="200.2109" x="954.2402" y="835.25"/><text fill="#000000" font-family="sans-serif" font-size="14" lengthAdjust="spacing" textLength="186.2109" x="961.2402" y="855.2451">CommentQueryRepository</text></g><g class="participant participant-head" data-participant="MemberFetchService"><rect fill="#E2E2F0" height="30.2969" rx="2.5" ry="2.5" style="stroke:#181818;stroke-width:0.5;" width="162.0527" x="1164.4512" y="87.2969"/><text fill="#000000" font-family="sans-serif" font-size="14" lengthAdjust="spacing" textLength="148.0527" x="1171.4512" y="107.292">MemberFetchService</text></g><g class="participant participant-tail" data-participant="MemberFetchService"><rect fill="#E2E2F0" height="30.2969" rx="2.5" ry="2.5" style="stroke:#181818;stroke-width:0.5;" width="162.0527" x="1164.4512" y="835.25"/><text fill="#000000" font-family="sans-serif" font-size="14" lengthAdjust="spacing" textLength="148.0527" x="1171.4512" y="855.2451">MemberFetchService</text></g><g class="message" data-participant-1="Client" data-participant-2="CommentQueryController"><polygon fill="#181818" points="450.0005,160.8594,460.0005,164.8594,450.0005,168.8594,454.0005,164.8594" style="stroke:#181818;stroke-width:1;"/><line style="stroke:#181818;stroke-width:1;" x1="43.2651" x2="456.0005" y1="164.8594" y2="164.8594"/><text fill="#000000" font-family="sans-serif" font-size="13" lengthAdjust="spacing" textLength="26.2285" x="50.2651" y="144.6606">GET</text><text fill="#000000" font-family="sans-serif" font-size="13" lengthAdjust="spacing" textLength="394.7354" x="50.2651" y="159.7935">/comments?postId={postId}&amp;cursor={cursor}&amp;size={size}</text></g><g class="message" data-participant-1="CommentQueryController" data-participant-2="CommentQueryService"><polygon fill="#181818" points="672.3901,189.9922,682.3901,193.9922,672.3901,197.9922,676.3901,193.9922" style="stroke:#181818;stroke-width:1;"/><line style="stroke:#181818;stroke-width:1;" x1="462.0005" x2="678.3901" y1="193.9922" y2="193.9922"/><text fill="#000000" font-family="sans-serif" font-size="13" lengthAdjust="spacing" textLength="198.3896" x="469.0005" y="188.9263">getCommentList(postId, Page)</text></g><g class="message" data-participant-1="CommentQueryService" data-participant-2="PostQueryRepository"><polygon fill="#181818" points="851.5352,219.125,861.5352,223.125,851.5352,227.125,855.5352,223.125" style="stroke:#181818;stroke-width:1;"/><line style="stroke:#181818;stroke-width:1;" x1="684.3901" x2="857.5352" y1="223.125" y2="223.125"/><text fill="#000000" font-family="sans-serif" font-size="13" lengthAdjust="spacing" textLength="110.1763" x="691.3901" y="218.0591">existById(postId)</text></g><path d="M10,238.125 L74.4429,238.125 L74.4429,245.2578 L64.4429,255.2578 L10,255.2578 L10,238.125" fill="#EEEEEE" style="stroke:#000000;stroke-width:1.5;"/><rect fill="none" height="294.1328" style="stroke:#000000;stroke-width:1.5;" width="1326.5039" x="10" y="238.125"/><text fill="#000000" font-family="sans-serif" font-size="13" font-weight="bold" lengthAdjust="spacing" textLength="19.4429" x="25" y="251.1919">alt</text><text fill="#000000" font-family="sans-serif" font-size="11" font-weight="bold" lengthAdjust="spacing" textLength="71.4409" x="89.4429" y="250.3354">[Post exist]</text><g class="message" data-participant-1="PostQueryRepository" data-participant-2="CommentQueryService"><polygon fill="#181818" points="695.3901,272.3906,685.3901,276.3906,695.3901,280.3906,691.3901,276.3906" style="stroke:#181818;stroke-width:1;"/><line style="stroke:#181818;stroke-width:1;stroke-dasharray:2.0,2.0;" x1="689.3901" x2="862.5352" y1="276.3906" y2="276.3906"/><text fill="#000000" font-family="sans-serif" font-size="13" lengthAdjust="spacing" textLength="26.6792" x="701.3901" y="271.3247">true</text></g><g class="message" data-participant-1="CommentQueryService" data-participant-2="CommentQueryRepository"><polygon fill="#181818" points="1042.3457,301.5234,1052.3457,305.5234,1042.3457,309.5234,1046.3457,305.5234" style="stroke:#181818;stroke-width:1;"/><line style="stroke:#181818;stroke-width:1;" x1="684.3901" x2="1048.3457" y1="305.5234" y2="305.5234"/><text fill="#000000" font-family="sans-serif" font-size="13" lengthAdjust="spacing" textLength="210.1011" x="691.3901" y="300.4575">fetchCommentList(postId, Page)</text></g><g class="message" data-participant-1="CommentQueryRepository" data-participant-2="CommentQueryService"><polygon fill="#181818" points="695.3901,330.6563,685.3901,334.6563,695.3901,338.6563,691.3901,334.6563" style="stroke:#181818;stroke-width:1;"/><line style="stroke:#181818;stroke-width:1;stroke-dasharray:2.0,2.0;" x1="689.3901" x2="1053.3457" y1="334.6563" y2="334.6563"/><text fill="#000000" font-family="sans-serif" font-size="13" lengthAdjust="spacing" textLength="114.6006" x="701.3901" y="329.5903">CommentListDTO</text></g><g class="message" data-participant-1="CommentQueryService" data-participant-2="MemberFetchService"><polygon fill="#181818" points="1233.4775,359.7891,1243.4775,363.7891,1233.4775,367.7891,1237.4775,363.7891" style="stroke:#181818;stroke-width:1;"/><line style="stroke:#181818;stroke-width:1;" x1="684.3901" x2="1239.4775" y1="363.7891" y2="363.7891"/><text fill="#000000" font-family="sans-serif" font-size="13" lengthAdjust="spacing" textLength="357.3667" x="691.3901" y="358.7231">fetchMemberSummary(MemberSummaryRequestDTO)</text></g><g class="message" data-participant-1="MemberFetchService" data-participant-2="CommentQueryService"><polygon fill="#181818" points="695.3901,388.9219,685.3901,392.9219,695.3901,396.9219,691.3901,392.9219" style="stroke:#181818;stroke-width:1;"/><line style="stroke:#181818;stroke-width:1;stroke-dasharray:2.0,2.0;" x1="689.3901" x2="1244.4775" y1="392.9219" y2="392.9219"/><text fill="#000000" font-family="sans-serif" font-size="13" lengthAdjust="spacing" textLength="207.4985" x="701.3901" y="387.856">MemberSummaryResponseDTO</text></g><g class="message" data-participant-1="CommentQueryService" data-participant-2="CommentQueryController"><polygon fill="#181818" points="473.0005,418.0547,463.0005,422.0547,473.0005,426.0547,469.0005,422.0547" style="stroke:#181818;stroke-width:1;"/><line style="stroke:#181818;stroke-width:1;stroke-dasharray:2.0,2.0;" x1="467.0005" x2="683.3901" y1="422.0547" y2="422.0547"/><text fill="#000000" font-family="sans-serif" font-size="13" lengthAdjust="spacing" textLength="127.1689" x="479.0005" y="416.9888">CommentListResult</text></g><g class="message" data-participant-1="CommentQueryController" data-participant-2="Client"><polygon fill="#181818" points="54.2651,447.1875,44.2651,451.1875,54.2651,455.1875,50.2651,451.1875" style="stroke:#181818;stroke-width:1;"/><line style="stroke:#181818;stroke-width:1;stroke-dasharray:2.0,2.0;" x1="48.2651" x2="461.0005" y1="451.1875" y2="451.1875"/><text fill="#000000" font-family="sans-serif" font-size="13" lengthAdjust="spacing" textLength="216.2964" x="60.2651" y="446.1216">200 OK + CommentListResponse</text></g><line style="stroke:#000000;stroke-width:1;stroke-dasharray:2.0,2.0;" x1="10" x2="1336.5039" y1="460.1875" y2="460.1875"/><text fill="#000000" font-family="sans-serif" font-size="11" font-weight="bold" lengthAdjust="spacing" textLength="95.917" x="15" y="470.3979">[Post not exist]</text><g class="message" data-participant-1="PostQueryRepository" data-participant-2="CommentQueryService"><polygon fill="#181818" points="695.3901,491.125,685.3901,495.125,695.3901,499.125,691.3901,495.125" style="stroke:#181818;stroke-width:1;"/><line style="stroke:#181818;stroke-width:1;stroke-dasharray:2.0,2.0;" x1="689.3901" x2="862.5352" y1="495.125" y2="495.125"/><text fill="#000000" font-family="sans-serif" font-size="13" lengthAdjust="spacing" textLength="30.9258" x="701.3901" y="490.0591">false</text></g><g class="message" data-participant-1="CommentQueryService" data-participant-2="Client"><polygon fill="#181818" points="54.2651,520.2578,44.2651,524.2578,54.2651,528.2578,50.2651,524.2578" style="stroke:#181818;stroke-width:1;"/><line style="stroke:#181818;stroke-width:1;stroke-dasharray:2.0,2.0;" x1="48.2651" x2="683.3901" y1="524.2578" y2="524.2578"/><text fill="#000000" font-family="sans-serif" font-size="13" lengthAdjust="spacing" textLength="112.3091" x="60.2651" y="519.1919">POST_NOT_EXIST</text></g><path d="M467,544.2578 L467,614.2578 L587,614.2578 L587,554.2578 L577,544.2578 L467,544.2578" fill="#FEFFDD" style="stroke:#181818;stroke-width:0.5;"/><path d="M577,544.2578 L577,554.2578 L587,554.2578 L577,544.2578" fill="#FEFFDD" style="stroke:#181818;stroke-width:0.5;"/><text fill="#000000" font-family="sans-serif" font-size="13" font-weight="bold" lengthAdjust="spacing" textLength="36.4229" x="473" y="561.3247">Page</text><ellipse cx="478.5" cy="572.0234" fill="#000000" rx="2.5" ry="2.5"/><text fill="#000000" font-family="sans-serif" font-size="13" lengthAdjust="spacing" textLength="61.8071" x="485" y="576.4575">page size</text><ellipse cx="478.5" cy="587.1563" fill="#000000" rx="2.5" ry="2.5"/><text fill="#000000" font-family="sans-serif" font-size="13" lengthAdjust="spacing" textLength="87.9214" x="485" y="591.5903">cursor(offset)</text><ellipse cx="478.5" cy="602.2891" fill="#000000" rx="2.5" ry="2.5"/><text fill="#000000" font-family="sans-serif" font-size="13" lengthAdjust="spacing" textLength="66.3267" x="485" y="606.7231">total page</text><path d="M689,624.7891 L689,679.7891 L876,679.7891 L876,634.7891 L866,624.7891 L689,624.7891" fill="#FEFFDD" style="stroke:#181818;stroke-width:0.5;"/><path d="M866,624.7891 L866,634.7891 L876,634.7891 L866,624.7891" fill="#FEFFDD" style="stroke:#181818;stroke-width:0.5;"/><text fill="#000000" font-family="sans-serif" font-size="13" font-weight="bold" lengthAdjust="spacing" textLength="127.2515" x="695" y="641.856">CommentListDTO</text><ellipse cx="700.5" cy="652.5547" fill="#000000" rx="2.5" ry="2.5"/><text fill="#000000" font-family="sans-serif" font-size="13" lengthAdjust="spacing" textLength="32.0557" x="707" y="656.9888">Page</text><ellipse cx="700.5" cy="667.6875" fill="#000000" rx="2.5" ry="2.5"/><text fill="#000000" font-family="sans-serif" font-size="13" lengthAdjust="spacing" textLength="154.394" x="707" y="672.1216">Slice&lt;CommentDetail&gt;</text><path d="M689,690.1875 L689,821.1875 L823,821.1875 L823,700.1875 L813,690.1875 L689,690.1875" fill="#FEFFDD" style="stroke:#181818;stroke-width:0.5;"/><path d="M813,690.1875 L813,700.1875 L823,700.1875 L813,690.1875" fill="#FEFFDD" style="stroke:#181818;stroke-width:0.5;"/><text fill="#000000" font-family="sans-serif" font-size="13" font-weight="bold" lengthAdjust="spacing" textLength="113.3564" x="695" y="707.2544">CommentDetail</text><ellipse cx="700.5" cy="717.9531" fill="#000000" rx="2.5" ry="2.5"/><text fill="#000000" font-family="sans-serif" font-size="13" lengthAdjust="spacing" textLength="73.8486" x="707" y="722.3872">commentId</text><ellipse cx="700.5" cy="733.0859" fill="#000000" rx="2.5" ry="2.5"/><text fill="#000000" font-family="sans-serif" font-size="13" lengthAdjust="spacing" textLength="54.9834" x="707" y="737.52">parentId</text><ellipse cx="700.5" cy="748.2188" fill="#000000" rx="2.5" ry="2.5"/><text fill="#000000" font-family="sans-serif" font-size="13" lengthAdjust="spacing" textLength="60.2393" x="707" y="752.6528">userType</text><ellipse cx="700.5" cy="763.3516" fill="#000000" rx="2.5" ry="2.5"/><text fill="#000000" font-family="sans-serif" font-size="13" lengthAdjust="spacing" textLength="54.9263" x="707" y="767.7856">authorId</text><ellipse cx="700.5" cy="778.4844" fill="#000000" rx="2.5" ry="2.5"/><text fill="#000000" font-family="sans-serif" font-size="13" lengthAdjust="spacing" textLength="63.394" x="707" y="782.9185">nickname</text><ellipse cx="700.5" cy="793.6172" fill="#000000" rx="2.5" ry="2.5"/><text fill="#000000" font-family="sans-serif" font-size="13" lengthAdjust="spacing" textLength="49.772" x="707" y="798.0513">content</text><ellipse cx="700.5" cy="808.75" fill="#000000" rx="2.5" ry="2.5"/><text fill="#000000" font-family="sans-serif" font-size="13" lengthAdjust="spacing" textLength="63.7939" x="707" y="813.1841">createdAt</text><!--SRC=[dLHDJ-Cm4BtxL_Y4MXO4ueZQ8YWVgfRTTaaE792GcqnQ2oVEsfFLPgl-znt7YQ0bHe9BFF7ClFTcF3PALC3l07cYynmAv4fQP4mag0sVAabRh1G6PI9BGUwf3_jLWQcdka2ZbG8J38d0_949xFWNsdhd0vJQIYAgW_c1a1-GBy7S0YRhZe5viVnu4j38p_dTJVnKdBILsWk2nbawtlXrUv1KnceptlXrUs3bFnXlt7VB0fXxRAqOebe1jevxQkZ0KnpnXLZ1aB6-78BgwGn1mLz2kAfdQOioP4BvBdeNwqix3Yf3Kq58G7_hAIbphGuN5CWBYtW3THtFGtBU7tCdnNkYAi-5gGSxVm_mku86TiXw0CAQzb1igGiBJbs_l8y6xKrv15Gf3CwFG_63UyxvsUafdt_dt_Ro6o6CWRBWZxtGNplwJ114k9fEns8UnSy_v_7ppUCiYXaKAMD42Tp8rHgvpaAlm6WvSVCmEbbEs24loUJkzf3jhzH0Pva57D86QXIg2N7uhYBuYAIxvSImEpejbwEb9L8KD6eZhW65L9DN_C_0- -GMlNqnPcbJbUdCoeA9wz8HYmhNsZIxXKnU2f4tLLDht0DAbW61a5xYgvh_]--></g></svg>