<svg xmlns="http://www.w3.org/2000/svg" xmlns:xlink="http://www.w3.org/1999/xlink" contentStyleType="text/css" data-diagram-type="SEQUENCE" height="554px" preserveAspectRatio="none" style="width:1031px;height:554px;background:#FFFFFF;" version="1.1" viewBox="0 0 1031 554" width="1031px" zoomAndPan="magnify"><title>createPost</title><defs/><g><text fill="#000000" font-family="sans-serif" font-size="14" font-weight="bold" lengthAdjust="spacing" textLength="85.2373" x="472.1382" y="27.9951">createPost</text><g><title>Post</title><rect fill="#FFFFFF" height="29.1328" style="stroke:#181818;stroke-width:1;" width="10" x="819.6689" y="281.3906"/></g><g><title>Client</title><rect fill="#000000" fill-opacity="0.00000" height="355.5938" width="8" x="24.2651" y="118.5938"/><line style="stroke:#181818;stroke-width:0.5;stroke-dasharray:5.0,5.0;" x1="28" x2="28" y1="118.5938" y2="474.1875"/></g><g><title>PostController</title><rect fill="#000000" fill-opacity="0.00000" height="355.5938" width="8" x="187.8501" y="118.5938"/><line style="stroke:#181818;stroke-width:0.5;stroke-dasharray:5.0,5.0;" x1="191.3682" x2="191.3682" y1="118.5938" y2="474.1875"/></g><g><title>PostQueryService</title><rect fill="#000000" fill-opacity="0.00000" height="355.5938" width="8" x="367.9771" y="118.5938"/><line style="stroke:#181818;stroke-width:0.5;stroke-dasharray:5.0,5.0;" x1="371.9375" x2="371.9375" y1="118.5938" y2="474.1875"/></g><g><title>BoardQueryRepository</title><rect fill="#000000" fill-opacity="0.00000" height="355.5938" width="8" x="577.4048" y="118.5938"/><line style="stroke:#181818;stroke-width:0.5;stroke-dasharray:5.0,5.0;" x1="580.8994" x2="580.8994" y1="118.5938" y2="474.1875"/></g><g><title>PostRepository</title><rect fill="#000000" fill-opacity="0.00000" height="355.5938" width="8" x="733.3418" y="118.5938"/><line style="stroke:#181818;stroke-width:0.5;stroke-dasharray:5.0,5.0;" x1="736.9102" x2="736.9102" y1="118.5938" y2="474.1875"/></g><g><title>Post</title><rect fill="#000000" fill-opacity="0.00000" height="355.5938" width="8" x="820.6689" y="118.5938"/><line style="stroke:#181818;stroke-width:0.5;stroke-dasharray:5.0,5.0;" x1="823.7734" x2="823.7734" y1="118.5938" y2="474.1875"/></g><g><title>DomainEventPublisher</title><rect fill="#000000" fill-opacity="0.00000" height="355.5938" width="8" x="935.0391" y="118.5938"/><line style="stroke:#181818;stroke-width:0.5;stroke-dasharray:5.0,5.0;" x1="938.5645" x2="938.5645" y1="118.5938" y2="474.1875"/></g><g class="participant participant-head" data-participant="Client"><text fill="#000000" font-family="sans-serif" font-size="14" lengthAdjust="spacing" textLength="40.5303" x="5" y="115.292">Client</text><ellipse cx="28.2651" cy="50.7969" fill="#E2E2F0" rx="8" ry="8" style="stroke:#181818;stroke-width:0.5;"/><path d="M28.2651,58.7969 L28.2651,85.7969 M15.2651,66.7969 L41.2651,66.7969 M28.2651,85.7969 L15.2651,100.7969 M28.2651,85.7969 L41.2651,100.7969" fill="none" style="stroke:#181818;stroke-width:0.5;"/></g><g class="participant participant-tail" data-participant="Client"><text fill="#000000" font-family="sans-serif" font-size="14" lengthAdjust="spacing" textLength="40.5303" x="5" y="486.1826">Client</text><ellipse cx="28.2651" cy="497.9844" fill="#E2E2F0" rx="8" ry="8" style="stroke:#181818;stroke-width:0.5;"/><path d="M28.2651,505.9844 L28.2651,532.9844 M15.2651,513.9844 L41.2651,513.9844 M28.2651,532.9844 L15.2651,547.9844 M28.2651,532.9844 L41.2651,547.9844" fill="none" style="stroke:#181818;stroke-width:0.5;"/></g><g class="participant participant-head" data-participant="PostController"><rect fill="#E2E2F0" height="30.2969" rx="2.5" ry="2.5" style="stroke:#181818;stroke-width:0.5;" width="112.9639" x="135.3682" y="87.2969"/><text fill="#000000" font-family="sans-serif" font-size="14" lengthAdjust="spacing" textLength="98.9639" x="142.3682" y="107.292">PostController</text></g><g class="participant participant-tail" data-participant="PostController"><rect fill="#E2E2F0" height="30.2969" rx="2.5" ry="2.5" style="stroke:#181818;stroke-width:0.5;" width="112.9639" x="135.3682" y="473.1875"/><text fill="#000000" font-family="sans-serif" font-size="14" lengthAdjust="spacing" textLength="98.9639" x="142.3682" y="493.1826">PostController</text></g><g class="participant participant-head" data-participant="PostQueryService"><rect fill="#E2E2F0" height="30.2969" rx="2.5" ry="2.5" style="stroke:#181818;stroke-width:0.5;" width="138.0791" x="302.9375" y="87.2969"/><text fill="#000000" font-family="sans-serif" font-size="14" lengthAdjust="spacing" textLength="124.0791" x="309.9375" y="107.292">PostQueryService</text></g><g class="participant participant-tail" data-participant="PostQueryService"><rect fill="#E2E2F0" height="30.2969" rx="2.5" ry="2.5" style="stroke:#181818;stroke-width:0.5;" width="138.0791" x="302.9375" y="473.1875"/><text fill="#000000" font-family="sans-serif" font-size="14" lengthAdjust="spacing" textLength="124.0791" x="309.9375" y="493.1826">PostQueryService</text></g><g class="participant participant-head" data-participant="BoardQueryRepository"><rect fill="#E2E2F0" height="30.2969" rx="2.5" ry="2.5" style="stroke:#181818;stroke-width:0.5;" width="173.0107" x="494.8994" y="87.2969"/><text fill="#000000" font-family="sans-serif" font-size="14" lengthAdjust="spacing" textLength="159.0107" x="501.8994" y="107.292">BoardQueryRepository</text></g><g class="participant participant-tail" data-participant="BoardQueryRepository"><rect fill="#E2E2F0" height="30.2969" rx="2.5" ry="2.5" style="stroke:#181818;stroke-width:0.5;" width="173.0107" x="494.8994" y="473.1875"/><text fill="#000000" font-family="sans-serif" font-size="14" lengthAdjust="spacing" textLength="159.0107" x="501.8994" y="493.1826">BoardQueryRepository</text></g><g class="participant participant-head" data-participant="PostRepository"><rect fill="#E2E2F0" height="30.2969" rx="2.5" ry="2.5" style="stroke:#181818;stroke-width:0.5;" width="118.8633" x="677.9102" y="87.2969"/><text fill="#000000" font-family="sans-serif" font-size="14" lengthAdjust="spacing" textLength="104.8633" x="684.9102" y="107.292">PostRepository</text></g><g class="participant participant-tail" data-participant="PostRepository"><rect fill="#E2E2F0" height="30.2969" rx="2.5" ry="2.5" style="stroke:#181818;stroke-width:0.5;" width="118.8633" x="677.9102" y="473.1875"/><text fill="#000000" font-family="sans-serif" font-size="14" lengthAdjust="spacing" textLength="104.8633" x="684.9102" y="493.1826">PostRepository</text></g><g class="participant participant-head" data-participant="Post"><text fill="#000000" font-family="sans-serif" font-size="14" lengthAdjust="spacing" textLength="29.791" x="806.7734" y="115.292">Post</text><ellipse cx="824.6689" cy="86.2969" fill="#E2E2F0" rx="12" ry="12" style="stroke:#181818;stroke-width:0.5;"/><line style="stroke:#181818;stroke-width:0.5;" x1="812.6689" x2="836.6689" y1="100.2969" y2="100.2969"/></g><g class="participant participant-tail" data-participant="Post"><text fill="#000000" font-family="sans-serif" font-size="14" lengthAdjust="spacing" textLength="29.791" x="806.7734" y="486.1826">Post</text><ellipse cx="824.6689" cy="505.4844" fill="#E2E2F0" rx="12" ry="12" style="stroke:#181818;stroke-width:0.5;"/><line style="stroke:#181818;stroke-width:0.5;" x1="812.6689" x2="836.6689" y1="519.4844" y2="519.4844"/></g><g class="participant participant-head" data-participant="DomainEventPublisher"><rect fill="#E2E2F0" height="30.2969" rx="2.5" ry="2.5" style="stroke:#181818;stroke-width:0.5;" width="172.9492" x="852.5645" y="87.2969"/><text fill="#000000" font-family="sans-serif" font-size="14" lengthAdjust="spacing" textLength="158.9492" x="859.5645" y="107.292">DomainEventPublisher</text></g><g class="participant participant-tail" data-participant="DomainEventPublisher"><rect fill="#E2E2F0" height="30.2969" rx="2.5" ry="2.5" style="stroke:#181818;stroke-width:0.5;" width="172.9492" x="852.5645" y="473.1875"/><text fill="#000000" font-family="sans-serif" font-size="14" lengthAdjust="spacing" textLength="158.9492" x="859.5645" y="493.1826">DomainEventPublisher</text></g><g><title>Post</title><rect fill="#FFFFFF" height="29.1328" style="stroke:#181818;stroke-width:1;" width="10" x="819.6689" y="281.3906"/></g><g class="message" data-participant-1="Client" data-participant-2="PostController"><polygon fill="#181818" points="179.8501,160.8594,189.8501,164.8594,179.8501,168.8594,183.8501,164.8594" style="stroke:#181818;stroke-width:1;"/><line style="stroke:#181818;stroke-width:1;" x1="28.2651" x2="185.8501" y1="164.8594" y2="164.8594"/><text fill="#000000" font-family="sans-serif" font-size="13" lengthAdjust="spacing" textLength="77.6255" x="35.2651" y="144.6606">POST /posts</text><text fill="#000000" font-family="sans-serif" font-size="13" lengthAdjust="spacing" textLength="129.4668" x="35.2651" y="159.7935">(bname, page, size)</text></g><g class="message" data-participant-1="PostController" data-participant-2="PostQueryService"><polygon fill="#181818" points="359.9771,189.9922,369.9771,193.9922,359.9771,197.9922,363.9771,193.9922" style="stroke:#181818;stroke-width:1;"/><line style="stroke:#181818;stroke-width:1;" x1="191.8501" x2="365.9771" y1="193.9922" y2="193.9922"/><text fill="#000000" font-family="sans-serif" font-size="13" lengthAdjust="spacing" textLength="156.127" x="198.8501" y="188.9263">createPost(userId, cmd)</text></g><g class="message" data-participant-1="PostQueryService" data-participant-2="BoardQueryRepository"><polygon fill="#181818" points="569.4048,219.125,579.4048,223.125,569.4048,227.125,573.4048,223.125" style="stroke:#181818;stroke-width:1;"/><line style="stroke:#181818;stroke-width:1;" x1="371.9771" x2="575.4048" y1="223.125" y2="223.125"/><text fill="#000000" font-family="sans-serif" font-size="13" lengthAdjust="spacing" textLength="185.4277" x="378.9771" y="218.0591">findIdByBoardName(bname)</text></g><g class="message" data-participant-1="BoardQueryRepository" data-participant-2="PostQueryService"><polygon fill="#181818" points="382.9771,248.2578,372.9771,252.2578,382.9771,256.2578,378.9771,252.2578" style="stroke:#181818;stroke-width:1;"/><line style="stroke:#181818;stroke-width:1;stroke-dasharray:2.0,2.0;" x1="376.9771" x2="580.4048" y1="252.2578" y2="252.2578"/><text fill="#000000" font-family="sans-serif" font-size="13" lengthAdjust="spacing" textLength="49.8545" x="388.9771" y="247.1919">boardId</text></g><g class="message" data-participant-1="PostQueryService" data-participant-2="Post"><polygon fill="#181818" points="807.6689,277.3906,817.6689,281.3906,807.6689,285.3906,811.6689,281.3906" style="stroke:#181818;stroke-width:1;"/><line style="stroke:#181818;stroke-width:1;" x1="371.9771" x2="813.6689" y1="281.3906" y2="281.3906"/><text fill="#000000" font-family="sans-serif" font-size="13" lengthAdjust="spacing" textLength="160.8052" x="378.9771" y="276.3247">Post.write(cmd, boardId)</text></g><g class="message" data-participant-1="Post" data-participant-2="PostQueryService"><polygon fill="#181818" points="382.9771,306.5234,372.9771,310.5234,382.9771,314.5234,378.9771,310.5234" style="stroke:#181818;stroke-width:1;"/><line style="stroke:#181818;stroke-width:1;stroke-dasharray:2.0,2.0;" x1="376.9771" x2="823.6689" y1="310.5234" y2="310.5234"/><text fill="#000000" font-family="sans-serif" font-size="13" lengthAdjust="spacing" textLength="83.5288" x="388.9771" y="305.4575">Post Created</text></g><g class="message" data-participant-1="PostQueryService" data-participant-2="PostRepository"><polygon fill="#181818" points="725.3418,335.6563,735.3418,339.6563,725.3418,343.6563,729.3418,339.6563" style="stroke:#181818;stroke-width:1;"/><line style="stroke:#181818;stroke-width:1;" x1="371.9771" x2="731.3418" y1="339.6563" y2="339.6563"/><text fill="#000000" font-family="sans-serif" font-size="13" lengthAdjust="spacing" textLength="68.2373" x="378.9771" y="334.5903">save(Post)</text></g><g class="message" data-participant-1="PostRepository" data-participant-2="PostQueryService"><polygon fill="#181818" points="382.9771,364.7891,372.9771,368.7891,382.9771,372.7891,378.9771,368.7891" style="stroke:#181818;stroke-width:1;"/><line style="stroke:#181818;stroke-width:1;stroke-dasharray:2.0,2.0;" x1="376.9771" x2="736.3418" y1="368.7891" y2="368.7891"/><text fill="#000000" font-family="sans-serif" font-size="13" lengthAdjust="spacing" textLength="39.749" x="388.9771" y="363.7231">PostId</text></g><g class="message" data-participant-1="PostQueryService" data-participant-2="DomainEventPublisher"><polygon fill="#181818" points="927.0391,393.9219,937.0391,397.9219,927.0391,401.9219,931.0391,397.9219" style="stroke:#181818;stroke-width:1;"/><line style="stroke:#181818;stroke-width:1;" x1="371.9771" x2="933.0391" y1="397.9219" y2="397.9219"/><text fill="#000000" font-family="sans-serif" font-size="13" lengthAdjust="spacing" textLength="173.7607" x="378.9771" y="392.856">publish(PostCreatedEvent)</text></g><g class="message" data-participant-1="PostQueryService" data-participant-2="PostController"><polygon fill="#181818" points="202.8501,423.0547,192.8501,427.0547,202.8501,431.0547,198.8501,427.0547" style="stroke:#181818;stroke-width:1;"/><line style="stroke:#181818;stroke-width:1;stroke-dasharray:2.0,2.0;" x1="196.8501" x2="370.9771" y1="427.0547" y2="427.0547"/><text fill="#000000" font-family="sans-serif" font-size="13" lengthAdjust="spacing" textLength="39.749" x="208.8501" y="421.9888">PostId</text></g><g class="message" data-participant-1="PostController" data-participant-2="Client"><polygon fill="#181818" points="39.2651,452.1875,29.2651,456.1875,39.2651,460.1875,35.2651,456.1875" style="stroke:#181818;stroke-width:1;"/><line style="stroke:#181818;stroke-width:1;stroke-dasharray:2.0,2.0;" x1="33.2651" x2="190.8501" y1="456.1875" y2="456.1875"/><text fill="#000000" font-family="sans-serif" font-size="13" lengthAdjust="spacing" textLength="139.585" x="45.2651" y="451.1216">201 Created + PostId</text></g><!--SRC=[XLAxKiCm4Epr5LVQWyEhJ44HGv463A6aKQm3RiQHF99Yndmz9zaP74UPkB0zjxjtkoTvyWr2RL5wh8ppGjRUM2WRGkr5AwsdcbgfFGIqDDfRqpHeJw3NFTf-WxQZ6e_0bP5MHVGDM-E8s_SdwWd4Sydt49_eQCfzD3j9-gbZKhNVDkI-sOeOtCBYOMOIbb2zRDxXXfjxzw6phPOxBA2LN_nsz8kvc2d67jCqtEL_FzdUeLsh0kgToeKuuR8-5PXxV99MQxNg8_pCFWOtkKZo5saZsy1Tg_JWK0kH-NFzOybZnYQBWoOFHqiTvnZM6jbdnaIiZA6LK7WiF3lxAAwJ7MQXEgpuShHGEfSiTUmiQOV_E6Pq6pd9WqdUZc7c_0umTRnIIu3xsxl3Ak1gLFm1]--></g></svg>