<svg xmlns="http://www.w3.org/2000/svg" xmlns:xlink="http://www.w3.org/1999/xlink" contentStyleType="text/css" data-diagram-type="CLASS" height="120px" preserveAspectRatio="none" style="width:183px;height:120px;background:#FFFFFF;" version="1.1" viewBox="0 0 183 120" width="183px" zoomAndPan="magnify"><defs/><g><!--cluster board--><g class="cluster" data-entity="board" data-source-line="1" data-uid="ent0002" id="cluster_board"><path d="M8.5,6 L55.5127,6 A3.75,3.75 0 0 1 58.0127,8.5 L65.0127,28.2969 L173.5,28.2969 A2.5,2.5 0 0 1 176,30.7969 L176,110.5 A2.5,2.5 0 0 1 173.5,113 L8.5,113 A2.5,2.5 0 0 1 6,110.5 L6,8.5 A2.5,2.5 0 0 1 8.5,6" fill="none" style="stroke:#000000;stroke-width:1.5;"/><line style="stroke:#000000;stroke-width:1.5;" x1="6" x2="65.0127" y1="28.2969" y2="28.2969"/><text fill="#000000" font-family="sans-serif" font-size="14" font-weight="bold" lengthAdjust="spacing" textLength="46.0127" x="10" y="20.9951">board</text></g><!--class Board--><g class="entity" data-entity="Board" data-source-line="2" data-uid="ent0003" id="entity_Board"><rect fill="#F1F1F1" height="56.2656" rx="2.5" ry="2.5" style="stroke:#181818;stroke-width:0.5;" width="137.1719" x="22.5" y="41"/><ellipse cx="37.5" cy="61.1328" fill="#ADD1B2" rx="11" ry="11" style="stroke:#181818;stroke-width:1;"/><path d="M41.6094,67.1328 L33.8906,67.1328 L33.8906,54.7422 L41.6094,54.7422 L41.6094,56.8984 L36.3438,56.8984 L36.3438,59.5703 L41.1094,59.5703 L41.1094,61.7266 L36.3438,61.7266 L36.3438,64.9766 L41.6094,64.9766 L41.6094,67.1328 Z " fill="#000000"/><text fill="#000000" font-family="sans-serif" font-size="12" font-style="italic" lengthAdjust="spacing" textLength="109.1719" x="49.5" y="57.1387">&#171;Aggregate Root&#187;</text><text fill="#000000" font-family="sans-serif" font-size="14" lengthAdjust="spacing" textLength="41.3916" x="83.3901" y="72.9639">Board</text><line style="stroke:#181818;stroke-width:0.5;" x1="23.5" x2="158.6719" y1="81.2656" y2="81.2656"/><line style="stroke:#181818;stroke-width:0.5;" x1="23.5" x2="158.6719" y1="89.2656" y2="89.2656"/></g><!--SRC=[AqXCpavCJrLGIifFB4fHgkPI08BKl9BCaae59v2GWesDOtfwKMfwOacgGb1-VecT7KHHBLSj0000]--></g></svg>