<svg xmlns="http://www.w3.org/2000/svg" xmlns:xlink="http://www.w3.org/1999/xlink" contentStyleType="text/css" data-diagram-type="CLASS" height="795px" preserveAspectRatio="none" style="width:559px;height:795px;background:#FFFFFF;" version="1.1" viewBox="0 0 559 795" width="559px" zoomAndPan="magnify"><defs/><g><!--cluster post--><g class="cluster" data-entity="post" data-source-line="2" data-uid="ent0002" id="cluster_post"><path d="M8.5,6 L44.165,6 A3.75,3.75 0 0 1 46.665,8.5 L53.665,28.2969 L549.5,28.2969 A2.5,2.5 0 0 1 552,30.7969 L552,785.5 A2.5,2.5 0 0 1 549.5,788 L8.5,788 A2.5,2.5 0 0 1 6,785.5 L6,8.5 A2.5,2.5 0 0 1 8.5,6" fill="none" style="stroke:#000000;stroke-width:1.5;"/><line style="stroke:#000000;stroke-width:1.5;" x1="6" x2="53.665" y1="28.2969" y2="28.2969"/><text fill="#000000" font-family="sans-serif" font-size="14" font-weight="bold" lengthAdjust="spacing" textLength="34.665" x="10" y="20.9951">post</text></g><!--class Post--><g class="entity" data-entity="Post" data-source-line="3" data-uid="ent0003" id="entity_Post"><rect fill="#F1F1F1" height="284.4219" rx="2.5" ry="2.5" style="stroke:#181818;stroke-width:0.5;" width="336.3721" x="82" y="190"/><ellipse cx="193.3501" cy="210.1328" fill="#A9DCDF" rx="11" ry="11" style="stroke:#181818;stroke-width:1;"/><path d="M193.4595,205.4766 L192.3032,210.5547 L194.6313,210.5547 L193.4595,205.4766 Z M191.9751,203.2422 L194.9595,203.2422 L198.3188,215.6328 L195.8657,215.6328 L195.1001,212.5703 L191.8188,212.5703 L191.0688,215.6328 L188.6313,215.6328 L191.9751,203.2422 Z " fill="#000000"/><text fill="#000000" font-family="sans-serif" font-size="12" font-style="italic" lengthAdjust="spacing" textLength="109.1719" x="211.8501" y="206.1387">&#171;Aggregate Root&#187;</text><text fill="#000000" font-family="sans-serif" font-size="14" font-style="italic" lengthAdjust="spacing" textLength="29.791" x="251.5405" y="221.9639">Post</text><line style="stroke:#181818;stroke-width:0.5;" x1="83" x2="417.3721" y1="230.2656" y2="230.2656"/><ellipse cx="93" cy="243.9141" fill="none" rx="3" ry="3" style="stroke:#038048;stroke-width:1;"/><text fill="#000000" font-family="sans-serif" font-size="14" lengthAdjust="spacing" textLength="43.292" x="102" y="247.2607">Long :</text><text fill="#000000" font-family="sans-serif" font-size="14" lengthAdjust="spacing" textLength="43.251" x="213.2549" y="247.2607">postId</text><ellipse cx="93" cy="260.2109" fill="none" rx="3" ry="3" style="stroke:#038048;stroke-width:1;"/><text fill="#000000" font-family="sans-serif" font-size="14" lengthAdjust="spacing" textLength="50.5586" x="102" y="263.5576">Board :</text><text fill="#000000" font-family="sans-serif" font-size="14" lengthAdjust="spacing" textLength="40.6738" x="213.2549" y="263.5576">board</text><text fill="#000000" font-family="sans-serif" font-size="14" lengthAdjust="spacing" textLength="62.918" x="280.0078" y="263.5576">//&#50808;&#48512; BC &#53412;</text><ellipse cx="93" cy="276.5078" fill="none" rx="3" ry="3" style="stroke:#038048;stroke-width:1;"/><text fill="#000000" font-family="sans-serif" font-size="14" lengthAdjust="spacing" textLength="39.6006" x="102" y="279.8545">Title :</text><text fill="#000000" font-family="sans-serif" font-size="14" lengthAdjust="spacing" textLength="27.3711" x="213.2549" y="279.8545">title</text><ellipse cx="93" cy="292.8047" fill="none" rx="3" ry="3" style="stroke:#038048;stroke-width:1;"/><text fill="#000000" font-family="sans-serif" font-size="14" lengthAdjust="spacing" textLength="64.8457" x="102" y="296.1514">Content :</text><text fill="#000000" font-family="sans-serif" font-size="14" lengthAdjust="spacing" textLength="53.6006" x="213.2549" y="296.1514">content</text><ellipse cx="93" cy="309.1016" fill="none" rx="3" ry="3" style="stroke:#038048;stroke-width:1;"/><text fill="#000000" font-family="sans-serif" font-size="14" lengthAdjust="spacing" textLength="43.292" x="102" y="312.4482">Long :</text><text fill="#000000" font-family="sans-serif" font-size="14" lengthAdjust="spacing" textLength="56.376" x="213.2549" y="312.4482">viewCnt</text><ellipse cx="93" cy="325.3984" fill="none" rx="3" ry="3" style="stroke:#038048;stroke-width:1;"/><text fill="#000000" font-family="sans-serif" font-size="14" lengthAdjust="spacing" textLength="77.3213" x="102" y="328.7451">DateTime :</text><text fill="#000000" font-family="sans-serif" font-size="14" lengthAdjust="spacing" textLength="68.7012" x="213.2549" y="328.7451">createdAt</text><ellipse cx="93" cy="341.6953" fill="none" rx="3" ry="3" style="stroke:#038048;stroke-width:1;"/><text fill="#000000" font-family="sans-serif" font-size="14" lengthAdjust="spacing" textLength="77.3213" x="102" y="345.042">DateTime :</text><text fill="#000000" font-family="sans-serif" font-size="14" lengthAdjust="spacing" textLength="73.2813" x="213.2549" y="345.042">updatedAt</text><ellipse cx="93" cy="357.9922" fill="none" rx="3" ry="3" style="stroke:#038048;stroke-width:1;"/><text fill="#000000" font-family="sans-serif" font-size="14" lengthAdjust="spacing" textLength="65.8574" x="102" y="361.3389">Boolean :</text><text fill="#000000" font-family="sans-serif" font-size="14" lengthAdjust="spacing" textLength="66.0693" x="213.2549" y="361.3389">isDeleted</text><line style="stroke:#181818;stroke-width:1;" x1="83" x2="417.3721" y1="368.6406" y2="368.6406"/><ellipse cx="93" cy="382.2891" fill="#84BE84" rx="3" ry="3" style="stroke:#038048;stroke-width:1;"/><text fill="#000000" font-family="sans-serif" font-size="14" lengthAdjust="spacing" textLength="46.1221" x="102" y="385.6357">write()</text><ellipse cx="93" cy="398.5859" fill="#84BE84" rx="3" ry="3" style="stroke:#038048;stroke-width:1;"/><text fill="#000000" font-family="sans-serif" font-size="14" lengthAdjust="spacing" textLength="37.8027" x="102" y="401.9326">edit()</text><ellipse cx="93" cy="414.8828" fill="#84BE84" rx="3" ry="3" style="stroke:#038048;stroke-width:1;"/><text fill="#000000" font-family="sans-serif" font-size="14" lengthAdjust="spacing" textLength="83.2002" x="102" y="418.2295">softDelete()</text><ellipse cx="93" cy="431.1797" fill="#84BE84" rx="3" ry="3" style="stroke:#038048;stroke-width:1;"/><text fill="#000000" font-family="sans-serif" font-size="14" lengthAdjust="spacing" textLength="103.7695" x="102" y="434.5264">increaseView()</text><ellipse cx="93" cy="447.4766" fill="#84BE84" rx="3" ry="3" style="stroke:#038048;stroke-width:1;"/><text fill="#000000" font-family="sans-serif" font-size="14" lengthAdjust="spacing" textLength="154.2666" x="102" y="450.8232">toggleLike(MemberId)</text><ellipse cx="93" cy="463.7734" fill="#84BE84" rx="3" ry="3" style="stroke:#038048;stroke-width:1;"/><text fill="#000000" font-family="sans-serif" font-size="14" lengthAdjust="spacing" textLength="310.3721" x="102" y="467.1201">updateTitle(String) : title.updateTitle(String)</text></g><!--class GuestPost--><g class="entity" data-entity="GuestPost" data-source-line="20" data-uid="ent0004" id="entity_GuestPost"><rect fill="#F1F1F1" height="88.8594" rx="2.5" ry="2.5" style="stroke:#181818;stroke-width:0.5;" width="149.6689" x="288" y="41"/><ellipse cx="324.0419" cy="61.1328" fill="#ADD1B2" rx="11" ry="11" style="stroke:#181818;stroke-width:1;"/><path d="M327.0106,66.7734 Q326.4325,67.0703 325.7919,67.2109 Q325.1513,67.3672 324.4481,67.3672 Q321.9481,67.3672 320.62,65.7266 Q319.3075,64.0703 319.3075,60.9453 Q319.3075,57.8203 320.62,56.1641 Q321.9481,54.5078 324.4481,54.5078 Q325.1513,54.5078 325.7919,54.6641 Q326.4481,54.8203 327.0106,55.1172 L327.0106,57.8359 Q326.3856,57.2578 325.7919,56.9922 Q325.1981,56.7109 324.5731,56.7109 Q323.2294,56.7109 322.5419,57.7891 Q321.8544,58.8516 321.8544,60.9453 Q321.8544,63.0391 322.5419,64.1172 Q323.2294,65.1797 324.5731,65.1797 Q325.1981,65.1797 325.7919,64.9141 Q326.3856,64.6328 327.0106,64.0547 L327.0106,66.7734 Z " fill="#000000"/><text fill="#000000" font-family="sans-serif" font-size="12" font-style="italic" lengthAdjust="spacing" textLength="72.5625" x="341.8912" y="57.1387">&#171;ImplClass&#187;</text><text fill="#000000" font-family="sans-serif" font-size="14" lengthAdjust="spacing" textLength="70.9092" x="342.7179" y="72.9639">GuestPost</text><line style="stroke:#181818;stroke-width:0.5;" x1="289" x2="436.6689" y1="81.2656" y2="81.2656"/><ellipse cx="299" cy="94.9141" fill="none" rx="3" ry="3" style="stroke:#038048;stroke-width:1;"/><text fill="#000000" font-family="sans-serif" font-size="14" lengthAdjust="spacing" textLength="123.6689" x="308" y="98.2607">String : nickname</text><ellipse cx="299" cy="111.2109" fill="none" rx="3" ry="3" style="stroke:#038048;stroke-width:1;"/><text fill="#000000" font-family="sans-serif" font-size="14" lengthAdjust="spacing" textLength="122.1104" x="308" y="114.5576">String : password</text><line style="stroke:#181818;stroke-width:0.5;" x1="289" x2="436.6689" y1="121.8594" y2="121.8594"/></g><!--class MemberPost--><g class="entity" data-entity="MemberPost" data-source-line="24" data-uid="ent0005" id="entity_MemberPost"><rect fill="#F1F1F1" height="72.5625" rx="2.5" ry="2.5" style="stroke:#181818;stroke-width:0.5;" width="156.3477" x="97" y="49"/><ellipse cx="128.6368" cy="69.1328" fill="#ADD1B2" rx="11" ry="11" style="stroke:#181818;stroke-width:1;"/><path d="M131.6056,74.7734 Q131.0274,75.0703 130.3868,75.2109 Q129.7462,75.3672 129.0431,75.3672 Q126.5431,75.3672 125.2149,73.7266 Q123.9024,72.0703 123.9024,68.9453 Q123.9024,65.8203 125.2149,64.1641 Q126.5431,62.5078 129.0431,62.5078 Q129.7462,62.5078 130.3868,62.6641 Q131.0431,62.8203 131.6056,63.1172 L131.6056,65.8359 Q130.9806,65.2578 130.3868,64.9922 Q129.7931,64.7109 129.1681,64.7109 Q127.8243,64.7109 127.1368,65.7891 Q126.4493,66.8516 126.4493,68.9453 Q126.4493,71.0391 127.1368,72.1172 Q127.8243,73.1797 129.1681,73.1797 Q129.7931,73.1797 130.3868,72.9141 Q130.9806,72.6328 131.6056,72.0547 L131.6056,74.7734 Z " fill="#000000"/><text fill="#000000" font-family="sans-serif" font-size="12" font-style="italic" lengthAdjust="spacing" textLength="72.5625" x="153.7411" y="65.1387">&#171;ImplClass&#187;</text><text fill="#000000" font-family="sans-serif" font-size="14" lengthAdjust="spacing" textLength="87.377" x="146.3339" y="80.9639">MemberPost</text><line style="stroke:#181818;stroke-width:0.5;" x1="98" x2="252.3477" y1="89.2656" y2="89.2656"/><ellipse cx="108" cy="102.9141" fill="none" rx="3" ry="3" style="stroke:#038048;stroke-width:1;"/><text fill="#000000" font-family="sans-serif" font-size="14" lengthAdjust="spacing" textLength="130.3477" x="117" y="106.2607">Member : member</text><line style="stroke:#181818;stroke-width:0.5;" x1="98" x2="252.3477" y1="113.5625" y2="113.5625"/></g><!--class Board--><g class="entity" data-entity="Board" data-source-line="29" data-uid="ent0006" id="entity_Board"><rect fill="#F1F1F1" height="72.5625" rx="2.5" ry="2.5" style="stroke:#181818;stroke-width:0.5;" width="115.7793" x="22" y="542"/><ellipse cx="37" cy="562.1328" fill="#F1F1F1" rx="11" ry="11" style="stroke:#181818;stroke-width:1;"/><path d="M36.4844,562.6953 Q34.625,561.9922 33.9688,561.2266 Q33.3281,560.4453 33.3281,559.1328 Q33.3281,557.4453 34.4063,556.4766 Q35.4844,555.5078 37.3594,555.5078 Q38.2188,555.5078 39.0625,555.7109 Q39.9219,555.8984 40.7656,556.2891 L40.7656,558.6797 Q39.9844,558.1172 39.1563,557.8359 Q38.3438,557.5391 37.5469,557.5391 Q36.6719,557.5391 36.1875,557.8984 Q35.7188,558.2578 35.7188,558.9141 Q35.7188,559.4297 36.0625,559.7734 Q36.4063,560.1016 37.5,560.5078 L38.5625,560.9141 Q40.0469,561.4609 40.75,562.3672 Q41.4688,563.2734 41.4688,564.6484 Q41.4688,566.5234 40.3594,567.4453 Q39.25,568.3672 37,568.3672 Q36.0781,568.3672 35.1563,568.1484 Q34.2344,567.9297 33.375,567.5078 L33.375,564.9766 Q34.3438,565.6641 35.2656,566.0078 Q36.1875,566.3516 37.0781,566.3516 Q37.9844,566.3516 38.4844,565.9453 Q38.9844,565.5234 38.9844,564.7891 Q38.9844,564.2266 38.6406,563.8203 Q38.3125,563.3984 37.6875,563.1484 L36.4844,562.6953 Z " fill="#000000"/><text fill="#000000" font-family="sans-serif" font-size="12" font-style="italic" lengthAdjust="spacing" textLength="87.7793" x="49" y="558.1387">&#171;ValueObject&#187;</text><text fill="#000000" font-family="sans-serif" font-size="14" lengthAdjust="spacing" textLength="41.3916" x="72.1938" y="573.9639">Board</text><line style="stroke:#181818;stroke-width:0.5;" x1="23" x2="136.7793" y1="582.2656" y2="582.2656"/><text fill="#000000" font-family="sans-serif" font-size="14" lengthAdjust="spacing" textLength="101.4316" x="28" y="599.2607">Long : boardId</text><line style="stroke:#181818;stroke-width:0.5;" x1="23" x2="136.7793" y1="606.5625" y2="606.5625"/></g><!--class HashTag--><g class="entity" data-entity="HashTag" data-source-line="36" data-uid="ent0008" id="entity_HashTag"><rect fill="#F1F1F1" height="72.5625" rx="2.5" ry="2.5" style="stroke:#181818;stroke-width:0.5;" width="95.1865" x="202.5" y="691"/><ellipse cx="218.353" cy="711.1328" fill="#ADD1B2" rx="11" ry="11" style="stroke:#181818;stroke-width:1;"/><path d="M222.4624,717.1328 L214.7436,717.1328 L214.7436,704.7422 L222.4624,704.7422 L222.4624,706.8984 L217.1967,706.8984 L217.1967,709.5703 L221.9624,709.5703 L221.9624,711.7266 L217.1967,711.7266 L217.1967,714.9766 L222.4624,714.9766 L222.4624,717.1328 Z " fill="#000000"/><text fill="#000000" font-family="sans-serif" font-size="12" font-style="italic" lengthAdjust="spacing" textLength="49.8457" x="238.2652" y="707.1387">&#171;Entity&#187;</text><text fill="#000000" font-family="sans-serif" font-size="14" lengthAdjust="spacing" textLength="61.291" x="232.5425" y="722.9639">HashTag</text><line style="stroke:#181818;stroke-width:0.5;" x1="203.5" x2="296.6865" y1="731.2656" y2="731.2656"/><ellipse cx="213.5" cy="744.9141" fill="none" rx="3" ry="3" style="stroke:#038048;stroke-width:1;"/><text fill="#000000" font-family="sans-serif" font-size="14" lengthAdjust="spacing" textLength="69.1865" x="222.5" y="748.2607">String tag</text><line style="stroke:#181818;stroke-width:0.5;" x1="203.5" x2="296.6865" y1="755.5625" y2="755.5625"/></g><!--class Tags--><g class="entity" data-entity="Tags" data-source-line="39" data-uid="ent0009" id="entity_Tags"><rect fill="#F1F1F1" height="88.8594" rx="2.5" ry="2.5" style="stroke:#181818;stroke-width:0.5;" width="153.0049" x="173.5" y="534"/><ellipse cx="203.535" cy="554.1328" fill="#F1F1F1" rx="11" ry="11" style="stroke:#181818;stroke-width:1;"/><path d="M203.0194,554.6953 Q201.16,553.9922 200.5038,553.2266 Q199.8631,552.4453 199.8631,551.1328 Q199.8631,549.4453 200.9413,548.4766 Q202.0194,547.5078 203.8944,547.5078 Q204.7538,547.5078 205.5975,547.7109 Q206.4569,547.8984 207.3006,548.2891 L207.3006,550.6797 Q206.5194,550.1172 205.6913,549.8359 Q204.8788,549.5391 204.0819,549.5391 Q203.2069,549.5391 202.7225,549.8984 Q202.2538,550.2578 202.2538,550.9141 Q202.2538,551.4297 202.5975,551.7734 Q202.9413,552.1016 204.035,552.5078 L205.0975,552.9141 Q206.5819,553.4609 207.285,554.3672 Q208.0038,555.2734 208.0038,556.6484 Q208.0038,558.5234 206.8944,559.4453 Q205.785,560.3672 203.535,560.3672 Q202.6131,560.3672 201.6913,560.1484 Q200.7694,559.9297 199.91,559.5078 L199.91,556.9766 Q200.8788,557.6641 201.8006,558.0078 Q202.7225,558.3516 203.6131,558.3516 Q204.5194,558.3516 205.0194,557.9453 Q205.5194,557.5234 205.5194,556.7891 Q205.5194,556.2266 205.1756,555.8203 Q204.8475,555.3984 204.2225,555.1484 L203.0194,554.6953 Z " fill="#000000"/><text fill="#000000" font-family="sans-serif" font-size="12" font-style="italic" lengthAdjust="spacing" textLength="91.5938" x="218.8761" y="550.1387">&#171;Value Object&#187;</text><text fill="#000000" font-family="sans-serif" font-size="14" lengthAdjust="spacing" textLength="33.3115" x="248.0172" y="565.9639">Tags</text><line style="stroke:#181818;stroke-width:0.5;" x1="174.5" x2="325.5049" y1="574.2656" y2="574.2656"/><ellipse cx="184.5" cy="587.9141" fill="none" rx="3" ry="3" style="stroke:#038048;stroke-width:1;"/><text fill="#000000" font-family="sans-serif" font-size="14" lengthAdjust="spacing" textLength="116.0811" x="193.5" y="591.2607">HashTag[] : tags</text><line style="stroke:#181818;stroke-width:1;" x1="174.5" x2="325.5049" y1="598.5625" y2="598.5625"/><ellipse cx="184.5" cy="612.2109" fill="#84BE84" rx="3" ry="3" style="stroke:#038048;stroke-width:1;"/><text fill="#000000" font-family="sans-serif" font-size="14" lengthAdjust="spacing" textLength="127.0049" x="193.5" y="615.5576">checkTags(String)</text></g><!--class PostLike--><g class="entity" data-entity="PostLike" data-source-line="49" data-uid="ent0012" id="entity_PostLike"><rect fill="#F1F1F1" height="88.8594" rx="2.5" ry="2.5" style="stroke:#181818;stroke-width:0.5;" width="160.7979" x="368.5" y="683"/><ellipse cx="415.5483" cy="703.1328" fill="#ADD1B2" rx="11" ry="11" style="stroke:#181818;stroke-width:1;"/><path d="M419.6577,709.1328 L411.939,709.1328 L411.939,696.7422 L419.6577,696.7422 L419.6577,698.8984 L414.3921,698.8984 L414.3921,701.5703 L419.1577,701.5703 L419.1577,703.7266 L414.3921,703.7266 L414.3921,706.9766 L419.6577,706.9766 L419.6577,709.1328 Z " fill="#000000"/><text fill="#000000" font-family="sans-serif" font-size="12" font-style="italic" lengthAdjust="spacing" textLength="49.8457" x="440.2261" y="699.1387">&#171;Entity&#187;</text><text fill="#000000" font-family="sans-serif" font-size="14" lengthAdjust="spacing" textLength="58.2012" x="436.0483" y="714.9639">PostLike</text><line style="stroke:#181818;stroke-width:0.5;" x1="369.5" x2="528.2979" y1="723.2656" y2="723.2656"/><ellipse cx="379.5" cy="736.9141" fill="none" rx="3" ry="3" style="stroke:#038048;stroke-width:1;"/><text fill="#000000" font-family="sans-serif" font-size="14" lengthAdjust="spacing" textLength="31.5205" x="388.5" y="740.2607">Vid :</text><text fill="#000000" font-family="sans-serif" font-size="14" lengthAdjust="spacing" textLength="21.0615" x="428.5518" y="740.2607">vid</text><ellipse cx="379.5" cy="753.2109" fill="none" rx="3" ry="3" style="stroke:#038048;stroke-width:1;"/><text fill="#000000" font-family="sans-serif" font-size="14" lengthAdjust="spacing" textLength="66.7529" x="388.5" y="756.5576">Member :</text><text fill="#000000" font-family="sans-serif" font-size="14" lengthAdjust="spacing" textLength="59.1445" x="464.1533" y="756.5576">member</text><line style="stroke:#181818;stroke-width:0.5;" x1="369.5" x2="528.2979" y1="763.8594" y2="763.8594"/></g><!--class Likes--><g class="entity" data-entity="Likes" data-source-line="53" data-uid="ent0013" id="entity_Likes"><rect fill="#F1F1F1" height="88.8594" rx="2.5" ry="2.5" style="stroke:#181818;stroke-width:0.5;" width="174.2441" x="362" y="534"/><ellipse cx="401.5927" cy="554.1328" fill="#F1F1F1" rx="11" ry="11" style="stroke:#181818;stroke-width:1;"/><path d="M401.0771,554.6953 Q399.2177,553.9922 398.5614,553.2266 Q397.9208,552.4453 397.9208,551.1328 Q397.9208,549.4453 398.9989,548.4766 Q400.0771,547.5078 401.9521,547.5078 Q402.8114,547.5078 403.6552,547.7109 Q404.5146,547.8984 405.3583,548.2891 L405.3583,550.6797 Q404.5771,550.1172 403.7489,549.8359 Q402.9364,549.5391 402.1396,549.5391 Q401.2646,549.5391 400.7802,549.8984 Q400.3114,550.2578 400.3114,550.9141 Q400.3114,551.4297 400.6552,551.7734 Q400.9989,552.1016 402.0927,552.5078 L403.1552,552.9141 Q404.6396,553.4609 405.3427,554.3672 Q406.0614,555.2734 406.0614,556.6484 Q406.0614,558.5234 404.9521,559.4453 Q403.8427,560.3672 401.5927,560.3672 Q400.6708,560.3672 399.7489,560.1484 Q398.8271,559.9297 397.9677,559.5078 L397.9677,556.9766 Q398.9364,557.6641 399.8583,558.0078 Q400.7802,558.3516 401.6708,558.3516 Q402.5771,558.3516 403.0771,557.9453 Q403.5771,557.5234 403.5771,556.7891 Q403.5771,556.2266 403.2333,555.8203 Q402.9052,555.3984 402.2802,555.1484 L401.0771,554.6953 Z " fill="#000000"/><text fill="#000000" font-family="sans-serif" font-size="12" font-style="italic" lengthAdjust="spacing" textLength="91.5938" x="419.0577" y="550.1387">&#171;Value Object&#187;</text><text fill="#000000" font-family="sans-serif" font-size="14" lengthAdjust="spacing" textLength="35.7041" x="447.0025" y="565.9639">Likes</text><line style="stroke:#181818;stroke-width:0.5;" x1="363" x2="535.2441" y1="574.2656" y2="574.2656"/><ellipse cx="373" cy="587.9141" fill="none" rx="3" ry="3" style="stroke:#038048;stroke-width:1;"/><text fill="#000000" font-family="sans-serif" font-size="14" lengthAdjust="spacing" textLength="114.5361" x="382" y="591.2607">PostLike[] : likes</text><line style="stroke:#181818;stroke-width:1;" x1="363" x2="535.2441" y1="598.5625" y2="598.5625"/><ellipse cx="373" cy="612.2109" fill="#84BE84" rx="3" ry="3" style="stroke:#038048;stroke-width:1;"/><text fill="#000000" font-family="sans-serif" font-size="14" lengthAdjust="spacing" textLength="148.2441" x="382" y="615.5576">isLiked(Vid, Member)</text></g><!--link Post to Board--><g class="link" data-entity-1="Post" data-entity-2="Board" data-source-line="32" data-uid="lnk7" id="link_Post_Board"><path codeLine="32" d="M151.85,474.16 C134.48,499.15 117.85,523.06 104.98,541.57" fill="none" id="Post-Board" style="stroke:#181818;stroke-width:1;"/></g><!--link Post to Tags--><g class="link" data-entity-1="Post" data-entity-2="Tags" data-source-line="44" data-uid="lnk10" id="link_Post_Tags"><path codeLine="44" d="M250,474.16 C250,495.76 250,516.56 250,533.76" fill="none" id="Post-Tags" style="stroke:#181818;stroke-width:1;"/></g><!--link Tags to HashTag--><g class="link" data-entity-1="Tags" data-entity-2="HashTag" data-source-line="45" data-uid="lnk11" id="link_Tags_HashTag"><path codeLine="45" d="M250,623.21 C250,644.7 250,664.29 250,684.62" fill="none" id="Tags-to-HashTag" style="stroke:#181818;stroke-width:1;"/><polygon fill="#181818" points="250,690.62,254,681.62,250,685.62,246,681.62,250,690.62" style="stroke:#181818;stroke-width:1;"/><text fill="#000000" font-family="sans-serif" font-size="13" lengthAdjust="spacing" textLength="8.271" x="241.432" y="642.9653">1</text><text fill="#000000" font-family="sans-serif" font-size="13" lengthAdjust="spacing" textLength="9.7246" x="240.2464" y="679.8325">N</text></g><!--link Post to Likes--><g class="link" data-entity-1="Post" data-entity-2="Likes" data-source-line="58" data-uid="lnk14" id="link_Post_Likes"><path codeLine="58" d="M364.89,474.16 C382.47,495.76 399.4,516.56 413.4,533.76" fill="none" id="Post-Likes" style="stroke:#181818;stroke-width:1;"/></g><!--link Likes to PostLike--><g class="link" data-entity-1="Likes" data-entity-2="PostLike" data-source-line="59" data-uid="lnk15" id="link_Likes_PostLike"><path codeLine="59" d="M449,623.21 C449,642.08 449,658.11 449,676.96" fill="none" id="Likes-to-PostLike" style="stroke:#181818;stroke-width:1;"/><polygon fill="#181818" points="449,682.96,453,673.96,449,677.96,445,673.96,449,682.96" style="stroke:#181818;stroke-width:1;"/><text fill="#000000" font-family="sans-serif" font-size="13" lengthAdjust="spacing" textLength="8.271" x="440.4145" y="642.9653">1</text><text fill="#000000" font-family="sans-serif" font-size="13" lengthAdjust="spacing" textLength="9.7246" x="439.3819" y="672.0792">N</text></g><!--link GuestPost to Post--><g class="link" data-entity-1="GuestPost" data-entity-2="Post" data-source-line="62" data-uid="lnk16" id="link_GuestPost_Post"><path codeLine="62" d="M342.8,130.21 C334.83,147.45 332.7412,151.9605 322.7312,173.6205" fill="none" id="GuestPost-to-Post" style="stroke:#181818;stroke-width:1;"/><polygon fill="none" points="315.18,189.96,328.1777,176.1375,317.2847,171.1034,315.18,189.96" style="stroke:#181818;stroke-width:1;"/></g><!--link MemberPost to Post--><g class="link" data-entity-1="MemberPost" data-entity-2="Post" data-source-line="63" data-uid="lnk17" id="link_MemberPost_Post"><path codeLine="63" d="M185.91,122.05 C191.59,140.59 193.6785,147.4123 201.3885,172.5323" fill="none" id="MemberPost-to-Post" style="stroke:#181818;stroke-width:1;"/><polygon fill="none" points="206.67,189.74,207.1244,170.7718,195.6526,174.2928,206.67,189.74" style="stroke:#181818;stroke-width:1;"/></g><!--SRC=[VLFDRjD04BxtALQ-aAgOYciLHMfI1942HH3bGdhOsCDsYUsrl1CY19KG82wzqWDLJuWtW4AVgJZlmFwvtf2bFjYxCzzyyysFIvhCAGCIbK9YHDvk4VNGcSIA9aYUAYFfTlSPgu1H1F9C2EprB4e_EoDHCB8tnIaIpJ1CMrTVq2frlfavaodkxjPVh_xyUa_w0xBwyBr5ZpbcuD2epwrh80g40fqpiRUWXDSSbWFVTw14ZtbkY4bIWRgc-__pByhqNtzVY0neuUYvF80C5EG64CSjTbbnXCvsQu2Ket-NuYLQ0j_A2wrBmaHfz-qe6CjWnEVGUGpv3AfXwdcjLjEqpdEiUC6soPvjtBs0pmIUc7UIKId9mmL8TECTvcKsqDQroTf8HLhmP5xG70AkKWKjHPLkq5l5j_9RY2B9pS5HcC-ToQ7vgYrSg2sqYzJjJcYsWCFPAqZMTj3EtwxOq9TYqiUnZTzorAkpd_NfnUhZnVNlAsDHkyJn3Nb4vV6OCfNcWJ64Ue6KUVHEdGgIZJYogMx74RyuqlDHsE3k9CUGp3LJO61D6UCcs6ICxaVAs2FHawZHtfHOVpkjppxLvr_y-ZIBNgPmWHDk_bJr0wMR4rBsjHbvnMl6MwjlqfhoCuqEri-b1gKTfUEkMvvG2qOt13QntuGcasl2zO_BrUTBSsvtFOxVzGpGsBqbRHqdVm40]--></g></svg>