<svg xmlns="http://www.w3.org/2000/svg" xmlns:xlink="http://www.w3.org/1999/xlink" contentStyleType="text/css" data-diagram-type="SEQUENCE" height="779px" preserveAspectRatio="none" style="width:1411px;height:779px;background:#FFFFFF;" version="1.1" viewBox="0 0 1411 779" width="1411px" zoomAndPan="magnify"><defs/><g><g><title>AuthCredential</title><rect fill="#FFFFFF" height="29.1328" style="stroke:#181818;stroke-width:1;" width="10" x="745.9951" y="535.4219"/></g><g><title>Nickname</title><rect fill="#FFFFFF" height="29.1328" style="stroke:#181818;stroke-width:1;" width="10" x="849.519" y="185.8281"/></g><g><title>Password</title><rect fill="#FFFFFF" height="29.1328" style="stroke:#181818;stroke-width:1;" width="10" x="933.5879" y="244.0938"/></g><g><title>Password</title><rect fill="#FFFFFF" height="29.1328" style="stroke:#181818;stroke-width:1;" width="10" x="933.5879" y="302.3594"/></g><g><title>Member</title><rect fill="#FFFFFF" height="29.1328" style="stroke:#181818;stroke-width:1;" width="10" x="1373.4551" y="389.7578"/></g><g><title>User</title><rect fill="#000000" fill-opacity="0.00000" height="617.7891" width="8" x="19.9551" y="81.2969"/><line style="stroke:#181818;stroke-width:0.5;stroke-dasharray:5.0,5.0;" x1="23" x2="23" y1="81.2969" y2="699.0859"/></g><g><title>AuthController</title><rect fill="#000000" fill-opacity="0.00000" height="617.7891" width="8" x="208.3848" y="81.2969"/><line style="stroke:#181818;stroke-width:0.5;stroke-dasharray:5.0,5.0;" x1="211.3921" x2="211.3921" y1="81.2969" y2="699.0859"/></g><g><title>AuthService</title><rect fill="#000000" fill-opacity="0.00000" height="617.7891" width="8" x="336.8735" y="81.2969"/><line style="stroke:#181818;stroke-width:0.5;stroke-dasharray:5.0,5.0;" x1="340.5967" x2="340.5967" y1="81.2969" y2="699.0859"/></g><g><title>AuthRepository</title><rect fill="#000000" fill-opacity="0.00000" height="617.7891" width="8" x="498.186" y="81.2969"/><line style="stroke:#181818;stroke-width:0.5;stroke-dasharray:5.0,5.0;" x1="501.2437" x2="501.2437" y1="81.2969" y2="699.0859"/></g><g><title>AuthCredential</title><rect fill="#000000" fill-opacity="0.00000" height="617.7891" width="8" x="746.9951" y="81.2969"/><line style="stroke:#181818;stroke-width:0.5;stroke-dasharray:5.0,5.0;" x1="750.4063" x2="750.4063" y1="81.2969" y2="699.0859"/></g><g><title>Nickname</title><rect fill="#000000" fill-opacity="0.00000" height="617.7891" width="8" x="850.519" y="81.2969"/><line style="stroke:#181818;stroke-width:0.5;stroke-dasharray:5.0,5.0;" x1="853.584" x2="853.584" y1="81.2969" y2="699.0859"/></g><g><title>Password</title><rect fill="#000000" fill-opacity="0.00000" height="617.7891" width="8" x="934.5879" y="81.2969"/><line style="stroke:#181818;stroke-width:0.5;stroke-dasharray:5.0,5.0;" x1="938.4541" x2="938.4541" y1="81.2969" y2="699.0859"/></g><g><title>MemberService</title><rect fill="#000000" fill-opacity="0.00000" height="617.7891" width="8" x="1042.3853" y="81.2969"/><line style="stroke:#181818;stroke-width:0.5;stroke-dasharray:5.0,5.0;" x1="1045.7217" x2="1045.7217" y1="81.2969" y2="699.0859"/></g><g><title>MemberCommandRepository</title><rect fill="#000000" fill-opacity="0.00000" height="617.7891" width="8" x="1223.3555" y="81.2969"/><line style="stroke:#181818;stroke-width:0.5;stroke-dasharray:5.0,5.0;" x1="1227.0488" x2="1227.0488" y1="81.2969" y2="699.0859"/></g><g><title>Member</title><rect fill="#000000" fill-opacity="0.00000" height="617.7891" width="8" x="1374.4551" y="81.2969"/><line style="stroke:#181818;stroke-width:0.5;stroke-dasharray:5.0,5.0;" x1="1377.6621" x2="1377.6621" y1="81.2969" y2="699.0859"/></g><g class="participant participant-head" data-participant="User"><text fill="#000000" font-family="sans-serif" font-size="14" lengthAdjust="spacing" textLength="31.9102" x="5" y="77.9951">User</text><ellipse cx="23.9551" cy="13.5" fill="#E2E2F0" rx="8" ry="8" style="stroke:#181818;stroke-width:0.5;"/><path d="M23.9551,21.5 L23.9551,48.5 M10.9551,29.5 L36.9551,29.5 M23.9551,48.5 L10.9551,63.5 M23.9551,48.5 L36.9551,63.5" fill="none" style="stroke:#181818;stroke-width:0.5;"/></g><g class="participant participant-tail" data-participant="User"><text fill="#000000" font-family="sans-serif" font-size="14" lengthAdjust="spacing" textLength="31.9102" x="5" y="711.0811">User</text><ellipse cx="23.9551" cy="722.8828" fill="#E2E2F0" rx="8" ry="8" style="stroke:#181818;stroke-width:0.5;"/><path d="M23.9551,730.8828 L23.9551,757.8828 M10.9551,738.8828 L36.9551,738.8828 M23.9551,757.8828 L10.9551,772.8828 M23.9551,757.8828 L36.9551,772.8828" fill="none" style="stroke:#181818;stroke-width:0.5;"/></g><g class="participant participant-head" data-participant="AuthController"><rect fill="#E2E2F0" height="30.2969" rx="2.5" ry="2.5" style="stroke:#181818;stroke-width:0.5;" width="115.9854" x="154.3921" y="50"/><text fill="#000000" font-family="sans-serif" font-size="14" lengthAdjust="spacing" textLength="101.9854" x="161.3921" y="69.9951">AuthController</text></g><g class="participant participant-tail" data-participant="AuthController"><rect fill="#E2E2F0" height="30.2969" rx="2.5" ry="2.5" style="stroke:#181818;stroke-width:0.5;" width="115.9854" x="154.3921" y="698.0859"/><text fill="#000000" font-family="sans-serif" font-size="14" lengthAdjust="spacing" textLength="101.9854" x="161.3921" y="718.0811">AuthController</text></g><g class="participant participant-head" data-participant="AuthService"><rect fill="#E2E2F0" height="30.2969" rx="2.5" ry="2.5" style="stroke:#181818;stroke-width:0.5;" width="98.5537" x="291.5967" y="50"/><text fill="#000000" font-family="sans-serif" font-size="14" lengthAdjust="spacing" textLength="84.5537" x="298.5967" y="69.9951">AuthService</text></g><g class="participant participant-tail" data-participant="AuthService"><rect fill="#E2E2F0" height="30.2969" rx="2.5" ry="2.5" style="stroke:#181818;stroke-width:0.5;" width="98.5537" x="291.5967" y="698.0859"/><text fill="#000000" font-family="sans-serif" font-size="14" lengthAdjust="spacing" textLength="84.5537" x="298.5967" y="718.0811">AuthService</text></g><g class="participant participant-head" data-participant="AuthRepository"><rect fill="#E2E2F0" height="30.2969" rx="2.5" ry="2.5" style="stroke:#181818;stroke-width:0.5;" width="121.8848" x="441.2437" y="50"/><text fill="#000000" font-family="sans-serif" font-size="14" lengthAdjust="spacing" textLength="107.8848" x="448.2437" y="69.9951">AuthRepository</text></g><g class="participant participant-tail" data-participant="AuthRepository"><rect fill="#E2E2F0" height="30.2969" rx="2.5" ry="2.5" style="stroke:#181818;stroke-width:0.5;" width="121.8848" x="441.2437" y="698.0859"/><text fill="#000000" font-family="sans-serif" font-size="14" lengthAdjust="spacing" textLength="107.8848" x="448.2437" y="718.0811">AuthRepository</text></g><g class="participant participant-head" data-participant="AuthCredential"><text fill="#000000" font-family="sans-serif" font-size="14" lengthAdjust="spacing" textLength="105.1777" x="695.4063" y="77.9951">AuthCredential</text><ellipse cx="750.9951" cy="49" fill="#E2E2F0" rx="12" ry="12" style="stroke:#181818;stroke-width:0.5;"/><line style="stroke:#181818;stroke-width:0.5;" x1="738.9951" x2="762.9951" y1="63" y2="63"/></g><g class="participant participant-tail" data-participant="AuthCredential"><text fill="#000000" font-family="sans-serif" font-size="14" lengthAdjust="spacing" textLength="105.1777" x="695.4063" y="711.0811">AuthCredential</text><ellipse cx="750.9951" cy="730.3828" fill="#E2E2F0" rx="12" ry="12" style="stroke:#181818;stroke-width:0.5;"/><line style="stroke:#181818;stroke-width:0.5;" x1="738.9951" x2="762.9951" y1="744.3828" y2="744.3828"/></g><g class="participant participant-head" data-participant="Nickname"><text fill="#000000" font-family="sans-serif" font-size="14" lengthAdjust="spacing" textLength="69.8701" x="816.584" y="77.9951">Nickname</text><ellipse cx="854.519" cy="49" fill="#E2E2F0" rx="12" ry="12" style="stroke:#181818;stroke-width:0.5;"/><line style="stroke:#181818;stroke-width:0.5;" x1="842.519" x2="866.519" y1="63" y2="63"/></g><g class="participant participant-tail" data-participant="Nickname"><text fill="#000000" font-family="sans-serif" font-size="14" lengthAdjust="spacing" textLength="69.8701" x="816.584" y="711.0811">Nickname</text><ellipse cx="854.519" cy="730.3828" fill="#E2E2F0" rx="12" ry="12" style="stroke:#181818;stroke-width:0.5;"/><line style="stroke:#181818;stroke-width:0.5;" x1="842.519" x2="866.519" y1="744.3828" y2="744.3828"/></g><g class="participant participant-head" data-participant="Password"><text fill="#000000" font-family="sans-serif" font-size="14" lengthAdjust="spacing" textLength="66.2676" x="902.4541" y="77.9951">Password</text><ellipse cx="938.5879" cy="49" fill="#E2E2F0" rx="12" ry="12" style="stroke:#181818;stroke-width:0.5;"/><line style="stroke:#181818;stroke-width:0.5;" x1="926.5879" x2="950.5879" y1="63" y2="63"/></g><g class="participant participant-tail" data-participant="Password"><text fill="#000000" font-family="sans-serif" font-size="14" lengthAdjust="spacing" textLength="66.2676" x="902.4541" y="711.0811">Password</text><ellipse cx="938.5879" cy="730.3828" fill="#E2E2F0" rx="12" ry="12" style="stroke:#181818;stroke-width:0.5;"/><line style="stroke:#181818;stroke-width:0.5;" x1="926.5879" x2="950.5879" y1="744.3828" y2="744.3828"/></g><g class="participant participant-head" data-participant="MemberService"><rect fill="#E2E2F0" height="30.2969" rx="2.5" ry="2.5" style="stroke:#181818;stroke-width:0.5;" width="123.3271" x="984.7217" y="50"/><text fill="#000000" font-family="sans-serif" font-size="14" lengthAdjust="spacing" textLength="109.3271" x="991.7217" y="69.9951">MemberService</text></g><g class="participant participant-tail" data-participant="MemberService"><rect fill="#E2E2F0" height="30.2969" rx="2.5" ry="2.5" style="stroke:#181818;stroke-width:0.5;" width="123.3271" x="984.7217" y="698.0859"/><text fill="#000000" font-family="sans-serif" font-size="14" lengthAdjust="spacing" textLength="109.3271" x="991.7217" y="718.0811">MemberService</text></g><g class="participant participant-head" data-participant="MemberCommandRepository"><rect fill="#E2E2F0" height="30.2969" rx="2.5" ry="2.5" style="stroke:#181818;stroke-width:0.5;" width="218.6133" x="1118.0488" y="50"/><text fill="#000000" font-family="sans-serif" font-size="14" lengthAdjust="spacing" textLength="204.6133" x="1125.0488" y="69.9951">MemberCommandRepository</text></g><g class="participant participant-tail" data-participant="MemberCommandRepository"><rect fill="#E2E2F0" height="30.2969" rx="2.5" ry="2.5" style="stroke:#181818;stroke-width:0.5;" width="218.6133" x="1118.0488" y="698.0859"/><text fill="#000000" font-family="sans-serif" font-size="14" lengthAdjust="spacing" textLength="204.6133" x="1125.0488" y="718.0811">MemberCommandRepository</text></g><g class="participant participant-head" data-participant="Member"><text fill="#000000" font-family="sans-serif" font-size="14" lengthAdjust="spacing" textLength="57.5859" x="1346.6621" y="77.9951">Member</text><ellipse cx="1378.4551" cy="49" fill="#E2E2F0" rx="12" ry="12" style="stroke:#181818;stroke-width:0.5;"/><line style="stroke:#181818;stroke-width:0.5;" x1="1366.4551" x2="1390.4551" y1="63" y2="63"/></g><g class="participant participant-tail" data-participant="Member"><text fill="#000000" font-family="sans-serif" font-size="14" lengthAdjust="spacing" textLength="57.5859" x="1346.6621" y="711.0811">Member</text><ellipse cx="1378.4551" cy="730.3828" fill="#E2E2F0" rx="12" ry="12" style="stroke:#181818;stroke-width:0.5;"/><line style="stroke:#181818;stroke-width:0.5;" x1="1366.4551" x2="1390.4551" y1="744.3828" y2="744.3828"/></g><g><title>AuthCredential</title><rect fill="#FFFFFF" height="29.1328" style="stroke:#181818;stroke-width:1;" width="10" x="745.9951" y="535.4219"/></g><g><title>Nickname</title><rect fill="#FFFFFF" height="29.1328" style="stroke:#181818;stroke-width:1;" width="10" x="849.519" y="185.8281"/></g><g><title>Password</title><rect fill="#FFFFFF" height="29.1328" style="stroke:#181818;stroke-width:1;" width="10" x="933.5879" y="244.0938"/></g><g><title>Password</title><rect fill="#FFFFFF" height="29.1328" style="stroke:#181818;stroke-width:1;" width="10" x="933.5879" y="302.3594"/></g><g><title>Member</title><rect fill="#FFFFFF" height="29.1328" style="stroke:#181818;stroke-width:1;" width="10" x="1373.4551" y="389.7578"/></g><g class="message" data-participant-1="User" data-participant-2="AuthController"><polygon fill="#181818" points="200.3848,123.5625,210.3848,127.5625,200.3848,131.5625,204.3848,127.5625" style="stroke:#181818;stroke-width:1;"/><line style="stroke:#181818;stroke-width:1;" x1="23.9551" x2="206.3848" y1="127.5625" y2="127.5625"/><text fill="#000000" font-family="sans-serif" font-size="13" lengthAdjust="spacing" textLength="160.2974" x="30.9551" y="107.3638">POST /auth/email/signup</text><text fill="#000000" font-family="sans-serif" font-size="13" lengthAdjust="spacing" textLength="80.8184" x="30.9551" y="122.4966">(&#54924;&#50896;&#44032;&#51077; &#50836;&#52397; &#48148;&#46356;)</text></g><g class="message" data-participant-1="AuthController" data-participant-2="AuthService"><polygon fill="#181818" points="328.8735,152.6953,338.8735,156.6953,328.8735,160.6953,332.8735,156.6953" style="stroke:#181818;stroke-width:1;"/><line style="stroke:#181818;stroke-width:1;" x1="212.3848" x2="334.8735" y1="156.6953" y2="156.6953"/><text fill="#000000" font-family="sans-serif" font-size="13" lengthAdjust="spacing" textLength="104.4888" x="219.3848" y="151.6294">signUp(request)</text></g><g class="message" data-participant-1="AuthService" data-participant-2="Nickname"><polygon fill="#181818" points="837.519,181.8281,847.519,185.8281,837.519,189.8281,841.519,185.8281" style="stroke:#181818;stroke-width:1;"/><line style="stroke:#181818;stroke-width:1;" x1="340.8735" x2="843.519" y1="185.8281" y2="185.8281"/><text fill="#000000" font-family="sans-serif" font-size="13" lengthAdjust="spacing" textLength="179.5688" x="347.8735" y="180.7622">validate(request.nickname)</text></g><g class="message" data-participant-1="Nickname" data-participant-2="AuthService"><polygon fill="#181818" points="351.8735,210.9609,341.8735,214.9609,351.8735,218.9609,347.8735,214.9609" style="stroke:#181818;stroke-width:1;"/><line style="stroke:#181818;stroke-width:1;stroke-dasharray:2.0,2.0;" x1="345.8735" x2="853.519" y1="214.9609" y2="214.9609"/><text fill="#000000" font-family="sans-serif" font-size="13" lengthAdjust="spacing" textLength="96.7383" x="357.8735" y="209.895">valid or throws</text></g><g class="message" data-participant-1="AuthService" data-participant-2="Password"><polygon fill="#181818" points="921.5879,240.0938,931.5879,244.0938,921.5879,248.0938,925.5879,244.0938" style="stroke:#181818;stroke-width:1;"/><line style="stroke:#181818;stroke-width:1;" x1="340.8735" x2="927.5879" y1="244.0938" y2="244.0938"/><text fill="#000000" font-family="sans-serif" font-size="13" lengthAdjust="spacing" textLength="178.1216" x="347.8735" y="239.0278">validate(request.password)</text></g><g class="message" data-participant-1="Password" data-participant-2="AuthService"><polygon fill="#181818" points="351.8735,269.2266,341.8735,273.2266,351.8735,277.2266,347.8735,273.2266" style="stroke:#181818;stroke-width:1;"/><line style="stroke:#181818;stroke-width:1;stroke-dasharray:2.0,2.0;" x1="345.8735" x2="937.5879" y1="273.2266" y2="273.2266"/><text fill="#000000" font-family="sans-serif" font-size="13" lengthAdjust="spacing" textLength="96.7383" x="357.8735" y="268.1606">valid or throws</text></g><g class="message" data-participant-1="AuthService" data-participant-2="Password"><polygon fill="#181818" points="921.5879,298.3594,931.5879,302.3594,921.5879,306.3594,925.5879,302.3594" style="stroke:#181818;stroke-width:1;"/><line style="stroke:#181818;stroke-width:1;" x1="340.8735" x2="927.5879" y1="302.3594" y2="302.3594"/><text fill="#000000" font-family="sans-serif" font-size="13" lengthAdjust="spacing" textLength="173.5132" x="347.8735" y="297.2935">encode(request.password)</text></g><g class="message" data-participant-1="Password" data-participant-2="AuthService"><polygon fill="#181818" points="351.8735,327.4922,341.8735,331.4922,351.8735,335.4922,347.8735,331.4922" style="stroke:#181818;stroke-width:1;"/><line style="stroke:#181818;stroke-width:1;stroke-dasharray:2.0,2.0;" x1="345.8735" x2="937.5879" y1="331.4922" y2="331.4922"/><text fill="#000000" font-family="sans-serif" font-size="13" lengthAdjust="spacing" textLength="117.3745" x="357.8735" y="326.4263">encodedPassword</text></g><g class="message" data-participant-1="AuthService" data-participant-2="MemberService"><polygon fill="#181818" points="1034.3853,356.625,1044.3853,360.625,1034.3853,364.625,1038.3853,360.625" style="stroke:#181818;stroke-width:1;"/><line style="stroke:#181818;stroke-width:1;" x1="340.8735" x2="1040.3853" y1="360.625" y2="360.625"/><text fill="#000000" font-family="sans-serif" font-size="13" lengthAdjust="spacing" textLength="290.7227" x="347.8735" y="355.5591">createMember(nickname, gender, birthyear)</text></g><g class="message" data-participant-1="MemberService" data-participant-2="Member"><polygon fill="#181818" points="1361.4551,385.7578,1371.4551,389.7578,1361.4551,393.7578,1365.4551,389.7578" style="stroke:#181818;stroke-width:1;"/><line style="stroke:#181818;stroke-width:1;" x1="1046.3853" x2="1367.4551" y1="389.7578" y2="389.7578"/><text fill="#000000" font-family="sans-serif" font-size="13" lengthAdjust="spacing" textLength="121.6973" x="1053.3853" y="384.6919">Member.create(...)</text></g><g class="message" data-participant-1="Member" data-participant-2="MemberService"><polygon fill="#181818" points="1057.3853,414.8906,1047.3853,418.8906,1057.3853,422.8906,1053.3853,418.8906" style="stroke:#181818;stroke-width:1;"/><line style="stroke:#181818;stroke-width:1;stroke-dasharray:2.0,2.0;" x1="1051.3853" x2="1377.4551" y1="418.8906" y2="418.8906"/><text fill="#000000" font-family="sans-serif" font-size="13" lengthAdjust="spacing" textLength="109.3384" x="1063.3853" y="413.8247">Member Created</text></g><g class="message" data-participant-1="MemberService" data-participant-2="MemberCommandRepository"><polygon fill="#181818" points="1215.3555,444.0234,1225.3555,448.0234,1215.3555,452.0234,1219.3555,448.0234" style="stroke:#181818;stroke-width:1;"/><line style="stroke:#181818;stroke-width:1;" x1="1046.3853" x2="1221.3555" y1="448.0234" y2="448.0234"/><text fill="#000000" font-family="sans-serif" font-size="13" lengthAdjust="spacing" textLength="95.4941" x="1053.3853" y="442.9575">save(member)</text></g><g class="message" data-participant-1="MemberCommandRepository" data-participant-2="MemberService"><polygon fill="#181818" points="1057.3853,473.1563,1047.3853,477.1563,1057.3853,481.1563,1053.3853,477.1563" style="stroke:#181818;stroke-width:1;"/><line style="stroke:#181818;stroke-width:1;stroke-dasharray:2.0,2.0;" x1="1051.3853" x2="1226.3555" y1="477.1563" y2="477.1563"/><text fill="#000000" font-family="sans-serif" font-size="13" lengthAdjust="spacing" textLength="67.0059" x="1063.3853" y="472.0903">memberId</text></g><g class="message" data-participant-1="MemberService" data-participant-2="AuthService"><polygon fill="#181818" points="351.8735,502.2891,341.8735,506.2891,351.8735,510.2891,347.8735,506.2891" style="stroke:#181818;stroke-width:1;"/><line style="stroke:#181818;stroke-width:1;stroke-dasharray:2.0,2.0;" x1="345.8735" x2="1045.3853" y1="506.2891" y2="506.2891"/><text fill="#000000" font-family="sans-serif" font-size="13" lengthAdjust="spacing" textLength="67.0059" x="357.8735" y="501.2231">memberId</text></g><g class="message" data-participant-1="AuthService" data-participant-2="AuthCredential"><polygon fill="#181818" points="733.9951,531.4219,743.9951,535.4219,733.9951,539.4219,737.9951,535.4219" style="stroke:#181818;stroke-width:1;"/><line style="stroke:#181818;stroke-width:1;" x1="340.8735" x2="739.9951" y1="535.4219" y2="535.4219"/><text fill="#000000" font-family="sans-serif" font-size="13" lengthAdjust="spacing" textLength="386.1216" x="347.8735" y="530.356">AuthCredential.create(email,memberId, encodedPassword)</text></g><g class="message" data-participant-1="AuthCredential" data-participant-2="AuthService"><polygon fill="#181818" points="351.8735,560.5547,341.8735,564.5547,351.8735,568.5547,347.8735,564.5547" style="stroke:#181818;stroke-width:1;"/><line style="stroke:#181818;stroke-width:1;stroke-dasharray:2.0,2.0;" x1="345.8735" x2="749.9951" y1="564.5547" y2="564.5547"/><text fill="#000000" font-family="sans-serif" font-size="13" lengthAdjust="spacing" textLength="153.5308" x="357.8735" y="559.4888">AuthCredential Created</text></g><g class="message" data-participant-1="AuthService" data-participant-2="AuthRepository"><polygon fill="#181818" points="490.186,589.6875,500.186,593.6875,490.186,597.6875,494.186,593.6875" style="stroke:#181818;stroke-width:1;"/><line style="stroke:#181818;stroke-width:1;" x1="340.8735" x2="496.186" y1="593.6875" y2="593.6875"/><text fill="#000000" font-family="sans-serif" font-size="13" lengthAdjust="spacing" textLength="137.3125" x="347.8735" y="588.6216">save(authCredential)</text></g><g class="message" data-participant-1="AuthRepository" data-participant-2="AuthService"><polygon fill="#181818" points="351.8735,618.8203,341.8735,622.8203,351.8735,626.8203,347.8735,622.8203" style="stroke:#181818;stroke-width:1;"/><line style="stroke:#181818;stroke-width:1;stroke-dasharray:2.0,2.0;" x1="345.8735" x2="501.186" y1="622.8203" y2="622.8203"/><text fill="#000000" font-family="sans-serif" font-size="13" lengthAdjust="spacing" textLength="108.8242" x="357.8735" y="617.7544">authCredentialId</text></g><g class="message" data-participant-1="AuthService" data-participant-2="AuthController"><polygon fill="#181818" points="223.3848,647.9531,213.3848,651.9531,223.3848,655.9531,219.3848,651.9531" style="stroke:#181818;stroke-width:1;"/><line style="stroke:#181818;stroke-width:1;stroke-dasharray:2.0,2.0;" x1="217.3848" x2="339.8735" y1="651.9531" y2="651.9531"/><text fill="#000000" font-family="sans-serif" font-size="13" lengthAdjust="spacing" textLength="55.0723" x="229.3848" y="646.8872">&#44032;&#51077; &#49457;&#44277; &#51025;&#45813;</text></g><g class="message" data-participant-1="AuthController" data-participant-2="User"><polygon fill="#181818" points="34.9551,677.0859,24.9551,681.0859,34.9551,685.0859,30.9551,681.0859" style="stroke:#181818;stroke-width:1;"/><line style="stroke:#181818;stroke-width:1;stroke-dasharray:2.0,2.0;" x1="28.9551" x2="211.3848" y1="681.0859" y2="681.0859"/><text fill="#000000" font-family="sans-serif" font-size="13" lengthAdjust="spacing" textLength="118.3076" x="40.9551" y="676.02">HTTP 201 Created</text></g><!--SRC=[fLGzJyCm4DtzApocKfi28mCIwW83K47PM4nyeXQ94notg1i3J320r0a4_m293_6dQFWFk74SQZiW45lYU_VktJlxI2HJWVTp42WZGhA8POHBl3wImrxAfKZZk26q1sBC8l3ETo5BSwOO9mYuP7AYYGJG-I-9pUasYuuvIS3yzqcUdwQ2MeHRa1o2Q2gb8xqqIGYdVaqTHcZU5UwiEStWLTpVsHlWBb77NKW8YxivE-AZ31_muEFsghYxVdywAnukS74xBLuUyUnfEfjEMyZXgPWhWOfsphAV1G9EHf3B5aABOOKsNIlecCIC4Wa67F8gra8aacoiGbycrNaThsJ9WzK4vL2afpcYuAUxCepPJJAoAhOWevvDdVSd6NNw3pA0HodzjmZDGcleRqHOTqnnH08KNfy6PYPjV0ISWcZZGoRaS094gE7QgJMN8j4VeUOAmZ1SQAIwcnMsqo2X2lNARAiBSw-_gUozX_cL96C8aZBSGj_1cbJed4tg5lDShu6kjVRBLqZxmDXJFi2sOMcxKrompbab3h-lp04q6EemDdNWkqci9BqL73Dj7NQ2vrJJWZBxv_pv_VKD5_StiyitR_sen7B3hUADmQ2FLvQMJO-V]--></g></svg>