<svg xmlns="http://www.w3.org/2000/svg" xmlns:xlink="http://www.w3.org/1999/xlink" contentStyleType="text/css" data-diagram-type="SEQUENCE" height="430px" preserveAspectRatio="none" style="width:801px;height:430px;background:#FFFFFF;" version="1.1" viewBox="0 0 801 430" width="801px" zoomAndPan="magnify"><defs/><g><g><title>User</title><rect fill="#000000" fill-opacity="0.00000" height="268.1953" width="8" x="19.9551" y="81.2969"/><line style="stroke:#181818;stroke-width:0.5;stroke-dasharray:5.0,5.0;" x1="23" x2="23" y1="81.2969" y2="349.4922"/></g><g><title>MemberController</title><rect fill="#000000" fill-opacity="0.00000" height="268.1953" width="8" x="279.6816" y="81.2969"/><line style="stroke:#181818;stroke-width:0.5;stroke-dasharray:5.0,5.0;" x1="283.3022" x2="283.3022" y1="81.2969" y2="349.4922"/></g><g><title>MemberService</title><rect fill="#000000" fill-opacity="0.00000" height="268.1953" width="8" x="461.1099" y="81.2969"/><line style="stroke:#181818;stroke-width:0.5;stroke-dasharray:5.0,5.0;" x1="464.4463" x2="464.4463" y1="81.2969" y2="349.4922"/></g><g><title>MemberQueryRepository</title><rect fill="#000000" fill-opacity="0.00000" height="268.1953" width="8" x="627.376" y="81.2969"/><line style="stroke:#181818;stroke-width:0.5;stroke-dasharray:5.0,5.0;" x1="630.7734" x2="630.7734" y1="81.2969" y2="349.4922"/></g><g><title>Member</title><rect fill="#000000" fill-opacity="0.00000" height="268.1953" width="8" x="765.0352" y="81.2969"/><line style="stroke:#181818;stroke-width:0.5;stroke-dasharray:5.0,5.0;" x1="768.2422" x2="768.2422" y1="81.2969" y2="349.4922"/></g><g class="participant participant-head" data-participant="User"><text fill="#000000" font-family="sans-serif" font-size="14" lengthAdjust="spacing" textLength="31.9102" x="5" y="77.9951">User</text><ellipse cx="23.9551" cy="13.5" fill="#E2E2F0" rx="8" ry="8" style="stroke:#181818;stroke-width:0.5;"/><path d="M23.9551,21.5 L23.9551,48.5 M10.9551,29.5 L36.9551,29.5 M23.9551,48.5 L10.9551,63.5 M23.9551,48.5 L36.9551,63.5" fill="none" style="stroke:#181818;stroke-width:0.5;"/></g><g class="participant participant-tail" data-participant="User"><text fill="#000000" font-family="sans-serif" font-size="14" lengthAdjust="spacing" textLength="31.9102" x="5" y="361.4873">User</text><ellipse cx="23.9551" cy="373.2891" fill="#E2E2F0" rx="8" ry="8" style="stroke:#181818;stroke-width:0.5;"/><path d="M23.9551,381.2891 L23.9551,408.2891 M10.9551,389.2891 L36.9551,389.2891 M23.9551,408.2891 L10.9551,423.2891 M23.9551,408.2891 L36.9551,423.2891" fill="none" style="stroke:#181818;stroke-width:0.5;"/></g><g class="participant participant-head" data-participant="MemberController"><rect fill="#E2E2F0" height="30.2969" rx="2.5" ry="2.5" style="stroke:#181818;stroke-width:0.5;" width="140.7588" x="213.3022" y="50"/><text fill="#000000" font-family="sans-serif" font-size="14" lengthAdjust="spacing" textLength="126.7588" x="220.3022" y="69.9951">MemberController</text></g><g class="participant participant-tail" data-participant="MemberController"><rect fill="#E2E2F0" height="30.2969" rx="2.5" ry="2.5" style="stroke:#181818;stroke-width:0.5;" width="140.7588" x="213.3022" y="348.4922"/><text fill="#000000" font-family="sans-serif" font-size="14" lengthAdjust="spacing" textLength="126.7588" x="220.3022" y="368.4873">MemberController</text></g><g class="participant participant-head" data-participant="MemberService"><rect fill="#E2E2F0" height="30.2969" rx="2.5" ry="2.5" style="stroke:#181818;stroke-width:0.5;" width="123.3271" x="403.4463" y="50"/><text fill="#000000" font-family="sans-serif" font-size="14" lengthAdjust="spacing" textLength="109.3271" x="410.4463" y="69.9951">MemberService</text></g><g class="participant participant-tail" data-participant="MemberService"><rect fill="#E2E2F0" height="30.2969" rx="2.5" ry="2.5" style="stroke:#181818;stroke-width:0.5;" width="123.3271" x="403.4463" y="348.4922"/><text fill="#000000" font-family="sans-serif" font-size="14" lengthAdjust="spacing" textLength="109.3271" x="410.4463" y="368.4873">MemberService</text></g><g class="participant participant-head" data-participant="MemberQueryRepository"><rect fill="#E2E2F0" height="30.2969" rx="2.5" ry="2.5" style="stroke:#181818;stroke-width:0.5;" width="189.2051" x="536.7734" y="50"/><text fill="#000000" font-family="sans-serif" font-size="14" lengthAdjust="spacing" textLength="175.2051" x="543.7734" y="69.9951">MemberQueryRepository</text></g><g class="participant participant-tail" data-participant="MemberQueryRepository"><rect fill="#E2E2F0" height="30.2969" rx="2.5" ry="2.5" style="stroke:#181818;stroke-width:0.5;" width="189.2051" x="536.7734" y="348.4922"/><text fill="#000000" font-family="sans-serif" font-size="14" lengthAdjust="spacing" textLength="175.2051" x="543.7734" y="368.4873">MemberQueryRepository</text></g><g class="participant participant-head" data-participant="Member"><text fill="#000000" font-family="sans-serif" font-size="14" lengthAdjust="spacing" textLength="57.5859" x="737.2422" y="77.9951">Member</text><ellipse cx="769.0352" cy="49" fill="#E2E2F0" rx="12" ry="12" style="stroke:#181818;stroke-width:0.5;"/><line style="stroke:#181818;stroke-width:0.5;" x1="757.0352" x2="781.0352" y1="63" y2="63"/></g><g class="participant participant-tail" data-participant="Member"><text fill="#000000" font-family="sans-serif" font-size="14" lengthAdjust="spacing" textLength="57.5859" x="737.2422" y="361.4873">Member</text><ellipse cx="769.0352" cy="380.7891" fill="#E2E2F0" rx="12" ry="12" style="stroke:#181818;stroke-width:0.5;"/><line style="stroke:#181818;stroke-width:0.5;" x1="757.0352" x2="781.0352" y1="394.7891" y2="394.7891"/></g><g class="message" data-participant-1="User" data-participant-2="MemberController"><polygon fill="#181818" points="271.6816,108.4297,281.6816,112.4297,271.6816,116.4297,275.6816,112.4297" style="stroke:#181818;stroke-width:1;"/><line style="stroke:#181818;stroke-width:1;" x1="23.9551" x2="277.6816" y1="112.4297" y2="112.4297"/><text fill="#000000" font-family="sans-serif" font-size="13" lengthAdjust="spacing" textLength="235.7266" x="30.9551" y="107.3638">GET /users/me (Authorization &#54756;&#45908; &#54252;&#54632;)</text></g><g class="message" data-participant-1="MemberController" data-participant-2="MemberService"><polygon fill="#181818" points="453.1099,137.5625,463.1099,141.5625,453.1099,145.5625,457.1099,141.5625" style="stroke:#181818;stroke-width:1;"/><line style="stroke:#181818;stroke-width:1;" x1="283.6816" x2="459.1099" y1="141.5625" y2="141.5625"/><text fill="#000000" font-family="sans-serif" font-size="13" lengthAdjust="spacing" textLength="142.0098" x="290.6816" y="136.4966">getMyInfo(memberId)</text></g><g class="message" data-participant-1="MemberService" data-participant-2="MemberQueryRepository"><polygon fill="#181818" points="619.376,166.6953,629.376,170.6953,619.376,174.6953,623.376,170.6953" style="stroke:#181818;stroke-width:1;"/><line style="stroke:#181818;stroke-width:1;" x1="465.1099" x2="625.376" y1="170.6953" y2="170.6953"/><text fill="#000000" font-family="sans-serif" font-size="13" lengthAdjust="spacing" textLength="130.5269" x="472.1099" y="165.6294">findById(memberId)</text></g><g class="message" data-participant-1="MemberQueryRepository" data-participant-2="MemberService"><polygon fill="#181818" points="476.1099,195.8281,466.1099,199.8281,476.1099,203.8281,472.1099,199.8281" style="stroke:#181818;stroke-width:1;"/><line style="stroke:#181818;stroke-width:1;stroke-dasharray:2.0,2.0;" x1="470.1099" x2="630.376" y1="199.8281" y2="199.8281"/><text fill="#000000" font-family="sans-serif" font-size="13" lengthAdjust="spacing" textLength="53.4727" x="482.1099" y="194.7622">Member</text></g><g class="message" data-participant-1="MemberService" data-participant-2="Member"><polygon fill="#181818" points="757.0352,240.0938,767.0352,244.0938,757.0352,248.0938,761.0352,244.0938" style="stroke:#181818;stroke-width:1;"/><line style="stroke:#181818;stroke-width:1;" x1="465.1099" x2="763.0352" y1="244.0938" y2="244.0938"/><text fill="#000000" font-family="sans-serif" font-size="13" lengthAdjust="spacing" textLength="72.4268" x="472.1099" y="223.895">getProfile()</text><text fill="#000000" font-family="sans-serif" font-size="13" lengthAdjust="spacing" textLength="279.9253" x="472.1099" y="239.0278">(nickname, gender, birthYear, signUpDate)</text></g><g class="message" data-participant-1="Member" data-participant-2="MemberService"><polygon fill="#181818" points="476.1099,269.2266,466.1099,273.2266,476.1099,277.2266,472.1099,273.2266" style="stroke:#181818;stroke-width:1;"/><line style="stroke:#181818;stroke-width:1;stroke-dasharray:2.0,2.0;" x1="470.1099" x2="768.0352" y1="273.2266" y2="273.2266"/><text fill="#000000" font-family="sans-serif" font-size="13" lengthAdjust="spacing" textLength="157.4282" x="482.1099" y="268.1606">MemberProfileResponse</text></g><g class="message" data-participant-1="MemberService" data-participant-2="MemberController"><polygon fill="#181818" points="294.6816,298.3594,284.6816,302.3594,294.6816,306.3594,290.6816,302.3594" style="stroke:#181818;stroke-width:1;"/><line style="stroke:#181818;stroke-width:1;stroke-dasharray:2.0,2.0;" x1="288.6816" x2="464.1099" y1="302.3594" y2="302.3594"/><text fill="#000000" font-family="sans-serif" font-size="13" lengthAdjust="spacing" textLength="157.4282" x="300.6816" y="297.2935">MemberProfileResponse</text></g><g class="message" data-participant-1="MemberController" data-participant-2="User"><polygon fill="#181818" points="34.9551,327.4922,24.9551,331.4922,34.9551,335.4922,30.9551,331.4922" style="stroke:#181818;stroke-width:1;"/><line style="stroke:#181818;stroke-width:1;stroke-dasharray:2.0,2.0;" x1="28.9551" x2="282.6816" y1="331.4922" y2="331.4922"/><text fill="#000000" font-family="sans-serif" font-size="13" lengthAdjust="spacing" textLength="156.2666" x="40.9551" y="326.4263">HTTP 200 OK + JSON &#51025;&#45813;</text></g><!--SRC=[VP6zJiCm58LtFyKT4z6g5MC79Fu40PMMDXsGMDpafhL8hYFRGGglW1120Z6nCJ2mybGbxu0fQGN4i5awzpldt6iU6QbWeb6nd2iZ8f5pCj37R8fgLv9HCasTuXZLfOZGePmMgCeHvb8BQruo92DCMOkCVOP1UwkH0Jqus0-XKrXTTp84RximSwd45JT24bIFpukRUwXkNwk75vyryBLbtSpwpT3qou0IwMLB9OXznduEhQbVhIsT28ftoY3-1hj7suxerRP_f7sL6ogPY1Gz7yx98n5T4C-mPHMAKRLWAfIPdo6tJorcDCdtkC5LYNzIQziHwboInaO9z_7TRFFCbbv-OGyEmt08czqk38vX0ux6WnDuVxfRNBzz0000]--></g></svg>