<svg xmlns="http://www.w3.org/2000/svg" xmlns:xlink="http://www.w3.org/1999/xlink" contentStyleType="text/css" data-diagram-type="SEQUENCE" height="356px" preserveAspectRatio="none" style="width:930px;height:356px;background:#FFFFFF;" version="1.1" viewBox="0 0 930 356" width="930px" zoomAndPan="magnify"><defs/><g><g><title>User</title><rect fill="#000000" fill-opacity="0.00000" height="194.7969" width="8" x="19.9551" y="81.2969"/><line style="stroke:#181818;stroke-width:0.5;stroke-dasharray:5.0,5.0;" x1="23" x2="23" y1="81.2969" y2="276.0938"/></g><g><title>MemberController</title><rect fill="#000000" fill-opacity="0.00000" height="194.7969" width="8" x="337.8198" y="81.2969"/><line style="stroke:#181818;stroke-width:0.5;stroke-dasharray:5.0,5.0;" x1="341.4404" x2="341.4404" y1="81.2969" y2="276.0938"/></g><g><title>MemberService</title><rect fill="#000000" fill-opacity="0.00000" height="194.7969" width="8" x="578.624" y="81.2969"/><line style="stroke:#181818;stroke-width:0.5;stroke-dasharray:5.0,5.0;" x1="581.9604" x2="581.9604" y1="81.2969" y2="276.0938"/></g><g><title>MemberQueryRepository</title><rect fill="#000000" fill-opacity="0.00000" height="194.7969" width="8" x="825.4395" y="81.2969"/><line style="stroke:#181818;stroke-width:0.5;stroke-dasharray:5.0,5.0;" x1="828.8369" x2="828.8369" y1="81.2969" y2="276.0938"/></g><g class="participant participant-head" data-participant="User"><text fill="#000000" font-family="sans-serif" font-size="14" lengthAdjust="spacing" textLength="31.9102" x="5" y="77.9951">User</text><ellipse cx="23.9551" cy="13.5" fill="#E2E2F0" rx="8" ry="8" style="stroke:#181818;stroke-width:0.5;"/><path d="M23.9551,21.5 L23.9551,48.5 M10.9551,29.5 L36.9551,29.5 M23.9551,48.5 L10.9551,63.5 M23.9551,48.5 L36.9551,63.5" fill="none" style="stroke:#181818;stroke-width:0.5;"/></g><g class="participant participant-tail" data-participant="User"><text fill="#000000" font-family="sans-serif" font-size="14" lengthAdjust="spacing" textLength="31.9102" x="5" y="288.0889">User</text><ellipse cx="23.9551" cy="299.8906" fill="#E2E2F0" rx="8" ry="8" style="stroke:#181818;stroke-width:0.5;"/><path d="M23.9551,307.8906 L23.9551,334.8906 M10.9551,315.8906 L36.9551,315.8906 M23.9551,334.8906 L10.9551,349.8906 M23.9551,334.8906 L36.9551,349.8906" fill="none" style="stroke:#181818;stroke-width:0.5;"/></g><g class="participant participant-head" data-participant="MemberController"><rect fill="#E2E2F0" height="30.2969" rx="2.5" ry="2.5" style="stroke:#181818;stroke-width:0.5;" width="140.7588" x="271.4404" y="50"/><text fill="#000000" font-family="sans-serif" font-size="14" lengthAdjust="spacing" textLength="126.7588" x="278.4404" y="69.9951">MemberController</text></g><g class="participant participant-tail" data-participant="MemberController"><rect fill="#E2E2F0" height="30.2969" rx="2.5" ry="2.5" style="stroke:#181818;stroke-width:0.5;" width="140.7588" x="271.4404" y="275.0938"/><text fill="#000000" font-family="sans-serif" font-size="14" lengthAdjust="spacing" textLength="126.7588" x="278.4404" y="295.0889">MemberController</text></g><g class="participant participant-head" data-participant="MemberService"><rect fill="#E2E2F0" height="30.2969" rx="2.5" ry="2.5" style="stroke:#181818;stroke-width:0.5;" width="123.3271" x="520.9604" y="50"/><text fill="#000000" font-family="sans-serif" font-size="14" lengthAdjust="spacing" textLength="109.3271" x="527.9604" y="69.9951">MemberService</text></g><g class="participant participant-tail" data-participant="MemberService"><rect fill="#E2E2F0" height="30.2969" rx="2.5" ry="2.5" style="stroke:#181818;stroke-width:0.5;" width="123.3271" x="520.9604" y="275.0938"/><text fill="#000000" font-family="sans-serif" font-size="14" lengthAdjust="spacing" textLength="109.3271" x="527.9604" y="295.0889">MemberService</text></g><g class="participant participant-head" data-participant="MemberQueryRepository"><rect fill="#E2E2F0" height="30.2969" rx="2.5" ry="2.5" style="stroke:#181818;stroke-width:0.5;" width="189.2051" x="734.8369" y="50"/><text fill="#000000" font-family="sans-serif" font-size="14" lengthAdjust="spacing" textLength="175.2051" x="741.8369" y="69.9951">MemberQueryRepository</text></g><g class="participant participant-tail" data-participant="MemberQueryRepository"><rect fill="#E2E2F0" height="30.2969" rx="2.5" ry="2.5" style="stroke:#181818;stroke-width:0.5;" width="189.2051" x="734.8369" y="275.0938"/><text fill="#000000" font-family="sans-serif" font-size="14" lengthAdjust="spacing" textLength="175.2051" x="741.8369" y="295.0889">MemberQueryRepository</text></g><g class="message" data-participant-1="User" data-participant-2="MemberController"><polygon fill="#181818" points="329.8198,108.4297,339.8198,112.4297,329.8198,116.4297,333.8198,112.4297" style="stroke:#181818;stroke-width:1;"/><line style="stroke:#181818;stroke-width:1;" x1="23.9551" x2="335.8198" y1="112.4297" y2="112.4297"/><text fill="#000000" font-family="sans-serif" font-size="13" lengthAdjust="spacing" textLength="293.8647" x="30.9551" y="107.3638">GET /user/exists/nickname={userNickname}</text></g><g class="message" data-participant-1="MemberController" data-participant-2="MemberService"><polygon fill="#181818" points="570.624,137.5625,580.624,141.5625,570.624,145.5625,574.624,141.5625" style="stroke:#181818;stroke-width:1;"/><line style="stroke:#181818;stroke-width:1;" x1="341.8198" x2="576.624" y1="141.5625" y2="141.5625"/><text fill="#000000" font-family="sans-serif" font-size="13" lengthAdjust="spacing" textLength="216.8042" x="348.8198" y="136.4966">isNicknameExists(userNickname)</text></g><g class="message" data-participant-1="MemberService" data-participant-2="MemberQueryRepository"><polygon fill="#181818" points="817.4395,166.6953,827.4395,170.6953,817.4395,174.6953,821.4395,170.6953" style="stroke:#181818;stroke-width:1;"/><line style="stroke:#181818;stroke-width:1;" x1="582.624" x2="823.4395" y1="170.6953" y2="170.6953"/><text fill="#000000" font-family="sans-serif" font-size="13" lengthAdjust="spacing" textLength="222.8154" x="589.624" y="165.6294">existsByNickname(userNickname)</text></g><g class="message" data-participant-1="MemberQueryRepository" data-participant-2="MemberService"><polygon fill="#181818" points="593.624,195.8281,583.624,199.8281,593.624,203.8281,589.624,199.8281" style="stroke:#181818;stroke-width:1;"/><line style="stroke:#181818;stroke-width:1;stroke-dasharray:2.0,2.0;" x1="587.624" x2="828.4395" y1="199.8281" y2="199.8281"/><text fill="#000000" font-family="sans-serif" font-size="13" lengthAdjust="spacing" textLength="70.2495" x="599.624" y="194.7622">true / false</text></g><g class="message" data-participant-1="MemberService" data-participant-2="MemberController"><polygon fill="#181818" points="352.8198,224.9609,342.8198,228.9609,352.8198,232.9609,348.8198,228.9609" style="stroke:#181818;stroke-width:1;"/><line style="stroke:#181818;stroke-width:1;stroke-dasharray:2.0,2.0;" x1="346.8198" x2="581.624" y1="228.9609" y2="228.9609"/><text fill="#000000" font-family="sans-serif" font-size="13" lengthAdjust="spacing" textLength="70.2495" x="358.8198" y="223.895">true / false</text></g><g class="message" data-participant-1="MemberController" data-participant-2="User"><polygon fill="#181818" points="34.9551,254.0938,24.9551,258.0938,34.9551,262.0938,30.9551,258.0938" style="stroke:#181818;stroke-width:1;"/><line style="stroke:#181818;stroke-width:1;stroke-dasharray:2.0,2.0;" x1="28.9551" x2="340.8198" y1="258.0938" y2="258.0938"/><text fill="#000000" font-family="sans-serif" font-size="13" lengthAdjust="spacing" textLength="267.5156" x="40.9551" y="253.0278">HTTP 200 OK + JSON (exists: true / false)</text></g><!--SRC=[RP1T2u8m58RlzolEfHAYT2dKHI55aLRQ3rXoWf5VR3EIwBytFqdTvVQUvzcxGsEPSxW9vAIWNBAO5JIJSCBqZdoRPvBdIQ8DG-Gl5gCckPJ8goiMkM1ANX5Iwy5QpwpWmiwBm2vLRkER2IdiZCNFZAQu-jItVdVwaXax-BeYIiP4F-yrCkDVOH8odXy4axvAr7RPL3qx4UanIzD8yXB1XWTD1CxUrszaXCn_hQ1cdIxie-WCIyU1u0WBE8I13qPRV2mnVm00]--></g></svg>