<svg xmlns="http://www.w3.org/2000/svg" xmlns:xlink="http://www.w3.org/1999/xlink" contentStyleType="text/css" data-diagram-type="SEQUENCE" height="560px" preserveAspectRatio="none" style="width:1772px;height:560px;background:#FFFFFF;" version="1.1" viewBox="0 0 1772 560" width="1772px" zoomAndPan="magnify"><defs/><g><g><title>User</title><rect fill="#000000" fill-opacity="0.00000" height="398.7266" width="8" x="19.9551" y="81.2969"/><line style="stroke:#181818;stroke-width:0.5;stroke-dasharray:5.0,5.0;" x1="23" x2="23" y1="81.2969" y2="480.0234"/></g><g><title>AuthController</title><rect fill="#000000" fill-opacity="0.00000" height="398.7266" width="8" x="557.0488" y="81.2969"/><line style="stroke:#181818;stroke-width:0.5;stroke-dasharray:5.0,5.0;" x1="560.0562" x2="560.0562" y1="81.2969" y2="480.0234"/></g><g><title>AuthService</title><rect fill="#000000" fill-opacity="0.00000" height="398.7266" width="8" x="840.9536" y="81.2969"/><line style="stroke:#181818;stroke-width:0.5;stroke-dasharray:5.0,5.0;" x1="844.6768" x2="844.6768" y1="81.2969" y2="480.0234"/></g><g><title>OAuth2AuthenticationPrincipal</title><rect fill="#000000" fill-opacity="0.00000" height="398.7266" width="8" x="1014.9375" y="81.2969"/><line style="stroke:#181818;stroke-width:0.5;stroke-dasharray:5.0,5.0;" x1="1018.2305" x2="1018.2305" y1="81.2969" y2="480.0234"/></g><g><title>AuthRepository</title><rect fill="#000000" fill-opacity="0.00000" height="398.7266" width="8" x="1200.5869" y="81.2969"/><line style="stroke:#181818;stroke-width:0.5;stroke-dasharray:5.0,5.0;" x1="1203.6445" x2="1203.6445" y1="81.2969" y2="480.0234"/></g><g><title>AuthCredential</title><rect fill="#000000" fill-opacity="0.00000" height="398.7266" width="8" x="1331.1182" y="81.2969"/><line style="stroke:#181818;stroke-width:0.5;stroke-dasharray:5.0,5.0;" x1="1334.5293" x2="1334.5293" y1="81.2969" y2="480.0234"/></g><g><title>MemberService</title><rect fill="#000000" fill-opacity="0.00000" height="398.7266" width="8" x="1462.3706" y="81.2969"/><line style="stroke:#181818;stroke-width:0.5;stroke-dasharray:5.0,5.0;" x1="1465.707" x2="1465.707" y1="81.2969" y2="480.0234"/></g><g><title>MemberRepository</title><rect fill="#000000" fill-opacity="0.00000" height="398.7266" width="8" x="1607.3633" y="81.2969"/><line style="stroke:#181818;stroke-width:0.5;stroke-dasharray:5.0,5.0;" x1="1611.0342" x2="1611.0342" y1="81.2969" y2="480.0234"/></g><g><title>Member</title><rect fill="#000000" fill-opacity="0.00000" height="398.7266" width="8" x="1726.4854" y="81.2969"/><line style="stroke:#181818;stroke-width:0.5;stroke-dasharray:5.0,5.0;" x1="1729.6924" x2="1729.6924" y1="81.2969" y2="480.0234"/></g><g class="participant participant-head" data-participant="User"><text fill="#000000" font-family="sans-serif" font-size="14" lengthAdjust="spacing" textLength="31.9102" x="5" y="77.9951">User</text><ellipse cx="23.9551" cy="13.5" fill="#E2E2F0" rx="8" ry="8" style="stroke:#181818;stroke-width:0.5;"/><path d="M23.9551,21.5 L23.9551,48.5 M10.9551,29.5 L36.9551,29.5 M23.9551,48.5 L10.9551,63.5 M23.9551,48.5 L36.9551,63.5" fill="none" style="stroke:#181818;stroke-width:0.5;"/></g><g class="participant participant-tail" data-participant="User"><text fill="#000000" font-family="sans-serif" font-size="14" lengthAdjust="spacing" textLength="31.9102" x="5" y="492.0186">User</text><ellipse cx="23.9551" cy="503.8203" fill="#E2E2F0" rx="8" ry="8" style="stroke:#181818;stroke-width:0.5;"/><path d="M23.9551,511.8203 L23.9551,538.8203 M10.9551,519.8203 L36.9551,519.8203 M23.9551,538.8203 L10.9551,553.8203 M23.9551,538.8203 L36.9551,553.8203" fill="none" style="stroke:#181818;stroke-width:0.5;"/></g><g class="participant participant-head" data-participant="AuthController"><rect fill="#E2E2F0" height="30.2969" rx="2.5" ry="2.5" style="stroke:#181818;stroke-width:0.5;" width="115.9854" x="503.0562" y="50"/><text fill="#000000" font-family="sans-serif" font-size="14" lengthAdjust="spacing" textLength="101.9854" x="510.0562" y="69.9951">AuthController</text></g><g class="participant participant-tail" data-participant="AuthController"><rect fill="#E2E2F0" height="30.2969" rx="2.5" ry="2.5" style="stroke:#181818;stroke-width:0.5;" width="115.9854" x="503.0562" y="479.0234"/><text fill="#000000" font-family="sans-serif" font-size="14" lengthAdjust="spacing" textLength="101.9854" x="510.0562" y="499.0186">AuthController</text></g><g class="participant participant-head" data-participant="AuthService"><rect fill="#E2E2F0" height="30.2969" rx="2.5" ry="2.5" style="stroke:#181818;stroke-width:0.5;" width="98.5537" x="795.6768" y="50"/><text fill="#000000" font-family="sans-serif" font-size="14" lengthAdjust="spacing" textLength="84.5537" x="802.6768" y="69.9951">AuthService</text></g><g class="participant participant-tail" data-participant="AuthService"><rect fill="#E2E2F0" height="30.2969" rx="2.5" ry="2.5" style="stroke:#181818;stroke-width:0.5;" width="98.5537" x="795.6768" y="479.0234"/><text fill="#000000" font-family="sans-serif" font-size="14" lengthAdjust="spacing" textLength="84.5537" x="802.6768" y="499.0186">AuthService</text></g><g class="participant participant-head" data-participant="OAuth2AuthenticationPrincipal"><rect fill="#E2E2F0" height="30.2969" rx="2.5" ry="2.5" style="stroke:#181818;stroke-width:0.5;" width="229.4141" x="904.2305" y="50"/><text fill="#000000" font-family="sans-serif" font-size="14" lengthAdjust="spacing" textLength="215.4141" x="911.2305" y="69.9951">OAuth2AuthenticationPrincipal</text></g><g class="participant participant-tail" data-participant="OAuth2AuthenticationPrincipal"><rect fill="#E2E2F0" height="30.2969" rx="2.5" ry="2.5" style="stroke:#181818;stroke-width:0.5;" width="229.4141" x="904.2305" y="479.0234"/><text fill="#000000" font-family="sans-serif" font-size="14" lengthAdjust="spacing" textLength="215.4141" x="911.2305" y="499.0186">OAuth2AuthenticationPrincipal</text></g><g class="participant participant-head" data-participant="AuthRepository"><rect fill="#E2E2F0" height="30.2969" rx="2.5" ry="2.5" style="stroke:#181818;stroke-width:0.5;" width="121.8848" x="1143.6445" y="50"/><text fill="#000000" font-family="sans-serif" font-size="14" lengthAdjust="spacing" textLength="107.8848" x="1150.6445" y="69.9951">AuthRepository</text></g><g class="participant participant-tail" data-participant="AuthRepository"><rect fill="#E2E2F0" height="30.2969" rx="2.5" ry="2.5" style="stroke:#181818;stroke-width:0.5;" width="121.8848" x="1143.6445" y="479.0234"/><text fill="#000000" font-family="sans-serif" font-size="14" lengthAdjust="spacing" textLength="107.8848" x="1150.6445" y="499.0186">AuthRepository</text></g><g class="participant participant-head" data-participant="AuthCredential"><rect fill="#E2E2F0" height="30.2969" rx="2.5" ry="2.5" style="stroke:#181818;stroke-width:0.5;" width="119.1777" x="1275.5293" y="50"/><text fill="#000000" font-family="sans-serif" font-size="14" lengthAdjust="spacing" textLength="105.1777" x="1282.5293" y="69.9951">AuthCredential</text></g><g class="participant participant-tail" data-participant="AuthCredential"><rect fill="#E2E2F0" height="30.2969" rx="2.5" ry="2.5" style="stroke:#181818;stroke-width:0.5;" width="119.1777" x="1275.5293" y="479.0234"/><text fill="#000000" font-family="sans-serif" font-size="14" lengthAdjust="spacing" textLength="105.1777" x="1282.5293" y="499.0186">AuthCredential</text></g><g class="participant participant-head" data-participant="MemberService"><rect fill="#E2E2F0" height="30.2969" rx="2.5" ry="2.5" style="stroke:#181818;stroke-width:0.5;" width="123.3271" x="1404.707" y="50"/><text fill="#000000" font-family="sans-serif" font-size="14" lengthAdjust="spacing" textLength="109.3271" x="1411.707" y="69.9951">MemberService</text></g><g class="participant participant-tail" data-participant="MemberService"><rect fill="#E2E2F0" height="30.2969" rx="2.5" ry="2.5" style="stroke:#181818;stroke-width:0.5;" width="123.3271" x="1404.707" y="479.0234"/><text fill="#000000" font-family="sans-serif" font-size="14" lengthAdjust="spacing" textLength="109.3271" x="1411.707" y="499.0186">MemberService</text></g><g class="participant participant-head" data-participant="MemberRepository"><rect fill="#E2E2F0" height="30.2969" rx="2.5" ry="2.5" style="stroke:#181818;stroke-width:0.5;" width="146.6582" x="1538.0342" y="50"/><text fill="#000000" font-family="sans-serif" font-size="14" lengthAdjust="spacing" textLength="132.6582" x="1545.0342" y="69.9951">MemberRepository</text></g><g class="participant participant-tail" data-participant="MemberRepository"><rect fill="#E2E2F0" height="30.2969" rx="2.5" ry="2.5" style="stroke:#181818;stroke-width:0.5;" width="146.6582" x="1538.0342" y="479.0234"/><text fill="#000000" font-family="sans-serif" font-size="14" lengthAdjust="spacing" textLength="132.6582" x="1545.0342" y="499.0186">MemberRepository</text></g><g class="participant participant-head" data-participant="Member"><rect fill="#E2E2F0" height="30.2969" rx="2.5" ry="2.5" style="stroke:#181818;stroke-width:0.5;" width="71.5859" x="1694.6924" y="50"/><text fill="#000000" font-family="sans-serif" font-size="14" lengthAdjust="spacing" textLength="57.5859" x="1701.6924" y="69.9951">Member</text></g><g class="participant participant-tail" data-participant="Member"><rect fill="#E2E2F0" height="30.2969" rx="2.5" ry="2.5" style="stroke:#181818;stroke-width:0.5;" width="71.5859" x="1694.6924" y="479.0234"/><text fill="#000000" font-family="sans-serif" font-size="14" lengthAdjust="spacing" textLength="57.5859" x="1701.6924" y="499.0186">Member</text></g><g class="message" data-participant-1="User" data-participant-2="AuthController"><polygon fill="#181818" points="549.0488,108.4297,559.0488,112.4297,549.0488,116.4297,553.0488,112.4297" style="stroke:#181818;stroke-width:1;"/><line style="stroke:#181818;stroke-width:1;" x1="23.9551" x2="555.0488" y1="112.4297" y2="112.4297"/><text fill="#000000" font-family="sans-serif" font-size="13" lengthAdjust="spacing" textLength="513.0938" x="30.9551" y="107.3638">POST /auth/email/signup { nickname } (Authorization: Bearer ACCESS_TOKEN)</text></g><g class="message" data-participant-1="AuthController" data-participant-2="OAuth2AuthenticationPrincipal"><polygon fill="#181818" points="1006.9375,137.5625,1016.9375,141.5625,1006.9375,145.5625,1010.9375,141.5625" style="stroke:#181818;stroke-width:1;"/><line style="stroke:#181818;stroke-width:1;" x1="561.0488" x2="1012.9375" y1="141.5625" y2="141.5625"/><text fill="#000000" font-family="sans-serif" font-size="13" lengthAdjust="spacing" textLength="112.1123" x="568.0488" y="136.4966">extractPrincipal()</text></g><g class="message" data-participant-1="OAuth2AuthenticationPrincipal" data-participant-2="AuthController"><polygon fill="#181818" points="572.0488,166.6953,562.0488,170.6953,572.0488,174.6953,568.0488,170.6953" style="stroke:#181818;stroke-width:1;"/><line style="stroke:#181818;stroke-width:1;stroke-dasharray:2.0,2.0;" x1="566.0488" x2="1017.9375" y1="170.6953" y2="170.6953"/><text fill="#000000" font-family="sans-serif" font-size="13" lengthAdjust="spacing" textLength="71.2588" x="578.0488" y="165.6294">authUserId</text></g><g class="message" data-participant-1="AuthController" data-participant-2="AuthService"><polygon fill="#181818" points="832.9536,195.8281,842.9536,199.8281,832.9536,203.8281,836.9536,199.8281" style="stroke:#181818;stroke-width:1;"/><line style="stroke:#181818;stroke-width:1;" x1="561.0488" x2="838.9536" y1="199.8281" y2="199.8281"/><text fill="#000000" font-family="sans-serif" font-size="13" lengthAdjust="spacing" textLength="259.9048" x="568.0488" y="194.7622">completeSignUp(authUserId, nickname)</text></g><g class="message" data-participant-1="AuthService" data-participant-2="AuthRepository"><polygon fill="#181818" points="1192.5869,224.9609,1202.5869,228.9609,1192.5869,232.9609,1196.5869,228.9609" style="stroke:#181818;stroke-width:1;"/><line style="stroke:#181818;stroke-width:1;" x1="844.9536" x2="1198.5869" y1="228.9609" y2="228.9609"/><text fill="#000000" font-family="sans-serif" font-size="13" lengthAdjust="spacing" textLength="134.7798" x="851.9536" y="223.895">findById(authUserId)</text></g><g class="message" data-participant-1="AuthRepository" data-participant-2="AuthService"><polygon fill="#181818" points="855.9536,254.0938,845.9536,258.0938,855.9536,262.0938,851.9536,258.0938" style="stroke:#181818;stroke-width:1;"/><line style="stroke:#181818;stroke-width:1;" x1="849.9536" x2="1203.5869" y1="258.0938" y2="258.0938"/><text fill="#000000" font-family="sans-serif" font-size="13" lengthAdjust="spacing" textLength="97.665" x="861.9536" y="253.0278">AuthCredential</text></g><g class="message" data-participant-1="AuthService" data-participant-2="MemberService"><polygon fill="#181818" points="1454.3706,283.2266,1464.3706,287.2266,1454.3706,291.2266,1458.3706,287.2266" style="stroke:#181818;stroke-width:1;"/><line style="stroke:#181818;stroke-width:1;" x1="844.9536" x2="1460.3706" y1="287.2266" y2="287.2266"/><text fill="#000000" font-family="sans-serif" font-size="13" lengthAdjust="spacing" textLength="168.562" x="851.9536" y="282.1606">createMember(nickname)</text></g><g class="message" data-participant-1="MemberService" data-participant-2="Member"><polygon fill="#181818" points="1718.4854,312.3594,1728.4854,316.3594,1718.4854,320.3594,1722.4854,316.3594" style="stroke:#181818;stroke-width:1;"/><line style="stroke:#181818;stroke-width:1;" x1="1466.3706" x2="1724.4854" y1="316.3594" y2="316.3594"/><text fill="#000000" font-family="sans-serif" font-size="13" lengthAdjust="spacing" textLength="172.6943" x="1473.3706" y="311.2935">Member.create(nickname)</text></g><g class="message" data-participant-1="MemberService" data-participant-2="MemberRepository"><polygon fill="#181818" points="1599.3633,341.4922,1609.3633,345.4922,1599.3633,349.4922,1603.3633,345.4922" style="stroke:#181818;stroke-width:1;"/><line style="stroke:#181818;stroke-width:1;" x1="1466.3706" x2="1605.3633" y1="345.4922" y2="345.4922"/><text fill="#000000" font-family="sans-serif" font-size="13" lengthAdjust="spacing" textLength="95.4941" x="1473.3706" y="340.4263">save(member)</text></g><g class="message" data-participant-1="AuthService" data-participant-2="AuthCredential"><polygon fill="#181818" points="1323.1182,370.625,1333.1182,374.625,1323.1182,378.625,1327.1182,374.625" style="stroke:#181818;stroke-width:1;"/><line style="stroke:#181818;stroke-width:1;" x1="844.9536" x2="1329.1182" y1="374.625" y2="374.625"/><text fill="#000000" font-family="sans-serif" font-size="13" lengthAdjust="spacing" textLength="119.9453" x="851.9536" y="369.5591">linkTo(member.id)</text></g><g class="message" data-participant-1="AuthService" data-participant-2="AuthRepository"><polygon fill="#181818" points="1192.5869,399.7578,1202.5869,403.7578,1192.5869,407.7578,1196.5869,403.7578" style="stroke:#181818;stroke-width:1;"/><line style="stroke:#181818;stroke-width:1;" x1="844.9536" x2="1198.5869" y1="403.7578" y2="403.7578"/><text fill="#000000" font-family="sans-serif" font-size="13" lengthAdjust="spacing" textLength="137.3125" x="851.9536" y="398.6919">save(authCredential)</text></g><g class="message" data-participant-1="AuthService" data-participant-2="AuthController"><polygon fill="#181818" points="572.0488,428.8906,562.0488,432.8906,572.0488,436.8906,568.0488,432.8906" style="stroke:#181818;stroke-width:1;"/><line style="stroke:#181818;stroke-width:1;" x1="566.0488" x2="843.9536" y1="432.8906" y2="432.8906"/><text fill="#000000" font-family="sans-serif" font-size="13" lengthAdjust="spacing" textLength="55.0723" x="578.0488" y="427.8247">&#44032;&#51077; &#50756;&#47308; &#51025;&#45813;</text></g><g class="message" data-participant-1="AuthController" data-participant-2="User"><polygon fill="#181818" points="34.9551,458.0234,24.9551,462.0234,34.9551,466.0234,30.9551,462.0234" style="stroke:#181818;stroke-width:1;"/><line style="stroke:#181818;stroke-width:1;stroke-dasharray:2.0,2.0;" x1="28.9551" x2="560.0488" y1="462.0234" y2="462.0234"/><text fill="#000000" font-family="sans-serif" font-size="13" lengthAdjust="spacing" textLength="118.3076" x="40.9551" y="456.9575">HTTP 201 Created</text></g><!--SRC=[XLAxJiD04Epz5Liw4aaWPGgan8f4X20HTcfqs0kSOjzPvqj4G4WKK453IG4DFq33Jv5y17U-43yJ6kiqkpEpislYIovWag2mOY8azMbCc8JUJ5uxd4d1mx2cvAAOKnyB-4WNElg3J854Kix6WZ9T3YiAPnZpX2hlHTLNOA0bIgmJZ2vGr3cRoXP5KxGi7H6QXwLaq8NnoFMWJHJSneZGi9tGApQBuGuOzQUCH0ZtO6iQ5_GsZTM5FXAXs3t76RZkkJSw7fmsh9AqCjkv4-MDDr8GNsuWks7jfZJh4kZPTRnXODNCaBkNwlLv58SeqLKX9x6TKVSsSHj6vO-pbiZMgrGkAGlwYs6GuvlukQwATUcsPPF2VVMa0eb4WzhPRCMs3KyHpADbUFyp2e4ICaSxIl7w-DdWgZkaREhnTN-BhhFlMbYgJmewMtpoX_tvUbXzFC7gxN7v-GAhzzVbytVbmegO_jjTEFAyCNJs3y19Ln3y0W00]--></g></svg>