<svg xmlns="http://www.w3.org/2000/svg" xmlns:xlink="http://www.w3.org/1999/xlink" contentStyleType="text/css" data-diagram-type="SEQUENCE" height="506px" preserveAspectRatio="none" style="width:1185px;height:506px;background:#FFFFFF;" version="1.1" viewBox="0 0 1185 506" width="1185px" zoomAndPan="magnify"><defs/><g><rect fill="none" height="46.2656" style="stroke:#000000;stroke-width:1.5;" width="644.7314" x="534.3071" y="214.8281"/><rect fill="none" height="46.2656" style="stroke:#000000;stroke-width:1.5;" width="644.7314" x="534.3071" y="275.0938"/><g><title>User</title><rect fill="#000000" fill-opacity="0.00000" height="344.4609" width="8" x="19.9551" y="81.2969"/><line style="stroke:#181818;stroke-width:0.5;stroke-dasharray:5.0,5.0;" x1="23" x2="23" y1="81.2969" y2="425.7578"/></g><g><title>MemberController</title><rect fill="#000000" fill-opacity="0.00000" height="344.4609" width="8" x="304.0439" y="81.2969"/><line style="stroke:#181818;stroke-width:0.5;stroke-dasharray:5.0,5.0;" x1="307.6646" x2="307.6646" y1="81.2969" y2="425.7578"/></g><g><title>MemberService</title><rect fill="#000000" fill-opacity="0.00000" height="344.4609" width="8" x="601.9707" y="81.2969"/><line style="stroke:#181818;stroke-width:0.5;stroke-dasharray:5.0,5.0;" x1="605.3071" x2="605.3071" y1="81.2969" y2="425.7578"/></g><g><title>MemberCommandRepository</title><rect fill="#000000" fill-opacity="0.00000" height="344.4609" width="8" x="782.9409" y="81.2969"/><line style="stroke:#181818;stroke-width:0.5;stroke-dasharray:5.0,5.0;" x1="786.6343" x2="786.6343" y1="81.2969" y2="425.7578"/></g><g><title>MemberQueryRepository</title><rect fill="#000000" fill-opacity="0.00000" height="344.4609" width="8" x="996.8501" y="81.2969"/><line style="stroke:#181818;stroke-width:0.5;stroke-dasharray:5.0,5.0;" x1="1000.2476" x2="1000.2476" y1="81.2969" y2="425.7578"/></g><g><title>Member</title><rect fill="#000000" fill-opacity="0.00000" height="344.4609" width="8" x="1133.2456" y="81.2969"/><line style="stroke:#181818;stroke-width:0.5;stroke-dasharray:5.0,5.0;" x1="1136.4526" x2="1136.4526" y1="81.2969" y2="425.7578"/></g><g class="participant participant-head" data-participant="User"><text fill="#000000" font-family="sans-serif" font-size="14" lengthAdjust="spacing" textLength="31.9102" x="5" y="77.9951">User</text><ellipse cx="23.9551" cy="13.5" fill="#E2E2F0" rx="8" ry="8" style="stroke:#181818;stroke-width:0.5;"/><path d="M23.9551,21.5 L23.9551,48.5 M10.9551,29.5 L36.9551,29.5 M23.9551,48.5 L10.9551,63.5 M23.9551,48.5 L36.9551,63.5" fill="none" style="stroke:#181818;stroke-width:0.5;"/></g><g class="participant participant-tail" data-participant="User"><text fill="#000000" font-family="sans-serif" font-size="14" lengthAdjust="spacing" textLength="31.9102" x="5" y="437.7529">User</text><ellipse cx="23.9551" cy="449.5547" fill="#E2E2F0" rx="8" ry="8" style="stroke:#181818;stroke-width:0.5;"/><path d="M23.9551,457.5547 L23.9551,484.5547 M10.9551,465.5547 L36.9551,465.5547 M23.9551,484.5547 L10.9551,499.5547 M23.9551,484.5547 L36.9551,499.5547" fill="none" style="stroke:#181818;stroke-width:0.5;"/></g><g class="participant participant-head" data-participant="MemberController"><rect fill="#E2E2F0" height="30.2969" rx="2.5" ry="2.5" style="stroke:#181818;stroke-width:0.5;" width="140.7588" x="237.6646" y="50"/><text fill="#000000" font-family="sans-serif" font-size="14" lengthAdjust="spacing" textLength="126.7588" x="244.6646" y="69.9951">MemberController</text></g><g class="participant participant-tail" data-participant="MemberController"><rect fill="#E2E2F0" height="30.2969" rx="2.5" ry="2.5" style="stroke:#181818;stroke-width:0.5;" width="140.7588" x="237.6646" y="424.7578"/><text fill="#000000" font-family="sans-serif" font-size="14" lengthAdjust="spacing" textLength="126.7588" x="244.6646" y="444.7529">MemberController</text></g><g class="participant participant-head" data-participant="MemberService"><rect fill="#E2E2F0" height="30.2969" rx="2.5" ry="2.5" style="stroke:#181818;stroke-width:0.5;" width="123.3271" x="544.3071" y="50"/><text fill="#000000" font-family="sans-serif" font-size="14" lengthAdjust="spacing" textLength="109.3271" x="551.3071" y="69.9951">MemberService</text></g><g class="participant participant-tail" data-participant="MemberService"><rect fill="#E2E2F0" height="30.2969" rx="2.5" ry="2.5" style="stroke:#181818;stroke-width:0.5;" width="123.3271" x="544.3071" y="424.7578"/><text fill="#000000" font-family="sans-serif" font-size="14" lengthAdjust="spacing" textLength="109.3271" x="551.3071" y="444.7529">MemberService</text></g><g class="participant participant-head" data-participant="MemberCommandRepository"><rect fill="#E2E2F0" height="30.2969" rx="2.5" ry="2.5" style="stroke:#181818;stroke-width:0.5;" width="218.6133" x="677.6343" y="50"/><text fill="#000000" font-family="sans-serif" font-size="14" lengthAdjust="spacing" textLength="204.6133" x="684.6343" y="69.9951">MemberCommandRepository</text></g><g class="participant participant-tail" data-participant="MemberCommandRepository"><rect fill="#E2E2F0" height="30.2969" rx="2.5" ry="2.5" style="stroke:#181818;stroke-width:0.5;" width="218.6133" x="677.6343" y="424.7578"/><text fill="#000000" font-family="sans-serif" font-size="14" lengthAdjust="spacing" textLength="204.6133" x="684.6343" y="444.7529">MemberCommandRepository</text></g><g class="participant participant-head" data-participant="MemberQueryRepository"><rect fill="#E2E2F0" height="30.2969" rx="2.5" ry="2.5" style="stroke:#181818;stroke-width:0.5;" width="189.2051" x="906.2476" y="50"/><text fill="#000000" font-family="sans-serif" font-size="14" lengthAdjust="spacing" textLength="175.2051" x="913.2476" y="69.9951">MemberQueryRepository</text></g><g class="participant participant-tail" data-participant="MemberQueryRepository"><rect fill="#E2E2F0" height="30.2969" rx="2.5" ry="2.5" style="stroke:#181818;stroke-width:0.5;" width="189.2051" x="906.2476" y="424.7578"/><text fill="#000000" font-family="sans-serif" font-size="14" lengthAdjust="spacing" textLength="175.2051" x="913.2476" y="444.7529">MemberQueryRepository</text></g><g class="participant participant-head" data-participant="Member"><text fill="#000000" font-family="sans-serif" font-size="14" lengthAdjust="spacing" textLength="57.5859" x="1105.4526" y="77.9951">Member</text><ellipse cx="1137.2456" cy="49" fill="#E2E2F0" rx="12" ry="12" style="stroke:#181818;stroke-width:0.5;"/><line style="stroke:#181818;stroke-width:0.5;" x1="1125.2456" x2="1149.2456" y1="63" y2="63"/></g><g class="participant participant-tail" data-participant="Member"><text fill="#000000" font-family="sans-serif" font-size="14" lengthAdjust="spacing" textLength="57.5859" x="1105.4526" y="437.7529">Member</text><ellipse cx="1137.2456" cy="457.0547" fill="#E2E2F0" rx="12" ry="12" style="stroke:#181818;stroke-width:0.5;"/><line style="stroke:#181818;stroke-width:0.5;" x1="1125.2456" x2="1149.2456" y1="471.0547" y2="471.0547"/></g><g class="message" data-participant-1="User" data-participant-2="MemberController"><polygon fill="#181818" points="296.0439,108.4297,306.0439,112.4297,296.0439,116.4297,300.0439,112.4297" style="stroke:#181818;stroke-width:1;"/><line style="stroke:#181818;stroke-width:1;" x1="23.9551" x2="302.0439" y1="112.4297" y2="112.4297"/><text fill="#000000" font-family="sans-serif" font-size="13" lengthAdjust="spacing" textLength="260.0889" x="30.9551" y="107.3638">PATCH /users/me (nickname, password)</text></g><g class="message" data-participant-1="MemberController" data-participant-2="MemberService"><polygon fill="#181818" points="593.9707,137.5625,603.9707,141.5625,593.9707,145.5625,597.9707,141.5625" style="stroke:#181818;stroke-width:1;"/><line style="stroke:#181818;stroke-width:1;" x1="308.0439" x2="599.9707" y1="141.5625" y2="141.5625"/><text fill="#000000" font-family="sans-serif" font-size="13" lengthAdjust="spacing" textLength="273.9268" x="315.0439" y="136.4966">updateMyInfo(memberId, updateRequest)</text></g><g class="message" data-participant-1="MemberService" data-participant-2="MemberQueryRepository"><polygon fill="#181818" points="988.8501,166.6953,998.8501,170.6953,988.8501,174.6953,992.8501,170.6953" style="stroke:#181818;stroke-width:1;"/><line style="stroke:#181818;stroke-width:1;" x1="605.9707" x2="994.8501" y1="170.6953" y2="170.6953"/><text fill="#000000" font-family="sans-serif" font-size="13" lengthAdjust="spacing" textLength="130.5269" x="612.9707" y="165.6294">findById(memberId)</text></g><g class="message" data-participant-1="MemberQueryRepository" data-participant-2="MemberService"><polygon fill="#181818" points="616.9707,195.8281,606.9707,199.8281,616.9707,203.8281,612.9707,199.8281" style="stroke:#181818;stroke-width:1;"/><line style="stroke:#181818;stroke-width:1;stroke-dasharray:2.0,2.0;" x1="610.9707" x2="999.8501" y1="199.8281" y2="199.8281"/><text fill="#000000" font-family="sans-serif" font-size="13" lengthAdjust="spacing" textLength="53.4727" x="622.9707" y="194.7622">Member</text></g><path d="M534.3071,214.8281 L598.75,214.8281 L598.75,221.9609 L588.75,231.9609 L534.3071,231.9609 L534.3071,214.8281" fill="#EEEEEE" style="stroke:#000000;stroke-width:1.5;"/><rect fill="none" height="46.2656" style="stroke:#000000;stroke-width:1.5;" width="644.7314" x="534.3071" y="214.8281"/><text fill="#000000" font-family="sans-serif" font-size="13" font-weight="bold" lengthAdjust="spacing" textLength="19.4429" x="549.3071" y="227.895">alt</text><text fill="#000000" font-family="sans-serif" font-size="11" font-weight="bold" lengthAdjust="spacing" textLength="77.1235" x="613.75" y="227.0386">[&#45769;&#45348;&#51076;&#51060; &#51316;&#51116;&#54624; &#44221;&#50864;]</text><g class="message" data-participant-1="MemberService" data-participant-2="Member"><polygon fill="#181818" points="1125.2456,249.0938,1135.2456,253.0938,1125.2456,257.0938,1129.2456,253.0938" style="stroke:#181818;stroke-width:1;"/><line style="stroke:#181818;stroke-width:1;" x1="605.9707" x2="1131.2456" y1="253.0938" y2="253.0938"/><text fill="#000000" font-family="sans-serif" font-size="13" lengthAdjust="spacing" textLength="212.5767" x="612.9707" y="248.0278">updateNickname(newNickname)</text></g><path d="M534.3071,275.0938 L598.75,275.0938 L598.75,282.2266 L588.75,292.2266 L534.3071,292.2266 L534.3071,275.0938" fill="#EEEEEE" style="stroke:#000000;stroke-width:1.5;"/><rect fill="none" height="46.2656" style="stroke:#000000;stroke-width:1.5;" width="644.7314" x="534.3071" y="275.0938"/><text fill="#000000" font-family="sans-serif" font-size="13" font-weight="bold" lengthAdjust="spacing" textLength="19.4429" x="549.3071" y="288.1606">alt</text><text fill="#000000" font-family="sans-serif" font-size="11" font-weight="bold" lengthAdjust="spacing" textLength="83.7246" x="613.75" y="287.3042">[&#48708;&#48128;&#48264;&#54840;&#44032; &#51316;&#51116;&#54624; &#44221;&#50864;]</text><g class="message" data-participant-1="MemberService" data-participant-2="Member"><polygon fill="#181818" points="1125.2456,309.3594,1135.2456,313.3594,1125.2456,317.3594,1129.2456,313.3594" style="stroke:#181818;stroke-width:1;"/><line style="stroke:#181818;stroke-width:1;" x1="605.9707" x2="1131.2456" y1="313.3594" y2="313.3594"/><text fill="#000000" font-family="sans-serif" font-size="13" lengthAdjust="spacing" textLength="205.8862" x="612.9707" y="308.2935">updatePassword(newPassword)</text></g><g class="message" data-participant-1="MemberService" data-participant-2="MemberCommandRepository"><polygon fill="#181818" points="774.9409,345.4922,784.9409,349.4922,774.9409,353.4922,778.9409,349.4922" style="stroke:#181818;stroke-width:1;"/><line style="stroke:#181818;stroke-width:1;" x1="605.9707" x2="780.9409" y1="349.4922" y2="349.4922"/><text fill="#000000" font-family="sans-serif" font-size="13" lengthAdjust="spacing" textLength="95.4941" x="612.9707" y="344.4263">save(member)</text></g><g class="message" data-participant-1="MemberService" data-participant-2="MemberController"><polygon fill="#181818" points="319.0439,374.625,309.0439,378.625,319.0439,382.625,315.0439,378.625" style="stroke:#181818;stroke-width:1;"/><line style="stroke:#181818;stroke-width:1;stroke-dasharray:2.0,2.0;" x1="313.0439" x2="604.9707" y1="378.625" y2="378.625"/><text fill="#000000" font-family="sans-serif" font-size="13" lengthAdjust="spacing" textLength="35.3374" x="325.0439" y="373.5591">&#49457;&#44277; &#51025;&#45813;</text></g><g class="message" data-participant-1="MemberController" data-participant-2="User"><polygon fill="#181818" points="34.9551,403.7578,24.9551,407.7578,34.9551,411.7578,30.9551,407.7578" style="stroke:#181818;stroke-width:1;"/><line style="stroke:#181818;stroke-width:1;stroke-dasharray:2.0,2.0;" x1="28.9551" x2="307.0439" y1="407.7578" y2="407.7578"/><text fill="#000000" font-family="sans-serif" font-size="13" lengthAdjust="spacing" textLength="85.3315" x="40.9551" y="402.6919">HTTP 200 OK</text></g><!--SRC=[dL8_Jy905D_lKxoH9X288uE9ia0CMX4_mDbx91VfjLwla6uC7JHC3YR61AA9emCY93huXMZv3XxaQ1JAuasNU-_tv_tUKKTv4Yu3bCIdKd67-rGeQA9xXRBc2IMzRZUtU86onntCXRak5Qo5lXTmJH_bz9o7AADV7IWKLv4f4h8o1AN37HzG1VkeNQj3ETGTGTb5A0ZkN0lgOX5y6WHzJpABxE0oBcDR4uK-emgRKKDql8AxBZPOqJoty2R4G5c4_8LbF5i3QBuE5-muQh2CQsDZkxMKOsOpEEqgI8PtIVoQZkDqD8FqPPQEtvOFpx2OVgTF4mBwxF6K3NLg8Ya8x6_kbiwO6O6lE9aCakdjyl5pCHdyJyCsOQyqx2pujSOUwCw_q5m1xQ49pDh6vUy_ZTyN7tD8H_V9S9wpQ8rQ_vugrDjj6mug5JWx-G40]--></g></svg>