<svg xmlns="http://www.w3.org/2000/svg" xmlns:xlink="http://www.w3.org/1999/xlink" contentStyleType="text/css" data-diagram-type="CLASS" height="416px" preserveAspectRatio="none" style="width:739px;height:416px;background:#FFFFFF;" version="1.1" viewBox="0 0 739 416" width="739px" zoomAndPan="magnify"><defs/><g><!--cluster member--><g class="cluster" data-entity="member" data-source-line="1" data-uid="ent0002" id="cluster_member"><path d="M8.5,6 L74.5918,6 A3.75,3.75 0 0 1 77.0918,8.5 L84.0918,28.2969 L729.5,28.2969 A2.5,2.5 0 0 1 732,30.7969 L732,406.5 A2.5,2.5 0 0 1 729.5,409 L8.5,409 A2.5,2.5 0 0 1 6,406.5 L6,8.5 A2.5,2.5 0 0 1 8.5,6" fill="none" style="stroke:#000000;stroke-width:1.5;"/><line style="stroke:#000000;stroke-width:1.5;" x1="6" x2="84.0918" y1="28.2969" y2="28.2969"/><text fill="#000000" font-family="sans-serif" font-size="14" font-weight="bold" lengthAdjust="spacing" textLength="65.0918" x="10" y="20.9951">member</text></g><!--class Member--><g class="entity" data-entity="Member" data-source-line="2" data-uid="ent0003" id="entity_Member"><rect fill="#F1F1F1" height="186.6406" rx="2.5" ry="2.5" style="stroke:#181818;stroke-width:0.5;" width="456.1445" x="110" y="41"/><ellipse cx="281.2363" cy="61.1328" fill="#ADD1B2" rx="11" ry="11" style="stroke:#181818;stroke-width:1;"/><path d="M285.3457,67.1328 L277.627,67.1328 L277.627,54.7422 L285.3457,54.7422 L285.3457,56.8984 L280.0801,56.8984 L280.0801,59.5703 L284.8457,59.5703 L284.8457,61.7266 L280.0801,61.7266 L280.0801,64.9766 L285.3457,64.9766 L285.3457,67.1328 Z " fill="#000000"/><text fill="#000000" font-family="sans-serif" font-size="12" font-style="italic" lengthAdjust="spacing" textLength="109.1719" x="299.7363" y="57.1387">&#171;Aggregate Root&#187;</text><text fill="#000000" font-family="sans-serif" font-size="14" lengthAdjust="spacing" textLength="57.5859" x="325.5293" y="72.9639">Member</text><line style="stroke:#181818;stroke-width:0.5;" x1="111" x2="565.1445" y1="81.2656" y2="81.2656"/><ellipse cx="121" cy="94.9141" fill="none" rx="3" ry="3" style="stroke:#038048;stroke-width:1;"/><text fill="#000000" font-family="sans-serif" font-size="14" lengthAdjust="spacing" textLength="43.292" x="130" y="98.2607">Long :</text><text fill="#000000" font-family="sans-serif" font-size="14" lengthAdjust="spacing" textLength="72.1602" x="241.2549" y="98.2607">memberId</text><ellipse cx="121" cy="111.2109" fill="none" rx="3" ry="3" style="stroke:#038048;stroke-width:1;"/><text fill="#000000" font-family="sans-serif" font-size="14" lengthAdjust="spacing" textLength="79.0371" x="130" y="114.5576">Nickname :</text><text fill="#000000" font-family="sans-serif" font-size="14" lengthAdjust="spacing" textLength="68.2705" x="241.2549" y="114.5576">nickname</text><ellipse cx="121" cy="127.5078" fill="none" rx="3" ry="3" style="stroke:#038048;stroke-width:1;"/><text fill="#000000" font-family="sans-serif" font-size="14" lengthAdjust="spacing" textLength="60.7578" x="130" y="130.8545">Gender :</text><text fill="#000000" font-family="sans-serif" font-size="14" lengthAdjust="spacing" textLength="49.6289" x="241.2549" y="130.8545">gender</text><ellipse cx="121" cy="143.8047" fill="none" rx="3" ry="3" style="stroke:#038048;stroke-width:1;"/><text fill="#000000" font-family="sans-serif" font-size="14" lengthAdjust="spacing" textLength="74.2793" x="130" y="147.1514">BirthYear :</text><text fill="#000000" font-family="sans-serif" font-size="14" lengthAdjust="spacing" textLength="64.3945" x="241.2549" y="147.1514">birthYear</text><ellipse cx="121" cy="160.1016" fill="none" rx="3" ry="3" style="stroke:#038048;stroke-width:1;"/><text fill="#000000" font-family="sans-serif" font-size="14" lengthAdjust="spacing" textLength="77.3213" x="130" y="163.4482">DateTime :</text><text fill="#000000" font-family="sans-serif" font-size="14" lengthAdjust="spacing" textLength="81.5391" x="241.2549" y="163.4482">signUpDate</text><line style="stroke:#181818;stroke-width:1;" x1="111" x2="565.1445" y1="170.75" y2="170.75"/><ellipse cx="121" cy="184.3984" fill="#84BE84" rx="3" ry="3" style="stroke:#038048;stroke-width:1;"/><text fill="#000000" font-family="sans-serif" font-size="14" lengthAdjust="spacing" textLength="55.6719" x="130" y="187.7451">create()</text><ellipse cx="121" cy="200.6953" fill="#84BE84" rx="3" ry="3" style="stroke:#038048;stroke-width:1;"/><text fill="#000000" font-family="sans-serif" font-size="14" lengthAdjust="spacing" textLength="75.2979" x="130" y="204.042">withdraw()</text><ellipse cx="121" cy="216.9922" fill="#84BE84" rx="3" ry="3" style="stroke:#038048;stroke-width:1;"/><text fill="#000000" font-family="sans-serif" font-size="14" lengthAdjust="spacing" textLength="430.1445" x="130" y="220.3389">updateNickname(String) : nickname.updateNickname(String)</text></g><!--class Gender--><g class="entity" data-entity="Gender" data-source-line="14" data-uid="ent0004" id="entity_Gender"><rect fill="#F1F1F1" height="80.5938" rx="2.5" ry="2.5" style="stroke:#181818;stroke-width:0.5;" width="83.5908" x="22" y="300"/><ellipse cx="37" cy="316" fill="#EB937F" rx="11" ry="11" style="stroke:#181818;stroke-width:1;"/><path d="M41.1094,322 L33.3906,322 L33.3906,309.6094 L41.1094,309.6094 L41.1094,311.7656 L35.8438,311.7656 L35.8438,314.4375 L40.6094,314.4375 L40.6094,316.5938 L35.8438,316.5938 L35.8438,319.8438 L41.1094,319.8438 L41.1094,322 Z " fill="#000000"/><text fill="#000000" font-family="sans-serif" font-size="14" lengthAdjust="spacing" textLength="51.5908" x="51" y="320.8467">Gender</text><line style="stroke:#181818;stroke-width:0.5;" x1="23" x2="104.5908" y1="332" y2="332"/><text fill="#000000" font-family="sans-serif" font-size="14" lengthAdjust="spacing" textLength="38.3018" x="28" y="348.9951">MALE</text><text fill="#000000" font-family="sans-serif" font-size="14" lengthAdjust="spacing" textLength="55.2002" x="28" y="365.292">FEMALE</text><line style="stroke:#181818;stroke-width:0.5;" x1="23" x2="104.5908" y1="372.5938" y2="372.5938"/></g><!--class Nickname--><g class="entity" data-entity="Nickname" data-source-line="19" data-uid="ent0005" id="entity_Nickname"><rect fill="#F1F1F1" height="105.1563" rx="2.5" ry="2.5" style="stroke:#181818;stroke-width:0.5;" width="393.8145" x="141" y="288"/><ellipse cx="289.8604" cy="308.1328" fill="#ADD1B2" rx="11" ry="11" style="stroke:#181818;stroke-width:1;"/><path d="M292.8291,313.7734 Q292.251,314.0703 291.6104,314.2109 Q290.9697,314.3672 290.2666,314.3672 Q287.7666,314.3672 286.4385,312.7266 Q285.126,311.0703 285.126,307.9453 Q285.126,304.8203 286.4385,303.1641 Q287.7666,301.5078 290.2666,301.5078 Q290.9697,301.5078 291.6104,301.6641 Q292.2666,301.8203 292.8291,302.1172 L292.8291,304.8359 Q292.2041,304.2578 291.6104,303.9922 Q291.0166,303.7109 290.3916,303.7109 Q289.0479,303.7109 288.3604,304.7891 Q287.6729,305.8516 287.6729,307.9453 Q287.6729,310.0391 288.3604,311.1172 Q289.0479,312.1797 290.3916,312.1797 Q291.0166,312.1797 291.6104,311.9141 Q292.2041,311.6328 292.8291,311.0547 L292.8291,313.7734 Z " fill="#000000"/><text fill="#000000" font-family="sans-serif" font-size="12" font-style="italic" lengthAdjust="spacing" textLength="91.5938" x="308.3604" y="304.1387">&#171;Value Object&#187;</text><text fill="#000000" font-family="sans-serif" font-size="14" lengthAdjust="spacing" textLength="69.8701" x="319.2222" y="319.9639">Nickname</text><line style="stroke:#181818;stroke-width:0.5;" x1="142" x2="533.8145" y1="328.2656" y2="328.2656"/><ellipse cx="152" cy="341.9141" fill="none" rx="3" ry="3" style="stroke:#038048;stroke-width:1;"/><text fill="#000000" font-family="sans-serif" font-size="14" lengthAdjust="spacing" textLength="123.6689" x="161" y="345.2607">String : nickname</text><line style="stroke:#181818;stroke-width:1;" x1="142" x2="533.8145" y1="352.5625" y2="352.5625"/><ellipse cx="152" cy="366.2109" fill="#84BE84" rx="3" ry="3" style="stroke:#038048;stroke-width:1;"/><text fill="#000000" font-family="sans-serif" font-size="14" lengthAdjust="spacing" textLength="67.1357" x="161" y="369.5576">validate()</text><ellipse cx="152" cy="382.5078" fill="#84BE84" rx="3" ry="3" style="stroke:#038048;stroke-width:1;"/><text fill="#000000" font-family="sans-serif" font-size="14" lengthAdjust="spacing" textLength="367.8145" x="161" y="385.8545">updateNickname(newNickname : String) : Nickname</text></g><!--class BirthYear--><g class="entity" data-entity="BirthYear" data-source-line="26" data-uid="ent0006" id="entity_BirthYear"><rect fill="#F1F1F1" height="88.8594" rx="2.5" ry="2.5" style="stroke:#181818;stroke-width:0.5;" width="145.793" x="570" y="296"/><ellipse cx="596.7896" cy="316.1328" fill="#ADD1B2" rx="11" ry="11" style="stroke:#181818;stroke-width:1;"/><path d="M599.7584,321.7734 Q599.1803,322.0703 598.5396,322.2109 Q597.899,322.3672 597.1959,322.3672 Q594.6959,322.3672 593.3678,320.7266 Q592.0553,319.0703 592.0553,315.9453 Q592.0553,312.8203 593.3678,311.1641 Q594.6959,309.5078 597.1959,309.5078 Q597.899,309.5078 598.5396,309.6641 Q599.1959,309.8203 599.7584,310.1172 L599.7584,312.8359 Q599.1334,312.2578 598.5396,311.9922 Q597.9459,311.7109 597.3209,311.7109 Q595.9771,311.7109 595.2896,312.7891 Q594.6021,313.8516 594.6021,315.9453 Q594.6021,318.0391 595.2896,319.1172 Q595.9771,320.1797 597.3209,320.1797 Q597.9459,320.1797 598.5396,319.9141 Q599.1334,319.6328 599.7584,319.0547 L599.7584,321.7734 Z " fill="#000000"/><text fill="#000000" font-family="sans-serif" font-size="12" font-style="italic" lengthAdjust="spacing" textLength="91.5938" x="611.4096" y="312.1387">&#171;Value Object&#187;</text><text fill="#000000" font-family="sans-serif" font-size="14" lengthAdjust="spacing" textLength="65.1123" x="624.6503" y="327.9639">BirthYear</text><line style="stroke:#181818;stroke-width:0.5;" x1="571" x2="714.793" y1="336.2656" y2="336.2656"/><ellipse cx="581" cy="349.9141" fill="none" rx="3" ry="3" style="stroke:#038048;stroke-width:1;"/><text fill="#000000" font-family="sans-serif" font-size="14" lengthAdjust="spacing" textLength="119.793" x="590" y="353.2607">String : birthYear</text><line style="stroke:#181818;stroke-width:1;" x1="571" x2="714.793" y1="360.5625" y2="360.5625"/><ellipse cx="581" cy="374.2109" fill="#84BE84" rx="3" ry="3" style="stroke:#038048;stroke-width:1;"/><text fill="#000000" font-family="sans-serif" font-size="14" lengthAdjust="spacing" textLength="67.1357" x="590" y="377.5576">validate()</text></g><!--link Member to Gender--><g class="link" data-entity-1="Member" data-entity-2="Gender" data-source-line="32" data-uid="lnk7" id="link_Member_Gender"><path codeLine="32" d="M203.14,228.02 C176.23,247.35 148.43,267.96 123,288 C117.45,292.38 111.71,297.1 106.11,301.85" fill="none" id="Member-Gender" style="stroke:#181818;stroke-width:1;"/></g><!--link Member to Nickname--><g class="link" data-entity-1="Member" data-entity-2="Nickname" data-source-line="33" data-uid="lnk8" id="link_Member_Nickname"><path codeLine="33" d="M338,228.25 C338,248.77 338,269.8 338,287.97" fill="none" id="Member-Nickname" style="stroke:#181818;stroke-width:1;"/></g><!--link Member to BirthYear--><g class="link" data-entity-1="Member" data-entity-2="BirthYear" data-source-line="34" data-uid="lnk9" id="link_Member_BirthYear"><path codeLine="34" d="M476.67,228.25 C511.92,251.82 548.16,276.07 577.78,295.88" fill="none" id="Member-BirthYear" style="stroke:#181818;stroke-width:1;"/></g><!--SRC=[XLBBQiCm4BpxAvQS4ehx0SK4KfgMGj92Nr38HPOMHOqj6rckAIN_NbKhsKe9zAQTsPsTMTGoVc0IOLPZNQAPmNS6WDeg-mLR3q5HhAGqA9b5U6eQkrpw9e2BJQCbNC7ExYpG_BqWva7nWsOrUXPqg8YxGosSR9YJlYBcMXcxVqT699In9FR66NXHKRDJKh-slvXdyvoQk447pHTK3ShkXM53hFjME3QQcpzRexHSEC7eyF9yHtRCCjHz3S4xvT-kDcl_k5txfslY5Uiw6DCNnHkhUeJ7yWDvSZYIJVQUPFXabH99YZ-UD0x9UQSC4PnyJFVyryZfhSyuSQBXF-HvE4C2ZBidQ5oU7Ny0]--></g></svg>