<svg xmlns="http://www.w3.org/2000/svg" xmlns:xlink="http://www.w3.org/1999/xlink" contentStyleType="text/css" data-diagram-type="CLASS" height="352px" preserveAspectRatio="none" style="width:320px;height:352px;background:#FFFFFF;" version="1.1" viewBox="0 0 320 352" width="320px" zoomAndPan="magnify"><defs/><g><!--cluster board manager--><g class="cluster" data-entity="board manager" data-source-line="1" data-uid="ent0002" id="cluster_board manager"><path d="M8.5,6 L130.2568,6 A3.75,3.75 0 0 1 132.7568,8.5 L139.7568,28.2969 L310.5,28.2969 A2.5,2.5 0 0 1 313,30.7969 L313,342.5 A2.5,2.5 0 0 1 310.5,345 L8.5,345 A2.5,2.5 0 0 1 6,342.5 L6,8.5 A2.5,2.5 0 0 1 8.5,6" fill="none" style="stroke:#000000;stroke-width:1.5;"/><line style="stroke:#000000;stroke-width:1.5;" x1="6" x2="139.7568" y1="28.2969" y2="28.2969"/><text fill="#000000" font-family="sans-serif" font-size="14" font-weight="bold" lengthAdjust="spacing" textLength="120.7568" x="10" y="20.9951">board manager</text></g><!--class BoardManager--><g class="entity" data-entity="BoardManager" data-source-line="2" data-uid="ent0003" id="entity_BoardManager"><rect fill="#F1F1F1" height="56.2656" rx="2.5" ry="2.5" style="stroke:#181818;stroke-width:0.5;" width="137.1719" x="90.5" y="41"/><ellipse cx="105.5" cy="61.1328" fill="#ADD1B2" rx="11" ry="11" style="stroke:#181818;stroke-width:1;"/><path d="M109.6094,67.1328 L101.8906,67.1328 L101.8906,54.7422 L109.6094,54.7422 L109.6094,56.8984 L104.3438,56.8984 L104.3438,59.5703 L109.1094,59.5703 L109.1094,61.7266 L104.3438,61.7266 L104.3438,64.9766 L109.6094,64.9766 L109.6094,67.1328 Z " fill="#000000"/><text fill="#000000" font-family="sans-serif" font-size="12" font-style="italic" lengthAdjust="spacing" textLength="109.1719" x="117.5" y="57.1387">&#171;Aggregate Root&#187;</text><text fill="#000000" font-family="sans-serif" font-size="14" lengthAdjust="spacing" textLength="102.7578" x="120.707" y="72.9639">BoardManager</text><line style="stroke:#181818;stroke-width:0.5;" x1="91.5" x2="226.6719" y1="81.2656" y2="81.2656"/><line style="stroke:#181818;stroke-width:0.5;" x1="91.5" x2="226.6719" y1="89.2656" y2="89.2656"/></g><!--class Role--><g class="entity" data-entity="Role" data-source-line="4" data-uid="ent0004" id="entity_Role"><rect fill="#F1F1F1" height="56.2656" rx="2.5" ry="2.5" style="stroke:#181818;stroke-width:0.5;" width="77.8457" x="43" y="273"/><ellipse cx="58" cy="293.1328" fill="#ADD1B2" rx="11" ry="11" style="stroke:#181818;stroke-width:1;"/><path d="M62.1094,299.1328 L54.3906,299.1328 L54.3906,286.7422 L62.1094,286.7422 L62.1094,288.8984 L56.8438,288.8984 L56.8438,291.5703 L61.6094,291.5703 L61.6094,293.7266 L56.8438,293.7266 L56.8438,296.9766 L62.1094,296.9766 L62.1094,299.1328 Z " fill="#000000"/><text fill="#000000" font-family="sans-serif" font-size="12" font-style="italic" lengthAdjust="spacing" textLength="49.8457" x="70" y="289.1387">&#171;Entity&#187;</text><text fill="#000000" font-family="sans-serif" font-size="14" lengthAdjust="spacing" textLength="30.7959" x="79.5249" y="304.9639">Role</text><line style="stroke:#181818;stroke-width:0.5;" x1="44" x2="119.8457" y1="313.2656" y2="313.2656"/><line style="stroke:#181818;stroke-width:0.5;" x1="44" x2="119.8457" y1="321.2656" y2="321.2656"/></g><!--class Roles--><g class="entity" data-entity="Roles" data-source-line="6" data-uid="ent0005" id="entity_Roles"><rect fill="#F1F1F1" height="56.2656" rx="2.5" ry="2.5" style="stroke:#181818;stroke-width:0.5;" width="119.5938" x="22" y="157"/><ellipse cx="37" cy="177.1328" fill="#F1F1F1" rx="11" ry="11" style="stroke:#181818;stroke-width:1;"/><path d="M36.4844,177.6953 Q34.625,176.9922 33.9688,176.2266 Q33.3281,175.4453 33.3281,174.1328 Q33.3281,172.4453 34.4063,171.4766 Q35.4844,170.5078 37.3594,170.5078 Q38.2188,170.5078 39.0625,170.7109 Q39.9219,170.8984 40.7656,171.2891 L40.7656,173.6797 Q39.9844,173.1172 39.1563,172.8359 Q38.3438,172.5391 37.5469,172.5391 Q36.6719,172.5391 36.1875,172.8984 Q35.7188,173.2578 35.7188,173.9141 Q35.7188,174.4297 36.0625,174.7734 Q36.4063,175.1016 37.5,175.5078 L38.5625,175.9141 Q40.0469,176.4609 40.75,177.3672 Q41.4688,178.2734 41.4688,179.6484 Q41.4688,181.5234 40.3594,182.4453 Q39.25,183.3672 37,183.3672 Q36.0781,183.3672 35.1563,183.1484 Q34.2344,182.9297 33.375,182.5078 L33.375,179.9766 Q34.3438,180.6641 35.2656,181.0078 Q36.1875,181.3516 37.0781,181.3516 Q37.9844,181.3516 38.4844,180.9453 Q38.9844,180.5234 38.9844,179.7891 Q38.9844,179.2266 38.6406,178.8203 Q38.3125,178.3984 37.6875,178.1484 L36.4844,177.6953 Z " fill="#000000"/><text fill="#000000" font-family="sans-serif" font-size="12" font-style="italic" lengthAdjust="spacing" textLength="91.5938" x="49" y="173.1387">&#171;Value Object&#187;</text><text fill="#000000" font-family="sans-serif" font-size="14" lengthAdjust="spacing" textLength="38.0898" x="75.752" y="188.9639">Roles</text><line style="stroke:#181818;stroke-width:0.5;" x1="23" x2="140.5938" y1="197.2656" y2="197.2656"/><line style="stroke:#181818;stroke-width:0.5;" x1="23" x2="140.5938" y1="205.2656" y2="205.2656"/></g><!--class Members--><g class="entity" data-entity="Members" data-source-line="8" data-uid="ent0006" id="entity_Members"><rect fill="#F1F1F1" height="56.2656" rx="2.5" ry="2.5" style="stroke:#181818;stroke-width:0.5;" width="119.5938" x="177" y="157"/><ellipse cx="192" cy="177.1328" fill="#F1F1F1" rx="11" ry="11" style="stroke:#181818;stroke-width:1;"/><path d="M191.4844,177.6953 Q189.625,176.9922 188.9688,176.2266 Q188.3281,175.4453 188.3281,174.1328 Q188.3281,172.4453 189.4063,171.4766 Q190.4844,170.5078 192.3594,170.5078 Q193.2188,170.5078 194.0625,170.7109 Q194.9219,170.8984 195.7656,171.2891 L195.7656,173.6797 Q194.9844,173.1172 194.1563,172.8359 Q193.3438,172.5391 192.5469,172.5391 Q191.6719,172.5391 191.1875,172.8984 Q190.7188,173.2578 190.7188,173.9141 Q190.7188,174.4297 191.0625,174.7734 Q191.4063,175.1016 192.5,175.5078 L193.5625,175.9141 Q195.0469,176.4609 195.75,177.3672 Q196.4688,178.2734 196.4688,179.6484 Q196.4688,181.5234 195.3594,182.4453 Q194.25,183.3672 192,183.3672 Q191.0781,183.3672 190.1563,183.1484 Q189.2344,182.9297 188.375,182.5078 L188.375,179.9766 Q189.3438,180.6641 190.2656,181.0078 Q191.1875,181.3516 192.0781,181.3516 Q192.9844,181.3516 193.4844,180.9453 Q193.9844,180.5234 193.9844,179.7891 Q193.9844,179.2266 193.6406,178.8203 Q193.3125,178.3984 192.6875,178.1484 L191.4844,177.6953 Z " fill="#000000"/><text fill="#000000" font-family="sans-serif" font-size="12" font-style="italic" lengthAdjust="spacing" textLength="91.5938" x="204" y="173.1387">&#171;Value Object&#187;</text><text fill="#000000" font-family="sans-serif" font-size="14" lengthAdjust="spacing" textLength="64.8799" x="217.3569" y="188.9639">Members</text><line style="stroke:#181818;stroke-width:0.5;" x1="178" x2="295.5938" y1="197.2656" y2="197.2656"/><line style="stroke:#181818;stroke-width:0.5;" x1="178" x2="295.5938" y1="205.2656" y2="205.2656"/></g><!--link BoardManager to Roles--><g class="link" data-entity-1="BoardManager" data-entity-2="Roles" data-source-line="12" data-uid="lnk7" id="link_BoardManager_Roles"><path codeLine="12" d="M140.75,97.02 C128.57,115.06 112.6,138.7 100.38,156.78" fill="none" id="BoardManager-Roles" style="stroke:#181818;stroke-width:1;"/></g><!--link BoardManager to Members--><g class="link" data-entity-1="BoardManager" data-entity-2="Members" data-source-line="13" data-uid="lnk8" id="link_BoardManager_Members"><path codeLine="13" d="M177.48,97.02 C189.83,115.06 206.01,138.7 218.38,156.78" fill="none" id="BoardManager-Members" style="stroke:#181818;stroke-width:1;"/></g><!--link Roles to Role--><g class="link" data-entity-1="Roles" data-entity-2="Role" data-source-line="14" data-uid="lnk9" id="link_Roles_Role"><path codeLine="14" d="M82,213.02 C82,231.06 82,248.7 82,266.78" fill="none" id="Roles-to-Role" style="stroke:#181818;stroke-width:1;"/><polygon fill="#181818" points="82,272.78,86,263.78,82,267.78,78,263.78,82,272.78" style="stroke:#181818;stroke-width:1;"/><text fill="#000000" font-family="sans-serif" font-size="13" lengthAdjust="spacing" textLength="8.271" x="73.1533" y="233.2855">1</text><text fill="#000000" font-family="sans-serif" font-size="13" lengthAdjust="spacing" textLength="9.7246" x="72.1118" y="262.0186">N</text></g><!--SRC=[TOwn3i8m34JtV8NblGDx5GaaneBKWTq9LWIq3NBTeKBzTqB2G0Lukxldi-_aRnGOq4MIC_Gq92NuC9261xte3BjNr9G4wdeRWd0WPMXZL6iBktnkjB7ZHEwpMXEZokGr4sD2JjHD34TtPQy_mOPxn_8VNOnP_LTLfVlBVHUPSXatc4mBUC3CFm40]--></g></svg>