<svg xmlns="http://www.w3.org/2000/svg" xmlns:xlink="http://www.w3.org/1999/xlink" contentStyleType="text/css" data-diagram-type="SEQUENCE" height="717px" preserveAspectRatio="none" style="width:1938px;height:717px;background:#FFFFFF;" version="1.1" viewBox="0 0 1938 717" width="1938px" zoomAndPan="magnify"><title>Add comment</title><defs/><g><text fill="#000000" font-family="sans-serif" font-size="14" font-weight="bold" lengthAdjust="spacing" textLength="108.999" x="911.7563" y="27.9951">Add comment</text><g><title>Comment</title><rect fill="#FFFFFF" height="29.1328" style="stroke:#181818;stroke-width:1;" width="10" x="1086.3911" y="356.4609"/></g><rect fill="none" height="90.2031" style="stroke:#000000;stroke-width:1.5;" width="876.4312" x="10" y="238.125"/><g><title>Client</title><rect fill="#000000" fill-opacity="0.00000" height="518.0625" width="8" x="39.2651" y="118.5938"/><line style="stroke:#181818;stroke-width:0.5;stroke-dasharray:5.0,5.0;" x1="43" x2="43" y1="118.5938" y2="636.6563"/></g><g><title>CommentController</title><rect fill="#000000" fill-opacity="0.00000" height="518.0625" width="8" x="333.2944" y="118.5938"/><line style="stroke:#181818;stroke-width:0.5;stroke-dasharray:5.0,5.0;" x1="336.4121" x2="336.4121" y1="118.5938" y2="636.6563"/></g><g><title>CommentCommandService</title><rect fill="#000000" fill-opacity="0.00000" height="518.0625" width="8" x="597.877" y="118.5938"/><line style="stroke:#181818;stroke-width:0.5;stroke-dasharray:5.0,5.0;" x1="601.7329" x2="601.7329" y1="118.5938" y2="636.6563"/></g><g><title>PostQueryRepository</title><rect fill="#000000" fill-opacity="0.00000" height="518.0625" width="8" x="791.7261" y="118.5938"/><line style="stroke:#181818;stroke-width:0.5;stroke-dasharray:5.0,5.0;" x1="795.021" x2="795.021" y1="118.5938" y2="636.6563"/></g><g><title>CommentRepository</title><rect fill="#000000" fill-opacity="0.00000" height="518.0625" width="8" x="961.2632" y="118.5938"/><line style="stroke:#181818;stroke-width:0.5;stroke-dasharray:5.0,5.0;" x1="964.4312" x2="964.4312" y1="118.5938" y2="636.6563"/></g><g><title>Comment</title><rect fill="#000000" fill-opacity="0.00000" height="518.0625" width="8" x="1087.3911" y="118.5938"/><line style="stroke:#181818;stroke-width:0.5;stroke-dasharray:5.0,5.0;" x1="1091.0952" x2="1091.0952" y1="118.5938" y2="636.6563"/></g><g><title>DomainEventPublisher</title><rect fill="#000000" fill-opacity="0.00000" height="518.0625" width="8" x="1221.1616" y="118.5938"/><line style="stroke:#181818;stroke-width:0.5;stroke-dasharray:5.0,5.0;" x1="1224.687" x2="1224.687" y1="118.5938" y2="636.6563"/></g><g><title>CommentCreatedHandler</title><rect fill="#000000" fill-opacity="0.00000" height="518.0625" width="8" x="1414.3511" y="118.5938"/><line style="stroke:#181818;stroke-width:0.5;stroke-dasharray:5.0,5.0;" x1="1417.6362" x2="1417.6362" y1="118.5938" y2="636.6563"/></g><g><title>PostReadCacheRepository</title><rect fill="#000000" fill-opacity="0.00000" height="518.0625" width="8" x="1646.0337" y="118.5938"/><line style="stroke:#181818;stroke-width:0.5;stroke-dasharray:5.0,5.0;" x1="1649.9297" x2="1649.9297" y1="118.5938" y2="636.6563"/></g><g><title>Cache</title><rect fill="#000000" fill-opacity="0.00000" height="518.0625" width="8" x="1899.7427" y="118.5938"/><line style="stroke:#181818;stroke-width:0.5;stroke-dasharray:5.0,5.0;" x1="1902.9736" x2="1902.9736" y1="118.5938" y2="636.6563"/></g><g class="participant participant-head" data-participant="Client"><text fill="#000000" font-family="sans-serif" font-size="14" lengthAdjust="spacing" textLength="40.5303" x="20" y="115.292">Client</text><ellipse cx="43.2651" cy="50.7969" fill="#E2E2F0" rx="8" ry="8" style="stroke:#181818;stroke-width:0.5;"/><path d="M43.2651,58.7969 L43.2651,85.7969 M30.2651,66.7969 L56.2651,66.7969 M43.2651,85.7969 L30.2651,100.7969 M43.2651,85.7969 L56.2651,100.7969" fill="none" style="stroke:#181818;stroke-width:0.5;"/></g><g class="participant participant-tail" data-participant="Client"><text fill="#000000" font-family="sans-serif" font-size="14" lengthAdjust="spacing" textLength="40.5303" x="20" y="648.6514">Client</text><ellipse cx="43.2651" cy="660.4531" fill="#E2E2F0" rx="8" ry="8" style="stroke:#181818;stroke-width:0.5;"/><path d="M43.2651,668.4531 L43.2651,695.4531 M30.2651,676.4531 L56.2651,676.4531 M43.2651,695.4531 L30.2651,710.4531 M43.2651,695.4531 L56.2651,710.4531" fill="none" style="stroke:#181818;stroke-width:0.5;"/></g><g class="participant participant-head" data-participant="CommentController"><rect fill="#E2E2F0" height="30.2969" rx="2.5" ry="2.5" style="stroke:#181818;stroke-width:0.5;" width="151.7646" x="261.4121" y="87.2969"/><text fill="#000000" font-family="sans-serif" font-size="14" lengthAdjust="spacing" textLength="137.7646" x="268.4121" y="107.292">CommentController</text></g><g class="participant participant-tail" data-participant="CommentController"><rect fill="#E2E2F0" height="30.2969" rx="2.5" ry="2.5" style="stroke:#181818;stroke-width:0.5;" width="151.7646" x="261.4121" y="635.6563"/><text fill="#000000" font-family="sans-serif" font-size="14" lengthAdjust="spacing" textLength="137.7646" x="268.4121" y="655.6514">CommentController</text></g><g class="participant participant-head" data-participant="CommentCommandService"><rect fill="#E2E2F0" height="30.2969" rx="2.5" ry="2.5" style="stroke:#181818;stroke-width:0.5;" width="206.2881" x="498.7329" y="87.2969"/><text fill="#000000" font-family="sans-serif" font-size="14" lengthAdjust="spacing" textLength="192.2881" x="505.7329" y="107.292">CommentCommandService</text></g><g class="participant participant-tail" data-participant="CommentCommandService"><rect fill="#E2E2F0" height="30.2969" rx="2.5" ry="2.5" style="stroke:#181818;stroke-width:0.5;" width="206.2881" x="498.7329" y="635.6563"/><text fill="#000000" font-family="sans-serif" font-size="14" lengthAdjust="spacing" textLength="192.2881" x="505.7329" y="655.6514">CommentCommandService</text></g><g class="participant participant-head" data-participant="PostQueryRepository"><rect fill="#E2E2F0" height="30.2969" rx="2.5" ry="2.5" style="stroke:#181818;stroke-width:0.5;" width="161.4102" x="715.021" y="87.2969"/><text fill="#000000" font-family="sans-serif" font-size="14" lengthAdjust="spacing" textLength="147.4102" x="722.021" y="107.292">PostQueryRepository</text></g><g class="participant participant-tail" data-participant="PostQueryRepository"><rect fill="#E2E2F0" height="30.2969" rx="2.5" ry="2.5" style="stroke:#181818;stroke-width:0.5;" width="161.4102" x="715.021" y="635.6563"/><text fill="#000000" font-family="sans-serif" font-size="14" lengthAdjust="spacing" textLength="147.4102" x="722.021" y="655.6514">PostQueryRepository</text></g><g class="participant participant-head" data-participant="CommentRepository"><rect fill="#E2E2F0" height="30.2969" rx="2.5" ry="2.5" style="stroke:#181818;stroke-width:0.5;" width="157.6641" x="886.4312" y="87.2969"/><text fill="#000000" font-family="sans-serif" font-size="14" lengthAdjust="spacing" textLength="143.6641" x="893.4312" y="107.292">CommentRepository</text></g><g class="participant participant-tail" data-participant="CommentRepository"><rect fill="#E2E2F0" height="30.2969" rx="2.5" ry="2.5" style="stroke:#181818;stroke-width:0.5;" width="157.6641" x="886.4312" y="635.6563"/><text fill="#000000" font-family="sans-serif" font-size="14" lengthAdjust="spacing" textLength="143.6641" x="893.4312" y="655.6514">CommentRepository</text></g><g class="participant participant-head" data-participant="Comment"><text fill="#000000" font-family="sans-serif" font-size="14" lengthAdjust="spacing" textLength="68.5918" x="1054.0952" y="115.292">Comment</text><ellipse cx="1091.3911" cy="86.2969" fill="#E2E2F0" rx="12" ry="12" style="stroke:#181818;stroke-width:0.5;"/><line style="stroke:#181818;stroke-width:0.5;" x1="1079.3911" x2="1103.3911" y1="100.2969" y2="100.2969"/></g><g class="participant participant-tail" data-participant="Comment"><text fill="#000000" font-family="sans-serif" font-size="14" lengthAdjust="spacing" textLength="68.5918" x="1054.0952" y="648.6514">Comment</text><ellipse cx="1091.3911" cy="667.9531" fill="#E2E2F0" rx="12" ry="12" style="stroke:#181818;stroke-width:0.5;"/><line style="stroke:#181818;stroke-width:0.5;" x1="1079.3911" x2="1103.3911" y1="681.9531" y2="681.9531"/></g><g class="participant participant-head" data-participant="DomainEventPublisher"><rect fill="#E2E2F0" height="30.2969" rx="2.5" ry="2.5" style="stroke:#181818;stroke-width:0.5;" width="172.9492" x="1138.687" y="87.2969"/><text fill="#000000" font-family="sans-serif" font-size="14" lengthAdjust="spacing" textLength="158.9492" x="1145.687" y="107.292">DomainEventPublisher</text></g><g class="participant participant-tail" data-participant="DomainEventPublisher"><rect fill="#E2E2F0" height="30.2969" rx="2.5" ry="2.5" style="stroke:#181818;stroke-width:0.5;" width="172.9492" x="1138.687" y="635.6563"/><text fill="#000000" font-family="sans-serif" font-size="14" lengthAdjust="spacing" textLength="158.9492" x="1145.687" y="655.6514">DomainEventPublisher</text></g><g class="participant participant-head" data-participant="CommentCreatedHandler"><rect fill="#E2E2F0" height="30.2969" rx="2.5" ry="2.5" style="stroke:#181818;stroke-width:0.5;" width="193.4297" x="1321.6362" y="87.2969"/><text fill="#000000" font-family="sans-serif" font-size="14" lengthAdjust="spacing" textLength="179.4297" x="1328.6362" y="107.292">CommentCreatedHandler</text></g><g class="participant participant-tail" data-participant="CommentCreatedHandler"><rect fill="#E2E2F0" height="30.2969" rx="2.5" ry="2.5" style="stroke:#181818;stroke-width:0.5;" width="193.4297" x="1321.6362" y="635.6563"/><text fill="#000000" font-family="sans-serif" font-size="14" lengthAdjust="spacing" textLength="179.4297" x="1328.6362" y="655.6514">CommentCreatedHandler</text></g><g class="participant participant-head" data-participant="PostReadCacheRepository"><rect fill="#E2E2F0" height="30.2969" rx="2.5" ry="2.5" style="stroke:#181818;stroke-width:0.5;" width="198.208" x="1550.9297" y="87.2969"/><text fill="#000000" font-family="sans-serif" font-size="14" lengthAdjust="spacing" textLength="184.208" x="1557.9297" y="107.292">PostReadCacheRepository</text></g><g class="participant participant-tail" data-participant="PostReadCacheRepository"><rect fill="#E2E2F0" height="30.2969" rx="2.5" ry="2.5" style="stroke:#181818;stroke-width:0.5;" width="198.208" x="1550.9297" y="635.6563"/><text fill="#000000" font-family="sans-serif" font-size="14" lengthAdjust="spacing" textLength="184.208" x="1557.9297" y="655.6514">PostReadCacheRepository</text></g><g class="participant participant-head" data-participant="Cache"><text fill="#000000" font-family="sans-serif" font-size="14" lengthAdjust="spacing" textLength="43.5381" x="1878.9736" y="115.292">Cache</text><path d="M1885.7427,66.2969 C1885.7427,56.2969 1903.7427,56.2969 1903.7427,56.2969 C1903.7427,56.2969 1921.7427,56.2969 1921.7427,66.2969 L1921.7427,92.2969 C1921.7427,102.2969 1903.7427,102.2969 1903.7427,102.2969 C1903.7427,102.2969 1885.7427,102.2969 1885.7427,92.2969 L1885.7427,66.2969" fill="#E2E2F0" style="stroke:#181818;stroke-width:1.5;"/><path d="M1885.7427,66.2969 C1885.7427,76.2969 1903.7427,76.2969 1903.7427,76.2969 C1903.7427,76.2969 1921.7427,76.2969 1921.7427,66.2969" fill="none" style="stroke:#181818;stroke-width:1.5;"/></g><g class="participant participant-tail" data-participant="Cache"><text fill="#000000" font-family="sans-serif" font-size="14" lengthAdjust="spacing" textLength="43.5381" x="1878.9736" y="648.6514">Cache</text><path d="M1885.7427,661.9531 C1885.7427,651.9531 1903.7427,651.9531 1903.7427,651.9531 C1903.7427,651.9531 1921.7427,651.9531 1921.7427,661.9531 L1921.7427,687.9531 C1921.7427,697.9531 1903.7427,697.9531 1903.7427,697.9531 C1903.7427,697.9531 1885.7427,697.9531 1885.7427,687.9531 L1885.7427,661.9531" fill="#E2E2F0" style="stroke:#181818;stroke-width:1.5;"/><path d="M1885.7427,661.9531 C1885.7427,671.9531 1903.7427,671.9531 1903.7427,671.9531 C1903.7427,671.9531 1921.7427,671.9531 1921.7427,661.9531" fill="none" style="stroke:#181818;stroke-width:1.5;"/></g><g><title>Comment</title><rect fill="#FFFFFF" height="29.1328" style="stroke:#181818;stroke-width:1;" width="10" x="1086.3911" y="356.4609"/></g><g class="message" data-participant-1="Client" data-participant-2="CommentController"><polygon fill="#181818" points="325.2944,160.8594,335.2944,164.8594,325.2944,168.8594,329.2944,164.8594" style="stroke:#181818;stroke-width:1;"/><line style="stroke:#181818;stroke-width:1;" x1="43.2651" x2="331.2944" y1="164.8594" y2="164.8594"/><text fill="#000000" font-family="sans-serif" font-size="13" lengthAdjust="spacing" textLength="34.2646" x="50.2651" y="144.6606">POST</text><text fill="#000000" font-family="sans-serif" font-size="13" lengthAdjust="spacing" textLength="187.5732" x="50.2651" y="159.7935">/comments?postId={postId}</text></g><g class="message" data-participant-1="CommentController" data-participant-2="CommentCommandService"><polygon fill="#181818" points="589.877,189.9922,599.877,193.9922,589.877,197.9922,593.877,193.9922" style="stroke:#181818;stroke-width:1;"/><line style="stroke:#181818;stroke-width:1;" x1="337.2944" x2="595.877" y1="193.9922" y2="193.9922"/><text fill="#000000" font-family="sans-serif" font-size="13" lengthAdjust="spacing" textLength="240.5825" x="344.2944" y="188.9263">createComment(userId, postId, cmd)</text></g><g class="message" data-participant-1="CommentCommandService" data-participant-2="PostQueryRepository"><polygon fill="#181818" points="783.7261,219.125,793.7261,223.125,783.7261,227.125,787.7261,223.125" style="stroke:#181818;stroke-width:1;"/><line style="stroke:#181818;stroke-width:1;" x1="601.877" x2="789.7261" y1="223.125" y2="223.125"/><text fill="#000000" font-family="sans-serif" font-size="13" lengthAdjust="spacing" textLength="110.1763" x="608.877" y="218.0591">existById(postId)</text></g><path d="M10,238.125 L74.4429,238.125 L74.4429,245.2578 L64.4429,255.2578 L10,255.2578 L10,238.125" fill="#EEEEEE" style="stroke:#000000;stroke-width:1.5;"/><rect fill="none" height="90.2031" style="stroke:#000000;stroke-width:1.5;" width="876.4312" x="10" y="238.125"/><text fill="#000000" font-family="sans-serif" font-size="13" font-weight="bold" lengthAdjust="spacing" textLength="19.4429" x="25" y="251.1919">alt</text><text fill="#000000" font-family="sans-serif" font-size="11" font-weight="bold" lengthAdjust="spacing" textLength="71.4409" x="89.4429" y="250.3354">[Post exist]</text><g class="message" data-participant-1="PostQueryRepository" data-participant-2="CommentCommandService"><polygon fill="#181818" points="612.877,272.3906,602.877,276.3906,612.877,280.3906,608.877,276.3906" style="stroke:#181818;stroke-width:1;"/><line style="stroke:#181818;stroke-width:1;stroke-dasharray:2.0,2.0;" x1="606.877" x2="794.7261" y1="276.3906" y2="276.3906"/><text fill="#000000" font-family="sans-serif" font-size="13" lengthAdjust="spacing" textLength="26.6792" x="618.877" y="271.3247">true</text></g><line style="stroke:#000000;stroke-width:1;stroke-dasharray:2.0,2.0;" x1="10" x2="886.4312" y1="285.3906" y2="285.3906"/><text fill="#000000" font-family="sans-serif" font-size="11" font-weight="bold" lengthAdjust="spacing" textLength="95.917" x="15" y="295.6011">[Post not exist]</text><g class="message" data-participant-1="PostQueryRepository" data-participant-2="Client"><polygon fill="#181818" points="54.2651,316.3281,44.2651,320.3281,54.2651,324.3281,50.2651,320.3281" style="stroke:#181818;stroke-width:1;"/><line style="stroke:#181818;stroke-width:1;" x1="48.2651" x2="794.7261" y1="320.3281" y2="320.3281"/><text fill="#000000" font-family="sans-serif" font-size="13" lengthAdjust="spacing" textLength="112.3091" x="60.2651" y="315.2622">POST_NOT_EXIST</text></g><g class="message" data-participant-1="CommentCommandService" data-participant-2="Comment"><polygon fill="#181818" points="1074.3911,352.4609,1084.3911,356.4609,1074.3911,360.4609,1078.3911,356.4609" style="stroke:#181818;stroke-width:1;"/><line style="stroke:#181818;stroke-width:1;" x1="601.877" x2="1080.3911" y1="356.4609" y2="356.4609"/><text fill="#000000" font-family="sans-serif" font-size="13" lengthAdjust="spacing" textLength="235.4346" x="608.877" y="351.395">Comment.write(userId, PostId, cmd)</text></g><g class="message" data-participant-1="Comment" data-participant-2="CommentCommandService"><polygon fill="#181818" points="612.877,381.5938,602.877,385.5938,612.877,389.5938,608.877,385.5938" style="stroke:#181818;stroke-width:1;"/><line style="stroke:#181818;stroke-width:1;stroke-dasharray:2.0,2.0;" x1="606.877" x2="1090.3911" y1="385.5938" y2="385.5938"/><text fill="#000000" font-family="sans-serif" font-size="13" lengthAdjust="spacing" textLength="119.5581" x="618.877" y="380.5278">Comment Created</text></g><g class="message" data-participant-1="CommentCommandService" data-participant-2="CommentRepository"><polygon fill="#181818" points="953.2632,410.7266,963.2632,414.7266,953.2632,418.7266,957.2632,414.7266" style="stroke:#181818;stroke-width:1;"/><line style="stroke:#181818;stroke-width:1;" x1="601.877" x2="959.2632" y1="414.7266" y2="414.7266"/><text fill="#000000" font-family="sans-serif" font-size="13" lengthAdjust="spacing" textLength="104.2666" x="608.877" y="409.6606">save(Comment)</text></g><g class="message" data-participant-1="CommentRepository" data-participant-2="CommentCommandService"><polygon fill="#181818" points="612.877,439.8594,602.877,443.8594,612.877,447.8594,608.877,443.8594" style="stroke:#181818;stroke-width:1;"/><line style="stroke:#181818;stroke-width:1;stroke-dasharray:2.0,2.0;" x1="606.877" x2="964.2632" y1="443.8594" y2="443.8594"/><text fill="#000000" font-family="sans-serif" font-size="13" lengthAdjust="spacing" textLength="130.1714" x="618.877" y="438.7935">CommentDetailDTO</text></g><g class="message" data-participant-1="CommentCommandService" data-participant-2="DomainEventPublisher"><polygon fill="#181818" points="1213.1616,468.9922,1223.1616,472.9922,1213.1616,476.9922,1217.1616,472.9922" style="stroke:#181818;stroke-width:1;"/><line style="stroke:#181818;stroke-width:1;" x1="601.877" x2="1219.1616" y1="472.9922" y2="472.9922"/><text fill="#000000" font-family="sans-serif" font-size="13" lengthAdjust="spacing" textLength="209.79" x="608.877" y="467.9263">publish(CommentCreatedEvent)</text></g><g class="message" data-participant-1="CommentCommandService" data-participant-2="CommentController"><polygon fill="#181818" points="348.2944,498.125,338.2944,502.125,348.2944,506.125,344.2944,502.125" style="stroke:#181818;stroke-width:1;"/><line style="stroke:#181818;stroke-width:1;stroke-dasharray:2.0,2.0;" x1="342.2944" x2="600.877" y1="502.125" y2="502.125"/><text fill="#000000" font-family="sans-serif" font-size="13" lengthAdjust="spacing" textLength="147.9258" x="354.2944" y="497.0591">CommentCreateResult</text></g><g class="message" data-participant-1="CommentController" data-participant-2="Client"><polygon fill="#181818" points="54.2651,527.2578,44.2651,531.2578,54.2651,535.2578,50.2651,531.2578" style="stroke:#181818;stroke-width:1;"/><line style="stroke:#181818;stroke-width:1;stroke-dasharray:2.0,2.0;" x1="48.2651" x2="336.2944" y1="531.2578" y2="531.2578"/><text fill="#000000" font-family="sans-serif" font-size="13" lengthAdjust="spacing" textLength="270.0293" x="60.2651" y="526.1919">201 Created + CommentCreateResponse</text></g><g class="message" data-participant-1="DomainEventPublisher" data-participant-2="CommentCreatedHandler"><polygon fill="#181818" points="1406.3511,556.3906,1416.3511,560.3906,1406.3511,564.3906,1410.3511,560.3906" style="stroke:#181818;stroke-width:1;"/><line style="stroke:#181818;stroke-width:1;" x1="1225.1616" x2="1412.3511" y1="560.3906" y2="560.3906"/><text fill="#000000" font-family="sans-serif" font-size="13" lengthAdjust="spacing" textLength="152.6675" x="1232.1616" y="555.3247">CommentCreatedEvent</text></g><g class="message" data-participant-1="CommentCreatedHandler" data-participant-2="PostReadCacheRepository"><polygon fill="#181818" points="1638.0337,585.5234,1648.0337,589.5234,1638.0337,593.5234,1642.0337,589.5234" style="stroke:#181818;stroke-width:1;"/><line style="stroke:#181818;stroke-width:1;" x1="1418.3511" x2="1644.0337" y1="589.5234" y2="589.5234"/><text fill="#000000" font-family="sans-serif" font-size="13" lengthAdjust="spacing" textLength="207.6826" x="1425.3511" y="584.4575">increaseCommentCount(postId)</text></g><g class="message" data-participant-1="PostReadCacheRepository" data-participant-2="Cache"><polygon fill="#181818" points="1891.7427,614.6563,1901.7427,618.6563,1891.7427,622.6563,1895.7427,618.6563" style="stroke:#181818;stroke-width:1;"/><line style="stroke:#181818;stroke-width:1;" x1="1650.0337" x2="1897.7427" y1="618.6563" y2="618.6563"/><text fill="#000000" font-family="sans-serif" font-size="13" lengthAdjust="spacing" textLength="229.709" x="1657.0337" y="613.5903">INCR post:{postId}:commentCount</text></g><!--SRC=[ZLF1JkCm4BtxAtnijS3kSgm4AqYHDXTQsXuu824JZuGbnuxiIPSAyUzCOgTAY9ibbzYUcUStpszGeGP-8oKlR5c2GSP4WTRnJAjcLmc7gb2LCCYpa95PWyvg3IuTBKjXv1RSNXKmo5XRZmyrkCC6AkiLtN988VIYj5DuuEqNeuEAfIs5CdTxEb_NBrhvrnEa70W4-PU8VQNTaDg0a9aeNg5tjHGeNeG7tWOO2thmy-kn37p1rwljxidyZ1hwFmI3kRnw3_yFDgxf0_KL8x2YPHkZizg3o-KP3r1dl2ZbdB5qBO4cH2P8U5CURm-vd0MOEHCwz1v2B5LsFi4HNGqCDEdJWXWx2NGTxHILUhvVxPxl7lFjZbvOJZGJ0rGMLnV_d48uQhBkQqA-LNiIxkYKhdggZoudEeH96C7ybzv0QI_sC8k1EHjdV8FC4b0elToj9gvEEPyGgh2U3NtVffqspGbF3p0su6kDAH_t7vTV_lhTISb_Z10gQpoDKf9xZyHWMByI2SsmT6xqVsAU2KQPPh0y77keQRgwSJXLrj1gZgW-lyysxHGkkh5U53qezWa0]--></g></svg>