<svg xmlns="http://www.w3.org/2000/svg" xmlns:xlink="http://www.w3.org/1999/xlink" contentStyleType="text/css" data-diagram-type="SEQUENCE" height="474px" preserveAspectRatio="none" style="width:926px;height:474px;background:#FFFFFF;" version="1.1" viewBox="0 0 926 474" width="926px" zoomAndPan="magnify"><defs/><g><g><title>Board</title><rect fill="#FFFFFF" height="29.1328" style="stroke:#181818;stroke-width:1;" width="10" x="709.2192" y="200.9609"/></g><g><title>Client</title><rect fill="#000000" fill-opacity="0.00000" height="312.4609" width="8" x="24.2651" y="81.2969"/><line style="stroke:#181818;stroke-width:0.5;stroke-dasharray:5.0,5.0;" x1="28" x2="28" y1="81.2969" y2="393.7578"/></g><g><title>BoardController</title><rect fill="#000000" fill-opacity="0.00000" height="312.4609" width="8" x="193.0488" y="81.2969"/><line style="stroke:#181818;stroke-width:0.5;stroke-dasharray:5.0,5.0;" x1="196.7666" x2="196.7666" y1="81.2969" y2="393.7578"/></g><g><title>BoardService</title><rect fill="#000000" fill-opacity="0.00000" height="312.4609" width="8" x="410.5381" y="81.2969"/><line style="stroke:#181818;stroke-width:0.5;stroke-dasharray:5.0,5.0;" x1="413.9717" x2="413.9717" y1="81.2969" y2="393.7578"/></g><g><title>BoardCommandRepository</title><rect fill="#000000" fill-opacity="0.00000" height="312.4609" width="8" x="575.314" y="81.2969"/><line style="stroke:#181818;stroke-width:0.5;stroke-dasharray:5.0,5.0;" x1="579.1045" x2="579.1045" y1="81.2969" y2="393.7578"/></g><g><title>Board</title><rect fill="#000000" fill-opacity="0.00000" height="312.4609" width="8" x="710.2192" y="81.2969"/><line style="stroke:#181818;stroke-width:0.5;stroke-dasharray:5.0,5.0;" x1="713.5234" x2="713.5234" y1="81.2969" y2="393.7578"/></g><g><title>DomainEventPublisher</title><rect fill="#000000" fill-opacity="0.00000" height="312.4609" width="8" x="830.3896" y="81.2969"/><line style="stroke:#181818;stroke-width:0.5;stroke-dasharray:5.0,5.0;" x1="833.915" x2="833.915" y1="81.2969" y2="393.7578"/></g><g class="participant participant-head" data-participant="Client"><text fill="#000000" font-family="sans-serif" font-size="14" lengthAdjust="spacing" textLength="40.5303" x="5" y="77.9951">Client</text><ellipse cx="28.2651" cy="13.5" fill="#E2E2F0" rx="8" ry="8" style="stroke:#181818;stroke-width:0.5;"/><path d="M28.2651,21.5 L28.2651,48.5 M15.2651,29.5 L41.2651,29.5 M28.2651,48.5 L15.2651,63.5 M28.2651,48.5 L41.2651,63.5" fill="none" style="stroke:#181818;stroke-width:0.5;"/></g><g class="participant participant-tail" data-participant="Client"><text fill="#000000" font-family="sans-serif" font-size="14" lengthAdjust="spacing" textLength="40.5303" x="5" y="405.7529">Client</text><ellipse cx="28.2651" cy="417.5547" fill="#E2E2F0" rx="8" ry="8" style="stroke:#181818;stroke-width:0.5;"/><path d="M28.2651,425.5547 L28.2651,452.5547 M15.2651,433.5547 L41.2651,433.5547 M28.2651,452.5547 L15.2651,467.5547 M28.2651,452.5547 L41.2651,467.5547" fill="none" style="stroke:#181818;stroke-width:0.5;"/></g><g class="participant participant-head" data-participant="BoardController"><rect fill="#E2E2F0" height="30.2969" rx="2.5" ry="2.5" style="stroke:#181818;stroke-width:0.5;" width="124.5645" x="134.7666" y="50"/><text fill="#000000" font-family="sans-serif" font-size="14" lengthAdjust="spacing" textLength="110.5645" x="141.7666" y="69.9951">BoardController</text></g><g class="participant participant-tail" data-participant="BoardController"><rect fill="#E2E2F0" height="30.2969" rx="2.5" ry="2.5" style="stroke:#181818;stroke-width:0.5;" width="124.5645" x="134.7666" y="392.7578"/><text fill="#000000" font-family="sans-serif" font-size="14" lengthAdjust="spacing" textLength="110.5645" x="141.7666" y="412.7529">BoardController</text></g><g class="participant participant-head" data-participant="BoardService"><rect fill="#E2E2F0" height="30.2969" rx="2.5" ry="2.5" style="stroke:#181818;stroke-width:0.5;" width="107.1328" x="360.9717" y="50"/><text fill="#000000" font-family="sans-serif" font-size="14" lengthAdjust="spacing" textLength="93.1328" x="367.9717" y="69.9951">BoardService</text></g><g class="participant participant-tail" data-participant="BoardService"><rect fill="#E2E2F0" height="30.2969" rx="2.5" ry="2.5" style="stroke:#181818;stroke-width:0.5;" width="107.1328" x="360.9717" y="392.7578"/><text fill="#000000" font-family="sans-serif" font-size="14" lengthAdjust="spacing" textLength="93.1328" x="367.9717" y="412.7529">BoardService</text></g><g class="participant participant-head" data-participant="BoardCommandRepository"><rect fill="#E2E2F0" height="30.2969" rx="2.5" ry="2.5" style="stroke:#181818;stroke-width:0.5;" width="202.4189" x="478.1045" y="50"/><text fill="#000000" font-family="sans-serif" font-size="14" lengthAdjust="spacing" textLength="188.4189" x="485.1045" y="69.9951">BoardCommandRepository</text></g><g class="participant participant-tail" data-participant="BoardCommandRepository"><rect fill="#E2E2F0" height="30.2969" rx="2.5" ry="2.5" style="stroke:#181818;stroke-width:0.5;" width="202.4189" x="478.1045" y="392.7578"/><text fill="#000000" font-family="sans-serif" font-size="14" lengthAdjust="spacing" textLength="188.4189" x="485.1045" y="412.7529">BoardCommandRepository</text></g><g class="participant participant-head" data-participant="Board"><text fill="#000000" font-family="sans-serif" font-size="14" lengthAdjust="spacing" textLength="41.3916" x="690.5234" y="77.9951">Board</text><ellipse cx="714.2192" cy="49" fill="#E2E2F0" rx="12" ry="12" style="stroke:#181818;stroke-width:0.5;"/><line style="stroke:#181818;stroke-width:0.5;" x1="702.2192" x2="726.2192" y1="63" y2="63"/></g><g class="participant participant-tail" data-participant="Board"><text fill="#000000" font-family="sans-serif" font-size="14" lengthAdjust="spacing" textLength="41.3916" x="690.5234" y="405.7529">Board</text><ellipse cx="714.2192" cy="425.0547" fill="#E2E2F0" rx="12" ry="12" style="stroke:#181818;stroke-width:0.5;"/><line style="stroke:#181818;stroke-width:0.5;" x1="702.2192" x2="726.2192" y1="439.0547" y2="439.0547"/></g><g class="participant participant-head" data-participant="DomainEventPublisher"><rect fill="#E2E2F0" height="30.2969" rx="2.5" ry="2.5" style="stroke:#181818;stroke-width:0.5;" width="172.9492" x="747.915" y="50"/><text fill="#000000" font-family="sans-serif" font-size="14" lengthAdjust="spacing" textLength="158.9492" x="754.915" y="69.9951">DomainEventPublisher</text></g><g class="participant participant-tail" data-participant="DomainEventPublisher"><rect fill="#E2E2F0" height="30.2969" rx="2.5" ry="2.5" style="stroke:#181818;stroke-width:0.5;" width="172.9492" x="747.915" y="392.7578"/><text fill="#000000" font-family="sans-serif" font-size="14" lengthAdjust="spacing" textLength="158.9492" x="754.915" y="412.7529">DomainEventPublisher</text></g><g><title>Board</title><rect fill="#FFFFFF" height="29.1328" style="stroke:#181818;stroke-width:1;" width="10" x="709.2192" y="200.9609"/></g><g class="message" data-participant-1="Client" data-participant-2="BoardController"><polygon fill="#181818" points="185.0488,123.5625,195.0488,127.5625,185.0488,131.5625,189.0488,127.5625" style="stroke:#181818;stroke-width:1;"/><line style="stroke:#181818;stroke-width:1;" x1="28.2651" x2="191.0488" y1="127.5625" y2="127.5625"/><text fill="#000000" font-family="sans-serif" font-size="13" lengthAdjust="spacing" textLength="80.5454" x="35.2651" y="107.3638">POST /board</text><text fill="#000000" font-family="sans-serif" font-size="13" lengthAdjust="spacing" textLength="144.7837" x="35.2651" y="122.4966">(boardCreateRequest)</text></g><g class="message" data-participant-1="BoardController" data-participant-2="BoardService"><polygon fill="#181818" points="402.5381,167.8281,412.5381,171.8281,402.5381,175.8281,406.5381,171.8281" style="stroke:#181818;stroke-width:1;"/><line style="stroke:#181818;stroke-width:1;" x1="197.0488" x2="408.5381" y1="171.8281" y2="171.8281"/><text fill="#000000" font-family="sans-serif" font-size="13" lengthAdjust="spacing" textLength="79.9868" x="204.0488" y="151.6294">createBoard</text><text fill="#000000" font-family="sans-serif" font-size="13" lengthAdjust="spacing" textLength="193.4893" x="204.0488" y="166.7622">(boardCreateRequest, userId)</text></g><g class="message" data-participant-1="BoardService" data-participant-2="Board"><polygon fill="#181818" points="697.2192,196.9609,707.2192,200.9609,697.2192,204.9609,701.2192,200.9609" style="stroke:#181818;stroke-width:1;"/><line style="stroke:#181818;stroke-width:1;" x1="414.5381" x2="703.2192" y1="200.9609" y2="200.9609"/><text fill="#000000" font-family="sans-serif" font-size="13" lengthAdjust="spacing" textLength="228.9028" x="421.5381" y="195.895">Board.create(boardCreateRequest)</text></g><g class="message" data-participant-1="Board" data-participant-2="BoardService"><polygon fill="#181818" points="425.5381,226.0938,415.5381,230.0938,425.5381,234.0938,421.5381,230.0938" style="stroke:#181818;stroke-width:1;"/><line style="stroke:#181818;stroke-width:1;stroke-dasharray:2.0,2.0;" x1="419.5381" x2="713.2192" y1="230.0938" y2="230.0938"/><text fill="#000000" font-family="sans-serif" font-size="13" lengthAdjust="spacing" textLength="92.3711" x="431.5381" y="225.0278">Board created</text></g><g class="message" data-participant-1="BoardService" data-participant-2="BoardCommandRepository"><polygon fill="#181818" points="567.314,255.2266,577.314,259.2266,567.314,263.2266,571.314,259.2266" style="stroke:#181818;stroke-width:1;"/><line style="stroke:#181818;stroke-width:1;" x1="414.5381" x2="573.314" y1="259.2266" y2="259.2266"/><text fill="#000000" font-family="sans-serif" font-size="13" lengthAdjust="spacing" textLength="78.3428" x="421.5381" y="254.1606">save(board)</text></g><g class="message" data-participant-1="BoardCommandRepository" data-participant-2="BoardService"><polygon fill="#181818" points="425.5381,284.3594,415.5381,288.3594,425.5381,292.3594,421.5381,288.3594" style="stroke:#181818;stroke-width:1;"/><line style="stroke:#181818;stroke-width:1;stroke-dasharray:2.0,2.0;" x1="419.5381" x2="578.314" y1="288.3594" y2="288.3594"/><text fill="#000000" font-family="sans-serif" font-size="13" lengthAdjust="spacing" textLength="50.521" x="431.5381" y="283.2935">BoardId</text></g><g class="message" data-participant-1="BoardService" data-participant-2="DomainEventPublisher"><polygon fill="#181818" points="822.3896,313.4922,832.3896,317.4922,822.3896,321.4922,826.3896,317.4922" style="stroke:#181818;stroke-width:1;"/><line style="stroke:#181818;stroke-width:1;" x1="414.5381" x2="828.3896" y1="317.4922" y2="317.4922"/><text fill="#000000" font-family="sans-serif" font-size="13" lengthAdjust="spacing" textLength="184.5327" x="421.5381" y="312.4263">publish(BoardCreatedEvent)</text></g><g class="message" data-participant-1="BoardService" data-participant-2="BoardController"><polygon fill="#181818" points="208.0488,342.625,198.0488,346.625,208.0488,350.625,204.0488,346.625" style="stroke:#181818;stroke-width:1;"/><line style="stroke:#181818;stroke-width:1;stroke-dasharray:2.0,2.0;" x1="202.0488" x2="413.5381" y1="346.625" y2="346.625"/><text fill="#000000" font-family="sans-serif" font-size="13" lengthAdjust="spacing" textLength="50.521" x="214.0488" y="341.5591">BoardId</text></g><g class="message" data-participant-1="BoardController" data-participant-2="Client"><polygon fill="#181818" points="39.2651,371.7578,29.2651,375.7578,39.2651,379.7578,35.2651,375.7578" style="stroke:#181818;stroke-width:1;"/><line style="stroke:#181818;stroke-width:1;stroke-dasharray:2.0,2.0;" x1="33.2651" x2="196.0488" y1="375.7578" y2="375.7578"/><text fill="#000000" font-family="sans-serif" font-size="13" lengthAdjust="spacing" textLength="132.1201" x="45.2651" y="370.6919">HTTP 201 + BoardId</text></g><!--SRC=[TP4nRyCW48LtViMDYTeqRSSC7Un6QgPOYSSk14uAaWqkd2tbtvU2KIM39n1txtllE2x8MAWxXPhOm2qfeGQk2Ih3hQoD9ckw3crUkwATbC2IgE-vbXSSZ5EU_c17JOeUiSfOD8FTnz833j2ShotiRt_lyAqtuL9Rv8GN_1dHqPQnfIg1va2U8eAYMgSym-ZGdcIY9Mb2UKOuNoAfd8CBKfD_cUUAmbsU9XOYIJA92rqvGVQ97kJuD4VPifMcDVjJmUVJz5pfu-INqOotJhbxMC4GxvlgVsOPchBFAcumsMLRyjtpvW_mrRODlB- -mLFg_mK0]--></g></svg>