<svg xmlns="http://www.w3.org/2000/svg" xmlns:xlink="http://www.w3.org/1999/xlink" contentStyleType="text/css" data-diagram-type="SEQUENCE" height="752px" preserveAspectRatio="none" style="width:1681px;height:752px;background:#FFFFFF;" version="1.1" viewBox="0 0 1681 752" width="1681px" zoomAndPan="magnify"><defs/><g><rect fill="none" height="235.8672" style="stroke:#000000;stroke-width:1.5;" width="1531.708" x="142.5654" y="389.625"/><g><title>User</title><rect fill="#000000" fill-opacity="0.00000" height="590.3281" width="8" x="19.9551" y="81.2969"/><line style="stroke:#181818;stroke-width:0.5;stroke-dasharray:5.0,5.0;" x1="23" x2="23" y1="81.2969" y2="671.625"/></g><g><title>BoardController</title><rect fill="#000000" fill-opacity="0.00000" height="590.3281" width="8" x="210.8477" y="81.2969"/><line style="stroke:#181818;stroke-width:0.5;stroke-dasharray:5.0,5.0;" x1="214.5654" x2="214.5654" y1="81.2969" y2="671.625"/></g><g><title>BoardService</title><rect fill="#000000" fill-opacity="0.00000" height="590.3281" width="8" x="422.9414" y="81.2969"/><line style="stroke:#181818;stroke-width:0.5;stroke-dasharray:5.0,5.0;" x1="426.375" x2="426.375" y1="81.2969" y2="671.625"/></g><g><title>PermissionPolicyQueryRepository</title><rect fill="#000000" fill-opacity="0.00000" height="590.3281" width="8" x="610.8296" y="81.2969"/><line style="stroke:#181818;stroke-width:0.5;stroke-dasharray:5.0,5.0;" x1="614.5078" x2="614.5078" y1="81.2969" y2="671.625"/></g><g><title>PermissionPolicy</title><rect fill="#000000" fill-opacity="0.00000" height="590.3281" width="8" x="810.6636" y="81.2969"/><line style="stroke:#181818;stroke-width:0.5;stroke-dasharray:5.0,5.0;" x1="814.1514" x2="814.1514" y1="81.2969" y2="671.625"/></g><g><title>ManagerAssignment</title><rect fill="#000000" fill-opacity="0.00000" height="590.3281" width="8" x="1115.522" y="81.2969"/><line style="stroke:#181818;stroke-width:0.5;stroke-dasharray:5.0,5.0;" x1="1118.625" x2="1118.625" y1="81.2969" y2="671.625"/></g><g><title>Role</title><rect fill="#000000" fill-opacity="0.00000" height="590.3281" width="8" x="1346.8745" y="81.2969"/><line style="stroke:#181818;stroke-width:0.5;stroke-dasharray:5.0,5.0;" x1="1350.4766" x2="1350.4766" y1="81.2969" y2="671.625"/></g><g><title>BoardRepository</title><rect fill="#000000" fill-opacity="0.00000" height="590.3281" width="8" x="1444.5044" y="81.2969"/><line style="stroke:#181818;stroke-width:0.5;stroke-dasharray:5.0,5.0;" x1="1448.2725" x2="1448.2725" y1="81.2969" y2="671.625"/></g><g><title>Board</title><rect fill="#000000" fill-opacity="0.00000" height="590.3281" width="8" x="1543.4321" y="81.2969"/><line style="stroke:#181818;stroke-width:0.5;stroke-dasharray:5.0,5.0;" x1="1546.7363" x2="1546.7363" y1="81.2969" y2="671.625"/></g><g><title>Exception</title><rect fill="#000000" fill-opacity="0.00000" height="590.3281" width="8" x="1618.7007" y="81.2969"/><line style="stroke:#181818;stroke-width:0.5;stroke-dasharray:5.0,5.0;" x1="1622.1279" x2="1622.1279" y1="81.2969" y2="671.625"/></g><g class="participant participant-head" data-participant="User"><text fill="#000000" font-family="sans-serif" font-size="14" lengthAdjust="spacing" textLength="31.9102" x="5" y="77.9951">User</text><ellipse cx="23.9551" cy="13.5" fill="#E2E2F0" rx="8" ry="8" style="stroke:#181818;stroke-width:0.5;"/><path d="M23.9551,21.5 L23.9551,48.5 M10.9551,29.5 L36.9551,29.5 M23.9551,48.5 L10.9551,63.5 M23.9551,48.5 L36.9551,63.5" fill="none" style="stroke:#181818;stroke-width:0.5;"/></g><g class="participant participant-tail" data-participant="User"><text fill="#000000" font-family="sans-serif" font-size="14" lengthAdjust="spacing" textLength="31.9102" x="5" y="683.6201">User</text><ellipse cx="23.9551" cy="695.4219" fill="#E2E2F0" rx="8" ry="8" style="stroke:#181818;stroke-width:0.5;"/><path d="M23.9551,703.4219 L23.9551,730.4219 M10.9551,711.4219 L36.9551,711.4219 M23.9551,730.4219 L10.9551,745.4219 M23.9551,730.4219 L36.9551,745.4219" fill="none" style="stroke:#181818;stroke-width:0.5;"/></g><g class="participant participant-head" data-participant="BoardController"><rect fill="#E2E2F0" height="30.2969" rx="2.5" ry="2.5" style="stroke:#181818;stroke-width:0.5;" width="124.5645" x="152.5654" y="50"/><text fill="#000000" font-family="sans-serif" font-size="14" lengthAdjust="spacing" textLength="110.5645" x="159.5654" y="69.9951">BoardController</text></g><g class="participant participant-tail" data-participant="BoardController"><rect fill="#E2E2F0" height="30.2969" rx="2.5" ry="2.5" style="stroke:#181818;stroke-width:0.5;" width="124.5645" x="152.5654" y="670.625"/><text fill="#000000" font-family="sans-serif" font-size="14" lengthAdjust="spacing" textLength="110.5645" x="159.5654" y="690.6201">BoardController</text></g><g class="participant participant-head" data-participant="BoardService"><rect fill="#E2E2F0" height="30.2969" rx="2.5" ry="2.5" style="stroke:#181818;stroke-width:0.5;" width="107.1328" x="373.375" y="50"/><text fill="#000000" font-family="sans-serif" font-size="14" lengthAdjust="spacing" textLength="93.1328" x="380.375" y="69.9951">BoardService</text></g><g class="participant participant-tail" data-participant="BoardService"><rect fill="#E2E2F0" height="30.2969" rx="2.5" ry="2.5" style="stroke:#181818;stroke-width:0.5;" width="107.1328" x="373.375" y="670.625"/><text fill="#000000" font-family="sans-serif" font-size="14" lengthAdjust="spacing" textLength="93.1328" x="380.375" y="690.6201">BoardService</text></g><g class="participant participant-head" data-participant="PermissionPolicyQueryRepository"><rect fill="#E2E2F0" height="30.2969" rx="2.5" ry="2.5" style="stroke:#181818;stroke-width:0.5;" width="248.6436" x="490.5078" y="50"/><text fill="#000000" font-family="sans-serif" font-size="14" lengthAdjust="spacing" textLength="234.6436" x="497.5078" y="69.9951">PermissionPolicyQueryRepository</text></g><g class="participant participant-tail" data-participant="PermissionPolicyQueryRepository"><rect fill="#E2E2F0" height="30.2969" rx="2.5" ry="2.5" style="stroke:#181818;stroke-width:0.5;" width="248.6436" x="490.5078" y="670.625"/><text fill="#000000" font-family="sans-serif" font-size="14" lengthAdjust="spacing" textLength="234.6436" x="497.5078" y="690.6201">PermissionPolicyQueryRepository</text></g><g class="participant participant-head" data-participant="PermissionPolicy"><rect fill="#E2E2F0" height="30.2969" rx="2.5" ry="2.5" style="stroke:#181818;stroke-width:0.5;" width="131.0244" x="749.1514" y="50"/><text fill="#000000" font-family="sans-serif" font-size="14" lengthAdjust="spacing" textLength="117.0244" x="756.1514" y="69.9951">PermissionPolicy</text></g><g class="participant participant-tail" data-participant="PermissionPolicy"><rect fill="#E2E2F0" height="30.2969" rx="2.5" ry="2.5" style="stroke:#181818;stroke-width:0.5;" width="131.0244" x="749.1514" y="670.625"/><text fill="#000000" font-family="sans-serif" font-size="14" lengthAdjust="spacing" textLength="117.0244" x="756.1514" y="690.6201">PermissionPolicy</text></g><g class="participant participant-head" data-participant="ManagerAssignment"><rect fill="#E2E2F0" height="30.2969" rx="2.5" ry="2.5" style="stroke:#181818;stroke-width:0.5;" width="157.7939" x="1040.625" y="50"/><text fill="#000000" font-family="sans-serif" font-size="14" lengthAdjust="spacing" textLength="143.7939" x="1047.625" y="69.9951">ManagerAssignment</text></g><g class="participant participant-tail" data-participant="ManagerAssignment"><rect fill="#E2E2F0" height="30.2969" rx="2.5" ry="2.5" style="stroke:#181818;stroke-width:0.5;" width="157.7939" x="1040.625" y="670.625"/><text fill="#000000" font-family="sans-serif" font-size="14" lengthAdjust="spacing" textLength="143.7939" x="1047.625" y="690.6201">ManagerAssignment</text></g><g class="participant participant-head" data-participant="Role"><rect fill="#E2E2F0" height="30.2969" rx="2.5" ry="2.5" style="stroke:#181818;stroke-width:0.5;" width="44.7959" x="1328.4766" y="50"/><text fill="#000000" font-family="sans-serif" font-size="14" lengthAdjust="spacing" textLength="30.7959" x="1335.4766" y="69.9951">Role</text></g><g class="participant participant-tail" data-participant="Role"><rect fill="#E2E2F0" height="30.2969" rx="2.5" ry="2.5" style="stroke:#181818;stroke-width:0.5;" width="44.7959" x="1328.4766" y="670.625"/><text fill="#000000" font-family="sans-serif" font-size="14" lengthAdjust="spacing" textLength="30.7959" x="1335.4766" y="690.6201">Role</text></g><g class="participant participant-head" data-participant="BoardRepository"><rect fill="#E2E2F0" height="30.2969" rx="2.5" ry="2.5" style="stroke:#181818;stroke-width:0.5;" width="130.4639" x="1383.2725" y="50"/><text fill="#000000" font-family="sans-serif" font-size="14" lengthAdjust="spacing" textLength="116.4639" x="1390.2725" y="69.9951">BoardRepository</text></g><g class="participant participant-tail" data-participant="BoardRepository"><rect fill="#E2E2F0" height="30.2969" rx="2.5" ry="2.5" style="stroke:#181818;stroke-width:0.5;" width="130.4639" x="1383.2725" y="670.625"/><text fill="#000000" font-family="sans-serif" font-size="14" lengthAdjust="spacing" textLength="116.4639" x="1390.2725" y="690.6201">BoardRepository</text></g><g class="participant participant-head" data-participant="Board"><text fill="#000000" font-family="sans-serif" font-size="14" lengthAdjust="spacing" textLength="41.3916" x="1523.7363" y="77.9951">Board</text><ellipse cx="1547.4321" cy="49" fill="#E2E2F0" rx="12" ry="12" style="stroke:#181818;stroke-width:0.5;"/><line style="stroke:#181818;stroke-width:0.5;" x1="1535.4321" x2="1559.4321" y1="63" y2="63"/></g><g class="participant participant-tail" data-participant="Board"><text fill="#000000" font-family="sans-serif" font-size="14" lengthAdjust="spacing" textLength="41.3916" x="1523.7363" y="683.6201">Board</text><ellipse cx="1547.4321" cy="702.9219" fill="#E2E2F0" rx="12" ry="12" style="stroke:#181818;stroke-width:0.5;"/><line style="stroke:#181818;stroke-width:0.5;" x1="1535.4321" x2="1559.4321" y1="716.9219" y2="716.9219"/></g><g class="participant participant-head" data-participant="Exception"><rect fill="#E2E2F0" height="30.2969" rx="2.5" ry="2.5" style="stroke:#181818;stroke-width:0.5;" width="83.1455" x="1581.1279" y="50"/><text fill="#000000" font-family="sans-serif" font-size="14" lengthAdjust="spacing" textLength="69.1455" x="1588.1279" y="69.9951">Exception</text></g><g class="participant participant-tail" data-participant="Exception"><rect fill="#E2E2F0" height="30.2969" rx="2.5" ry="2.5" style="stroke:#181818;stroke-width:0.5;" width="83.1455" x="1581.1279" y="670.625"/><text fill="#000000" font-family="sans-serif" font-size="14" lengthAdjust="spacing" textLength="69.1455" x="1588.1279" y="690.6201">Exception</text></g><g class="message" data-participant-1="User" data-participant-2="BoardController"><polygon fill="#181818" points="202.8477,108.4297,212.8477,112.4297,202.8477,116.4297,206.8477,112.4297" style="stroke:#181818;stroke-width:1;"/><line style="stroke:#181818;stroke-width:1;" x1="23.9551" x2="208.8477" y1="112.4297" y2="112.4297"/><text fill="#000000" font-family="sans-serif" font-size="13" lengthAdjust="spacing" textLength="166.8926" x="30.9551" y="107.3638">DELETE /board/{boardId}</text></g><g class="message" data-participant-1="BoardController" data-participant-2="BoardService"><polygon fill="#181818" points="414.9414,137.5625,424.9414,141.5625,414.9414,145.5625,418.9414,141.5625" style="stroke:#181818;stroke-width:1;"/><line style="stroke:#181818;stroke-width:1;" x1="214.8477" x2="420.9414" y1="141.5625" y2="141.5625"/><text fill="#000000" font-family="sans-serif" font-size="13" lengthAdjust="spacing" textLength="188.0938" x="221.8477" y="136.4966">deleteBoard(boardId, userId)</text></g><g class="message" data-participant-1="BoardService" data-participant-2="PermissionPolicyQueryRepository"><polygon fill="#181818" points="602.8296,166.6953,612.8296,170.6953,602.8296,174.6953,606.8296,170.6953" style="stroke:#181818;stroke-width:1;"/><line style="stroke:#181818;stroke-width:1;" x1="426.9414" x2="608.8296" y1="170.6953" y2="170.6953"/><text fill="#000000" font-family="sans-serif" font-size="13" lengthAdjust="spacing" textLength="151.8105" x="433.9414" y="165.6294">findByBoardId(boardId)</text></g><g class="message" data-participant-1="PermissionPolicyQueryRepository" data-participant-2="BoardService"><polygon fill="#181818" points="437.9414,195.8281,427.9414,199.8281,437.9414,203.8281,433.9414,199.8281" style="stroke:#181818;stroke-width:1;"/><line style="stroke:#181818;stroke-width:1;stroke-dasharray:2.0,2.0;" x1="431.9414" x2="613.8296" y1="199.8281" y2="199.8281"/><text fill="#000000" font-family="sans-serif" font-size="13" lengthAdjust="spacing" textLength="108.6655" x="443.9414" y="194.7622">PermissionPolicy</text></g><g class="message" data-participant-1="BoardService" data-participant-2="PermissionPolicy"><polygon fill="#181818" points="802.6636,224.9609,812.6636,228.9609,802.6636,232.9609,806.6636,228.9609" style="stroke:#181818;stroke-width:1;"/><line style="stroke:#181818;stroke-width:1;" x1="426.9414" x2="808.6636" y1="228.9609" y2="228.9609"/><text fill="#000000" font-family="sans-serif" font-size="13" lengthAdjust="spacing" textLength="298.4224" x="433.9414" y="223.895">PermissionPolicy.can(userId, DELETE_BOARD)</text></g><g class="message" data-participant-1="PermissionPolicy" data-participant-2="ManagerAssignment"><polygon fill="#181818" points="1107.522,254.0938,1117.522,258.0938,1107.522,262.0938,1111.522,258.0938" style="stroke:#181818;stroke-width:1;"/><line style="stroke:#181818;stroke-width:1;" x1="814.6636" x2="1113.522" y1="258.0938" y2="258.0938"/><text fill="#000000" font-family="sans-serif" font-size="13" lengthAdjust="spacing" textLength="280.8584" x="821.6636" y="253.0278">managerAssignments &#50640;&#49436; userId &#51068;&#52824;&#54616;&#45716; &#54637;&#47785; &#52286;&#44592;</text></g><g class="message" data-participant-1="ManagerAssignment" data-participant-2="Role"><polygon fill="#181818" points="1338.8745,283.2266,1348.8745,287.2266,1338.8745,291.2266,1342.8745,287.2266" style="stroke:#181818;stroke-width:1;"/><line style="stroke:#181818;stroke-width:1;" x1="1119.522" x2="1344.8745" y1="287.2266" y2="287.2266"/><text fill="#000000" font-family="sans-serif" font-size="13" lengthAdjust="spacing" textLength="207.3525" x="1126.522" y="282.1606">hasPermission(DELETE_BOARD)</text></g><g class="message" data-participant-1="Role" data-participant-2="ManagerAssignment"><polygon fill="#181818" points="1130.522,312.3594,1120.522,316.3594,1130.522,320.3594,1126.522,316.3594" style="stroke:#181818;stroke-width:1;"/><line style="stroke:#181818;stroke-width:1;stroke-dasharray:2.0,2.0;" x1="1124.522" x2="1349.8745" y1="316.3594" y2="316.3594"/><text fill="#000000" font-family="sans-serif" font-size="13" lengthAdjust="spacing" textLength="70.2495" x="1136.522" y="311.2935">true / false</text></g><g class="message" data-participant-1="ManagerAssignment" data-participant-2="PermissionPolicy"><polygon fill="#181818" points="825.6636,341.4922,815.6636,345.4922,825.6636,349.4922,821.6636,345.4922" style="stroke:#181818;stroke-width:1;"/><line style="stroke:#181818;stroke-width:1;stroke-dasharray:2.0,2.0;" x1="819.6636" x2="1118.522" y1="345.4922" y2="345.4922"/><text fill="#000000" font-family="sans-serif" font-size="13" lengthAdjust="spacing" textLength="70.2495" x="831.6636" y="340.4263">true / false</text></g><g class="message" data-participant-1="PermissionPolicy" data-participant-2="BoardService"><polygon fill="#181818" points="437.9414,370.625,427.9414,374.625,437.9414,378.625,433.9414,374.625" style="stroke:#181818;stroke-width:1;"/><line style="stroke:#181818;stroke-width:1;stroke-dasharray:2.0,2.0;" x1="431.9414" x2="813.6636" y1="374.625" y2="374.625"/><text fill="#000000" font-family="sans-serif" font-size="13" lengthAdjust="spacing" textLength="70.2495" x="443.9414" y="369.5591">true / false</text></g><path d="M142.5654,389.625 L207.0083,389.625 L207.0083,396.7578 L197.0083,406.7578 L142.5654,406.7578 L142.5654,389.625" fill="#EEEEEE" style="stroke:#000000;stroke-width:1.5;"/><rect fill="none" height="235.8672" style="stroke:#000000;stroke-width:1.5;" width="1531.708" x="142.5654" y="389.625"/><text fill="#000000" font-family="sans-serif" font-size="13" font-weight="bold" lengthAdjust="spacing" textLength="19.4429" x="157.5654" y="402.6919">alt</text><text fill="#000000" font-family="sans-serif" font-size="11" font-weight="bold" lengthAdjust="spacing" textLength="40.2886" x="222.0083" y="401.8354">[&#44428;&#54620; &#51080;&#51020;]</text><g class="message" data-participant-1="BoardService" data-participant-2="BoardRepository"><polygon fill="#181818" points="1436.5044,423.8906,1446.5044,427.8906,1436.5044,431.8906,1440.5044,427.8906" style="stroke:#181818;stroke-width:1;"/><line style="stroke:#181818;stroke-width:1;" x1="426.9414" x2="1442.5044" y1="427.8906" y2="427.8906"/><text fill="#000000" font-family="sans-serif" font-size="13" lengthAdjust="spacing" textLength="113.3755" x="433.9414" y="422.8247">findById(boardId)</text></g><g class="message" data-participant-1="BoardRepository" data-participant-2="BoardService"><polygon fill="#181818" points="437.9414,453.0234,427.9414,457.0234,437.9414,461.0234,433.9414,457.0234" style="stroke:#181818;stroke-width:1;"/><line style="stroke:#181818;stroke-width:1;stroke-dasharray:2.0,2.0;" x1="431.9414" x2="1447.5044" y1="457.0234" y2="457.0234"/><text fill="#000000" font-family="sans-serif" font-size="13" lengthAdjust="spacing" textLength="38.4351" x="443.9414" y="451.9575">Board</text></g><g class="message" data-participant-1="BoardService" data-participant-2="Board"><polygon fill="#181818" points="1535.4321,482.1563,1545.4321,486.1563,1535.4321,490.1563,1539.4321,486.1563" style="stroke:#181818;stroke-width:1;"/><line style="stroke:#181818;stroke-width:1;" x1="426.9414" x2="1541.4321" y1="486.1563" y2="486.1563"/><text fill="#000000" font-family="sans-serif" font-size="13" lengthAdjust="spacing" textLength="51.0986" x="433.9414" y="481.0903">delete()</text></g><g class="message" data-participant-1="BoardService" data-participant-2="BoardRepository"><polygon fill="#181818" points="1436.5044,511.2891,1446.5044,515.2891,1436.5044,519.2891,1440.5044,515.2891" style="stroke:#181818;stroke-width:1;"/><line style="stroke:#181818;stroke-width:1;" x1="426.9414" x2="1442.5044" y1="515.2891" y2="515.2891"/><text fill="#000000" font-family="sans-serif" font-size="13" lengthAdjust="spacing" textLength="88.8672" x="433.9414" y="510.2231">delete(board)</text></g><g class="message" data-participant-1="BoardService" data-participant-2="BoardController"><polygon fill="#181818" points="225.8477,540.4219,215.8477,544.4219,225.8477,548.4219,221.8477,544.4219" style="stroke:#181818;stroke-width:1;"/><line style="stroke:#181818;stroke-width:1;stroke-dasharray:2.0,2.0;" x1="219.8477" x2="425.9414" y1="544.4219" y2="544.4219"/><text fill="#000000" font-family="sans-serif" font-size="13" lengthAdjust="spacing" textLength="55.0723" x="231.8477" y="539.356">&#49457;&#44277; &#51025;&#45813; &#48152;&#54872;</text></g><line style="stroke:#000000;stroke-width:1;stroke-dasharray:2.0,2.0;" x1="142.5654" x2="1674.2734" y1="553.4219" y2="553.4219"/><text fill="#000000" font-family="sans-serif" font-size="11" font-weight="bold" lengthAdjust="spacing" textLength="40.2886" x="147.5654" y="563.6323">[&#44428;&#54620; &#50630;&#51020;]</text><g class="message" data-participant-1="BoardService" data-participant-2="Exception"><polygon fill="#181818" points="1610.7007,584.3594,1620.7007,588.3594,1610.7007,592.3594,1614.7007,588.3594" style="stroke:#181818;stroke-width:1;"/><line style="stroke:#181818;stroke-width:1;" x1="426.9414" x2="1616.7007" y1="588.3594" y2="588.3594"/><text fill="#000000" font-family="sans-serif" font-size="13" lengthAdjust="spacing" textLength="196.4473" x="433.9414" y="583.2935">throw AccessDeniedException</text></g><g class="message" data-participant-1="BoardService" data-participant-2="BoardController"><polygon fill="#181818" points="225.8477,613.4922,215.8477,617.4922,225.8477,621.4922,221.8477,617.4922" style="stroke:#181818;stroke-width:1;"/><line style="stroke:#181818;stroke-width:1;stroke-dasharray:2.0,2.0;" x1="219.8477" x2="425.9414" y1="617.4922" y2="617.4922"/><text fill="#000000" font-family="sans-serif" font-size="13" lengthAdjust="spacing" textLength="94.3262" x="231.8477" y="612.4263">403 Forbidden</text></g><g class="message" data-participant-1="BoardController" data-participant-2="User"><polygon fill="#181818" points="34.9551,649.625,24.9551,653.625,34.9551,657.625,30.9551,653.625" style="stroke:#181818;stroke-width:1;"/><line style="stroke:#181818;stroke-width:1;stroke-dasharray:2.0,2.0;" x1="28.9551" x2="213.8477" y1="653.625" y2="653.625"/><text fill="#000000" font-family="sans-serif" font-size="13" lengthAdjust="spacing" textLength="72.9663" x="40.9551" y="648.5591">HTTP &#51025;&#45813; &#48152;&#54872;</text></g><!--SRC=[ZLH1Inj15BxFhtZ714nJg2SFGjAiABGqJUEvZ3jF7TZCX9b9swLuarAgXnOCfg2zjr18AKe5yGSbc__GsSswkZiRuru6vdlVUz_xtfkblf4AjZKgqgVAS9_tgJ3Gb5Invr8O9OEW37k3wXttCGUqKVMurboAjWou7xuUe0exs9UQsoBXWx4vy2KLT0zLm-9xeeV2vD2E3D0LTA-E9mmtuVoQaBWtgAqNMu8rQ7allAu7zPqOgNzCZYrsG8gHj-IqPyja6A31vBAIqbPWO0jjiIeXkM1BNkABpRVB1Mk6pNccsunLienOSvKvlYvLKq9wubDHcRUpahhqjlcgqMcvakACphXiobxnJaDq-ZKwF4jjWkZyEheQpOQZwPSJc0r_Jt_zX6XyC_at9cu-MoIUkisxJ_MTX4fUMn9IMo38g0527NPfeB6iGhapEPRRk-j_Za1eO61oUJmRda7qutDqVap0ViM95FOtsuVxgv3n7Xv_klCBgsIxMwa-KaeQdWWfuvI-hEZmp-JlXPtnj-dH1Kp7ezdt4K5hIUR6wQT5RdWVVEmRQtBivhwIxw7X-wXr2mL7bg6FbRBwz1biIBN36KD1K33YlczBJFuIQx3PxRRpily3]--></g></svg>