<svg xmlns="http://www.w3.org/2000/svg" xmlns:xlink="http://www.w3.org/1999/xlink" contentStyleType="text/css" data-diagram-type="SEQUENCE" height="356px" preserveAspectRatio="none" style="width:1331px;height:356px;background:#FFFFFF;" version="1.1" viewBox="0 0 1331 356" width="1331px" zoomAndPan="magnify"><defs/><g><g><title>User</title><rect fill="#000000" fill-opacity="0.00000" height="194.7969" width="8" x="19.9551" y="81.2969"/><line style="stroke:#181818;stroke-width:0.5;stroke-dasharray:5.0,5.0;" x1="23" x2="23" y1="81.2969" y2="276.0938"/></g><g><title>BoardController</title><rect fill="#000000" fill-opacity="0.00000" height="194.7969" width="8" x="727.9531" y="81.2969"/><line style="stroke:#181818;stroke-width:0.5;stroke-dasharray:5.0,5.0;" x1="731.6709" x2="731.6709" y1="81.2969" y2="276.0938"/></g><g><title>BoardService</title><rect fill="#000000" fill-opacity="0.00000" height="194.7969" width="8" x="979.8467" y="81.2969"/><line style="stroke:#181818;stroke-width:0.5;stroke-dasharray:5.0,5.0;" x1="983.2803" x2="983.2803" y1="81.2969" y2="276.0938"/></g><g><title>BoardQueryRepository</title><rect fill="#000000" fill-opacity="0.00000" height="194.7969" width="8" x="1235.0728" y="81.2969"/><line style="stroke:#181818;stroke-width:0.5;stroke-dasharray:5.0,5.0;" x1="1238.5674" x2="1238.5674" y1="81.2969" y2="276.0938"/></g><g class="participant participant-head" data-participant="User"><text fill="#000000" font-family="sans-serif" font-size="14" lengthAdjust="spacing" textLength="31.9102" x="5" y="77.9951">User</text><ellipse cx="23.9551" cy="13.5" fill="#E2E2F0" rx="8" ry="8" style="stroke:#181818;stroke-width:0.5;"/><path d="M23.9551,21.5 L23.9551,48.5 M10.9551,29.5 L36.9551,29.5 M23.9551,48.5 L10.9551,63.5 M23.9551,48.5 L36.9551,63.5" fill="none" style="stroke:#181818;stroke-width:0.5;"/></g><g class="participant participant-tail" data-participant="User"><text fill="#000000" font-family="sans-serif" font-size="14" lengthAdjust="spacing" textLength="31.9102" x="5" y="288.0889">User</text><ellipse cx="23.9551" cy="299.8906" fill="#E2E2F0" rx="8" ry="8" style="stroke:#181818;stroke-width:0.5;"/><path d="M23.9551,307.8906 L23.9551,334.8906 M10.9551,315.8906 L36.9551,315.8906 M23.9551,334.8906 L10.9551,349.8906 M23.9551,334.8906 L36.9551,349.8906" fill="none" style="stroke:#181818;stroke-width:0.5;"/></g><g class="participant participant-head" data-participant="BoardController"><rect fill="#E2E2F0" height="30.2969" rx="2.5" ry="2.5" style="stroke:#181818;stroke-width:0.5;" width="124.5645" x="669.6709" y="50"/><text fill="#000000" font-family="sans-serif" font-size="14" lengthAdjust="spacing" textLength="110.5645" x="676.6709" y="69.9951">BoardController</text></g><g class="participant participant-tail" data-participant="BoardController"><rect fill="#E2E2F0" height="30.2969" rx="2.5" ry="2.5" style="stroke:#181818;stroke-width:0.5;" width="124.5645" x="669.6709" y="275.0938"/><text fill="#000000" font-family="sans-serif" font-size="14" lengthAdjust="spacing" textLength="110.5645" x="676.6709" y="295.0889">BoardController</text></g><g class="participant participant-head" data-participant="BoardService"><rect fill="#E2E2F0" height="30.2969" rx="2.5" ry="2.5" style="stroke:#181818;stroke-width:0.5;" width="107.1328" x="930.2803" y="50"/><text fill="#000000" font-family="sans-serif" font-size="14" lengthAdjust="spacing" textLength="93.1328" x="937.2803" y="69.9951">BoardService</text></g><g class="participant participant-tail" data-participant="BoardService"><rect fill="#E2E2F0" height="30.2969" rx="2.5" ry="2.5" style="stroke:#181818;stroke-width:0.5;" width="107.1328" x="930.2803" y="275.0938"/><text fill="#000000" font-family="sans-serif" font-size="14" lengthAdjust="spacing" textLength="93.1328" x="937.2803" y="295.0889">BoardService</text></g><g class="participant participant-head" data-participant="BoardQueryRepository"><rect fill="#E2E2F0" height="30.2969" rx="2.5" ry="2.5" style="stroke:#181818;stroke-width:0.5;" width="173.0107" x="1152.5674" y="50"/><text fill="#000000" font-family="sans-serif" font-size="14" lengthAdjust="spacing" textLength="159.0107" x="1159.5674" y="69.9951">BoardQueryRepository</text></g><g class="participant participant-tail" data-participant="BoardQueryRepository"><rect fill="#E2E2F0" height="30.2969" rx="2.5" ry="2.5" style="stroke:#181818;stroke-width:0.5;" width="173.0107" x="1152.5674" y="275.0938"/><text fill="#000000" font-family="sans-serif" font-size="14" lengthAdjust="spacing" textLength="159.0107" x="1159.5674" y="295.0889">BoardQueryRepository</text></g><g class="message" data-participant-1="User" data-participant-2="BoardController"><polygon fill="#181818" points="719.9531,108.4297,729.9531,112.4297,719.9531,116.4297,723.9531,112.4297" style="stroke:#181818;stroke-width:1;"/><line style="stroke:#181818;stroke-width:1;" x1="23.9551" x2="725.9531" y1="112.4297" y2="112.4297"/><text fill="#000000" font-family="sans-serif" font-size="13" lengthAdjust="spacing" textLength="683.998" x="30.9551" y="107.3638">GET /boards?page={page}&amp;size={size}&amp;searchType={type}&amp;keyword={kw}&amp;nickname={nickname}</text></g><g class="message" data-participant-1="BoardController" data-participant-2="BoardService"><polygon fill="#181818" points="971.8467,137.5625,981.8467,141.5625,971.8467,145.5625,975.8467,141.5625" style="stroke:#181818;stroke-width:1;"/><line style="stroke:#181818;stroke-width:1;" x1="731.9531" x2="977.8467" y1="141.5625" y2="141.5625"/><text fill="#000000" font-family="sans-serif" font-size="13" lengthAdjust="spacing" textLength="227.8936" x="738.9531" y="136.4966">getBoards(page, size, searchCond)</text></g><g class="message" data-participant-1="BoardService" data-participant-2="BoardQueryRepository"><polygon fill="#181818" points="1227.0728,166.6953,1237.0728,170.6953,1227.0728,174.6953,1231.0728,170.6953" style="stroke:#181818;stroke-width:1;"/><line style="stroke:#181818;stroke-width:1;" x1="983.8467" x2="1233.0728" y1="170.6953" y2="170.6953"/><text fill="#000000" font-family="sans-serif" font-size="13" lengthAdjust="spacing" textLength="231.2261" x="990.8467" y="165.6294">findBoards(page, size, searchCond)</text></g><g class="message" data-participant-1="BoardQueryRepository" data-participant-2="BoardService"><polygon fill="#181818" points="994.8467,195.8281,984.8467,199.8281,994.8467,203.8281,990.8467,199.8281" style="stroke:#181818;stroke-width:1;"/><line style="stroke:#181818;stroke-width:1;stroke-dasharray:2.0,2.0;" x1="988.8467" x2="1238.0728" y1="199.8281" y2="199.8281"/><text fill="#000000" font-family="sans-serif" font-size="13" lengthAdjust="spacing" textLength="82.9448" x="1000.8467" y="194.7622">List&lt;Board&gt;</text></g><g class="message" data-participant-1="BoardService" data-participant-2="BoardController"><polygon fill="#181818" points="742.9531,224.9609,732.9531,228.9609,742.9531,232.9609,738.9531,228.9609" style="stroke:#181818;stroke-width:1;"/><line style="stroke:#181818;stroke-width:1;stroke-dasharray:2.0,2.0;" x1="736.9531" x2="982.8467" y1="228.9609" y2="228.9609"/><text fill="#000000" font-family="sans-serif" font-size="13" lengthAdjust="spacing" textLength="124.1792" x="748.9531" y="223.895">BoardListResponse</text></g><g class="message" data-participant-1="BoardController" data-participant-2="User"><polygon fill="#181818" points="34.9551,254.0938,24.9551,258.0938,34.9551,262.0938,30.9551,258.0938" style="stroke:#181818;stroke-width:1;"/><line style="stroke:#181818;stroke-width:1;stroke-dasharray:2.0,2.0;" x1="28.9551" x2="730.9531" y1="258.0938" y2="258.0938"/><text fill="#000000" font-family="sans-serif" font-size="13" lengthAdjust="spacing" textLength="177.5122" x="40.9551" y="253.0278">HTTP 200 OK (Board &#47785;&#47197; &#48152;&#54872;)</text></g><!--SRC=[XL31IWCn4BtdA-Qqj61fyLXi1KLQgA3MzGDYTgnXsoGaqRAM_OzwyE1HJ_xNuZzq4jo3kmkzF8OtyzwR6Iwyjl3Wq3B3hPT26guyN6XkiqkjlDNhTLVl7ksh5DXktBsWBPPej9FaN30Ml64mRLh266PNAGmV0-tE3L_XP1UmJ9nyepeWrSYjU4uBGumdB9CSYwsssMINRyj4IP4hlg5cNPMi6LHd_wrCmIlqaN6z47W28OemHf4mwpFsJr4xD6uZfoUfiYDMdSf1UwbhwVnPvARD-CxlHIQ8bkYCLWxRXvCkVdyCypIzXTFH26uMq8jpK7r_LPyVKFtiVz_t_GC0]--></g></svg>