<svg xmlns="http://www.w3.org/2000/svg" xmlns:xlink="http://www.w3.org/1999/xlink" contentStyleType="text/css" data-diagram-type="CLASS" height="1176px" preserveAspectRatio="none" style="width:1192px;height:1176px;background:#FFFFFF;" version="1.1" viewBox="0 0 1192 1176" width="1192px" zoomAndPan="magnify"><defs/><g><!--cluster board context--><g class="cluster" data-entity="board context" data-source-line="2" data-uid="ent0002" id="cluster_board context"><path d="M8.5,6 L120.1807,6 A3.75,3.75 0 0 1 122.6807,8.5 L129.6807,28.2969 L1182.5,28.2969 A2.5,2.5 0 0 1 1185,30.7969 L1185,1166.5 A2.5,2.5 0 0 1 1182.5,1169 L8.5,1169 A2.5,2.5 0 0 1 6,1166.5 L6,8.5 A2.5,2.5 0 0 1 8.5,6" fill="none" style="stroke:#000000;stroke-width:1.5;"/><line style="stroke:#000000;stroke-width:1.5;" x1="6" x2="129.6807" y1="28.2969" y2="28.2969"/><text fill="#000000" font-family="sans-serif" font-size="14" font-weight="bold" lengthAdjust="spacing" textLength="110.6807" x="10" y="20.9951">board context</text></g><!--cluster board--><g class="cluster" data-entity="board" data-source-line="1" data-uid="ent0003" id="cluster_board"><path d="M993.5,1021.5 L1040.5127,1021.5 A3.75,3.75 0 0 1 1043.0127,1024 L1050.0127,1043.7969 L1158.5,1043.7969 A2.5,2.5 0 0 1 1161,1046.2969 L1161,1126 A2.5,2.5 0 0 1 1158.5,1128.5 L993.5,1128.5 A2.5,2.5 0 0 1 991,1126 L991,1024 A2.5,2.5 0 0 1 993.5,1021.5" fill="none" style="stroke:#000000;stroke-width:1.5;"/><line style="stroke:#000000;stroke-width:1.5;" x1="991" x2="1050.0127" y1="1043.7969" y2="1043.7969"/><text fill="#000000" font-family="sans-serif" font-size="14" font-weight="bold" lengthAdjust="spacing" textLength="46.0127" x="995" y="1036.4951">board</text></g><!--cluster post--><g class="cluster" data-entity="post" data-source-line="2" data-uid="ent0005" id="cluster_post"><path d="M423.5,363 L459.165,363 A3.75,3.75 0 0 1 461.665,365.5 L468.665,385.2969 L964.5,385.2969 A2.5,2.5 0 0 1 967,387.7969 L967,1142.5 A2.5,2.5 0 0 1 964.5,1145 L423.5,1145 A2.5,2.5 0 0 1 421,1142.5 L421,365.5 A2.5,2.5 0 0 1 423.5,363" fill="none" style="stroke:#000000;stroke-width:1.5;"/><line style="stroke:#000000;stroke-width:1.5;" x1="421" x2="468.665" y1="385.2969" y2="385.2969"/><text fill="#000000" font-family="sans-serif" font-size="14" font-weight="bold" lengthAdjust="spacing" textLength="34.665" x="425" y="377.9951">post</text></g><!--cluster comment--><g class="cluster" data-entity="comment" data-source-line="1" data-uid="ent0021" id="cluster_comment"><path d="M32.5,49 L106.7471,49 A3.75,3.75 0 0 1 109.2471,51.5 L116.2471,71.2969 L394.5,71.2969 A2.5,2.5 0 0 1 397,73.7969 L397,492.5 A2.5,2.5 0 0 1 394.5,495 L32.5,495 A2.5,2.5 0 0 1 30,492.5 L30,51.5 A2.5,2.5 0 0 1 32.5,49" fill="none" style="stroke:#000000;stroke-width:1.5;"/><line style="stroke:#000000;stroke-width:1.5;" x1="30" x2="116.2471" y1="71.2969" y2="71.2969"/><text fill="#000000" font-family="sans-serif" font-size="14" font-weight="bold" lengthAdjust="spacing" textLength="73.2471" x="34" y="63.9951">comment</text></g><!--class Board--><g class="entity" data-entity="Board" data-source-line="2" data-uid="ent0004" id="entity_Board"><rect fill="#F1F1F1" height="56.2656" rx="2.5" ry="2.5" style="stroke:#181818;stroke-width:0.5;" width="137.1719" x="1007.5" y="1056.5"/><ellipse cx="1022.5" cy="1076.6328" fill="#ADD1B2" rx="11" ry="11" style="stroke:#181818;stroke-width:1;"/><path d="M1026.6094,1082.6328 L1018.8906,1082.6328 L1018.8906,1070.2422 L1026.6094,1070.2422 L1026.6094,1072.3984 L1021.3438,1072.3984 L1021.3438,1075.0703 L1026.1094,1075.0703 L1026.1094,1077.2266 L1021.3438,1077.2266 L1021.3438,1080.4766 L1026.6094,1080.4766 L1026.6094,1082.6328 Z " fill="#000000"/><text fill="#000000" font-family="sans-serif" font-size="12" font-style="italic" lengthAdjust="spacing" textLength="109.1719" x="1034.5" y="1072.6387">&#171;Aggregate Root&#187;</text><text fill="#000000" font-family="sans-serif" font-size="14" lengthAdjust="spacing" textLength="41.3916" x="1068.3901" y="1088.4639">Board</text><line style="stroke:#181818;stroke-width:0.5;" x1="1008.5" x2="1143.6719" y1="1096.7656" y2="1096.7656"/><line style="stroke:#181818;stroke-width:0.5;" x1="1008.5" x2="1143.6719" y1="1104.7656" y2="1104.7656"/></g><!--class Post--><g class="entity" data-entity="Post" data-source-line="3" data-uid="ent0006" id="entity_Post"><rect fill="#F1F1F1" height="284.4219" rx="2.5" ry="2.5" style="stroke:#181818;stroke-width:0.5;" width="336.3721" x="491" y="547"/><ellipse cx="602.3501" cy="567.1328" fill="#A9DCDF" rx="11" ry="11" style="stroke:#181818;stroke-width:1;"/><path d="M602.4595,562.4766 L601.3032,567.5547 L603.6313,567.5547 L602.4595,562.4766 Z M600.9751,560.2422 L603.9595,560.2422 L607.3188,572.6328 L604.8657,572.6328 L604.1001,569.5703 L600.8188,569.5703 L600.0688,572.6328 L597.6313,572.6328 L600.9751,560.2422 Z " fill="#000000"/><text fill="#000000" font-family="sans-serif" font-size="12" font-style="italic" lengthAdjust="spacing" textLength="109.1719" x="620.8501" y="563.1387">&#171;Aggregate Root&#187;</text><text fill="#000000" font-family="sans-serif" font-size="14" font-style="italic" lengthAdjust="spacing" textLength="29.791" x="660.5405" y="578.9639">Post</text><line style="stroke:#181818;stroke-width:0.5;" x1="492" x2="826.3721" y1="587.2656" y2="587.2656"/><ellipse cx="502" cy="600.9141" fill="none" rx="3" ry="3" style="stroke:#038048;stroke-width:1;"/><text fill="#000000" font-family="sans-serif" font-size="14" lengthAdjust="spacing" textLength="43.292" x="511" y="604.2607">Long :</text><text fill="#000000" font-family="sans-serif" font-size="14" lengthAdjust="spacing" textLength="43.251" x="622.2549" y="604.2607">postId</text><ellipse cx="502" cy="617.2109" fill="none" rx="3" ry="3" style="stroke:#038048;stroke-width:1;"/><text fill="#000000" font-family="sans-serif" font-size="14" lengthAdjust="spacing" textLength="50.5586" x="511" y="620.5576">Board :</text><text fill="#000000" font-family="sans-serif" font-size="14" lengthAdjust="spacing" textLength="40.6738" x="622.2549" y="620.5576">board</text><text fill="#000000" font-family="sans-serif" font-size="14" lengthAdjust="spacing" textLength="62.918" x="689.0078" y="620.5576">//&#50808;&#48512; BC &#53412;</text><ellipse cx="502" cy="633.5078" fill="none" rx="3" ry="3" style="stroke:#038048;stroke-width:1;"/><text fill="#000000" font-family="sans-serif" font-size="14" lengthAdjust="spacing" textLength="39.6006" x="511" y="636.8545">Title :</text><text fill="#000000" font-family="sans-serif" font-size="14" lengthAdjust="spacing" textLength="27.3711" x="622.2549" y="636.8545">title</text><ellipse cx="502" cy="649.8047" fill="none" rx="3" ry="3" style="stroke:#038048;stroke-width:1;"/><text fill="#000000" font-family="sans-serif" font-size="14" lengthAdjust="spacing" textLength="64.8457" x="511" y="653.1514">Content :</text><text fill="#000000" font-family="sans-serif" font-size="14" lengthAdjust="spacing" textLength="53.6006" x="622.2549" y="653.1514">content</text><ellipse cx="502" cy="666.1016" fill="none" rx="3" ry="3" style="stroke:#038048;stroke-width:1;"/><text fill="#000000" font-family="sans-serif" font-size="14" lengthAdjust="spacing" textLength="43.292" x="511" y="669.4482">Long :</text><text fill="#000000" font-family="sans-serif" font-size="14" lengthAdjust="spacing" textLength="56.376" x="622.2549" y="669.4482">viewCnt</text><ellipse cx="502" cy="682.3984" fill="none" rx="3" ry="3" style="stroke:#038048;stroke-width:1;"/><text fill="#000000" font-family="sans-serif" font-size="14" lengthAdjust="spacing" textLength="77.3213" x="511" y="685.7451">DateTime :</text><text fill="#000000" font-family="sans-serif" font-size="14" lengthAdjust="spacing" textLength="68.7012" x="622.2549" y="685.7451">createdAt</text><ellipse cx="502" cy="698.6953" fill="none" rx="3" ry="3" style="stroke:#038048;stroke-width:1;"/><text fill="#000000" font-family="sans-serif" font-size="14" lengthAdjust="spacing" textLength="77.3213" x="511" y="702.042">DateTime :</text><text fill="#000000" font-family="sans-serif" font-size="14" lengthAdjust="spacing" textLength="73.2813" x="622.2549" y="702.042">updatedAt</text><ellipse cx="502" cy="714.9922" fill="none" rx="3" ry="3" style="stroke:#038048;stroke-width:1;"/><text fill="#000000" font-family="sans-serif" font-size="14" lengthAdjust="spacing" textLength="65.8574" x="511" y="718.3389">Boolean :</text><text fill="#000000" font-family="sans-serif" font-size="14" lengthAdjust="spacing" textLength="66.0693" x="622.2549" y="718.3389">isDeleted</text><line style="stroke:#181818;stroke-width:1;" x1="492" x2="826.3721" y1="725.6406" y2="725.6406"/><ellipse cx="502" cy="739.2891" fill="#84BE84" rx="3" ry="3" style="stroke:#038048;stroke-width:1;"/><text fill="#000000" font-family="sans-serif" font-size="14" lengthAdjust="spacing" textLength="46.1221" x="511" y="742.6357">write()</text><ellipse cx="502" cy="755.5859" fill="#84BE84" rx="3" ry="3" style="stroke:#038048;stroke-width:1;"/><text fill="#000000" font-family="sans-serif" font-size="14" lengthAdjust="spacing" textLength="37.8027" x="511" y="758.9326">edit()</text><ellipse cx="502" cy="771.8828" fill="#84BE84" rx="3" ry="3" style="stroke:#038048;stroke-width:1;"/><text fill="#000000" font-family="sans-serif" font-size="14" lengthAdjust="spacing" textLength="83.2002" x="511" y="775.2295">softDelete()</text><ellipse cx="502" cy="788.1797" fill="#84BE84" rx="3" ry="3" style="stroke:#038048;stroke-width:1;"/><text fill="#000000" font-family="sans-serif" font-size="14" lengthAdjust="spacing" textLength="103.7695" x="511" y="791.5264">increaseView()</text><ellipse cx="502" cy="804.4766" fill="#84BE84" rx="3" ry="3" style="stroke:#038048;stroke-width:1;"/><text fill="#000000" font-family="sans-serif" font-size="14" lengthAdjust="spacing" textLength="154.2666" x="511" y="807.8232">toggleLike(MemberId)</text><ellipse cx="502" cy="820.7734" fill="#84BE84" rx="3" ry="3" style="stroke:#038048;stroke-width:1;"/><text fill="#000000" font-family="sans-serif" font-size="14" lengthAdjust="spacing" textLength="310.3721" x="511" y="824.1201">updateTitle(String) : title.updateTitle(String)</text></g><!--class GuestPost--><g class="entity" data-entity="GuestPost" data-source-line="20" data-uid="ent0007" id="entity_GuestPost"><rect fill="#F1F1F1" height="88.8594" rx="2.5" ry="2.5" style="stroke:#181818;stroke-width:0.5;" width="149.6689" x="673" y="398"/><ellipse cx="709.0419" cy="418.1328" fill="#ADD1B2" rx="11" ry="11" style="stroke:#181818;stroke-width:1;"/><path d="M712.0106,423.7734 Q711.4325,424.0703 710.7919,424.2109 Q710.1513,424.3672 709.4481,424.3672 Q706.9481,424.3672 705.62,422.7266 Q704.3075,421.0703 704.3075,417.9453 Q704.3075,414.8203 705.62,413.1641 Q706.9481,411.5078 709.4481,411.5078 Q710.1513,411.5078 710.7919,411.6641 Q711.4481,411.8203 712.0106,412.1172 L712.0106,414.8359 Q711.3856,414.2578 710.7919,413.9922 Q710.1981,413.7109 709.5731,413.7109 Q708.2294,413.7109 707.5419,414.7891 Q706.8544,415.8516 706.8544,417.9453 Q706.8544,420.0391 707.5419,421.1172 Q708.2294,422.1797 709.5731,422.1797 Q710.1981,422.1797 710.7919,421.9141 Q711.3856,421.6328 712.0106,421.0547 L712.0106,423.7734 Z " fill="#000000"/><text fill="#000000" font-family="sans-serif" font-size="12" font-style="italic" lengthAdjust="spacing" textLength="72.5625" x="726.8912" y="414.1387">&#171;ImplClass&#187;</text><text fill="#000000" font-family="sans-serif" font-size="14" lengthAdjust="spacing" textLength="70.9092" x="727.7179" y="429.9639">GuestPost</text><line style="stroke:#181818;stroke-width:0.5;" x1="674" x2="821.6689" y1="438.2656" y2="438.2656"/><ellipse cx="684" cy="451.9141" fill="none" rx="3" ry="3" style="stroke:#038048;stroke-width:1;"/><text fill="#000000" font-family="sans-serif" font-size="14" lengthAdjust="spacing" textLength="123.6689" x="693" y="455.2607">String : nickname</text><ellipse cx="684" cy="468.2109" fill="none" rx="3" ry="3" style="stroke:#038048;stroke-width:1;"/><text fill="#000000" font-family="sans-serif" font-size="14" lengthAdjust="spacing" textLength="122.1104" x="693" y="471.5576">String : password</text><line style="stroke:#181818;stroke-width:0.5;" x1="674" x2="821.6689" y1="478.8594" y2="478.8594"/></g><!--class MemberPost--><g class="entity" data-entity="MemberPost" data-source-line="24" data-uid="ent0008" id="entity_MemberPost"><rect fill="#F1F1F1" height="72.5625" rx="2.5" ry="2.5" style="stroke:#181818;stroke-width:0.5;" width="156.3477" x="482" y="406"/><ellipse cx="513.6368" cy="426.1328" fill="#ADD1B2" rx="11" ry="11" style="stroke:#181818;stroke-width:1;"/><path d="M516.6056,431.7734 Q516.0274,432.0703 515.3868,432.2109 Q514.7462,432.3672 514.0431,432.3672 Q511.5431,432.3672 510.2149,430.7266 Q508.9024,429.0703 508.9024,425.9453 Q508.9024,422.8203 510.2149,421.1641 Q511.5431,419.5078 514.0431,419.5078 Q514.7462,419.5078 515.3868,419.6641 Q516.0431,419.8203 516.6056,420.1172 L516.6056,422.8359 Q515.9806,422.2578 515.3868,421.9922 Q514.7931,421.7109 514.1681,421.7109 Q512.8243,421.7109 512.1368,422.7891 Q511.4493,423.8516 511.4493,425.9453 Q511.4493,428.0391 512.1368,429.1172 Q512.8243,430.1797 514.1681,430.1797 Q514.7931,430.1797 515.3868,429.9141 Q515.9806,429.6328 516.6056,429.0547 L516.6056,431.7734 Z " fill="#000000"/><text fill="#000000" font-family="sans-serif" font-size="12" font-style="italic" lengthAdjust="spacing" textLength="72.5625" x="538.7411" y="422.1387">&#171;ImplClass&#187;</text><text fill="#000000" font-family="sans-serif" font-size="14" lengthAdjust="spacing" textLength="87.377" x="531.3339" y="437.9639">MemberPost</text><line style="stroke:#181818;stroke-width:0.5;" x1="483" x2="637.3477" y1="446.2656" y2="446.2656"/><ellipse cx="493" cy="459.9141" fill="none" rx="3" ry="3" style="stroke:#038048;stroke-width:1;"/><text fill="#000000" font-family="sans-serif" font-size="14" lengthAdjust="spacing" textLength="130.3477" x="502" y="463.2607">Member : member</text><line style="stroke:#181818;stroke-width:0.5;" x1="483" x2="637.3477" y1="470.5625" y2="470.5625"/></g><!--class Board--><g class="entity" data-entity="Board" data-source-line="29" data-uid="ent0009" id="entity_Board"><rect fill="#F1F1F1" height="72.5625" rx="2.5" ry="2.5" style="stroke:#181818;stroke-width:0.5;" width="115.7793" x="835" y="899"/><ellipse cx="850" cy="919.1328" fill="#F1F1F1" rx="11" ry="11" style="stroke:#181818;stroke-width:1;"/><path d="M849.4844,919.6953 Q847.625,918.9922 846.9688,918.2266 Q846.3281,917.4453 846.3281,916.1328 Q846.3281,914.4453 847.4063,913.4766 Q848.4844,912.5078 850.3594,912.5078 Q851.2188,912.5078 852.0625,912.7109 Q852.9219,912.8984 853.7656,913.2891 L853.7656,915.6797 Q852.9844,915.1172 852.1563,914.8359 Q851.3438,914.5391 850.5469,914.5391 Q849.6719,914.5391 849.1875,914.8984 Q848.7188,915.2578 848.7188,915.9141 Q848.7188,916.4297 849.0625,916.7734 Q849.4063,917.1016 850.5,917.5078 L851.5625,917.9141 Q853.0469,918.4609 853.75,919.3672 Q854.4688,920.2734 854.4688,921.6484 Q854.4688,923.5234 853.3594,924.4453 Q852.25,925.3672 850,925.3672 Q849.0781,925.3672 848.1563,925.1484 Q847.2344,924.9297 846.375,924.5078 L846.375,921.9766 Q847.3438,922.6641 848.2656,923.0078 Q849.1875,923.3516 850.0781,923.3516 Q850.9844,923.3516 851.4844,922.9453 Q851.9844,922.5234 851.9844,921.7891 Q851.9844,921.2266 851.6406,920.8203 Q851.3125,920.3984 850.6875,920.1484 L849.4844,919.6953 Z " fill="#000000"/><text fill="#000000" font-family="sans-serif" font-size="12" font-style="italic" lengthAdjust="spacing" textLength="87.7793" x="862" y="915.1387">&#171;ValueObject&#187;</text><text fill="#000000" font-family="sans-serif" font-size="14" lengthAdjust="spacing" textLength="41.3916" x="885.1938" y="930.9639">Board</text><line style="stroke:#181818;stroke-width:0.5;" x1="836" x2="949.7793" y1="939.2656" y2="939.2656"/><text fill="#000000" font-family="sans-serif" font-size="14" lengthAdjust="spacing" textLength="101.4316" x="841" y="956.2607">Long : boardId</text><line style="stroke:#181818;stroke-width:0.5;" x1="836" x2="949.7793" y1="963.5625" y2="963.5625"/></g><!--class HashTag--><g class="entity" data-entity="HashTag" data-source-line="36" data-uid="ent0011" id="entity_HashTag"><rect fill="#F1F1F1" height="72.5625" rx="2.5" ry="2.5" style="stroke:#181818;stroke-width:0.5;" width="95.1865" x="466.5" y="1048"/><ellipse cx="482.353" cy="1068.1328" fill="#ADD1B2" rx="11" ry="11" style="stroke:#181818;stroke-width:1;"/><path d="M486.4624,1074.1328 L478.7436,1074.1328 L478.7436,1061.7422 L486.4624,1061.7422 L486.4624,1063.8984 L481.1967,1063.8984 L481.1967,1066.5703 L485.9624,1066.5703 L485.9624,1068.7266 L481.1967,1068.7266 L481.1967,1071.9766 L486.4624,1071.9766 L486.4624,1074.1328 Z " fill="#000000"/><text fill="#000000" font-family="sans-serif" font-size="12" font-style="italic" lengthAdjust="spacing" textLength="49.8457" x="502.2652" y="1064.1387">&#171;Entity&#187;</text><text fill="#000000" font-family="sans-serif" font-size="14" lengthAdjust="spacing" textLength="61.291" x="496.5425" y="1079.9639">HashTag</text><line style="stroke:#181818;stroke-width:0.5;" x1="467.5" x2="560.6865" y1="1088.2656" y2="1088.2656"/><ellipse cx="477.5" cy="1101.9141" fill="none" rx="3" ry="3" style="stroke:#038048;stroke-width:1;"/><text fill="#000000" font-family="sans-serif" font-size="14" lengthAdjust="spacing" textLength="69.1865" x="486.5" y="1105.2607">String tag</text><line style="stroke:#181818;stroke-width:0.5;" x1="467.5" x2="560.6865" y1="1112.5625" y2="1112.5625"/></g><!--class Tags--><g class="entity" data-entity="Tags" data-source-line="39" data-uid="ent0012" id="entity_Tags"><rect fill="#F1F1F1" height="88.8594" rx="2.5" ry="2.5" style="stroke:#181818;stroke-width:0.5;" width="153.0049" x="437.5" y="891"/><ellipse cx="467.535" cy="911.1328" fill="#F1F1F1" rx="11" ry="11" style="stroke:#181818;stroke-width:1;"/><path d="M467.0194,911.6953 Q465.16,910.9922 464.5038,910.2266 Q463.8631,909.4453 463.8631,908.1328 Q463.8631,906.4453 464.9413,905.4766 Q466.0194,904.5078 467.8944,904.5078 Q468.7538,904.5078 469.5975,904.7109 Q470.4569,904.8984 471.3006,905.2891 L471.3006,907.6797 Q470.5194,907.1172 469.6913,906.8359 Q468.8788,906.5391 468.0819,906.5391 Q467.2069,906.5391 466.7225,906.8984 Q466.2538,907.2578 466.2538,907.9141 Q466.2538,908.4297 466.5975,908.7734 Q466.9413,909.1016 468.035,909.5078 L469.0975,909.9141 Q470.5819,910.4609 471.285,911.3672 Q472.0038,912.2734 472.0038,913.6484 Q472.0038,915.5234 470.8944,916.4453 Q469.785,917.3672 467.535,917.3672 Q466.6131,917.3672 465.6913,917.1484 Q464.7694,916.9297 463.91,916.5078 L463.91,913.9766 Q464.8788,914.6641 465.8006,915.0078 Q466.7225,915.3516 467.6131,915.3516 Q468.5194,915.3516 469.0194,914.9453 Q469.5194,914.5234 469.5194,913.7891 Q469.5194,913.2266 469.1756,912.8203 Q468.8475,912.3984 468.2225,912.1484 L467.0194,911.6953 Z " fill="#000000"/><text fill="#000000" font-family="sans-serif" font-size="12" font-style="italic" lengthAdjust="spacing" textLength="91.5938" x="482.8761" y="907.1387">&#171;Value Object&#187;</text><text fill="#000000" font-family="sans-serif" font-size="14" lengthAdjust="spacing" textLength="33.3115" x="512.0172" y="922.9639">Tags</text><line style="stroke:#181818;stroke-width:0.5;" x1="438.5" x2="589.5049" y1="931.2656" y2="931.2656"/><ellipse cx="448.5" cy="944.9141" fill="none" rx="3" ry="3" style="stroke:#038048;stroke-width:1;"/><text fill="#000000" font-family="sans-serif" font-size="14" lengthAdjust="spacing" textLength="116.0811" x="457.5" y="948.2607">HashTag[] : tags</text><line style="stroke:#181818;stroke-width:1;" x1="438.5" x2="589.5049" y1="955.5625" y2="955.5625"/><ellipse cx="448.5" cy="969.2109" fill="#84BE84" rx="3" ry="3" style="stroke:#038048;stroke-width:1;"/><text fill="#000000" font-family="sans-serif" font-size="14" lengthAdjust="spacing" textLength="127.0049" x="457.5" y="972.5576">checkTags(String)</text></g><!--class PostLike--><g class="entity" data-entity="PostLike" data-source-line="49" data-uid="ent0015" id="entity_PostLike"><rect fill="#F1F1F1" height="88.8594" rx="2.5" ry="2.5" style="stroke:#181818;stroke-width:0.5;" width="160.7979" x="632.5" y="1040"/><ellipse cx="679.5483" cy="1060.1328" fill="#ADD1B2" rx="11" ry="11" style="stroke:#181818;stroke-width:1;"/><path d="M683.6577,1066.1328 L675.939,1066.1328 L675.939,1053.7422 L683.6577,1053.7422 L683.6577,1055.8984 L678.3921,1055.8984 L678.3921,1058.5703 L683.1577,1058.5703 L683.1577,1060.7266 L678.3921,1060.7266 L678.3921,1063.9766 L683.6577,1063.9766 L683.6577,1066.1328 Z " fill="#000000"/><text fill="#000000" font-family="sans-serif" font-size="12" font-style="italic" lengthAdjust="spacing" textLength="49.8457" x="704.2261" y="1056.1387">&#171;Entity&#187;</text><text fill="#000000" font-family="sans-serif" font-size="14" lengthAdjust="spacing" textLength="58.2012" x="700.0483" y="1071.9639">PostLike</text><line style="stroke:#181818;stroke-width:0.5;" x1="633.5" x2="792.2979" y1="1080.2656" y2="1080.2656"/><ellipse cx="643.5" cy="1093.9141" fill="none" rx="3" ry="3" style="stroke:#038048;stroke-width:1;"/><text fill="#000000" font-family="sans-serif" font-size="14" lengthAdjust="spacing" textLength="31.5205" x="652.5" y="1097.2607">Vid :</text><text fill="#000000" font-family="sans-serif" font-size="14" lengthAdjust="spacing" textLength="21.0615" x="692.5518" y="1097.2607">vid</text><ellipse cx="643.5" cy="1110.2109" fill="none" rx="3" ry="3" style="stroke:#038048;stroke-width:1;"/><text fill="#000000" font-family="sans-serif" font-size="14" lengthAdjust="spacing" textLength="66.7529" x="652.5" y="1113.5576">Member :</text><text fill="#000000" font-family="sans-serif" font-size="14" lengthAdjust="spacing" textLength="59.1445" x="728.1533" y="1113.5576">member</text><line style="stroke:#181818;stroke-width:0.5;" x1="633.5" x2="792.2979" y1="1120.8594" y2="1120.8594"/></g><!--class Likes--><g class="entity" data-entity="Likes" data-source-line="53" data-uid="ent0016" id="entity_Likes"><rect fill="#F1F1F1" height="88.8594" rx="2.5" ry="2.5" style="stroke:#181818;stroke-width:0.5;" width="174.2441" x="626" y="891"/><ellipse cx="665.5927" cy="911.1328" fill="#F1F1F1" rx="11" ry="11" style="stroke:#181818;stroke-width:1;"/><path d="M665.0771,911.6953 Q663.2177,910.9922 662.5614,910.2266 Q661.9208,909.4453 661.9208,908.1328 Q661.9208,906.4453 662.9989,905.4766 Q664.0771,904.5078 665.9521,904.5078 Q666.8114,904.5078 667.6552,904.7109 Q668.5146,904.8984 669.3583,905.2891 L669.3583,907.6797 Q668.5771,907.1172 667.7489,906.8359 Q666.9364,906.5391 666.1396,906.5391 Q665.2646,906.5391 664.7802,906.8984 Q664.3114,907.2578 664.3114,907.9141 Q664.3114,908.4297 664.6552,908.7734 Q664.9989,909.1016 666.0927,909.5078 L667.1552,909.9141 Q668.6396,910.4609 669.3427,911.3672 Q670.0614,912.2734 670.0614,913.6484 Q670.0614,915.5234 668.9521,916.4453 Q667.8427,917.3672 665.5927,917.3672 Q664.6708,917.3672 663.7489,917.1484 Q662.8271,916.9297 661.9677,916.5078 L661.9677,913.9766 Q662.9364,914.6641 663.8583,915.0078 Q664.7802,915.3516 665.6708,915.3516 Q666.5771,915.3516 667.0771,914.9453 Q667.5771,914.5234 667.5771,913.7891 Q667.5771,913.2266 667.2333,912.8203 Q666.9052,912.3984 666.2802,912.1484 L665.0771,911.6953 Z " fill="#000000"/><text fill="#000000" font-family="sans-serif" font-size="12" font-style="italic" lengthAdjust="spacing" textLength="91.5938" x="683.0577" y="907.1387">&#171;Value Object&#187;</text><text fill="#000000" font-family="sans-serif" font-size="14" lengthAdjust="spacing" textLength="35.7041" x="711.0025" y="922.9639">Likes</text><line style="stroke:#181818;stroke-width:0.5;" x1="627" x2="799.2441" y1="931.2656" y2="931.2656"/><ellipse cx="637" cy="944.9141" fill="none" rx="3" ry="3" style="stroke:#038048;stroke-width:1;"/><text fill="#000000" font-family="sans-serif" font-size="14" lengthAdjust="spacing" textLength="114.5361" x="646" y="948.2607">PostLike[] : likes</text><line style="stroke:#181818;stroke-width:1;" x1="627" x2="799.2441" y1="955.5625" y2="955.5625"/><ellipse cx="637" cy="969.2109" fill="#84BE84" rx="3" ry="3" style="stroke:#038048;stroke-width:1;"/><text fill="#000000" font-family="sans-serif" font-size="14" lengthAdjust="spacing" textLength="148.2441" x="646" y="972.5576">isLiked(Vid, Member)</text></g><!--class Comment--><g class="entity" data-entity="Comment" data-source-line="2" data-uid="ent0022" id="entity_Comment"><rect fill="#F1F1F1" height="137.75" rx="2.5" ry="2.5" style="stroke:#181818;stroke-width:0.5;" width="210.5361" x="169.5" y="200"/><ellipse cx="217.9321" cy="220.1328" fill="#A9DCDF" rx="11" ry="11" style="stroke:#181818;stroke-width:1;"/><path d="M218.0415,215.4766 L216.8853,220.5547 L219.2134,220.5547 L218.0415,215.4766 Z M216.5571,213.2422 L219.5415,213.2422 L222.9009,225.6328 L220.4478,225.6328 L219.6821,222.5703 L216.4009,222.5703 L215.6509,225.6328 L213.2134,225.6328 L216.5571,213.2422 Z " fill="#000000"/><text fill="#000000" font-family="sans-serif" font-size="12" font-style="italic" lengthAdjust="spacing" textLength="109.1719" x="236.4321" y="216.1387">&#171;Aggregate Root&#187;</text><text fill="#000000" font-family="sans-serif" font-size="14" font-style="italic" lengthAdjust="spacing" textLength="68.5918" x="256.7222" y="231.9639">Comment</text><line style="stroke:#181818;stroke-width:0.5;" x1="170.5" x2="379.0361" y1="240.2656" y2="240.2656"/><ellipse cx="180.5" cy="253.9141" fill="none" rx="3" ry="3" style="stroke:#038048;stroke-width:1;"/><text fill="#000000" font-family="sans-serif" font-size="14" lengthAdjust="spacing" textLength="38.958" x="189.5" y="257.2607">Post :</text><text fill="#000000" font-family="sans-serif" font-size="14" lengthAdjust="spacing" textLength="30.2354" x="300.7549" y="257.2607">post</text><ellipse cx="180.5" cy="270.2109" fill="none" rx="3" ry="3" style="stroke:#038048;stroke-width:1;"/><text fill="#000000" font-family="sans-serif" font-size="14" lengthAdjust="spacing" textLength="64.8457" x="189.5" y="273.5576">Content :</text><text fill="#000000" font-family="sans-serif" font-size="14" lengthAdjust="spacing" textLength="53.6006" x="300.7549" y="273.5576">content</text><ellipse cx="180.5" cy="286.5078" fill="none" rx="3" ry="3" style="stroke:#038048;stroke-width:1;"/><text fill="#000000" font-family="sans-serif" font-size="14" lengthAdjust="spacing" textLength="77.3213" x="189.5" y="289.8545">DateTime :</text><text fill="#000000" font-family="sans-serif" font-size="14" lengthAdjust="spacing" textLength="68.7012" x="300.7549" y="289.8545">createdAt</text><ellipse cx="180.5" cy="302.8047" fill="none" rx="3" ry="3" style="stroke:#038048;stroke-width:1;"/><text fill="#000000" font-family="sans-serif" font-size="14" lengthAdjust="spacing" textLength="77.3213" x="189.5" y="306.1514">DateTime :</text><text fill="#000000" font-family="sans-serif" font-size="14" lengthAdjust="spacing" textLength="73.2813" x="300.7549" y="306.1514">updatedAt</text><ellipse cx="180.5" cy="319.1016" fill="none" rx="3" ry="3" style="stroke:#038048;stroke-width:1;"/><text fill="#000000" font-family="sans-serif" font-size="14" lengthAdjust="spacing" textLength="65.8574" x="189.5" y="322.4482">Boolean :</text><text fill="#000000" font-family="sans-serif" font-size="14" lengthAdjust="spacing" textLength="66.0693" x="300.7549" y="322.4482">isDeleted</text><line style="stroke:#181818;stroke-width:0.5;" x1="170.5" x2="379.0361" y1="329.75" y2="329.75"/></g><!--class GuestComment--><g class="entity" data-entity="GuestComment" data-source-line="9" data-uid="ent0023" id="entity_GuestComment"><rect fill="#F1F1F1" height="56.2656" rx="2.5" ry="2.5" style="stroke:#181818;stroke-width:0.5;" width="141.71" x="239" y="84"/><ellipse cx="254" cy="104.1328" fill="#ADD1B2" rx="11" ry="11" style="stroke:#181818;stroke-width:1;"/><path d="M256.9688,109.7734 Q256.3906,110.0703 255.75,110.2109 Q255.1094,110.3672 254.4063,110.3672 Q251.9063,110.3672 250.5781,108.7266 Q249.2656,107.0703 249.2656,103.9453 Q249.2656,100.8203 250.5781,99.1641 Q251.9063,97.5078 254.4063,97.5078 Q255.1094,97.5078 255.75,97.6641 Q256.4063,97.8203 256.9688,98.1172 L256.9688,100.8359 Q256.3438,100.2578 255.75,99.9922 Q255.1563,99.7109 254.5313,99.7109 Q253.1875,99.7109 252.5,100.7891 Q251.8125,101.8516 251.8125,103.9453 Q251.8125,106.0391 252.5,107.1172 Q253.1875,108.1797 254.5313,108.1797 Q255.1563,108.1797 255.75,107.9141 Q256.3438,107.6328 256.9688,107.0547 L256.9688,109.7734 Z " fill="#000000"/><text fill="#000000" font-family="sans-serif" font-size="12" font-style="italic" lengthAdjust="spacing" textLength="72.5625" x="286.5737" y="100.1387">&#171;ImplClass&#187;</text><text fill="#000000" font-family="sans-serif" font-size="14" lengthAdjust="spacing" textLength="109.71" x="268" y="115.9639">GuestComment</text><line style="stroke:#181818;stroke-width:0.5;" x1="240" x2="379.71" y1="124.2656" y2="124.2656"/><line style="stroke:#181818;stroke-width:0.5;" x1="240" x2="379.71" y1="132.2656" y2="132.2656"/></g><!--class MemberComment--><g class="entity" data-entity="MemberComment" data-source-line="11" data-uid="ent0024" id="entity_MemberComment"><rect fill="#F1F1F1" height="56.2656" rx="2.5" ry="2.5" style="stroke:#181818;stroke-width:0.5;" width="158.1777" x="46" y="84"/><ellipse cx="61" cy="104.1328" fill="#ADD1B2" rx="11" ry="11" style="stroke:#181818;stroke-width:1;"/><path d="M63.9688,109.7734 Q63.3906,110.0703 62.75,110.2109 Q62.1094,110.3672 61.4063,110.3672 Q58.9063,110.3672 57.5781,108.7266 Q56.2656,107.0703 56.2656,103.9453 Q56.2656,100.8203 57.5781,99.1641 Q58.9063,97.5078 61.4063,97.5078 Q62.1094,97.5078 62.75,97.6641 Q63.4063,97.8203 63.9688,98.1172 L63.9688,100.8359 Q63.3438,100.2578 62.75,99.9922 Q62.1563,99.7109 61.5313,99.7109 Q60.1875,99.7109 59.5,100.7891 Q58.8125,101.8516 58.8125,103.9453 Q58.8125,106.0391 59.5,107.1172 Q60.1875,108.1797 61.5313,108.1797 Q62.1563,108.1797 62.75,107.9141 Q63.3438,107.6328 63.9688,107.0547 L63.9688,109.7734 Z " fill="#000000"/><text fill="#000000" font-family="sans-serif" font-size="12" font-style="italic" lengthAdjust="spacing" textLength="72.5625" x="101.8076" y="100.1387">&#171;ImplClass&#187;</text><text fill="#000000" font-family="sans-serif" font-size="14" lengthAdjust="spacing" textLength="126.1777" x="75" y="115.9639">MemberComment</text><line style="stroke:#181818;stroke-width:0.5;" x1="47" x2="203.1777" y1="124.2656" y2="124.2656"/><line style="stroke:#181818;stroke-width:0.5;" x1="47" x2="203.1777" y1="132.2656" y2="132.2656"/></g><!--class Post--><g class="entity" data-entity="Post" data-source-line="16" data-uid="ent0027" id="entity_Post"><rect fill="#F1F1F1" height="72.5625" rx="2.5" ry="2.5" style="stroke:#181818;stroke-width:0.5;" width="119.5938" x="238" y="406"/><ellipse cx="253" cy="426.1328" fill="#F1F1F1" rx="11" ry="11" style="stroke:#181818;stroke-width:1;"/><path d="M252.4844,426.6953 Q250.625,425.9922 249.9688,425.2266 Q249.3281,424.4453 249.3281,423.1328 Q249.3281,421.4453 250.4063,420.4766 Q251.4844,419.5078 253.3594,419.5078 Q254.2188,419.5078 255.0625,419.7109 Q255.9219,419.8984 256.7656,420.2891 L256.7656,422.6797 Q255.9844,422.1172 255.1563,421.8359 Q254.3438,421.5391 253.5469,421.5391 Q252.6719,421.5391 252.1875,421.8984 Q251.7188,422.2578 251.7188,422.9141 Q251.7188,423.4297 252.0625,423.7734 Q252.4063,424.1016 253.5,424.5078 L254.5625,424.9141 Q256.0469,425.4609 256.75,426.3672 Q257.4688,427.2734 257.4688,428.6484 Q257.4688,430.5234 256.3594,431.4453 Q255.25,432.3672 253,432.3672 Q252.0781,432.3672 251.1563,432.1484 Q250.2344,431.9297 249.375,431.5078 L249.375,428.9766 Q250.3438,429.6641 251.2656,430.0078 Q252.1875,430.3516 253.0781,430.3516 Q253.9844,430.3516 254.4844,429.9453 Q254.9844,429.5234 254.9844,428.7891 Q254.9844,428.2266 254.6406,427.8203 Q254.3125,427.3984 253.6875,427.1484 L252.4844,426.6953 Z " fill="#000000"/><text fill="#000000" font-family="sans-serif" font-size="12" font-style="italic" lengthAdjust="spacing" textLength="91.5938" x="265" y="422.1387">&#171;Value Object&#187;</text><text fill="#000000" font-family="sans-serif" font-size="14" lengthAdjust="spacing" textLength="29.791" x="295.9014" y="437.9639">Post</text><line style="stroke:#181818;stroke-width:0.5;" x1="239" x2="356.5938" y1="446.2656" y2="446.2656"/><ellipse cx="249" cy="459.9141" fill="none" rx="3" ry="3" style="stroke:#038048;stroke-width:1;"/><text fill="#000000" font-family="sans-serif" font-size="14" lengthAdjust="spacing" textLength="90.9932" x="258" y="463.2607">Long : postId</text><line style="stroke:#181818;stroke-width:0.5;" x1="239" x2="356.5938" y1="470.5625" y2="470.5625"/></g><!--link Post to Board--><g class="link" data-entity-1="Post" data-entity-2="Board" data-source-line="32" data-uid="lnk10" id="link_Post_Board"><path codeLine="32" d="M794.1,831.16 C818.02,856.15 840.9,880.06 858.62,898.57" fill="none" id="Post-Board" style="stroke:#181818;stroke-width:1;"/></g><!--link Post to Tags--><g class="link" data-entity-1="Post" data-entity-2="Tags" data-source-line="44" data-uid="lnk13" id="link_Post_Tags"><path codeLine="44" d="M575.28,831.16 C562.47,852.76 550.14,873.56 539.94,890.76" fill="none" id="Post-Tags" style="stroke:#181818;stroke-width:1;"/></g><!--link Tags to HashTag--><g class="link" data-entity-1="Tags" data-entity-2="HashTag" data-source-line="45" data-uid="lnk14" id="link_Tags_HashTag"><path codeLine="45" d="M514,980.21 C514,1001.7 514,1021.29 514,1041.62" fill="none" id="Tags-to-HashTag" style="stroke:#181818;stroke-width:1;"/><polygon fill="#181818" points="514,1047.62,518,1038.62,514,1042.62,510,1038.62,514,1047.62" style="stroke:#181818;stroke-width:1;"/><text fill="#000000" font-family="sans-serif" font-size="13" lengthAdjust="spacing" textLength="8.271" x="505.432" y="999.9653">1</text><text fill="#000000" font-family="sans-serif" font-size="13" lengthAdjust="spacing" textLength="9.7246" x="504.2464" y="1036.8325">N</text></g><!--link Post to Likes--><g class="link" data-entity-1="Post" data-entity-2="Likes" data-source-line="58" data-uid="lnk17" id="link_Post_Likes"><path codeLine="58" d="M690.18,831.16 C694.95,852.76 699.54,873.56 703.34,890.76" fill="none" id="Post-Likes" style="stroke:#181818;stroke-width:1;"/></g><!--link Likes to PostLike--><g class="link" data-entity-1="Likes" data-entity-2="PostLike" data-source-line="59" data-uid="lnk18" id="link_Likes_PostLike"><path codeLine="59" d="M713,980.21 C713,999.08 713,1015.11 713,1033.96" fill="none" id="Likes-to-PostLike" style="stroke:#181818;stroke-width:1;"/><polygon fill="#181818" points="713,1039.96,717,1030.96,713,1034.96,709,1030.96,713,1039.96" style="stroke:#181818;stroke-width:1;"/><text fill="#000000" font-family="sans-serif" font-size="13" lengthAdjust="spacing" textLength="8.271" x="704.4145" y="999.9653">1</text><text fill="#000000" font-family="sans-serif" font-size="13" lengthAdjust="spacing" textLength="9.7246" x="703.3819" y="1029.0792">N</text></g><!--link GuestPost to Post--><g class="link" data-entity-1="GuestPost" data-entity-2="Post" data-source-line="62" data-uid="lnk19" id="link_GuestPost_Post"><path codeLine="62" d="M732.09,487.21 C725.81,504.45 724.3739,508.3846 716.4939,530.0446" fill="none" id="GuestPost-to-Post" style="stroke:#181818;stroke-width:1;"/><polygon fill="none" points="710.34,546.96,722.1323,532.0959,710.8554,527.9933,710.34,546.96" style="stroke:#181818;stroke-width:1;"/></g><!--link MemberPost to Post--><g class="link" data-entity-1="MemberPost" data-entity-2="Post" data-source-line="63" data-uid="lnk20" id="link_MemberPost_Post"><path codeLine="63" d="M574.4,479.05 C581.9,497.59 584.8752,504.9355 595.0452,530.0555" fill="none" id="MemberPost-to-Post" style="stroke:#181818;stroke-width:1;"/><polygon fill="none" points="601.8,546.74,600.6067,527.8039,589.4837,532.3071,601.8,546.74" style="stroke:#181818;stroke-width:1;"/></g><!--link GuestComment to Comment--><g class="link" data-entity-1="GuestComment" data-entity-2="Comment" data-source-line="13" data-uid="lnk25" id="link_GuestComment_Comment"><path codeLine="13" d="M303.82,140.35 C300.07,156.95 299.0739,161.3719 294.3239,182.4119" fill="none" id="GuestComment-to-Comment" style="stroke:#181818;stroke-width:1;"/><polygon fill="none" points="290.36,199.97,300.1766,183.7332,288.4712,181.0906,290.36,199.97" style="stroke:#181818;stroke-width:1;"/></g><!--link MemberComment to Comment--><g class="link" data-entity-1="MemberComment" data-entity-2="Comment" data-source-line="14" data-uid="lnk26" id="link_MemberComment_Comment"><path codeLine="14" d="M151.47,140.35 C167.54,156.95 176.296,165.9917 196.646,187.0317" fill="none" id="MemberComment-to-Comment" style="stroke:#181818;stroke-width:1;"/><polygon fill="none" points="209.16,199.97,200.9588,182.8604,192.3332,191.203,209.16,199.97" style="stroke:#181818;stroke-width:1;"/></g><!--link Comment to Post--><g class="link" data-entity-1="Comment" data-entity-2="Post" data-source-line="19" data-uid="lnk28" id="link_Comment_Post"><path codeLine="19" d="M284.16,338.27 C287.26,361.44 290.61,386.38 293.23,405.95" fill="none" id="Comment-Post" style="stroke:#181818;stroke-width:1;"/></g><!--link Board to Board--><g class="link" data-entity-1="Board" data-entity-2="Board" data-source-line="9" data-uid="lnk29" id="link_Board_Board"><path codeLine="9" d="M937.3,972.08 C969.56,998 1007.9322,1028.8226 1037.4622,1052.5426" fill="none" id="Board-to-Board" style="stroke:#181818;stroke-width:1;stroke-dasharray:7.0,7.0;"/><polygon fill="#181818" points="1042.14,1056.3,1037.6283,1047.5453,1038.2418,1053.1688,1032.6184,1053.7824,1042.14,1056.3" style="stroke:#181818;stroke-width:1;"/></g><!--link Post to Post--><g class="link" data-entity-1="Post" data-entity-2="Post" data-source-line="10" data-uid="lnk30" id="link_Post_Post"><path codeLine="10" d="M350.49,479.05 C387.75,504.28 435.0226,536.2947 485.9326,570.7847" fill="none" id="Post-to-Post" style="stroke:#181818;stroke-width:1;stroke-dasharray:7.0,7.0;"/><polygon fill="#181818" points="490.9,574.15,485.6924,565.7905,486.7605,571.3456,481.2054,572.4137,490.9,574.15" style="stroke:#181818;stroke-width:1;"/></g><!--SRC=[AqXCpavCJrLGIifFB4fHICxFAqcjA56gvkBYKW02nSoyv9pIb5G5i3HKLX_CSKnFBqfDJon9rIiepSt1exeWlxY4QCN9-RcvgNdewi4QGEReEO6TgQTd1z46uOEbeJhr0e3Am0h0wa4yBgvQ0000]--></g></svg>