<svg xmlns="http://www.w3.org/2000/svg" xmlns:xlink="http://www.w3.org/1999/xlink" contentStyleType="text/css" data-diagram-type="CLASS" height="1081px" preserveAspectRatio="none" style="width:1579px;height:1081px;background:#FFFFFF;" version="1.1" viewBox="0 0 1579 1081" width="1579px" zoomAndPan="magnify"><defs/><g><!--cluster context map--><g class="cluster" data-entity="context map" data-source-line="2" data-uid="ent0002" id="cluster_context map"><path d="M8.5,6 L108.2246,6 A3.75,3.75 0 0 1 110.7246,8.5 L117.7246,28.2969 L1569.5,28.2969 A2.5,2.5 0 0 1 1572,30.7969 L1572,1071.5 A2.5,2.5 0 0 1 1569.5,1074 L8.5,1074 A2.5,2.5 0 0 1 6,1071.5 L6,8.5 A2.5,2.5 0 0 1 8.5,6" fill="none" style="stroke:#000000;stroke-width:1.5;"/><line style="stroke:#000000;stroke-width:1.5;" x1="6" x2="117.7246" y1="28.2969" y2="28.2969"/><text fill="#000000" font-family="sans-serif" font-size="14" font-weight="bold" lengthAdjust="spacing" textLength="98.7246" x="10" y="20.9951">context map</text></g><!--cluster board context--><g class="cluster" data-entity="board context" data-source-line="3" data-uid="ent0003" id="cluster_board context"><path d="M584.5,49 L696.1807,49 A3.75,3.75 0 0 1 698.6807,51.5 L705.6807,71.2969 L1519.5,71.2969 A2.5,2.5 0 0 1 1522,73.7969 L1522,733.5 A2.5,2.5 0 0 1 1519.5,736 L584.5,736 A2.5,2.5 0 0 1 582,733.5 L582,51.5 A2.5,2.5 0 0 1 584.5,49" fill="none" style="stroke:#000000;stroke-width:1.5;"/><line style="stroke:#000000;stroke-width:1.5;" x1="582" x2="705.6807" y1="71.2969" y2="71.2969"/><text fill="#000000" font-family="sans-serif" font-size="14" font-weight="bold" lengthAdjust="spacing" textLength="110.6807" x="586" y="63.9951">board context</text></g><!--cluster board--><g class="cluster" data-entity="board" data-source-line="4" data-uid="ent0004" id="cluster_board"><path d="M1330.5,208 L1377.5127,208 A3.75,3.75 0 0 1 1380.0127,210.5 L1387.0127,230.2969 L1495.5,230.2969 A2.5,2.5 0 0 1 1498,232.7969 L1498,312.5 A2.5,2.5 0 0 1 1495.5,315 L1330.5,315 A2.5,2.5 0 0 1 1328,312.5 L1328,210.5 A2.5,2.5 0 0 1 1330.5,208" fill="none" style="stroke:#000000;stroke-width:1.5;"/><line style="stroke:#000000;stroke-width:1.5;" x1="1328" x2="1387.0127" y1="230.2969" y2="230.2969"/><text fill="#000000" font-family="sans-serif" font-size="14" font-weight="bold" lengthAdjust="spacing" textLength="46.0127" x="1332" y="222.9951">board</text></g><!--cluster post--><g class="cluster" data-entity="post" data-source-line="9" data-uid="ent0006" id="cluster_post"><path d="M999.5,208 L1035.165,208 A3.75,3.75 0 0 1 1037.665,210.5 L1044.665,230.2969 L1301.5,230.2969 A2.5,2.5 0 0 1 1304,232.7969 L1304,709.5 A2.5,2.5 0 0 1 1301.5,712 L999.5,712 A2.5,2.5 0 0 1 997,709.5 L997,210.5 A2.5,2.5 0 0 1 999.5,208" fill="none" style="stroke:#000000;stroke-width:1.5;"/><line style="stroke:#000000;stroke-width:1.5;" x1="997" x2="1044.665" y1="230.2969" y2="230.2969"/><text fill="#000000" font-family="sans-serif" font-size="14" font-weight="bold" lengthAdjust="spacing" textLength="34.665" x="1001" y="222.9951">post</text></g><!--cluster comment--><g class="cluster" data-entity="comment" data-source-line="32" data-uid="ent0018" id="cluster_comment"><path d="M608.5,92 L682.7471,92 A3.75,3.75 0 0 1 685.2471,94.5 L692.2471,114.2969 L970.5,114.2969 A2.5,2.5 0 0 1 973,116.7969 L973,312.5 A2.5,2.5 0 0 1 970.5,315 L608.5,315 A2.5,2.5 0 0 1 606,312.5 L606,94.5 A2.5,2.5 0 0 1 608.5,92" fill="none" style="stroke:#000000;stroke-width:1.5;"/><line style="stroke:#000000;stroke-width:1.5;" x1="606" x2="692.2471" y1="114.2969" y2="114.2969"/><text fill="#000000" font-family="sans-serif" font-size="14" font-weight="bold" lengthAdjust="spacing" textLength="73.2471" x="610" y="106.9951">comment</text></g><!--cluster userBoardRole--><g class="cluster" data-entity="userBoardRole" data-source-line="41" data-uid="ent0022" id="cluster_userBoardRole"><path d="M1330.5,339 L1447.5537,339 A3.75,3.75 0 0 1 1450.0537,341.5 L1457.0537,361.2969 L1495.5,361.2969 A2.5,2.5 0 0 1 1498,363.7969 L1498,443.5 A2.5,2.5 0 0 1 1495.5,446 L1330.5,446 A2.5,2.5 0 0 1 1328,443.5 L1328,341.5 A2.5,2.5 0 0 1 1330.5,339" fill="none" style="stroke:#000000;stroke-width:1.5;"/><line style="stroke:#000000;stroke-width:1.5;" x1="1328" x2="1457.0537" y1="361.2969" y2="361.2969"/><text fill="#000000" font-family="sans-serif" font-size="14" font-weight="bold" lengthAdjust="spacing" textLength="116.0537" x="1332" y="353.9951">userBoardRole</text></g><!--cluster member context--><g class="cluster" data-entity="member context" data-source-line="53" data-uid="ent0028" id="cluster_member context"><path d="M1182.5,760 L1313.2598,760 A3.75,3.75 0 0 1 1315.7598,762.5 L1322.7598,782.2969 L1532.5,782.2969 A2.5,2.5 0 0 1 1535,784.7969 L1535,1047.5 A2.5,2.5 0 0 1 1532.5,1050 L1182.5,1050 A2.5,2.5 0 0 1 1180,1047.5 L1180,762.5 A2.5,2.5 0 0 1 1182.5,760" fill="none" style="stroke:#000000;stroke-width:1.5;"/><line style="stroke:#000000;stroke-width:1.5;" x1="1180" x2="1322.7598" y1="782.2969" y2="782.2969"/><text fill="#000000" font-family="sans-serif" font-size="14" font-weight="bold" lengthAdjust="spacing" textLength="129.7598" x="1184" y="774.9951">member context</text></g><!--cluster member--><g class="cluster" data-entity="member" data-source-line="54" data-uid="ent0029" id="cluster_member"><path d="M1206.5,803 L1272.5918,803 A3.75,3.75 0 0 1 1275.0918,805.5 L1282.0918,825.2969 L1508.5,825.2969 A2.5,2.5 0 0 1 1511,827.7969 L1511,1023.5 A2.5,2.5 0 0 1 1508.5,1026 L1206.5,1026 A2.5,2.5 0 0 1 1204,1023.5 L1204,805.5 A2.5,2.5 0 0 1 1206.5,803" fill="none" style="stroke:#000000;stroke-width:1.5;"/><line style="stroke:#000000;stroke-width:1.5;" x1="1204" x2="1282.0918" y1="825.2969" y2="825.2969"/><text fill="#000000" font-family="sans-serif" font-size="14" font-weight="bold" lengthAdjust="spacing" textLength="65.0918" x="1208" y="817.9951">member</text></g><!--cluster auth context--><g class="cluster" data-entity="auth context" data-source-line="66" data-uid="ent0035" id="cluster_auth context"><path d="M32.5,562 L134.2412,562 A3.75,3.75 0 0 1 136.7412,564.5 L143.7412,584.2969 L555.5,584.2969 A2.5,2.5 0 0 1 558,586.7969 L558,931.5 A2.5,2.5 0 0 1 555.5,934 L32.5,934 A2.5,2.5 0 0 1 30,931.5 L30,564.5 A2.5,2.5 0 0 1 32.5,562" fill="none" style="stroke:#000000;stroke-width:1.5;"/><line style="stroke:#000000;stroke-width:1.5;" x1="30" x2="143.7412" y1="584.2969" y2="584.2969"/><text fill="#000000" font-family="sans-serif" font-size="14" font-weight="bold" lengthAdjust="spacing" textLength="100.7412" x="34" y="576.9951">auth context</text></g><!--cluster Auth--><g class="cluster" data-entity="Auth" data-source-line="67" data-uid="ent0036" id="cluster_Auth"><path d="M56.5,605 L94.9609,605 A3.75,3.75 0 0 1 97.4609,607.5 L104.4609,627.2969 L531.5,627.2969 A2.5,2.5 0 0 1 534,629.7969 L534,907.5 A2.5,2.5 0 0 1 531.5,910 L56.5,910 A2.5,2.5 0 0 1 54,907.5 L54,607.5 A2.5,2.5 0 0 1 56.5,605" fill="none" style="stroke:#000000;stroke-width:1.5;"/><line style="stroke:#000000;stroke-width:1.5;" x1="54" x2="104.4609" y1="627.2969" y2="627.2969"/><text fill="#000000" font-family="sans-serif" font-size="14" font-weight="bold" lengthAdjust="spacing" textLength="37.4609" x="58" y="619.9951">Auth</text></g><!--class Board--><g class="entity" data-entity="Board" data-source-line="5" data-uid="ent0005" id="entity_Board"><rect fill="#F1F1F1" height="56.2656" rx="2.5" ry="2.5" style="stroke:#181818;stroke-width:0.5;" width="137.1719" x="1344.5" y="243"/><ellipse cx="1359.5" cy="263.1328" fill="#A9DCDF" rx="11" ry="11" style="stroke:#181818;stroke-width:1;"/><path d="M1359.6094,258.4766 L1358.4531,263.5547 L1360.7813,263.5547 L1359.6094,258.4766 Z M1358.125,256.2422 L1361.1094,256.2422 L1364.4688,268.6328 L1362.0156,268.6328 L1361.25,265.5703 L1357.9688,265.5703 L1357.2188,268.6328 L1354.7813,268.6328 L1358.125,256.2422 Z " fill="#000000"/><text fill="#000000" font-family="sans-serif" font-size="12" font-style="italic" lengthAdjust="spacing" textLength="109.1719" x="1371.5" y="259.1387">&#171;Aggregate Root&#187;</text><text fill="#000000" font-family="sans-serif" font-size="14" font-style="italic" lengthAdjust="spacing" textLength="41.3916" x="1405.3901" y="274.9639">Board</text><line style="stroke:#181818;stroke-width:0.5;" x1="1345.5" x2="1480.6719" y1="283.2656" y2="283.2656"/><line style="stroke:#181818;stroke-width:0.5;" x1="1345.5" x2="1480.6719" y1="291.2656" y2="291.2656"/></g><!--class Post--><g class="entity" data-entity="Post" data-source-line="10" data-uid="ent0007" id="entity_Post"><rect fill="#F1F1F1" height="56.2656" rx="2.5" ry="2.5" style="stroke:#181818;stroke-width:0.5;" width="137.1719" x="1081.5" y="374"/><ellipse cx="1096.5" cy="394.1328" fill="#A9DCDF" rx="11" ry="11" style="stroke:#181818;stroke-width:1;"/><path d="M1096.6094,389.4766 L1095.4531,394.5547 L1097.7813,394.5547 L1096.6094,389.4766 Z M1095.125,387.2422 L1098.1094,387.2422 L1101.4688,399.6328 L1099.0156,399.6328 L1098.25,396.5703 L1094.9688,396.5703 L1094.2188,399.6328 L1091.7813,399.6328 L1095.125,387.2422 Z " fill="#000000"/><text fill="#000000" font-family="sans-serif" font-size="12" font-style="italic" lengthAdjust="spacing" textLength="109.1719" x="1108.5" y="390.1387">&#171;Aggregate Root&#187;</text><text fill="#000000" font-family="sans-serif" font-size="14" font-style="italic" lengthAdjust="spacing" textLength="29.791" x="1148.1904" y="405.9639">Post</text><line style="stroke:#181818;stroke-width:0.5;" x1="1082.5" x2="1217.6719" y1="414.2656" y2="414.2656"/><line style="stroke:#181818;stroke-width:0.5;" x1="1082.5" x2="1217.6719" y1="422.2656" y2="422.2656"/></g><!--class GuestPost--><g class="entity" data-entity="GuestPost" data-source-line="12" data-uid="ent0008" id="entity_GuestPost"><rect fill="#F1F1F1" height="56.2656" rx="2.5" ry="2.5" style="stroke:#181818;stroke-width:0.5;" width="102.9092" x="1030.5" y="243"/><ellipse cx="1045.5" cy="263.1328" fill="#ADD1B2" rx="11" ry="11" style="stroke:#181818;stroke-width:1;"/><path d="M1048.4688,268.7734 Q1047.8906,269.0703 1047.25,269.2109 Q1046.6094,269.3672 1045.9063,269.3672 Q1043.4063,269.3672 1042.0781,267.7266 Q1040.7656,266.0703 1040.7656,262.9453 Q1040.7656,259.8203 1042.0781,258.1641 Q1043.4063,256.5078 1045.9063,256.5078 Q1046.6094,256.5078 1047.25,256.6641 Q1047.9063,256.8203 1048.4688,257.1172 L1048.4688,259.8359 Q1047.8438,259.2578 1047.25,258.9922 Q1046.6563,258.7109 1046.0313,258.7109 Q1044.6875,258.7109 1044,259.7891 Q1043.3125,260.8516 1043.3125,262.9453 Q1043.3125,265.0391 1044,266.1172 Q1044.6875,267.1797 1046.0313,267.1797 Q1046.6563,267.1797 1047.25,266.9141 Q1047.8438,266.6328 1048.4688,266.0547 L1048.4688,268.7734 Z " fill="#000000"/><text fill="#000000" font-family="sans-serif" font-size="12" font-style="italic" lengthAdjust="spacing" textLength="72.5625" x="1058.6733" y="259.1387">&#171;ImplClass&#187;</text><text fill="#000000" font-family="sans-serif" font-size="14" lengthAdjust="spacing" textLength="70.9092" x="1059.5" y="274.9639">GuestPost</text><line style="stroke:#181818;stroke-width:0.5;" x1="1031.5" x2="1132.4092" y1="283.2656" y2="283.2656"/><line style="stroke:#181818;stroke-width:0.5;" x1="1031.5" x2="1132.4092" y1="291.2656" y2="291.2656"/></g><!--class MemberPost--><g class="entity" data-entity="MemberPost" data-source-line="14" data-uid="ent0009" id="entity_MemberPost"><rect fill="#F1F1F1" height="56.2656" rx="2.5" ry="2.5" style="stroke:#181818;stroke-width:0.5;" width="119.377" x="1168.5" y="243"/><ellipse cx="1183.5" cy="263.1328" fill="#ADD1B2" rx="11" ry="11" style="stroke:#181818;stroke-width:1;"/><path d="M1186.4688,268.7734 Q1185.8906,269.0703 1185.25,269.2109 Q1184.6094,269.3672 1183.9063,269.3672 Q1181.4063,269.3672 1180.0781,267.7266 Q1178.7656,266.0703 1178.7656,262.9453 Q1178.7656,259.8203 1180.0781,258.1641 Q1181.4063,256.5078 1183.9063,256.5078 Q1184.6094,256.5078 1185.25,256.6641 Q1185.9063,256.8203 1186.4688,257.1172 L1186.4688,259.8359 Q1185.8438,259.2578 1185.25,258.9922 Q1184.6563,258.7109 1184.0313,258.7109 Q1182.6875,258.7109 1182,259.7891 Q1181.3125,260.8516 1181.3125,262.9453 Q1181.3125,265.0391 1182,266.1172 Q1182.6875,267.1797 1184.0313,267.1797 Q1184.6563,267.1797 1185.25,266.9141 Q1185.8438,266.6328 1186.4688,266.0547 L1186.4688,268.7734 Z " fill="#000000"/><text fill="#000000" font-family="sans-serif" font-size="12" font-style="italic" lengthAdjust="spacing" textLength="72.5625" x="1204.9072" y="259.1387">&#171;ImplClass&#187;</text><text fill="#000000" font-family="sans-serif" font-size="14" lengthAdjust="spacing" textLength="87.377" x="1197.5" y="274.9639">MemberPost</text><line style="stroke:#181818;stroke-width:0.5;" x1="1169.5" x2="1286.877" y1="283.2656" y2="283.2656"/><line style="stroke:#181818;stroke-width:0.5;" x1="1169.5" x2="1286.877" y1="291.2656" y2="291.2656"/></g><!--class HashTag--><g class="entity" data-entity="HashTag" data-source-line="17" data-uid="ent0010" id="entity_HashTag"><rect fill="#F1F1F1" height="56.2656" rx="2.5" ry="2.5" style="stroke:#181818;stroke-width:0.5;" width="93.291" x="1026.5" y="640"/><ellipse cx="1041.5" cy="660.1328" fill="#ADD1B2" rx="11" ry="11" style="stroke:#181818;stroke-width:1;"/><path d="M1045.6094,666.1328 L1037.8906,666.1328 L1037.8906,653.7422 L1045.6094,653.7422 L1045.6094,655.8984 L1040.3438,655.8984 L1040.3438,658.5703 L1045.1094,658.5703 L1045.1094,660.7266 L1040.3438,660.7266 L1040.3438,663.9766 L1045.6094,663.9766 L1045.6094,666.1328 Z " fill="#000000"/><text fill="#000000" font-family="sans-serif" font-size="12" font-style="italic" lengthAdjust="spacing" textLength="49.8457" x="1061.2227" y="656.1387">&#171;Entity&#187;</text><text fill="#000000" font-family="sans-serif" font-size="14" lengthAdjust="spacing" textLength="61.291" x="1055.5" y="671.9639">HashTag</text><line style="stroke:#181818;stroke-width:0.5;" x1="1027.5" x2="1118.791" y1="680.2656" y2="680.2656"/><line style="stroke:#181818;stroke-width:0.5;" x1="1027.5" x2="1118.791" y1="688.2656" y2="688.2656"/></g><!--class Tags--><g class="entity" data-entity="Tags" data-source-line="19" data-uid="ent0011" id="entity_Tags"><rect fill="#F1F1F1" height="56.2656" rx="2.5" ry="2.5" style="stroke:#181818;stroke-width:0.5;" width="119.5938" x="1013" y="490"/><ellipse cx="1028" cy="510.1328" fill="#F1F1F1" rx="11" ry="11" style="stroke:#181818;stroke-width:1;"/><path d="M1027.4844,510.6953 Q1025.625,509.9922 1024.9688,509.2266 Q1024.3281,508.4453 1024.3281,507.1328 Q1024.3281,505.4453 1025.4063,504.4766 Q1026.4844,503.5078 1028.3594,503.5078 Q1029.2188,503.5078 1030.0625,503.7109 Q1030.9219,503.8984 1031.7656,504.2891 L1031.7656,506.6797 Q1030.9844,506.1172 1030.1563,505.8359 Q1029.3438,505.5391 1028.5469,505.5391 Q1027.6719,505.5391 1027.1875,505.8984 Q1026.7188,506.2578 1026.7188,506.9141 Q1026.7188,507.4297 1027.0625,507.7734 Q1027.4063,508.1016 1028.5,508.5078 L1029.5625,508.9141 Q1031.0469,509.4609 1031.75,510.3672 Q1032.4688,511.2734 1032.4688,512.6484 Q1032.4688,514.5234 1031.3594,515.4453 Q1030.25,516.3672 1028,516.3672 Q1027.0781,516.3672 1026.1563,516.1484 Q1025.2344,515.9297 1024.375,515.5078 L1024.375,512.9766 Q1025.3438,513.6641 1026.2656,514.0078 Q1027.1875,514.3516 1028.0781,514.3516 Q1028.9844,514.3516 1029.4844,513.9453 Q1029.9844,513.5234 1029.9844,512.7891 Q1029.9844,512.2266 1029.6406,511.8203 Q1029.3125,511.3984 1028.6875,511.1484 L1027.4844,510.6953 Z " fill="#000000"/><text fill="#000000" font-family="sans-serif" font-size="12" font-style="italic" lengthAdjust="spacing" textLength="91.5938" x="1040" y="506.1387">&#171;Value Object&#187;</text><text fill="#000000" font-family="sans-serif" font-size="14" lengthAdjust="spacing" textLength="33.3115" x="1069.1411" y="521.9639">Tags</text><line style="stroke:#181818;stroke-width:0.5;" x1="1014" x2="1131.5938" y1="530.2656" y2="530.2656"/><line style="stroke:#181818;stroke-width:0.5;" x1="1014" x2="1131.5938" y1="538.2656" y2="538.2656"/></g><!--class PostLike--><g class="entity" data-entity="PostLike" data-source-line="24" data-uid="ent0014" id="entity_PostLike"><rect fill="#F1F1F1" height="56.2656" rx="2.5" ry="2.5" style="stroke:#181818;stroke-width:0.5;" width="90.2012" x="1190" y="640"/><ellipse cx="1205" cy="660.1328" fill="#ADD1B2" rx="11" ry="11" style="stroke:#181818;stroke-width:1;"/><path d="M1209.1094,666.1328 L1201.3906,666.1328 L1201.3906,653.7422 L1209.1094,653.7422 L1209.1094,655.8984 L1203.8438,655.8984 L1203.8438,658.5703 L1208.6094,658.5703 L1208.6094,660.7266 L1203.8438,660.7266 L1203.8438,663.9766 L1209.1094,663.9766 L1209.1094,666.1328 Z " fill="#000000"/><text fill="#000000" font-family="sans-serif" font-size="12" font-style="italic" lengthAdjust="spacing" textLength="49.8457" x="1223.1777" y="656.1387">&#171;Entity&#187;</text><text fill="#000000" font-family="sans-serif" font-size="14" lengthAdjust="spacing" textLength="58.2012" x="1219" y="671.9639">PostLike</text><line style="stroke:#181818;stroke-width:0.5;" x1="1191" x2="1279.2012" y1="680.2656" y2="680.2656"/><line style="stroke:#181818;stroke-width:0.5;" x1="1191" x2="1279.2012" y1="688.2656" y2="688.2656"/></g><!--class Likes--><g class="entity" data-entity="Likes" data-source-line="26" data-uid="ent0015" id="entity_Likes"><rect fill="#F1F1F1" height="56.2656" rx="2.5" ry="2.5" style="stroke:#181818;stroke-width:0.5;" width="119.5938" x="1168" y="490"/><ellipse cx="1183" cy="510.1328" fill="#F1F1F1" rx="11" ry="11" style="stroke:#181818;stroke-width:1;"/><path d="M1182.4844,510.6953 Q1180.625,509.9922 1179.9688,509.2266 Q1179.3281,508.4453 1179.3281,507.1328 Q1179.3281,505.4453 1180.4063,504.4766 Q1181.4844,503.5078 1183.3594,503.5078 Q1184.2188,503.5078 1185.0625,503.7109 Q1185.9219,503.8984 1186.7656,504.2891 L1186.7656,506.6797 Q1185.9844,506.1172 1185.1563,505.8359 Q1184.3438,505.5391 1183.5469,505.5391 Q1182.6719,505.5391 1182.1875,505.8984 Q1181.7188,506.2578 1181.7188,506.9141 Q1181.7188,507.4297 1182.0625,507.7734 Q1182.4063,508.1016 1183.5,508.5078 L1184.5625,508.9141 Q1186.0469,509.4609 1186.75,510.3672 Q1187.4688,511.2734 1187.4688,512.6484 Q1187.4688,514.5234 1186.3594,515.4453 Q1185.25,516.3672 1183,516.3672 Q1182.0781,516.3672 1181.1563,516.1484 Q1180.2344,515.9297 1179.375,515.5078 L1179.375,512.9766 Q1180.3438,513.6641 1181.2656,514.0078 Q1182.1875,514.3516 1183.0781,514.3516 Q1183.9844,514.3516 1184.4844,513.9453 Q1184.9844,513.5234 1184.9844,512.7891 Q1184.9844,512.2266 1184.6406,511.8203 Q1184.3125,511.3984 1183.6875,511.1484 L1182.4844,510.6953 Z " fill="#000000"/><text fill="#000000" font-family="sans-serif" font-size="12" font-style="italic" lengthAdjust="spacing" textLength="91.5938" x="1195" y="506.1387">&#171;Value Object&#187;</text><text fill="#000000" font-family="sans-serif" font-size="14" lengthAdjust="spacing" textLength="35.7041" x="1222.9448" y="521.9639">Likes</text><line style="stroke:#181818;stroke-width:0.5;" x1="1169" x2="1286.5938" y1="530.2656" y2="530.2656"/><line style="stroke:#181818;stroke-width:0.5;" x1="1169" x2="1286.5938" y1="538.2656" y2="538.2656"/></g><!--class Comment--><g class="entity" data-entity="Comment" data-source-line="33" data-uid="ent0019" id="entity_Comment"><rect fill="#F1F1F1" height="56.2656" rx="2.5" ry="2.5" style="stroke:#181818;stroke-width:0.5;" width="137.1719" x="801.5" y="243"/><ellipse cx="816.5" cy="263.1328" fill="#A9DCDF" rx="11" ry="11" style="stroke:#181818;stroke-width:1;"/><path d="M816.6094,258.4766 L815.4531,263.5547 L817.7813,263.5547 L816.6094,258.4766 Z M815.125,256.2422 L818.1094,256.2422 L821.4688,268.6328 L819.0156,268.6328 L818.25,265.5703 L814.9688,265.5703 L814.2188,268.6328 L811.7813,268.6328 L815.125,256.2422 Z " fill="#000000"/><text fill="#000000" font-family="sans-serif" font-size="12" font-style="italic" lengthAdjust="spacing" textLength="109.1719" x="828.5" y="259.1387">&#171;Aggregate Root&#187;</text><text fill="#000000" font-family="sans-serif" font-size="14" font-style="italic" lengthAdjust="spacing" textLength="68.5918" x="848.79" y="274.9639">Comment</text><line style="stroke:#181818;stroke-width:0.5;" x1="802.5" x2="937.6719" y1="283.2656" y2="283.2656"/><line style="stroke:#181818;stroke-width:0.5;" x1="802.5" x2="937.6719" y1="291.2656" y2="291.2656"/></g><!--class GuestComment--><g class="entity" data-entity="GuestComment" data-source-line="35" data-uid="ent0020" id="entity_GuestComment"><rect fill="#F1F1F1" height="56.2656" rx="2.5" ry="2.5" style="stroke:#181818;stroke-width:0.5;" width="141.71" x="622" y="127"/><ellipse cx="637" cy="147.1328" fill="#ADD1B2" rx="11" ry="11" style="stroke:#181818;stroke-width:1;"/><path d="M639.9688,152.7734 Q639.3906,153.0703 638.75,153.2109 Q638.1094,153.3672 637.4063,153.3672 Q634.9063,153.3672 633.5781,151.7266 Q632.2656,150.0703 632.2656,146.9453 Q632.2656,143.8203 633.5781,142.1641 Q634.9063,140.5078 637.4063,140.5078 Q638.1094,140.5078 638.75,140.6641 Q639.4063,140.8203 639.9688,141.1172 L639.9688,143.8359 Q639.3438,143.2578 638.75,142.9922 Q638.1563,142.7109 637.5313,142.7109 Q636.1875,142.7109 635.5,143.7891 Q634.8125,144.8516 634.8125,146.9453 Q634.8125,149.0391 635.5,150.1172 Q636.1875,151.1797 637.5313,151.1797 Q638.1563,151.1797 638.75,150.9141 Q639.3438,150.6328 639.9688,150.0547 L639.9688,152.7734 Z " fill="#000000"/><text fill="#000000" font-family="sans-serif" font-size="12" font-style="italic" lengthAdjust="spacing" textLength="72.5625" x="669.5737" y="143.1387">&#171;ImplClass&#187;</text><text fill="#000000" font-family="sans-serif" font-size="14" lengthAdjust="spacing" textLength="109.71" x="651" y="158.9639">GuestComment</text><line style="stroke:#181818;stroke-width:0.5;" x1="623" x2="762.71" y1="167.2656" y2="167.2656"/><line style="stroke:#181818;stroke-width:0.5;" x1="623" x2="762.71" y1="175.2656" y2="175.2656"/></g><!--class MemberComment--><g class="entity" data-entity="MemberComment" data-source-line="37" data-uid="ent0021" id="entity_MemberComment"><rect fill="#F1F1F1" height="56.2656" rx="2.5" ry="2.5" style="stroke:#181818;stroke-width:0.5;" width="158.1777" x="799" y="127"/><ellipse cx="814" cy="147.1328" fill="#ADD1B2" rx="11" ry="11" style="stroke:#181818;stroke-width:1;"/><path d="M816.9688,152.7734 Q816.3906,153.0703 815.75,153.2109 Q815.1094,153.3672 814.4063,153.3672 Q811.9063,153.3672 810.5781,151.7266 Q809.2656,150.0703 809.2656,146.9453 Q809.2656,143.8203 810.5781,142.1641 Q811.9063,140.5078 814.4063,140.5078 Q815.1094,140.5078 815.75,140.6641 Q816.4063,140.8203 816.9688,141.1172 L816.9688,143.8359 Q816.3438,143.2578 815.75,142.9922 Q815.1563,142.7109 814.5313,142.7109 Q813.1875,142.7109 812.5,143.7891 Q811.8125,144.8516 811.8125,146.9453 Q811.8125,149.0391 812.5,150.1172 Q813.1875,151.1797 814.5313,151.1797 Q815.1563,151.1797 815.75,150.9141 Q816.3438,150.6328 816.9688,150.0547 L816.9688,152.7734 Z " fill="#000000"/><text fill="#000000" font-family="sans-serif" font-size="12" font-style="italic" lengthAdjust="spacing" textLength="72.5625" x="854.8076" y="143.1387">&#171;ImplClass&#187;</text><text fill="#000000" font-family="sans-serif" font-size="14" lengthAdjust="spacing" textLength="126.1777" x="828" y="158.9639">MemberComment</text><line style="stroke:#181818;stroke-width:0.5;" x1="800" x2="956.1777" y1="167.2656" y2="167.2656"/><line style="stroke:#181818;stroke-width:0.5;" x1="800" x2="956.1777" y1="175.2656" y2="175.2656"/></g><!--class UserBoardRole--><g class="entity" data-entity="UserBoardRole" data-source-line="42" data-uid="ent0023" id="entity_UserBoardRole"><rect fill="#F1F1F1" height="56.2656" rx="2.5" ry="2.5" style="stroke:#181818;stroke-width:0.5;" width="137.1719" x="1344.5" y="374"/><ellipse cx="1359.5" cy="394.1328" fill="#A9DCDF" rx="11" ry="11" style="stroke:#181818;stroke-width:1;"/><path d="M1359.6094,389.4766 L1358.4531,394.5547 L1360.7813,394.5547 L1359.6094,389.4766 Z M1358.125,387.2422 L1361.1094,387.2422 L1364.4688,399.6328 L1362.0156,399.6328 L1361.25,396.5703 L1357.9688,396.5703 L1357.2188,399.6328 L1354.7813,399.6328 L1358.125,387.2422 Z " fill="#000000"/><text fill="#000000" font-family="sans-serif" font-size="12" font-style="italic" lengthAdjust="spacing" textLength="109.1719" x="1371.5" y="390.1387">&#171;Aggregate Root&#187;</text><text fill="#000000" font-family="sans-serif" font-size="14" font-style="italic" lengthAdjust="spacing" textLength="104.0977" x="1374.0371" y="405.9639">UserBoardRole</text><line style="stroke:#181818;stroke-width:0.5;" x1="1345.5" x2="1480.6719" y1="414.2656" y2="414.2656"/><line style="stroke:#181818;stroke-width:0.5;" x1="1345.5" x2="1480.6719" y1="422.2656" y2="422.2656"/></g><!--class Member--><g class="entity" data-entity="Member" data-source-line="55" data-uid="ent0030" id="entity_Member"><rect fill="#F1F1F1" height="56.2656" rx="2.5" ry="2.5" style="stroke:#181818;stroke-width:0.5;" width="137.1719" x="1344.5" y="838"/><ellipse cx="1359.5" cy="858.1328" fill="#A9DCDF" rx="11" ry="11" style="stroke:#181818;stroke-width:1;"/><path d="M1359.6094,853.4766 L1358.4531,858.5547 L1360.7813,858.5547 L1359.6094,853.4766 Z M1358.125,851.2422 L1361.1094,851.2422 L1364.4688,863.6328 L1362.0156,863.6328 L1361.25,860.5703 L1357.9688,860.5703 L1357.2188,863.6328 L1354.7813,863.6328 L1358.125,851.2422 Z " fill="#000000"/><text fill="#000000" font-family="sans-serif" font-size="12" font-style="italic" lengthAdjust="spacing" textLength="109.1719" x="1371.5" y="854.1387">&#171;Aggregate Root&#187;</text><text fill="#000000" font-family="sans-serif" font-size="14" font-style="italic" lengthAdjust="spacing" textLength="57.5859" x="1397.293" y="869.9639">Member</text><line style="stroke:#181818;stroke-width:0.5;" x1="1345.5" x2="1480.6719" y1="878.2656" y2="878.2656"/><line style="stroke:#181818;stroke-width:0.5;" x1="1345.5" x2="1480.6719" y1="886.2656" y2="886.2656"/></g><!--class NickName--><g class="entity" data-entity="NickName" data-source-line="57" data-uid="ent0031" id="entity_NickName"><rect fill="#F1F1F1" height="56.2656" rx="2.5" ry="2.5" style="stroke:#181818;stroke-width:0.5;" width="119.5938" x="1220" y="954"/><ellipse cx="1235" cy="974.1328" fill="#F1F1F1" rx="11" ry="11" style="stroke:#181818;stroke-width:1;"/><path d="M1234.4844,974.6953 Q1232.625,973.9922 1231.9688,973.2266 Q1231.3281,972.4453 1231.3281,971.1328 Q1231.3281,969.4453 1232.4063,968.4766 Q1233.4844,967.5078 1235.3594,967.5078 Q1236.2188,967.5078 1237.0625,967.7109 Q1237.9219,967.8984 1238.7656,968.2891 L1238.7656,970.6797 Q1237.9844,970.1172 1237.1563,969.8359 Q1236.3438,969.5391 1235.5469,969.5391 Q1234.6719,969.5391 1234.1875,969.8984 Q1233.7188,970.2578 1233.7188,970.9141 Q1233.7188,971.4297 1234.0625,971.7734 Q1234.4063,972.1016 1235.5,972.5078 L1236.5625,972.9141 Q1238.0469,973.4609 1238.75,974.3672 Q1239.4688,975.2734 1239.4688,976.6484 Q1239.4688,978.5234 1238.3594,979.4453 Q1237.25,980.3672 1235,980.3672 Q1234.0781,980.3672 1233.1563,980.1484 Q1232.2344,979.9297 1231.375,979.5078 L1231.375,976.9766 Q1232.3438,977.6641 1233.2656,978.0078 Q1234.1875,978.3516 1235.0781,978.3516 Q1235.9844,978.3516 1236.4844,977.9453 Q1236.9844,977.5234 1236.9844,976.7891 Q1236.9844,976.2266 1236.6406,975.8203 Q1236.3125,975.3984 1235.6875,975.1484 L1234.4844,974.6953 Z " fill="#000000"/><text fill="#000000" font-family="sans-serif" font-size="12" font-style="italic" lengthAdjust="spacing" textLength="91.5938" x="1247" y="970.1387">&#171;Value Object&#187;</text><text fill="#000000" font-family="sans-serif" font-size="14" lengthAdjust="spacing" textLength="71.4697" x="1257.062" y="985.9639">NickName</text><line style="stroke:#181818;stroke-width:0.5;" x1="1221" x2="1338.5938" y1="994.2656" y2="994.2656"/><line style="stroke:#181818;stroke-width:0.5;" x1="1221" x2="1338.5938" y1="1002.2656" y2="1002.2656"/></g><!--class BirthYear--><g class="entity" data-entity="BirthYear" data-source-line="59" data-uid="ent0032" id="entity_BirthYear"><rect fill="#F1F1F1" height="56.2656" rx="2.5" ry="2.5" style="stroke:#181818;stroke-width:0.5;" width="119.5938" x="1375" y="954"/><ellipse cx="1390" cy="974.1328" fill="#F1F1F1" rx="11" ry="11" style="stroke:#181818;stroke-width:1;"/><path d="M1389.4844,974.6953 Q1387.625,973.9922 1386.9688,973.2266 Q1386.3281,972.4453 1386.3281,971.1328 Q1386.3281,969.4453 1387.4063,968.4766 Q1388.4844,967.5078 1390.3594,967.5078 Q1391.2188,967.5078 1392.0625,967.7109 Q1392.9219,967.8984 1393.7656,968.2891 L1393.7656,970.6797 Q1392.9844,970.1172 1392.1563,969.8359 Q1391.3438,969.5391 1390.5469,969.5391 Q1389.6719,969.5391 1389.1875,969.8984 Q1388.7188,970.2578 1388.7188,970.9141 Q1388.7188,971.4297 1389.0625,971.7734 Q1389.4063,972.1016 1390.5,972.5078 L1391.5625,972.9141 Q1393.0469,973.4609 1393.75,974.3672 Q1394.4688,975.2734 1394.4688,976.6484 Q1394.4688,978.5234 1393.3594,979.4453 Q1392.25,980.3672 1390,980.3672 Q1389.0781,980.3672 1388.1563,980.1484 Q1387.2344,979.9297 1386.375,979.5078 L1386.375,976.9766 Q1387.3438,977.6641 1388.2656,978.0078 Q1389.1875,978.3516 1390.0781,978.3516 Q1390.9844,978.3516 1391.4844,977.9453 Q1391.9844,977.5234 1391.9844,976.7891 Q1391.9844,976.2266 1391.6406,975.8203 Q1391.3125,975.3984 1390.6875,975.1484 L1389.4844,974.6953 Z " fill="#000000"/><text fill="#000000" font-family="sans-serif" font-size="12" font-style="italic" lengthAdjust="spacing" textLength="91.5938" x="1402" y="970.1387">&#171;Value Object&#187;</text><text fill="#000000" font-family="sans-serif" font-size="14" lengthAdjust="spacing" textLength="65.1123" x="1415.2407" y="985.9639">BirthYear</text><line style="stroke:#181818;stroke-width:0.5;" x1="1376" x2="1493.5938" y1="994.2656" y2="994.2656"/><line style="stroke:#181818;stroke-width:0.5;" x1="1376" x2="1493.5938" y1="1002.2656" y2="1002.2656"/></g><!--class AuthCredential--><g class="entity" data-entity="AuthCredential" data-source-line="68" data-uid="ent0037" id="entity_AuthCredential"><rect fill="#F1F1F1" height="56.2656" rx="2.5" ry="2.5" style="stroke:#181818;stroke-width:0.5;" width="137.1777" x="380.5" y="640"/><ellipse cx="395.5" cy="660.1328" fill="#A9DCDF" rx="11" ry="11" style="stroke:#181818;stroke-width:1;"/><path d="M395.6094,655.4766 L394.4531,660.5547 L396.7813,660.5547 L395.6094,655.4766 Z M394.125,653.2422 L397.1094,653.2422 L400.4688,665.6328 L398.0156,665.6328 L397.25,662.5703 L393.9688,662.5703 L393.2188,665.6328 L390.7813,665.6328 L394.125,653.2422 Z " fill="#000000"/><text fill="#000000" font-family="sans-serif" font-size="12" font-style="italic" lengthAdjust="spacing" textLength="109.1719" x="407.5029" y="656.1387">&#171;Aggregate Root&#187;</text><text fill="#000000" font-family="sans-serif" font-size="14" font-style="italic" lengthAdjust="spacing" textLength="105.1777" x="409.5" y="671.9639">AuthCredential</text><line style="stroke:#181818;stroke-width:0.5;" x1="381.5" x2="516.6777" y1="680.2656" y2="680.2656"/><line style="stroke:#181818;stroke-width:0.5;" x1="381.5" x2="516.6777" y1="688.2656" y2="688.2656"/></g><!--class Email--><g class="entity" data-entity="Email" data-source-line="70" data-uid="ent0038" id="entity_Email"><rect fill="#F1F1F1" height="56.2656" rx="2.5" ry="2.5" style="stroke:#181818;stroke-width:0.5;" width="119.5938" x="255" y="838"/><ellipse cx="270" cy="858.1328" fill="#F1F1F1" rx="11" ry="11" style="stroke:#181818;stroke-width:1;"/><path d="M269.4844,858.6953 Q267.625,857.9922 266.9688,857.2266 Q266.3281,856.4453 266.3281,855.1328 Q266.3281,853.4453 267.4063,852.4766 Q268.4844,851.5078 270.3594,851.5078 Q271.2188,851.5078 272.0625,851.7109 Q272.9219,851.8984 273.7656,852.2891 L273.7656,854.6797 Q272.9844,854.1172 272.1563,853.8359 Q271.3438,853.5391 270.5469,853.5391 Q269.6719,853.5391 269.1875,853.8984 Q268.7188,854.2578 268.7188,854.9141 Q268.7188,855.4297 269.0625,855.7734 Q269.4063,856.1016 270.5,856.5078 L271.5625,856.9141 Q273.0469,857.4609 273.75,858.3672 Q274.4688,859.2734 274.4688,860.6484 Q274.4688,862.5234 273.3594,863.4453 Q272.25,864.3672 270,864.3672 Q269.0781,864.3672 268.1563,864.1484 Q267.2344,863.9297 266.375,863.5078 L266.375,860.9766 Q267.3438,861.6641 268.2656,862.0078 Q269.1875,862.3516 270.0781,862.3516 Q270.9844,862.3516 271.4844,861.9453 Q271.9844,861.5234 271.9844,860.7891 Q271.9844,860.2266 271.6406,859.8203 Q271.3125,859.3984 270.6875,859.1484 L269.4844,858.6953 Z " fill="#000000"/><text fill="#000000" font-family="sans-serif" font-size="12" font-style="italic" lengthAdjust="spacing" textLength="91.5938" x="282" y="854.1387">&#171;Value Object&#187;</text><text fill="#000000" font-family="sans-serif" font-size="14" lengthAdjust="spacing" textLength="38.8418" x="308.376" y="869.9639">Email</text><line style="stroke:#181818;stroke-width:0.5;" x1="256" x2="373.5938" y1="878.2656" y2="878.2656"/><line style="stroke:#181818;stroke-width:0.5;" x1="256" x2="373.5938" y1="886.2656" y2="886.2656"/></g><!--class Roles--><g class="entity" data-entity="Roles" data-source-line="73" data-uid="ent0039" id="entity_Roles"><rect fill="#F1F1F1" height="56.2656" rx="2.5" ry="2.5" style="stroke:#181818;stroke-width:0.5;" width="119.5938" x="225" y="640"/><ellipse cx="240" cy="660.1328" fill="#F1F1F1" rx="11" ry="11" style="stroke:#181818;stroke-width:1;"/><path d="M239.4844,660.6953 Q237.625,659.9922 236.9688,659.2266 Q236.3281,658.4453 236.3281,657.1328 Q236.3281,655.4453 237.4063,654.4766 Q238.4844,653.5078 240.3594,653.5078 Q241.2188,653.5078 242.0625,653.7109 Q242.9219,653.8984 243.7656,654.2891 L243.7656,656.6797 Q242.9844,656.1172 242.1563,655.8359 Q241.3438,655.5391 240.5469,655.5391 Q239.6719,655.5391 239.1875,655.8984 Q238.7188,656.2578 238.7188,656.9141 Q238.7188,657.4297 239.0625,657.7734 Q239.4063,658.1016 240.5,658.5078 L241.5625,658.9141 Q243.0469,659.4609 243.75,660.3672 Q244.4688,661.2734 244.4688,662.6484 Q244.4688,664.5234 243.3594,665.4453 Q242.25,666.3672 240,666.3672 Q239.0781,666.3672 238.1563,666.1484 Q237.2344,665.9297 236.375,665.5078 L236.375,662.9766 Q237.3438,663.6641 238.2656,664.0078 Q239.1875,664.3516 240.0781,664.3516 Q240.9844,664.3516 241.4844,663.9453 Q241.9844,663.5234 241.9844,662.7891 Q241.9844,662.2266 241.6406,661.8203 Q241.3125,661.3984 240.6875,661.1484 L239.4844,660.6953 Z " fill="#000000"/><text fill="#000000" font-family="sans-serif" font-size="12" font-style="italic" lengthAdjust="spacing" textLength="91.5938" x="252" y="656.1387">&#171;Value Object&#187;</text><text fill="#000000" font-family="sans-serif" font-size="14" lengthAdjust="spacing" textLength="38.0898" x="278.752" y="671.9639">Roles</text><line style="stroke:#181818;stroke-width:0.5;" x1="226" x2="343.5938" y1="680.2656" y2="680.2656"/><line style="stroke:#181818;stroke-width:0.5;" x1="226" x2="343.5938" y1="688.2656" y2="688.2656"/></g><!--class Managers--><g class="entity" data-entity="Managers" data-source-line="75" data-uid="ent0040" id="entity_Managers"><rect fill="#F1F1F1" height="56.2656" rx="2.5" ry="2.5" style="stroke:#181818;stroke-width:0.5;" width="119.5938" x="70" y="640"/><ellipse cx="85" cy="660.1328" fill="#F1F1F1" rx="11" ry="11" style="stroke:#181818;stroke-width:1;"/><path d="M84.4844,660.6953 Q82.625,659.9922 81.9688,659.2266 Q81.3281,658.4453 81.3281,657.1328 Q81.3281,655.4453 82.4063,654.4766 Q83.4844,653.5078 85.3594,653.5078 Q86.2188,653.5078 87.0625,653.7109 Q87.9219,653.8984 88.7656,654.2891 L88.7656,656.6797 Q87.9844,656.1172 87.1563,655.8359 Q86.3438,655.5391 85.5469,655.5391 Q84.6719,655.5391 84.1875,655.8984 Q83.7188,656.2578 83.7188,656.9141 Q83.7188,657.4297 84.0625,657.7734 Q84.4063,658.1016 85.5,658.5078 L86.5625,658.9141 Q88.0469,659.4609 88.75,660.3672 Q89.4688,661.2734 89.4688,662.6484 Q89.4688,664.5234 88.3594,665.4453 Q87.25,666.3672 85,666.3672 Q84.0781,666.3672 83.1563,666.1484 Q82.2344,665.9297 81.375,665.5078 L81.375,662.9766 Q82.3438,663.6641 83.2656,664.0078 Q84.1875,664.3516 85.0781,664.3516 Q85.9844,664.3516 86.4844,663.9453 Q86.9844,663.5234 86.9844,662.7891 Q86.9844,662.2266 86.6406,661.8203 Q86.3125,661.3984 85.6875,661.1484 L84.4844,660.6953 Z " fill="#000000"/><text fill="#000000" font-family="sans-serif" font-size="12" font-style="italic" lengthAdjust="spacing" textLength="91.5938" x="97" y="656.1387">&#171;Value Object&#187;</text><text fill="#000000" font-family="sans-serif" font-size="14" lengthAdjust="spacing" textLength="68.6602" x="108.4668" y="671.9639">Managers</text><line style="stroke:#181818;stroke-width:0.5;" x1="71" x2="188.5938" y1="680.2656" y2="680.2656"/><line style="stroke:#181818;stroke-width:0.5;" x1="71" x2="188.5938" y1="688.2656" y2="688.2656"/></g><!--class Password--><g class="entity" data-entity="Password" data-source-line="78" data-uid="ent0042" id="entity_Password"><rect fill="#F1F1F1" height="48" rx="2.5" ry="2.5" style="stroke:#181818;stroke-width:0.5;" width="98.2676" x="410" y="842"/><ellipse cx="425" cy="858" fill="#ADD1B2" rx="11" ry="11" style="stroke:#181818;stroke-width:1;"/><path d="M427.9688,863.6406 Q427.3906,863.9375 426.75,864.0781 Q426.1094,864.2344 425.4063,864.2344 Q422.9063,864.2344 421.5781,862.5938 Q420.2656,860.9375 420.2656,857.8125 Q420.2656,854.6875 421.5781,853.0313 Q422.9063,851.375 425.4063,851.375 Q426.1094,851.375 426.75,851.5313 Q427.4063,851.6875 427.9688,851.9844 L427.9688,854.7031 Q427.3438,854.125 426.75,853.8594 Q426.1563,853.5781 425.5313,853.5781 Q424.1875,853.5781 423.5,854.6563 Q422.8125,855.7188 422.8125,857.8125 Q422.8125,859.9063 423.5,860.9844 Q424.1875,862.0469 425.5313,862.0469 Q426.1563,862.0469 426.75,861.7813 Q427.3438,861.5 427.9688,860.9219 L427.9688,863.6406 Z " fill="#000000"/><text fill="#000000" font-family="sans-serif" font-size="14" lengthAdjust="spacing" textLength="66.2676" x="439" y="862.8467">Password</text><line style="stroke:#181818;stroke-width:0.5;" x1="411" x2="507.2676" y1="874" y2="874"/><line style="stroke:#181818;stroke-width:0.5;" x1="411" x2="507.2676" y1="882" y2="882"/></g><!--link Post to Tags--><g class="link" data-entity-1="Post" data-entity-2="Tags" data-source-line="21" data-uid="lnk12" id="link_Post_Tags"><path codeLine="21" d="M1131.75,430.02 C1119.57,448.06 1103.6,471.7 1091.38,489.78" fill="none" id="Post-Tags" style="stroke:#181818;stroke-width:1;"/></g><!--link Tags to HashTag--><g class="link" data-entity-1="Tags" data-entity-2="HashTag" data-source-line="22" data-uid="lnk13" id="link_Tags_HashTag"><path codeLine="22" d="M1073,546.15 C1073,572.77 1073,607.13 1073,633.78" fill="none" id="Tags-to-HashTag" style="stroke:#181818;stroke-width:1;"/><polygon fill="#181818" points="1073,639.78,1077,630.78,1073,634.78,1069,630.78,1073,639.78" style="stroke:#181818;stroke-width:1;"/><text fill="#000000" font-family="sans-serif" font-size="13" lengthAdjust="spacing" textLength="8.271" x="1064.1533" y="566.4456">1</text><text fill="#000000" font-family="sans-serif" font-size="13" lengthAdjust="spacing" textLength="9.7246" x="1063.063" y="629.0186">N</text></g><!--link Post to Likes--><g class="link" data-entity-1="Post" data-entity-2="Likes" data-source-line="28" data-uid="lnk16" id="link_Post_Likes"><path codeLine="28" d="M1168.48,430.02 C1180.83,448.06 1197.01,471.7 1209.38,489.78" fill="none" id="Post-Likes" style="stroke:#181818;stroke-width:1;"/></g><!--link Likes to PostLike--><g class="link" data-entity-1="Likes" data-entity-2="PostLike" data-source-line="29" data-uid="lnk17" id="link_Likes_PostLike"><path codeLine="29" d="M1229.28,546.15 C1230.54,572.77 1232.1666,607.1367 1233.4266,633.7867" fill="none" id="Likes-to-PostLike" style="stroke:#181818;stroke-width:1;"/><polygon fill="#181818" points="1233.71,639.78,1237.2805,630.6011,1233.4739,634.7856,1229.2894,630.9789,1233.71,639.78" style="stroke:#181818;stroke-width:1;"/><text fill="#000000" font-family="sans-serif" font-size="13" lengthAdjust="spacing" textLength="8.271" x="1220.7293" y="566.4456">1</text><text fill="#000000" font-family="sans-serif" font-size="13" lengthAdjust="spacing" textLength="9.7246" x="1223.5007" y="629.0186">N</text></g><!--link GuestPost to Post--><g class="link" data-entity-1="GuestPost" data-entity-2="Post" data-source-line="46" data-uid="lnk24" id="link_GuestPost_Post"><path codeLine="46" d="M1096.26,299.04 C1107.86,321.06 1115.7646,336.0678 1127.3646,358.0678" fill="none" id="GuestPost-to-Post" style="stroke:#181818;stroke-width:1;"/><polygon fill="none" points="1135.76,373.99,1132.672,355.2693,1122.0572,360.8662,1135.76,373.99" style="stroke:#181818;stroke-width:1;"/></g><!--link MemberPost to Post--><g class="link" data-entity-1="MemberPost" data-entity-2="Post" data-source-line="47" data-uid="lnk25" id="link_MemberPost_Post"><path codeLine="47" d="M1211.65,299.04 C1198.34,321.06 1188.9575,336.5892 1175.6475,358.5892" fill="none" id="MemberPost-to-Post" style="stroke:#181818;stroke-width:1;"/><polygon fill="none" points="1166.33,373.99,1180.7811,361.695,1170.5139,355.4834,1166.33,373.99" style="stroke:#181818;stroke-width:1;"/></g><!--link GuestComment to Comment--><g class="link" data-entity-1="GuestComment" data-entity-2="Comment" data-source-line="48" data-uid="lnk26" id="link_GuestComment_Comment"><path codeLine="48" d="M734.95,183.02 C763.06,201.12 784.7968,215.1239 812.9168,233.2339" fill="none" id="GuestComment-to-Comment" style="stroke:#181818;stroke-width:1;"/><polygon fill="none" points="828.05,242.98,816.1656,228.1895,809.6681,238.2782,828.05,242.98" style="stroke:#181818;stroke-width:1;"/></g><!--link MemberComment to Comment--><g class="link" data-entity-1="MemberComment" data-entity-2="Comment" data-source-line="49" data-uid="lnk27" id="link_MemberComment_Comment"><path codeLine="49" d="M876.1,183.02 C874.84,201.06 874.4413,206.7442 873.1713,224.8242" fill="none" id="MemberComment-to-Comment" style="stroke:#181818;stroke-width:1;"/><polygon fill="none" points="871.91,242.78,879.1565,225.2447,867.186,224.4038,871.91,242.78" style="stroke:#181818;stroke-width:1;"/></g><!--link Member to NickName--><g class="link" data-entity-1="Member" data-entity-2="NickName" data-source-line="61" data-uid="lnk33" id="link_Member_NickName"><path codeLine="61" d="M1381.48,894.02 C1360.43,912.06 1332.85,935.7 1311.75,953.78" fill="none" id="Member-NickName" style="stroke:#181818;stroke-width:1;"/></g><!--link Member to BirthYear--><g class="link" data-entity-1="Member" data-entity-2="BirthYear" data-source-line="62" data-uid="lnk34" id="link_Member_BirthYear"><path codeLine="62" d="M1418.21,894.02 C1421.7,912.06 1426.26,935.7 1429.75,953.78" fill="none" id="Member-BirthYear" style="stroke:#181818;stroke-width:1;"/></g><!--link AuthCredential to Email--><g class="link" data-entity-1="AuthCredential" data-entity-2="Email" data-source-line="77" data-uid="lnk41" id="link_AuthCredential_Email"><path codeLine="77" d="M430.23,696.27 C419.11,712.46 404.73,733.39 392,752 C372.03,781.19 349.22,814.68 333.64,837.58" fill="none" id="AuthCredential-Email" style="stroke:#181818;stroke-width:1;"/></g><!--link AuthCredential to Password--><g class="link" data-entity-1="AuthCredential" data-entity-2="Password" data-source-line="78" data-uid="lnk43" id="link_AuthCredential_Password"><path codeLine="78" d="M450.39,696.25 C452.37,735.07 455.97,805.58 457.82,841.95" fill="none" id="AuthCredential-Password" style="stroke:#181818;stroke-width:1;"/></g><!--reverse link Board to UserBoardRole--><g class="link" data-entity-1="Board" data-entity-2="UserBoardRole" data-source-line="83" data-uid="lnk44" id="link_Board_UserBoardRole"><path codeLine="83" d="M1413,305.04 C1413,327.06 1413,351.99 1413,373.99" fill="none" id="Board-backto-UserBoardRole" style="stroke:#181818;stroke-width:1;stroke-dasharray:7.0,7.0;"/><polygon fill="#181818" points="1413,299.04,1409,308.04,1413,304.04,1417,308.04,1413,299.04" style="stroke:#181818;stroke-width:1;"/></g><!--reverse link Board to Post--><g class="link" data-entity-1="Board" data-entity-2="Post" data-source-line="84" data-uid="lnk45" id="link_Board_Post"><path codeLine="84" d="M1352.4832,301.6824 C1307.5932,323.7024 1249.93,351.99 1205.06,373.99" fill="none" id="Board-backto-Post" style="stroke:#181818;stroke-width:1;stroke-dasharray:7.0,7.0;"/><polygon fill="#181818" points="1357.87,299.04,1348.0282,299.4124,1353.381,301.242,1351.5514,306.5948,1357.87,299.04" style="stroke:#181818;stroke-width:1;"/></g><!--link AuthCredential to Member--><g class="link" data-entity-1="AuthCredential" data-entity-2="Member" data-source-line="86" data-uid="lnk46" id="link_AuthCredential_Member"><path codeLine="86" d="M517.56,682.94 C694.88,718.99 1161.2903,813.8245 1338.5903,849.8745" fill="none" id="AuthCredential-to-Member" style="stroke:#181818;stroke-width:1;stroke-dasharray:7.0,7.0;"/><polygon fill="#181818" points="1344.47,851.07,1336.4475,845.3569,1339.5703,850.0737,1334.8535,853.1965,1344.47,851.07" style="stroke:#181818;stroke-width:1;"/></g><!--link UserBoardRole to Member--><g class="link" data-entity-1="UserBoardRole" data-entity-2="Member" data-source-line="87" data-uid="lnk47" id="link_UserBoardRole_Member"><path codeLine="87" d="M1413,430.18 C1413,512.09 1413,749.99 1413,831.86" fill="none" id="UserBoardRole-to-Member" style="stroke:#181818;stroke-width:1;stroke-dasharray:7.0,7.0;"/><polygon fill="#181818" points="1413,837.86,1417,828.86,1413,832.86,1409,828.86,1413,837.86" style="stroke:#181818;stroke-width:1;"/></g><!--link MemberPost to Member--><g class="link" data-entity-1="MemberPost" data-entity-2="Member" data-source-line="88" data-uid="lnk48" id="link_MemberPost_Member"><path codeLine="88" d="M1271.18,299.09 C1288.23,308.41 1308.41,317.8 1328,323 C1346.28,327.85 1484.95,317.32 1498,331 C1568.55,404.95 1459.5893,733.7929 1424.8493,832.0929" fill="none" id="MemberPost-to-Member" style="stroke:#181818;stroke-width:1;stroke-dasharray:7.0,7.0;"/><polygon fill="#181818" points="1422.85,837.75,1429.6203,830.5972,1424.5161,833.0357,1422.0775,827.9315,1422.85,837.75" style="stroke:#181818;stroke-width:1;"/></g><!--link PostLike to Member--><g class="link" data-entity-1="PostLike" data-entity-2="Member" data-source-line="89" data-uid="lnk49" id="link_PostLike_Member"><path codeLine="89" d="M1259.75,696.25 C1293.76,733.7 1350.5263,796.2082 1384.4263,833.5382" fill="none" id="PostLike-to-Member" style="stroke:#181818;stroke-width:1;stroke-dasharray:7.0,7.0;"/><polygon fill="#181818" points="1388.46,837.98,1385.3707,828.6282,1385.0986,834.2785,1379.4483,834.0064,1388.46,837.98" style="stroke:#181818;stroke-width:1;"/></g><!--link MemberComment to Member--><g class="link" data-entity-1="MemberComment" data-entity-2="Member" data-source-line="90" data-uid="lnk50" id="link_MemberComment_Member"><path codeLine="90" d="M957.15,156.62 C1114.9,158.56 1456.95,166.62 1498,200 C1570.05,258.58 1555,308.14 1555,401 C1555,401 1555,401 1555,519 C1555,646.27 1475.1741,776.5361 1436.1541,832.9261" fill="none" id="MemberComment-to-Member" style="stroke:#181818;stroke-width:1;stroke-dasharray:7.0,7.0;"/><polygon fill="#181818" points="1432.74,837.86,1441.1505,832.7352,1435.5851,833.7484,1434.5719,828.183,1432.74,837.86" style="stroke:#181818;stroke-width:1;"/></g><!--link Comment to Post--><g class="link" data-entity-1="Comment" data-entity-2="Post" data-source-line="91" data-uid="lnk51" id="link_Comment_Post"><path codeLine="91" d="M928.7,299.04 C976.48,321.06 1038.1602,349.4801 1085.9302,371.4801" fill="none" id="Comment-to-Post" style="stroke:#181818;stroke-width:1;stroke-dasharray:7.0,7.0;"/><polygon fill="#181818" points="1091.38,373.99,1084.8785,366.592,1086.8385,371.8984,1081.532,373.8584,1091.38,373.99" style="stroke:#181818;stroke-width:1;"/></g><!--link Comment to Comment--><g class="link" data-entity-1="Comment" data-entity-2="Comment" data-source-line="92" data-uid="lnk52" id="link_Comment_Comment"><path codeLine="92" d="M938.68,249.33 C958.34,250.18 973.5,257.41 973.5,271 C973.5,284.59 964.3344,291.5608 944.6744,292.4108" fill="none" id="Comment-to-Comment" style="stroke:#181818;stroke-width:1;"/><polygon fill="#181818" points="938.68,292.67,947.8444,296.2775,943.6753,292.454,947.4988,288.285,938.68,292.67" style="stroke:#181818;stroke-width:1;"/></g><!--SRC=[dLN1JeD04Btp5HikdcZYlI5fcqPDR6qQDV4ufHkAXKAM9Mgq9xtrQY_6azzWejzasdzmMHQw2vGMkBJicpSxRtRU4e0r1niZtV8N53zIv46WesSDiIT8iOaFP8f4X9w0nG09Y1-OX9I0HL6NizljZcqJR0F5QEpxr3JLyAMs-rVS8F13kY__Y64rqiUFvK8OehC8XrImBxp0xSMhnn07s9jWKezvibr_RrQVszVFlvzV1S4Bwj0dT0xXx1fibh7F5whJCUqHqyu88MFSWXjXT3MvnzO1vRnem-141U2Pz5ETWIRIXtfQZofYyxNQhDys7-zb2kBSbyuSrvCGCvffu4m5INB9AjAQAgVByZsFQTWtOBq4RZvZkmGDngmMkKnT56B2FJZsNRnFuuqSrCoiEpiPnel9EvzXacEAeD8Z3ekN7BqqH9Ego2HxFBxgnaeYb6valKXsEz04-S3490yTQpu43rSESmclwn0wkyD0ZYQA2fa7qZrBmIonfYR9jmiYEgjgLeVXwKUXqAqOx14yZIy1S6kQH7IWxu7Z7hm3ofZnkDQxFGHn00kcZTJZvhIo5lFA3yICc6KVV38jdWB_5T_7LairOGxZZj5ADcYrJ77a75MDd0Cb6-QGxEukPQJEou7oSkRedKibaox_0G00]--></g></svg>