<svg xmlns="http://www.w3.org/2000/svg" xmlns:xlink="http://www.w3.org/1999/xlink" contentStyleType="text/css" data-diagram-type="CLASS" height="907px" preserveAspectRatio="none" style="width:1406px;height:907px;background:#FFFFFF;" version="1.1" viewBox="0 0 1406 907" width="1406px" zoomAndPan="magnify"><defs/><g><!--cluster context map--><g class="cluster" data-entity="context map" data-source-line="2" data-uid="ent0002" id="cluster_context map"><path d="M8.5,6 L108.2246,6 A3.75,3.75 0 0 1 110.7246,8.5 L117.7246,28.2969 L1396.5,28.2969 A2.5,2.5 0 0 1 1399,30.7969 L1399,897.5 A2.5,2.5 0 0 1 1396.5,900 L8.5,900 A2.5,2.5 0 0 1 6,897.5 L6,8.5 A2.5,2.5 0 0 1 8.5,6" fill="none" style="stroke:#000000;stroke-width:1.5;"/><line style="stroke:#000000;stroke-width:1.5;" x1="6" x2="117.7246" y1="28.2969" y2="28.2969"/><text fill="#000000" font-family="sans-serif" font-size="14" font-weight="bold" lengthAdjust="spacing" textLength="98.7246" x="10" y="20.9951">context map</text></g><!--cluster board context--><g class="cluster" data-entity="board context" data-source-line="3" data-uid="ent0003" id="cluster_board context"><path d="M411.5,49 L523.1807,49 A3.75,3.75 0 0 1 525.6807,51.5 L532.6807,71.2969 L1346.5,71.2969 A2.5,2.5 0 0 1 1349,73.7969 L1349,718.5 A2.5,2.5 0 0 1 1346.5,721 L411.5,721 A2.5,2.5 0 0 1 409,718.5 L409,51.5 A2.5,2.5 0 0 1 411.5,49" fill="none" style="stroke:#000000;stroke-width:1.5;"/><line style="stroke:#000000;stroke-width:1.5;" x1="409" x2="532.6807" y1="71.2969" y2="71.2969"/><text fill="#000000" font-family="sans-serif" font-size="14" font-weight="bold" lengthAdjust="spacing" textLength="110.6807" x="413" y="63.9951">board context</text></g><!--cluster board--><g class="cluster" data-entity="board" data-source-line="4" data-uid="ent0004" id="cluster_board"><path d="M826.5,208 L873.5127,208 A3.75,3.75 0 0 1 876.0127,210.5 L883.0127,230.2969 L991.5,230.2969 A2.5,2.5 0 0 1 994,232.7969 L994,312.5 A2.5,2.5 0 0 1 991.5,315 L826.5,315 A2.5,2.5 0 0 1 824,312.5 L824,210.5 A2.5,2.5 0 0 1 826.5,208" fill="none" style="stroke:#000000;stroke-width:1.5;"/><line style="stroke:#000000;stroke-width:1.5;" x1="824" x2="883.0127" y1="230.2969" y2="230.2969"/><text fill="#000000" font-family="sans-serif" font-size="14" font-weight="bold" lengthAdjust="spacing" textLength="46.0127" x="828" y="222.9951">board</text></g><!--cluster post--><g class="cluster" data-entity="post" data-source-line="9" data-uid="ent0006" id="cluster_post"><path d="M1020.5,208 L1056.165,208 A3.75,3.75 0 0 1 1058.665,210.5 L1065.665,230.2969 L1322.5,230.2969 A2.5,2.5 0 0 1 1325,232.7969 L1325,694.5 A2.5,2.5 0 0 1 1322.5,697 L1020.5,697 A2.5,2.5 0 0 1 1018,694.5 L1018,210.5 A2.5,2.5 0 0 1 1020.5,208" fill="none" style="stroke:#000000;stroke-width:1.5;"/><line style="stroke:#000000;stroke-width:1.5;" x1="1018" x2="1065.665" y1="230.2969" y2="230.2969"/><text fill="#000000" font-family="sans-serif" font-size="14" font-weight="bold" lengthAdjust="spacing" textLength="34.665" x="1022" y="222.9951">post</text></g><!--cluster comment--><g class="cluster" data-entity="comment" data-source-line="32" data-uid="ent0018" id="cluster_comment"><path d="M435.5,92 L509.7471,92 A3.75,3.75 0 0 1 512.2471,94.5 L519.2471,114.2969 L797.5,114.2969 A2.5,2.5 0 0 1 800,116.7969 L800,312.5 A2.5,2.5 0 0 1 797.5,315 L435.5,315 A2.5,2.5 0 0 1 433,312.5 L433,94.5 A2.5,2.5 0 0 1 435.5,92" fill="none" style="stroke:#000000;stroke-width:1.5;"/><line style="stroke:#000000;stroke-width:1.5;" x1="433" x2="519.2471" y1="114.2969" y2="114.2969"/><text fill="#000000" font-family="sans-serif" font-size="14" font-weight="bold" lengthAdjust="spacing" textLength="73.2471" x="437" y="106.9951">comment</text></g><!--cluster member context--><g class="cluster" data-entity="member context" data-source-line="48" data-uid="ent0026" id="cluster_member context"><path d="M1193.5,745 L1324.2598,745 A3.75,3.75 0 0 1 1326.7598,747.5 L1333.7598,767.2969 L1358.5,767.2969 A2.5,2.5 0 0 1 1361,769.7969 L1361,849.5 A2.5,2.5 0 0 1 1358.5,852 L1193.5,852 A2.5,2.5 0 0 1 1191,849.5 L1191,747.5 A2.5,2.5 0 0 1 1193.5,745" fill="none" style="stroke:#000000;stroke-width:1.5;"/><line style="stroke:#000000;stroke-width:1.5;" x1="1191" x2="1333.7598" y1="767.2969" y2="767.2969"/><text fill="#000000" font-family="sans-serif" font-size="14" font-weight="bold" lengthAdjust="spacing" textLength="129.7598" x="1195" y="759.9951">member context</text></g><!--cluster board manager context--><g class="cluster" data-entity="board manager context" data-source-line="53" data-uid="ent0028" id="cluster_board manager context"><path d="M32.5,431 L218.9248,431 A3.75,3.75 0 0 1 221.4248,433.5 L228.4248,453.2969 L382.5,453.2969 A2.5,2.5 0 0 1 385,455.7969 L385,873.5 A2.5,2.5 0 0 1 382.5,876 L32.5,876 A2.5,2.5 0 0 1 30,873.5 L30,433.5 A2.5,2.5 0 0 1 32.5,431" fill="none" style="stroke:#000000;stroke-width:1.5;"/><line style="stroke:#000000;stroke-width:1.5;" x1="30" x2="228.4248" y1="453.2969" y2="453.2969"/><text fill="#000000" font-family="sans-serif" font-size="14" font-weight="bold" lengthAdjust="spacing" textLength="185.4248" x="34" y="445.9951">board manager context</text></g><!--cluster board manager--><g class="cluster" data-entity="board manager" data-source-line="54" data-uid="ent0029" id="cluster_board manager"><path d="M56.5,474 L178.2568,474 A3.75,3.75 0 0 1 180.7568,476.5 L187.7568,496.2969 L358.5,496.2969 A2.5,2.5 0 0 1 361,498.7969 L361,849.5 A2.5,2.5 0 0 1 358.5,852 L56.5,852 A2.5,2.5 0 0 1 54,849.5 L54,476.5 A2.5,2.5 0 0 1 56.5,474" fill="none" style="stroke:#000000;stroke-width:1.5;"/><line style="stroke:#000000;stroke-width:1.5;" x1="54" x2="187.7568" y1="496.2969" y2="496.2969"/><text fill="#000000" font-family="sans-serif" font-size="14" font-weight="bold" lengthAdjust="spacing" textLength="120.7568" x="58" y="488.9951">board manager</text></g><!--class Board--><g class="entity" data-entity="Board" data-source-line="5" data-uid="ent0005" id="entity_Board"><rect fill="#F1F1F1" height="56.2656" rx="2.5" ry="2.5" style="stroke:#181818;stroke-width:0.5;" width="137.1719" x="840.5" y="243"/><ellipse cx="855.5" cy="263.1328" fill="#ADD1B2" rx="11" ry="11" style="stroke:#181818;stroke-width:1;"/><path d="M859.6094,269.1328 L851.8906,269.1328 L851.8906,256.7422 L859.6094,256.7422 L859.6094,258.8984 L854.3438,258.8984 L854.3438,261.5703 L859.1094,261.5703 L859.1094,263.7266 L854.3438,263.7266 L854.3438,266.9766 L859.6094,266.9766 L859.6094,269.1328 Z " fill="#000000"/><text fill="#000000" font-family="sans-serif" font-size="12" font-style="italic" lengthAdjust="spacing" textLength="109.1719" x="867.5" y="259.1387">&#171;Aggregate Root&#187;</text><text fill="#000000" font-family="sans-serif" font-size="14" lengthAdjust="spacing" textLength="41.3916" x="901.3901" y="274.9639">Board</text><line style="stroke:#181818;stroke-width:0.5;" x1="841.5" x2="976.6719" y1="283.2656" y2="283.2656"/><line style="stroke:#181818;stroke-width:0.5;" x1="841.5" x2="976.6719" y1="291.2656" y2="291.2656"/></g><!--class Post--><g class="entity" data-entity="Post" data-source-line="10" data-uid="ent0007" id="entity_Post"><rect fill="#F1F1F1" height="56.2656" rx="2.5" ry="2.5" style="stroke:#181818;stroke-width:0.5;" width="137.1719" x="1034.5" y="359"/><ellipse cx="1049.5" cy="379.1328" fill="#A9DCDF" rx="11" ry="11" style="stroke:#181818;stroke-width:1;"/><path d="M1049.6094,374.4766 L1048.4531,379.5547 L1050.7813,379.5547 L1049.6094,374.4766 Z M1048.125,372.2422 L1051.1094,372.2422 L1054.4688,384.6328 L1052.0156,384.6328 L1051.25,381.5703 L1047.9688,381.5703 L1047.2188,384.6328 L1044.7813,384.6328 L1048.125,372.2422 Z " fill="#000000"/><text fill="#000000" font-family="sans-serif" font-size="12" font-style="italic" lengthAdjust="spacing" textLength="109.1719" x="1061.5" y="375.1387">&#171;Aggregate Root&#187;</text><text fill="#000000" font-family="sans-serif" font-size="14" font-style="italic" lengthAdjust="spacing" textLength="29.791" x="1101.1904" y="390.9639">Post</text><line style="stroke:#181818;stroke-width:0.5;" x1="1035.5" x2="1170.6719" y1="399.2656" y2="399.2656"/><line style="stroke:#181818;stroke-width:0.5;" x1="1035.5" x2="1170.6719" y1="407.2656" y2="407.2656"/></g><!--class GuestPost--><g class="entity" data-entity="GuestPost" data-source-line="12" data-uid="ent0008" id="entity_GuestPost"><rect fill="#F1F1F1" height="56.2656" rx="2.5" ry="2.5" style="stroke:#181818;stroke-width:0.5;" width="102.9092" x="1051.5" y="243"/><ellipse cx="1066.5" cy="263.1328" fill="#ADD1B2" rx="11" ry="11" style="stroke:#181818;stroke-width:1;"/><path d="M1069.4688,268.7734 Q1068.8906,269.0703 1068.25,269.2109 Q1067.6094,269.3672 1066.9063,269.3672 Q1064.4063,269.3672 1063.0781,267.7266 Q1061.7656,266.0703 1061.7656,262.9453 Q1061.7656,259.8203 1063.0781,258.1641 Q1064.4063,256.5078 1066.9063,256.5078 Q1067.6094,256.5078 1068.25,256.6641 Q1068.9063,256.8203 1069.4688,257.1172 L1069.4688,259.8359 Q1068.8438,259.2578 1068.25,258.9922 Q1067.6563,258.7109 1067.0313,258.7109 Q1065.6875,258.7109 1065,259.7891 Q1064.3125,260.8516 1064.3125,262.9453 Q1064.3125,265.0391 1065,266.1172 Q1065.6875,267.1797 1067.0313,267.1797 Q1067.6563,267.1797 1068.25,266.9141 Q1068.8438,266.6328 1069.4688,266.0547 L1069.4688,268.7734 Z " fill="#000000"/><text fill="#000000" font-family="sans-serif" font-size="12" font-style="italic" lengthAdjust="spacing" textLength="72.5625" x="1079.6733" y="259.1387">&#171;ImplClass&#187;</text><text fill="#000000" font-family="sans-serif" font-size="14" lengthAdjust="spacing" textLength="70.9092" x="1080.5" y="274.9639">GuestPost</text><line style="stroke:#181818;stroke-width:0.5;" x1="1052.5" x2="1153.4092" y1="283.2656" y2="283.2656"/><line style="stroke:#181818;stroke-width:0.5;" x1="1052.5" x2="1153.4092" y1="291.2656" y2="291.2656"/></g><!--class MemberPost--><g class="entity" data-entity="MemberPost" data-source-line="14" data-uid="ent0009" id="entity_MemberPost"><rect fill="#F1F1F1" height="56.2656" rx="2.5" ry="2.5" style="stroke:#181818;stroke-width:0.5;" width="119.377" x="1189.5" y="243"/><ellipse cx="1204.5" cy="263.1328" fill="#ADD1B2" rx="11" ry="11" style="stroke:#181818;stroke-width:1;"/><path d="M1207.4688,268.7734 Q1206.8906,269.0703 1206.25,269.2109 Q1205.6094,269.3672 1204.9063,269.3672 Q1202.4063,269.3672 1201.0781,267.7266 Q1199.7656,266.0703 1199.7656,262.9453 Q1199.7656,259.8203 1201.0781,258.1641 Q1202.4063,256.5078 1204.9063,256.5078 Q1205.6094,256.5078 1206.25,256.6641 Q1206.9063,256.8203 1207.4688,257.1172 L1207.4688,259.8359 Q1206.8438,259.2578 1206.25,258.9922 Q1205.6563,258.7109 1205.0313,258.7109 Q1203.6875,258.7109 1203,259.7891 Q1202.3125,260.8516 1202.3125,262.9453 Q1202.3125,265.0391 1203,266.1172 Q1203.6875,267.1797 1205.0313,267.1797 Q1205.6563,267.1797 1206.25,266.9141 Q1206.8438,266.6328 1207.4688,266.0547 L1207.4688,268.7734 Z " fill="#000000"/><text fill="#000000" font-family="sans-serif" font-size="12" font-style="italic" lengthAdjust="spacing" textLength="72.5625" x="1225.9072" y="259.1387">&#171;ImplClass&#187;</text><text fill="#000000" font-family="sans-serif" font-size="14" lengthAdjust="spacing" textLength="87.377" x="1218.5" y="274.9639">MemberPost</text><line style="stroke:#181818;stroke-width:0.5;" x1="1190.5" x2="1307.877" y1="283.2656" y2="283.2656"/><line style="stroke:#181818;stroke-width:0.5;" x1="1190.5" x2="1307.877" y1="291.2656" y2="291.2656"/></g><!--class HashTag--><g class="entity" data-entity="HashTag" data-source-line="17" data-uid="ent0010" id="entity_HashTag"><rect fill="#F1F1F1" height="56.2656" rx="2.5" ry="2.5" style="stroke:#181818;stroke-width:0.5;" width="93.291" x="1047.5" y="625"/><ellipse cx="1062.5" cy="645.1328" fill="#ADD1B2" rx="11" ry="11" style="stroke:#181818;stroke-width:1;"/><path d="M1066.6094,651.1328 L1058.8906,651.1328 L1058.8906,638.7422 L1066.6094,638.7422 L1066.6094,640.8984 L1061.3438,640.8984 L1061.3438,643.5703 L1066.1094,643.5703 L1066.1094,645.7266 L1061.3438,645.7266 L1061.3438,648.9766 L1066.6094,648.9766 L1066.6094,651.1328 Z " fill="#000000"/><text fill="#000000" font-family="sans-serif" font-size="12" font-style="italic" lengthAdjust="spacing" textLength="49.8457" x="1082.2227" y="641.1387">&#171;Entity&#187;</text><text fill="#000000" font-family="sans-serif" font-size="14" lengthAdjust="spacing" textLength="61.291" x="1076.5" y="656.9639">HashTag</text><line style="stroke:#181818;stroke-width:0.5;" x1="1048.5" x2="1139.791" y1="665.2656" y2="665.2656"/><line style="stroke:#181818;stroke-width:0.5;" x1="1048.5" x2="1139.791" y1="673.2656" y2="673.2656"/></g><!--class Tags--><g class="entity" data-entity="Tags" data-source-line="19" data-uid="ent0011" id="entity_Tags"><rect fill="#F1F1F1" height="56.2656" rx="2.5" ry="2.5" style="stroke:#181818;stroke-width:0.5;" width="119.5938" x="1034" y="509"/><ellipse cx="1049" cy="529.1328" fill="#F1F1F1" rx="11" ry="11" style="stroke:#181818;stroke-width:1;"/><path d="M1048.4844,529.6953 Q1046.625,528.9922 1045.9688,528.2266 Q1045.3281,527.4453 1045.3281,526.1328 Q1045.3281,524.4453 1046.4063,523.4766 Q1047.4844,522.5078 1049.3594,522.5078 Q1050.2188,522.5078 1051.0625,522.7109 Q1051.9219,522.8984 1052.7656,523.2891 L1052.7656,525.6797 Q1051.9844,525.1172 1051.1563,524.8359 Q1050.3438,524.5391 1049.5469,524.5391 Q1048.6719,524.5391 1048.1875,524.8984 Q1047.7188,525.2578 1047.7188,525.9141 Q1047.7188,526.4297 1048.0625,526.7734 Q1048.4063,527.1016 1049.5,527.5078 L1050.5625,527.9141 Q1052.0469,528.4609 1052.75,529.3672 Q1053.4688,530.2734 1053.4688,531.6484 Q1053.4688,533.5234 1052.3594,534.4453 Q1051.25,535.3672 1049,535.3672 Q1048.0781,535.3672 1047.1563,535.1484 Q1046.2344,534.9297 1045.375,534.5078 L1045.375,531.9766 Q1046.3438,532.6641 1047.2656,533.0078 Q1048.1875,533.3516 1049.0781,533.3516 Q1049.9844,533.3516 1050.4844,532.9453 Q1050.9844,532.5234 1050.9844,531.7891 Q1050.9844,531.2266 1050.6406,530.8203 Q1050.3125,530.3984 1049.6875,530.1484 L1048.4844,529.6953 Z " fill="#000000"/><text fill="#000000" font-family="sans-serif" font-size="12" font-style="italic" lengthAdjust="spacing" textLength="91.5938" x="1061" y="525.1387">&#171;Value Object&#187;</text><text fill="#000000" font-family="sans-serif" font-size="14" lengthAdjust="spacing" textLength="33.3115" x="1090.1411" y="540.9639">Tags</text><line style="stroke:#181818;stroke-width:0.5;" x1="1035" x2="1152.5938" y1="549.2656" y2="549.2656"/><line style="stroke:#181818;stroke-width:0.5;" x1="1035" x2="1152.5938" y1="557.2656" y2="557.2656"/></g><!--class PostLike--><g class="entity" data-entity="PostLike" data-source-line="24" data-uid="ent0014" id="entity_PostLike"><rect fill="#F1F1F1" height="56.2656" rx="2.5" ry="2.5" style="stroke:#181818;stroke-width:0.5;" width="90.2012" x="1211" y="625"/><ellipse cx="1226" cy="645.1328" fill="#ADD1B2" rx="11" ry="11" style="stroke:#181818;stroke-width:1;"/><path d="M1230.1094,651.1328 L1222.3906,651.1328 L1222.3906,638.7422 L1230.1094,638.7422 L1230.1094,640.8984 L1224.8438,640.8984 L1224.8438,643.5703 L1229.6094,643.5703 L1229.6094,645.7266 L1224.8438,645.7266 L1224.8438,648.9766 L1230.1094,648.9766 L1230.1094,651.1328 Z " fill="#000000"/><text fill="#000000" font-family="sans-serif" font-size="12" font-style="italic" lengthAdjust="spacing" textLength="49.8457" x="1244.1777" y="641.1387">&#171;Entity&#187;</text><text fill="#000000" font-family="sans-serif" font-size="14" lengthAdjust="spacing" textLength="58.2012" x="1240" y="656.9639">PostLike</text><line style="stroke:#181818;stroke-width:0.5;" x1="1212" x2="1300.2012" y1="665.2656" y2="665.2656"/><line style="stroke:#181818;stroke-width:0.5;" x1="1212" x2="1300.2012" y1="673.2656" y2="673.2656"/></g><!--class Likes--><g class="entity" data-entity="Likes" data-source-line="26" data-uid="ent0015" id="entity_Likes"><rect fill="#F1F1F1" height="56.2656" rx="2.5" ry="2.5" style="stroke:#181818;stroke-width:0.5;" width="119.5938" x="1189" y="509"/><ellipse cx="1204" cy="529.1328" fill="#F1F1F1" rx="11" ry="11" style="stroke:#181818;stroke-width:1;"/><path d="M1203.4844,529.6953 Q1201.625,528.9922 1200.9688,528.2266 Q1200.3281,527.4453 1200.3281,526.1328 Q1200.3281,524.4453 1201.4063,523.4766 Q1202.4844,522.5078 1204.3594,522.5078 Q1205.2188,522.5078 1206.0625,522.7109 Q1206.9219,522.8984 1207.7656,523.2891 L1207.7656,525.6797 Q1206.9844,525.1172 1206.1563,524.8359 Q1205.3438,524.5391 1204.5469,524.5391 Q1203.6719,524.5391 1203.1875,524.8984 Q1202.7188,525.2578 1202.7188,525.9141 Q1202.7188,526.4297 1203.0625,526.7734 Q1203.4063,527.1016 1204.5,527.5078 L1205.5625,527.9141 Q1207.0469,528.4609 1207.75,529.3672 Q1208.4688,530.2734 1208.4688,531.6484 Q1208.4688,533.5234 1207.3594,534.4453 Q1206.25,535.3672 1204,535.3672 Q1203.0781,535.3672 1202.1563,535.1484 Q1201.2344,534.9297 1200.375,534.5078 L1200.375,531.9766 Q1201.3438,532.6641 1202.2656,533.0078 Q1203.1875,533.3516 1204.0781,533.3516 Q1204.9844,533.3516 1205.4844,532.9453 Q1205.9844,532.5234 1205.9844,531.7891 Q1205.9844,531.2266 1205.6406,530.8203 Q1205.3125,530.3984 1204.6875,530.1484 L1203.4844,529.6953 Z " fill="#000000"/><text fill="#000000" font-family="sans-serif" font-size="12" font-style="italic" lengthAdjust="spacing" textLength="91.5938" x="1216" y="525.1387">&#171;Value Object&#187;</text><text fill="#000000" font-family="sans-serif" font-size="14" lengthAdjust="spacing" textLength="35.7041" x="1243.9448" y="540.9639">Likes</text><line style="stroke:#181818;stroke-width:0.5;" x1="1190" x2="1307.5938" y1="549.2656" y2="549.2656"/><line style="stroke:#181818;stroke-width:0.5;" x1="1190" x2="1307.5938" y1="557.2656" y2="557.2656"/></g><!--class Comment--><g class="entity" data-entity="Comment" data-source-line="33" data-uid="ent0019" id="entity_Comment"><rect fill="#F1F1F1" height="56.2656" rx="2.5" ry="2.5" style="stroke:#181818;stroke-width:0.5;" width="137.1719" x="628.5" y="243"/><ellipse cx="643.5" cy="263.1328" fill="#A9DCDF" rx="11" ry="11" style="stroke:#181818;stroke-width:1;"/><path d="M643.6094,258.4766 L642.4531,263.5547 L644.7813,263.5547 L643.6094,258.4766 Z M642.125,256.2422 L645.1094,256.2422 L648.4688,268.6328 L646.0156,268.6328 L645.25,265.5703 L641.9688,265.5703 L641.2188,268.6328 L638.7813,268.6328 L642.125,256.2422 Z " fill="#000000"/><text fill="#000000" font-family="sans-serif" font-size="12" font-style="italic" lengthAdjust="spacing" textLength="109.1719" x="655.5" y="259.1387">&#171;Aggregate Root&#187;</text><text fill="#000000" font-family="sans-serif" font-size="14" font-style="italic" lengthAdjust="spacing" textLength="68.5918" x="675.79" y="274.9639">Comment</text><line style="stroke:#181818;stroke-width:0.5;" x1="629.5" x2="764.6719" y1="283.2656" y2="283.2656"/><line style="stroke:#181818;stroke-width:0.5;" x1="629.5" x2="764.6719" y1="291.2656" y2="291.2656"/></g><!--class GuestComment--><g class="entity" data-entity="GuestComment" data-source-line="35" data-uid="ent0020" id="entity_GuestComment"><rect fill="#F1F1F1" height="56.2656" rx="2.5" ry="2.5" style="stroke:#181818;stroke-width:0.5;" width="141.71" x="449" y="127"/><ellipse cx="464" cy="147.1328" fill="#ADD1B2" rx="11" ry="11" style="stroke:#181818;stroke-width:1;"/><path d="M466.9688,152.7734 Q466.3906,153.0703 465.75,153.2109 Q465.1094,153.3672 464.4063,153.3672 Q461.9063,153.3672 460.5781,151.7266 Q459.2656,150.0703 459.2656,146.9453 Q459.2656,143.8203 460.5781,142.1641 Q461.9063,140.5078 464.4063,140.5078 Q465.1094,140.5078 465.75,140.6641 Q466.4063,140.8203 466.9688,141.1172 L466.9688,143.8359 Q466.3438,143.2578 465.75,142.9922 Q465.1563,142.7109 464.5313,142.7109 Q463.1875,142.7109 462.5,143.7891 Q461.8125,144.8516 461.8125,146.9453 Q461.8125,149.0391 462.5,150.1172 Q463.1875,151.1797 464.5313,151.1797 Q465.1563,151.1797 465.75,150.9141 Q466.3438,150.6328 466.9688,150.0547 L466.9688,152.7734 Z " fill="#000000"/><text fill="#000000" font-family="sans-serif" font-size="12" font-style="italic" lengthAdjust="spacing" textLength="72.5625" x="496.5737" y="143.1387">&#171;ImplClass&#187;</text><text fill="#000000" font-family="sans-serif" font-size="14" lengthAdjust="spacing" textLength="109.71" x="478" y="158.9639">GuestComment</text><line style="stroke:#181818;stroke-width:0.5;" x1="450" x2="589.71" y1="167.2656" y2="167.2656"/><line style="stroke:#181818;stroke-width:0.5;" x1="450" x2="589.71" y1="175.2656" y2="175.2656"/></g><!--class MemberComment--><g class="entity" data-entity="MemberComment" data-source-line="37" data-uid="ent0021" id="entity_MemberComment"><rect fill="#F1F1F1" height="56.2656" rx="2.5" ry="2.5" style="stroke:#181818;stroke-width:0.5;" width="158.1777" x="626" y="127"/><ellipse cx="641" cy="147.1328" fill="#ADD1B2" rx="11" ry="11" style="stroke:#181818;stroke-width:1;"/><path d="M643.9688,152.7734 Q643.3906,153.0703 642.75,153.2109 Q642.1094,153.3672 641.4063,153.3672 Q638.9063,153.3672 637.5781,151.7266 Q636.2656,150.0703 636.2656,146.9453 Q636.2656,143.8203 637.5781,142.1641 Q638.9063,140.5078 641.4063,140.5078 Q642.1094,140.5078 642.75,140.6641 Q643.4063,140.8203 643.9688,141.1172 L643.9688,143.8359 Q643.3438,143.2578 642.75,142.9922 Q642.1563,142.7109 641.5313,142.7109 Q640.1875,142.7109 639.5,143.7891 Q638.8125,144.8516 638.8125,146.9453 Q638.8125,149.0391 639.5,150.1172 Q640.1875,151.1797 641.5313,151.1797 Q642.1563,151.1797 642.75,150.9141 Q643.3438,150.6328 643.9688,150.0547 L643.9688,152.7734 Z " fill="#000000"/><text fill="#000000" font-family="sans-serif" font-size="12" font-style="italic" lengthAdjust="spacing" textLength="72.5625" x="681.8076" y="143.1387">&#171;ImplClass&#187;</text><text fill="#000000" font-family="sans-serif" font-size="14" lengthAdjust="spacing" textLength="126.1777" x="655" y="158.9639">MemberComment</text><line style="stroke:#181818;stroke-width:0.5;" x1="627" x2="783.1777" y1="167.2656" y2="167.2656"/><line style="stroke:#181818;stroke-width:0.5;" x1="627" x2="783.1777" y1="175.2656" y2="175.2656"/></g><!--class Member--><g class="entity" data-entity="Member" data-source-line="49" data-uid="ent0027" id="entity_Member"><rect fill="#F1F1F1" height="56.2656" rx="2.5" ry="2.5" style="stroke:#181818;stroke-width:0.5;" width="137.1719" x="1207.5" y="780"/><ellipse cx="1222.5" cy="800.1328" fill="#ADD1B2" rx="11" ry="11" style="stroke:#181818;stroke-width:1;"/><path d="M1226.6094,806.1328 L1218.8906,806.1328 L1218.8906,793.7422 L1226.6094,793.7422 L1226.6094,795.8984 L1221.3438,795.8984 L1221.3438,798.5703 L1226.1094,798.5703 L1226.1094,800.7266 L1221.3438,800.7266 L1221.3438,803.9766 L1226.6094,803.9766 L1226.6094,806.1328 Z " fill="#000000"/><text fill="#000000" font-family="sans-serif" font-size="12" font-style="italic" lengthAdjust="spacing" textLength="109.1719" x="1234.5" y="796.1387">&#171;Aggregate Root&#187;</text><text fill="#000000" font-family="sans-serif" font-size="14" lengthAdjust="spacing" textLength="57.5859" x="1260.293" y="811.9639">Member</text><line style="stroke:#181818;stroke-width:0.5;" x1="1208.5" x2="1343.6719" y1="820.2656" y2="820.2656"/><line style="stroke:#181818;stroke-width:0.5;" x1="1208.5" x2="1343.6719" y1="828.2656" y2="828.2656"/></g><!--class BoardManager--><g class="entity" data-entity="BoardManager" data-source-line="55" data-uid="ent0030" id="entity_BoardManager"><rect fill="#F1F1F1" height="56.2656" rx="2.5" ry="2.5" style="stroke:#181818;stroke-width:0.5;" width="137.1719" x="138.5" y="509"/><ellipse cx="153.5" cy="529.1328" fill="#ADD1B2" rx="11" ry="11" style="stroke:#181818;stroke-width:1;"/><path d="M157.6094,535.1328 L149.8906,535.1328 L149.8906,522.7422 L157.6094,522.7422 L157.6094,524.8984 L152.3438,524.8984 L152.3438,527.5703 L157.1094,527.5703 L157.1094,529.7266 L152.3438,529.7266 L152.3438,532.9766 L157.6094,532.9766 L157.6094,535.1328 Z " fill="#000000"/><text fill="#000000" font-family="sans-serif" font-size="12" font-style="italic" lengthAdjust="spacing" textLength="109.1719" x="165.5" y="525.1387">&#171;Aggregate Root&#187;</text><text fill="#000000" font-family="sans-serif" font-size="14" lengthAdjust="spacing" textLength="102.7578" x="168.707" y="540.9639">BoardManager</text><line style="stroke:#181818;stroke-width:0.5;" x1="139.5" x2="274.6719" y1="549.2656" y2="549.2656"/><line style="stroke:#181818;stroke-width:0.5;" x1="139.5" x2="274.6719" y1="557.2656" y2="557.2656"/></g><!--class Role--><g class="entity" data-entity="Role" data-source-line="57" data-uid="ent0031" id="entity_Role"><rect fill="#F1F1F1" height="56.2656" rx="2.5" ry="2.5" style="stroke:#181818;stroke-width:0.5;" width="77.8457" x="91" y="780"/><ellipse cx="106" cy="800.1328" fill="#ADD1B2" rx="11" ry="11" style="stroke:#181818;stroke-width:1;"/><path d="M110.1094,806.1328 L102.3906,806.1328 L102.3906,793.7422 L110.1094,793.7422 L110.1094,795.8984 L104.8438,795.8984 L104.8438,798.5703 L109.6094,798.5703 L109.6094,800.7266 L104.8438,800.7266 L104.8438,803.9766 L110.1094,803.9766 L110.1094,806.1328 Z " fill="#000000"/><text fill="#000000" font-family="sans-serif" font-size="12" font-style="italic" lengthAdjust="spacing" textLength="49.8457" x="118" y="796.1387">&#171;Entity&#187;</text><text fill="#000000" font-family="sans-serif" font-size="14" lengthAdjust="spacing" textLength="30.7959" x="127.5249" y="811.9639">Role</text><line style="stroke:#181818;stroke-width:0.5;" x1="92" x2="167.8457" y1="820.2656" y2="820.2656"/><line style="stroke:#181818;stroke-width:0.5;" x1="92" x2="167.8457" y1="828.2656" y2="828.2656"/></g><!--class Roles--><g class="entity" data-entity="Roles" data-source-line="59" data-uid="ent0032" id="entity_Roles"><rect fill="#F1F1F1" height="56.2656" rx="2.5" ry="2.5" style="stroke:#181818;stroke-width:0.5;" width="119.5938" x="70" y="625"/><ellipse cx="85" cy="645.1328" fill="#F1F1F1" rx="11" ry="11" style="stroke:#181818;stroke-width:1;"/><path d="M84.4844,645.6953 Q82.625,644.9922 81.9688,644.2266 Q81.3281,643.4453 81.3281,642.1328 Q81.3281,640.4453 82.4063,639.4766 Q83.4844,638.5078 85.3594,638.5078 Q86.2188,638.5078 87.0625,638.7109 Q87.9219,638.8984 88.7656,639.2891 L88.7656,641.6797 Q87.9844,641.1172 87.1563,640.8359 Q86.3438,640.5391 85.5469,640.5391 Q84.6719,640.5391 84.1875,640.8984 Q83.7188,641.2578 83.7188,641.9141 Q83.7188,642.4297 84.0625,642.7734 Q84.4063,643.1016 85.5,643.5078 L86.5625,643.9141 Q88.0469,644.4609 88.75,645.3672 Q89.4688,646.2734 89.4688,647.6484 Q89.4688,649.5234 88.3594,650.4453 Q87.25,651.3672 85,651.3672 Q84.0781,651.3672 83.1563,651.1484 Q82.2344,650.9297 81.375,650.5078 L81.375,647.9766 Q82.3438,648.6641 83.2656,649.0078 Q84.1875,649.3516 85.0781,649.3516 Q85.9844,649.3516 86.4844,648.9453 Q86.9844,648.5234 86.9844,647.7891 Q86.9844,647.2266 86.6406,646.8203 Q86.3125,646.3984 85.6875,646.1484 L84.4844,645.6953 Z " fill="#000000"/><text fill="#000000" font-family="sans-serif" font-size="12" font-style="italic" lengthAdjust="spacing" textLength="91.5938" x="97" y="641.1387">&#171;Value Object&#187;</text><text fill="#000000" font-family="sans-serif" font-size="14" lengthAdjust="spacing" textLength="38.0898" x="123.752" y="656.9639">Roles</text><line style="stroke:#181818;stroke-width:0.5;" x1="71" x2="188.5938" y1="665.2656" y2="665.2656"/><line style="stroke:#181818;stroke-width:0.5;" x1="71" x2="188.5938" y1="673.2656" y2="673.2656"/></g><!--class Managers--><g class="entity" data-entity="Managers" data-source-line="61" data-uid="ent0033" id="entity_Managers"><rect fill="#F1F1F1" height="56.2656" rx="2.5" ry="2.5" style="stroke:#181818;stroke-width:0.5;" width="119.5938" x="225" y="625"/><ellipse cx="240" cy="645.1328" fill="#F1F1F1" rx="11" ry="11" style="stroke:#181818;stroke-width:1;"/><path d="M239.4844,645.6953 Q237.625,644.9922 236.9688,644.2266 Q236.3281,643.4453 236.3281,642.1328 Q236.3281,640.4453 237.4063,639.4766 Q238.4844,638.5078 240.3594,638.5078 Q241.2188,638.5078 242.0625,638.7109 Q242.9219,638.8984 243.7656,639.2891 L243.7656,641.6797 Q242.9844,641.1172 242.1563,640.8359 Q241.3438,640.5391 240.5469,640.5391 Q239.6719,640.5391 239.1875,640.8984 Q238.7188,641.2578 238.7188,641.9141 Q238.7188,642.4297 239.0625,642.7734 Q239.4063,643.1016 240.5,643.5078 L241.5625,643.9141 Q243.0469,644.4609 243.75,645.3672 Q244.4688,646.2734 244.4688,647.6484 Q244.4688,649.5234 243.3594,650.4453 Q242.25,651.3672 240,651.3672 Q239.0781,651.3672 238.1563,651.1484 Q237.2344,650.9297 236.375,650.5078 L236.375,647.9766 Q237.3438,648.6641 238.2656,649.0078 Q239.1875,649.3516 240.0781,649.3516 Q240.9844,649.3516 241.4844,648.9453 Q241.9844,648.5234 241.9844,647.7891 Q241.9844,647.2266 241.6406,646.8203 Q241.3125,646.3984 240.6875,646.1484 L239.4844,645.6953 Z " fill="#000000"/><text fill="#000000" font-family="sans-serif" font-size="12" font-style="italic" lengthAdjust="spacing" textLength="91.5938" x="252" y="641.1387">&#171;Value Object&#187;</text><text fill="#000000" font-family="sans-serif" font-size="14" lengthAdjust="spacing" textLength="68.6602" x="263.4668" y="656.9639">Managers</text><line style="stroke:#181818;stroke-width:0.5;" x1="226" x2="343.5938" y1="665.2656" y2="665.2656"/><line style="stroke:#181818;stroke-width:0.5;" x1="226" x2="343.5938" y1="673.2656" y2="673.2656"/></g><!--link Post to Tags--><g class="link" data-entity-1="Post" data-entity-2="Tags" data-source-line="21" data-uid="lnk12" id="link_Post_Tags"><path codeLine="21" d="M1101.35,415.15 C1099.73,441.77 1097.28,482.13 1095.66,508.78" fill="none" id="Post-Tags" style="stroke:#181818;stroke-width:1;"/></g><!--link Tags to HashTag--><g class="link" data-entity-1="Tags" data-entity-2="HashTag" data-source-line="22" data-uid="lnk13" id="link_Tags_HashTag"><path codeLine="22" d="M1094,565.02 C1094,583.06 1094,600.7 1094,618.78" fill="none" id="Tags-to-HashTag" style="stroke:#181818;stroke-width:1;"/><polygon fill="#181818" points="1094,624.78,1098,615.78,1094,619.78,1090,615.78,1094,624.78" style="stroke:#181818;stroke-width:1;"/><text fill="#000000" font-family="sans-serif" font-size="13" lengthAdjust="spacing" textLength="8.271" x="1085.1533" y="585.2855">1</text><text fill="#000000" font-family="sans-serif" font-size="13" lengthAdjust="spacing" textLength="9.7246" x="1084.063" y="614.0186">N</text></g><!--link Post to Likes--><g class="link" data-entity-1="Post" data-entity-2="Likes" data-source-line="28" data-uid="lnk16" id="link_Post_Likes"><path codeLine="28" d="M1160.75,415.05 C1164.35,417.54 1167.81,420.2 1171,423 C1198.93,447.55 1221.79,484.14 1235.38,508.98" fill="none" id="Post-Likes" style="stroke:#181818;stroke-width:1;"/></g><!--link Likes to PostLike--><g class="link" data-entity-1="Likes" data-entity-2="PostLike" data-source-line="29" data-uid="lnk17" id="link_Likes_PostLike"><path codeLine="29" d="M1250.66,565.02 C1251.77,583.06 1252.8523,600.7113 1253.9623,618.7913" fill="none" id="Likes-to-PostLike" style="stroke:#181818;stroke-width:1;"/><polygon fill="#181818" points="1254.33,624.78,1257.771,615.5518,1254.0236,619.7894,1249.786,616.042,1254.33,624.78" style="stroke:#181818;stroke-width:1;"/><text fill="#000000" font-family="sans-serif" font-size="13" lengthAdjust="spacing" textLength="8.271" x="1242.1972" y="585.2855">1</text><text fill="#000000" font-family="sans-serif" font-size="13" lengthAdjust="spacing" textLength="9.7246" x="1244.0376" y="614.0186">N</text></g><!--link GuestPost to Post--><g class="link" data-entity-1="GuestPost" data-entity-2="Post" data-source-line="41" data-uid="lnk22" id="link_GuestPost_Post"><path codeLine="41" d="M1103,299.02 C1103,317.06 1103,322.7 1103,340.78" fill="none" id="GuestPost-to-Post" style="stroke:#181818;stroke-width:1;"/><polygon fill="none" points="1103,358.78,1109,340.78,1097,340.78,1103,358.78" style="stroke:#181818;stroke-width:1;"/></g><!--link MemberPost to Post--><g class="link" data-entity-1="MemberPost" data-entity-2="Post" data-source-line="42" data-uid="lnk23" id="link_MemberPost_Post"><path codeLine="42" d="M1214.4,299.02 C1191.21,317.12 1174.9766,329.7911 1151.7866,347.9011" fill="none" id="MemberPost-to-Post" style="stroke:#181818;stroke-width:1;"/><polygon fill="none" points="1137.6,358.98,1155.4795,352.63,1148.0936,343.1723,1137.6,358.98" style="stroke:#181818;stroke-width:1;"/></g><!--link GuestComment to Comment--><g class="link" data-entity-1="GuestComment" data-entity-2="Comment" data-source-line="43" data-uid="lnk24" id="link_GuestComment_Comment"><path codeLine="43" d="M561.95,183.02 C590.06,201.12 611.7968,215.1239 639.9168,233.2339" fill="none" id="GuestComment-to-Comment" style="stroke:#181818;stroke-width:1;"/><polygon fill="none" points="655.05,242.98,643.1656,228.1895,636.6681,238.2782,655.05,242.98" style="stroke:#181818;stroke-width:1;"/></g><!--link MemberComment to Comment--><g class="link" data-entity-1="MemberComment" data-entity-2="Comment" data-source-line="44" data-uid="lnk25" id="link_MemberComment_Comment"><path codeLine="44" d="M703.1,183.02 C701.84,201.06 701.4413,206.7442 700.1713,224.8242" fill="none" id="MemberComment-to-Comment" style="stroke:#181818;stroke-width:1;"/><polygon fill="none" points="698.91,242.78,706.1565,225.2447,694.186,224.4038,698.91,242.78" style="stroke:#181818;stroke-width:1;"/></g><!--link BoardManager to Roles--><g class="link" data-entity-1="BoardManager" data-entity-2="Roles" data-source-line="65" data-uid="lnk34" id="link_BoardManager_Roles"><path codeLine="65" d="M188.75,565.02 C176.57,583.06 160.6,606.7 148.38,624.78" fill="none" id="BoardManager-Roles" style="stroke:#181818;stroke-width:1;"/></g><!--link BoardManager to Managers--><g class="link" data-entity-1="BoardManager" data-entity-2="Managers" data-source-line="66" data-uid="lnk35" id="link_BoardManager_Managers"><path codeLine="66" d="M225.48,565.02 C237.83,583.06 254.01,606.7 266.38,624.78" fill="none" id="BoardManager-Managers" style="stroke:#181818;stroke-width:1;"/></g><!--link Managers to Member--><g class="link" data-entity-1="Managers" data-entity-2="Member" data-source-line="67" data-uid="lnk36" id="link_Managers_Member"><path codeLine="67" d="M345.13,663.28 C519.27,690.17 1017.3202,767.0647 1201.5702,795.5047" fill="none" id="Managers-to-Member" style="stroke:#181818;stroke-width:1;stroke-dasharray:7.0,7.0;"/><polygon fill="#181818" points="1207.5,796.42,1199.2155,791.0939,1202.5585,795.6573,1197.9951,799.0002,1207.5,796.42" style="stroke:#181818;stroke-width:1;"/><text fill="#000000" font-family="sans-serif" font-size="13" lengthAdjust="spacing" textLength="8.271" x="352.5842" y="660.6607">1</text><text fill="#000000" font-family="sans-serif" font-size="13" lengthAdjust="spacing" textLength="9.7246" x="1189.6368" y="791.1534">N</text></g><!--link Roles to Role--><g class="link" data-entity-1="Roles" data-entity-2="Role" data-source-line="68" data-uid="lnk37" id="link_Roles_Role"><path codeLine="68" d="M130,681 C130,708.8 130,745.87 130,773.75" fill="none" id="Roles-to-Role" style="stroke:#181818;stroke-width:1;"/><polygon fill="#181818" points="130,779.75,134,770.75,130,774.75,126,770.75,130,779.75" style="stroke:#181818;stroke-width:1;"/><text fill="#000000" font-family="sans-serif" font-size="13" lengthAdjust="spacing" textLength="8.271" x="121.1533" y="701.2609">1</text><text fill="#000000" font-family="sans-serif" font-size="13" lengthAdjust="spacing" textLength="9.7246" x="120.1118" y="768.9821">N</text></g><!--reverse link Board to Post--><g class="link" data-entity-1="Board" data-entity-2="Post" data-source-line="71" data-uid="lnk38" id="link_Board_Post"><path codeLine="71" d="M960.1533,302.0592 C990.9633,320.1592 1026.2,340.87 1057.02,358.98" fill="none" id="Board-backto-Post" style="stroke:#181818;stroke-width:1;stroke-dasharray:7.0,7.0;"/><polygon fill="#181818" points="954.98,299.02,960.7139,307.0277,959.2911,301.5527,964.7661,300.1299,954.98,299.02" style="stroke:#181818;stroke-width:1;"/></g><!--link MemberPost to Member--><g class="link" data-entity-1="MemberPost" data-entity-2="Member" data-source-line="72" data-uid="lnk39" id="link_MemberPost_Member"><path codeLine="72" d="M1267.84,299.11 C1286.81,328.19 1314.83,376.5 1326,423 C1357.78,555.28 1354.46,597.93 1318,729 C1313.01,746.93 1306.484,760.2074 1297.684,774.6374" fill="none" id="MemberPost-to-Member" style="stroke:#181818;stroke-width:1;stroke-dasharray:7.0,7.0;"/><polygon fill="#181818" points="1294.56,779.76,1302.661,774.1588,1297.1633,775.4912,1295.8309,769.9935,1294.56,779.76" style="stroke:#181818;stroke-width:1;"/></g><!--link PostLike to Member--><g class="link" data-entity-1="PostLike" data-entity-2="Member" data-source-line="73" data-uid="lnk40" id="link_PostLike_Member"><path codeLine="73" d="M1259.53,681 C1263.16,708.8 1268.0111,745.9208 1271.6611,773.8008" fill="none" id="PostLike-to-Member" style="stroke:#181818;stroke-width:1;stroke-dasharray:7.0,7.0;"/><polygon fill="#181818" points="1272.44,779.75,1275.2379,770.3069,1271.7909,774.7923,1267.3056,771.3454,1272.44,779.75" style="stroke:#181818;stroke-width:1;"/></g><!--link MemberComment to Member--><g class="link" data-entity-1="MemberComment" data-entity-2="Member" data-source-line="74" data-uid="lnk41" id="link_MemberComment_Member"><path codeLine="74" d="M784.09,156.69 C941.74,158.76 1283.6,167.06 1325,200 C1392.66,253.84 1382,299.54 1382,386 C1382,386 1382,386 1382,538 C1382,624.92 1377.95,650.8 1340,729 C1330.98,747.6 1320.7122,761.1859 1307.9222,775.2159" fill="none" id="MemberComment-to-Member" style="stroke:#181818;stroke-width:1;stroke-dasharray:7.0,7.0;"/><polygon fill="#181818" points="1303.88,779.65,1312.8993,775.6937,1307.2485,775.955,1306.9872,770.3041,1303.88,779.65" style="stroke:#181818;stroke-width:1;"/></g><!--link Comment to Post--><g class="link" data-entity-1="Comment" data-entity-2="Post" data-source-line="75" data-uid="lnk42" id="link_Comment_Post"><path codeLine="75" d="M758.62,299.05 C779.16,307.44 802.34,316.25 824,323 C894.52,344.97 971.3984,361.5445 1028.3684,372.5245" fill="none" id="Comment-to-Post" style="stroke:#181818;stroke-width:1;stroke-dasharray:7.0,7.0;"/><polygon fill="#181818" points="1034.26,373.66,1026.1796,368.029,1029.3504,372.7137,1024.6656,375.8845,1034.26,373.66" style="stroke:#181818;stroke-width:1;"/></g><!--link Comment to Comment--><g class="link" data-entity-1="Comment" data-entity-2="Comment" data-source-line="76" data-uid="lnk43" id="link_Comment_Comment"><path codeLine="76" d="M765.68,249.33 C785.34,250.18 800.5,257.41 800.5,271 C800.5,284.59 791.3344,291.5608 771.6744,292.4108" fill="none" id="Comment-to-Comment" style="stroke:#181818;stroke-width:1;"/><polygon fill="#181818" points="765.68,292.67,774.8444,296.2775,770.6753,292.454,774.4988,288.285,765.68,292.67" style="stroke:#181818;stroke-width:1;"/></g><!--SRC=[dLMzJiCm6Dpx59ONfaHYho91XG290geGknEiK1hNKUnA8EW4MrUwe4uy0n8y4mhlWF-IE6cQrlNK-BuxVsUVtHH54nHZ02CwvVYH0u9I29vxG8oqm4AAiZjWAg06rmiiG0uyvMF-18uLjzy_YkCCnuXZCAAK1q6zUDwhVgtBfvJnXZeA6SzGnC6rm1pavOWIn1WudM763VkSfCb0pkv2768IuioDUV2t_CeNgx_NrU_tJzisdI5sVuDYeNYY9hhbXFUPy2u8J31kKJB3u2fymD4MvwffprF46g2Ku24KO03W9IpwgPl8FnVvyYt_U6zp8BKlnXFiPa4ozlEWc3L4QzakYfuwqnLHGeI7JG4RQ7Z_Z5K2UyJCYMovgzBjUI-1seWIimAy3jPQLh3vQD1RItfM5-N-4bNVydoOu6YzplsTjmhhPucWgVZAjZvFHM77CpKqKcv7RHH6D77ClcIuPTyGJP-xSwrWr8oAQwIQs8WMArM7NomjhvdlwskcJx2iqRxiUoXdx2CqVmg-NsNF2gMKjIJBXwKnNyzX0xIdopMgp5gHdVy3]--></g></svg>