<svg xmlns="http://www.w3.org/2000/svg" xmlns:xlink="http://www.w3.org/1999/xlink" contentStyleType="text/css" data-diagram-type="CLASS" height="383px" preserveAspectRatio="none" style="width:477px;height:383px;background:#FFFFFF;" version="1.1" viewBox="0 0 477 383" width="477px" zoomAndPan="magnify"><defs/><g><!--cluster board--><g class="cluster" data-entity="board" data-source-line="1" data-uid="ent0002" id="cluster_board"><path d="M8.5,6 L55.5127,6 A3.75,3.75 0 0 1 58.0127,8.5 L65.0127,28.2969 L467.5,28.2969 A2.5,2.5 0 0 1 470,30.7969 L470,373.5 A2.5,2.5 0 0 1 467.5,376 L8.5,376 A2.5,2.5 0 0 1 6,373.5 L6,8.5 A2.5,2.5 0 0 1 8.5,6" fill="none" style="stroke:#000000;stroke-width:1.5;"/><line style="stroke:#000000;stroke-width:1.5;" x1="6" x2="65.0127" y1="28.2969" y2="28.2969"/><text fill="#000000" font-family="sans-serif" font-size="14" font-weight="bold" lengthAdjust="spacing" textLength="46.0127" x="10" y="20.9951">board</text></g><!--class Board--><g class="entity" data-entity="Board" data-source-line="2" data-uid="ent0003" id="entity_Board"><rect fill="#F1F1F1" height="170.3438" rx="2.5" ry="2.5" style="stroke:#181818;stroke-width:0.5;" width="430.6465" x="22.5" y="41"/><ellipse cx="180.9873" cy="61.1328" fill="#ADD1B2" rx="11" ry="11" style="stroke:#181818;stroke-width:1;"/><path d="M185.0967,67.1328 L177.3779,67.1328 L177.3779,54.7422 L185.0967,54.7422 L185.0967,56.8984 L179.8311,56.8984 L179.8311,59.5703 L184.5967,59.5703 L184.5967,61.7266 L179.8311,61.7266 L179.8311,64.9766 L185.0967,64.9766 L185.0967,67.1328 Z " fill="#000000"/><text fill="#000000" font-family="sans-serif" font-size="12" font-style="italic" lengthAdjust="spacing" textLength="109.1719" x="199.4873" y="57.1387">&#171;Aggregate Root&#187;</text><text fill="#000000" font-family="sans-serif" font-size="14" lengthAdjust="spacing" textLength="41.3916" x="233.3774" y="72.9639">Board</text><line style="stroke:#181818;stroke-width:0.5;" x1="23.5" x2="452.1465" y1="81.2656" y2="81.2656"/><ellipse cx="33.5" cy="94.9141" fill="none" rx="3" ry="3" style="stroke:#038048;stroke-width:1;"/><text fill="#000000" font-family="sans-serif" font-size="14" lengthAdjust="spacing" textLength="92.2646" x="42.5" y="98.2607">Long boardId</text><ellipse cx="33.5" cy="111.2109" fill="none" rx="3" ry="3" style="stroke:#038048;stroke-width:1;"/><text fill="#000000" font-family="sans-serif" font-size="14" lengthAdjust="spacing" textLength="169.1211" x="42.5" y="114.5576">BoardName boardName</text><ellipse cx="33.5" cy="127.5078" fill="none" rx="3" ry="3" style="stroke:#038048;stroke-width:1;"/><text fill="#000000" font-family="sans-serif" font-size="14" lengthAdjust="spacing" textLength="107.4404" x="42.5" y="130.8545">Creator creator</text><ellipse cx="33.5" cy="143.8047" fill="none" rx="3" ry="3" style="stroke:#038048;stroke-width:1;"/><text fill="#000000" font-family="sans-serif" font-size="14" lengthAdjust="spacing" textLength="139.4121" x="42.5" y="147.1514">createdAt dateTime</text><line style="stroke:#181818;stroke-width:1;" x1="23.5" x2="452.1465" y1="154.4531" y2="154.4531"/><ellipse cx="33.5" cy="168.1016" fill="#84BE84" rx="3" ry="3" style="stroke:#038048;stroke-width:1;"/><text fill="#000000" font-family="sans-serif" font-size="14" lengthAdjust="spacing" textLength="404.6465" x="42.5" y="171.4482">create(boardName : String, creatorId : MemberId) : Board</text><ellipse cx="33.5" cy="184.3984" fill="#84BE84" rx="3" ry="3" style="stroke:#038048;stroke-width:1;"/><text fill="#000000" font-family="sans-serif" font-size="14" lengthAdjust="spacing" textLength="55.0293" x="42.5" y="187.7451">delete()</text><ellipse cx="33.5" cy="200.6953" fill="#84BE84" rx="3" ry="3" style="stroke:#038048;stroke-width:1;"/><text fill="#000000" font-family="sans-serif" font-size="14" lengthAdjust="spacing" textLength="317.7275" x="42.5" y="204.042">validateBoardName() : BoardName.validate()</text></g><!--class BoardName--><g class="entity" data-entity="BoardName" data-source-line="14" data-uid="ent0004" id="entity_BoardName"><rect fill="#F1F1F1" height="88.8594" rx="2.5" ry="2.5" style="stroke:#181818;stroke-width:0.5;" width="163.375" x="65.5" y="271"/><ellipse cx="100.2016" cy="291.1328" fill="#ADD1B2" rx="11" ry="11" style="stroke:#181818;stroke-width:1;"/><path d="M103.1703,296.7734 Q102.5922,297.0703 101.9516,297.2109 Q101.3109,297.3672 100.6078,297.3672 Q98.1078,297.3672 96.7797,295.7266 Q95.4672,294.0703 95.4672,290.9453 Q95.4672,287.8203 96.7797,286.1641 Q98.1078,284.5078 100.6078,284.5078 Q101.3109,284.5078 101.9516,284.6641 Q102.6078,284.8203 103.1703,285.1172 L103.1703,287.8359 Q102.5453,287.2578 101.9516,286.9922 Q101.3578,286.7109 100.7328,286.7109 Q99.3891,286.7109 98.7016,287.7891 Q98.0141,288.8516 98.0141,290.9453 Q98.0141,293.0391 98.7016,294.1172 Q99.3891,295.1797 100.7328,295.1797 Q101.3578,295.1797 101.9516,294.9141 Q102.5453,294.6328 103.1703,294.0547 L103.1703,296.7734 Z " fill="#000000"/><text fill="#000000" font-family="sans-serif" font-size="12" font-style="italic" lengthAdjust="spacing" textLength="91.5938" x="116.5797" y="287.1387">&#171;Value Object&#187;</text><text fill="#000000" font-family="sans-serif" font-size="14" lengthAdjust="spacing" textLength="82.6943" x="121.0294" y="302.9639">BoardName</text><line style="stroke:#181818;stroke-width:0.5;" x1="66.5" x2="227.875" y1="311.2656" y2="311.2656"/><ellipse cx="76.5" cy="324.9141" fill="none" rx="3" ry="3" style="stroke:#038048;stroke-width:1;"/><text fill="#000000" font-family="sans-serif" font-size="14" lengthAdjust="spacing" textLength="137.375" x="85.5" y="328.2607">String : boardName</text><line style="stroke:#181818;stroke-width:1;" x1="66.5" x2="227.875" y1="335.5625" y2="335.5625"/><ellipse cx="76.5" cy="349.2109" fill="#84BE84" rx="3" ry="3" style="stroke:#038048;stroke-width:1;"/><text fill="#000000" font-family="sans-serif" font-size="14" lengthAdjust="spacing" textLength="67.1357" x="85.5" y="352.5576">validate()</text></g><!--class Creator--><g class="entity" data-entity="Creator" data-source-line="19" data-uid="ent0005" id="entity_Creator"><rect fill="#F1F1F1" height="72.5625" rx="2.5" ry="2.5" style="stroke:#181818;stroke-width:0.5;" width="145.9023" x="264" y="279"/><ellipse cx="290.8389" cy="299.1328" fill="#ADD1B2" rx="11" ry="11" style="stroke:#181818;stroke-width:1;"/><path d="M293.8076,304.7734 Q293.2295,305.0703 292.5889,305.2109 Q291.9482,305.3672 291.2451,305.3672 Q288.7451,305.3672 287.417,303.7266 Q286.1045,302.0703 286.1045,298.9453 Q286.1045,295.8203 287.417,294.1641 Q288.7451,292.5078 291.2451,292.5078 Q291.9482,292.5078 292.5889,292.6641 Q293.2451,292.8203 293.8076,293.1172 L293.8076,295.8359 Q293.1826,295.2578 292.5889,294.9922 Q291.9951,294.7109 291.3701,294.7109 Q290.0264,294.7109 289.3389,295.7891 Q288.6514,296.8516 288.6514,298.9453 Q288.6514,301.0391 289.3389,302.1172 Q290.0264,303.1797 291.3701,303.1797 Q291.9951,303.1797 292.5889,302.9141 Q293.1826,302.6328 293.8076,302.0547 L293.8076,304.7734 Z " fill="#000000"/><text fill="#000000" font-family="sans-serif" font-size="12" font-style="italic" lengthAdjust="spacing" textLength="91.5938" x="305.4697" y="295.1387">&#171;Value Object&#187;</text><text fill="#000000" font-family="sans-serif" font-size="14" lengthAdjust="spacing" textLength="52.5342" x="324.9995" y="310.9639">Creator</text><line style="stroke:#181818;stroke-width:0.5;" x1="265" x2="408.9023" y1="319.2656" y2="319.2656"/><ellipse cx="275" cy="332.9141" fill="none" rx="3" ry="3" style="stroke:#038048;stroke-width:1;"/><text fill="#000000" font-family="sans-serif" font-size="14" lengthAdjust="spacing" textLength="119.9023" x="284" y="336.2607">Long : memberId</text><line style="stroke:#181818;stroke-width:0.5;" x1="265" x2="408.9023" y1="343.5625" y2="343.5625"/></g><!--link Board to BoardName--><g class="link" data-entity-1="Board" data-entity-2="BoardName" data-source-line="23" data-uid="lnk6" id="link_Board_BoardName"><path codeLine="23" d="M197.16,211.15 C187.14,231.79 176.82,253.06 168.16,270.89" fill="none" id="Board-BoardName" style="stroke:#181818;stroke-width:1;"/></g><!--link Board to Creator--><g class="link" data-entity-1="Board" data-entity-2="Creator" data-source-line="24" data-uid="lnk7" id="link_Board_Creator"><path codeLine="24" d="M282.43,211.15 C294.97,234.91 307.96,259.49 318.11,278.72" fill="none" id="Board-Creator" style="stroke:#181818;stroke-width:1;"/></g><!--SRC=[VL5D2y8m3BtlLmGlAZf_W8YWdWG_GCLxjeOotLQfLH3nlvksspecsCEIlkIzbwKtJAye2Ng9GYrwy8w03vKcCozOMWnciuMKcYGQWeDIPZwlkkmPRLGfmP7N8g2EkSE2VCbceRZIX4PfI7qC1GUGM1WG74zPYnJ7tRP1emnJE1gTbN9SIwu5Orig4k9qoBcR9oW8oeaLXW5vOfvPqsRmGKEpjqbThpYVo8N-UUzYckFz7hfvPMVC7mJxv49fPs5-L1R_tKpx9pk6x1YCwWN-it7lCeMYMa9R1FpNlsuSXxaxU6KJVRu0]--></g></svg>