<svg xmlns="http://www.w3.org/2000/svg" xmlns:xlink="http://www.w3.org/1999/xlink" contentStyleType="text/css" data-diagram-type="CLASS" height="234px" preserveAspectRatio="none" style="width:675px;height:234px;background:#FFFFFF;" version="1.1" viewBox="0 0 675 234" width="675px" zoomAndPan="magnify"><defs/><g><!--cluster board--><g class="cluster" data-entity="board" data-source-line="1" data-uid="ent0002" id="cluster_board"><path d="M8.5,6 L55.5127,6 A3.75,3.75 0 0 1 58.0127,8.5 L65.0127,28.2969 L665.5,28.2969 A2.5,2.5 0 0 1 668,30.7969 L668,224.5 A2.5,2.5 0 0 1 665.5,227 L8.5,227 A2.5,2.5 0 0 1 6,224.5 L6,8.5 A2.5,2.5 0 0 1 8.5,6" fill="none" style="stroke:#000000;stroke-width:1.5;"/><line style="stroke:#000000;stroke-width:1.5;" x1="6" x2="65.0127" y1="28.2969" y2="28.2969"/><text fill="#000000" font-family="sans-serif" font-size="14" font-weight="bold" lengthAdjust="spacing" textLength="46.0127" x="10" y="20.9951">board</text></g><!--class Board--><g class="entity" data-entity="Board" data-source-line="2" data-uid="ent0003" id="entity_Board"><rect fill="#F1F1F1" height="170.3438" rx="2.5" ry="2.5" style="stroke:#181818;stroke-width:0.5;" width="430.6465" x="220.5" y="41"/><ellipse cx="378.9873" cy="61.1328" fill="#ADD1B2" rx="11" ry="11" style="stroke:#181818;stroke-width:1;"/><path d="M383.0967,67.1328 L375.3779,67.1328 L375.3779,54.7422 L383.0967,54.7422 L383.0967,56.8984 L377.8311,56.8984 L377.8311,59.5703 L382.5967,59.5703 L382.5967,61.7266 L377.8311,61.7266 L377.8311,64.9766 L383.0967,64.9766 L383.0967,67.1328 Z " fill="#000000"/><text fill="#000000" font-family="sans-serif" font-size="12" font-style="italic" lengthAdjust="spacing" textLength="109.1719" x="397.4873" y="57.1387">&#171;Aggregate Root&#187;</text><text fill="#000000" font-family="sans-serif" font-size="14" lengthAdjust="spacing" textLength="41.3916" x="431.3774" y="72.9639">Board</text><line style="stroke:#181818;stroke-width:0.5;" x1="221.5" x2="650.1465" y1="81.2656" y2="81.2656"/><ellipse cx="231.5" cy="94.9141" fill="none" rx="3" ry="3" style="stroke:#038048;stroke-width:1;"/><text fill="#000000" font-family="sans-serif" font-size="14" lengthAdjust="spacing" textLength="43.292" x="240.5" y="98.2607">Long :</text><text fill="#000000" font-family="sans-serif" font-size="14" lengthAdjust="spacing" textLength="53.6895" x="351.7549" y="98.2607">boardId</text><ellipse cx="231.5" cy="111.2109" fill="none" rx="3" ry="3" style="stroke:#038048;stroke-width:1;"/><text fill="#000000" font-family="sans-serif" font-size="14" lengthAdjust="spacing" textLength="91.8613" x="240.5" y="114.5576">BoardName :</text><text fill="#000000" font-family="sans-serif" font-size="14" lengthAdjust="spacing" textLength="82.6943" x="351.7549" y="114.5576">BoardName</text><ellipse cx="231.5" cy="127.5078" fill="none" rx="3" ry="3" style="stroke:#038048;stroke-width:1;"/><text fill="#000000" font-family="sans-serif" font-size="14" lengthAdjust="spacing" textLength="72.6387" x="240.5" y="130.8545">creatorId :</text><text fill="#000000" font-family="sans-serif" font-size="14" lengthAdjust="spacing" textLength="70.6016" x="351.7549" y="130.8545">MemberId</text><ellipse cx="231.5" cy="143.8047" fill="none" rx="3" ry="3" style="stroke:#038048;stroke-width:1;"/><text fill="#000000" font-family="sans-serif" font-size="14" lengthAdjust="spacing" textLength="77.8682" x="240.5" y="147.1514">createdAt :</text><text fill="#000000" font-family="sans-serif" font-size="14" lengthAdjust="spacing" textLength="68.1543" x="351.7549" y="147.1514">DateTime</text><line style="stroke:#181818;stroke-width:1;" x1="221.5" x2="650.1465" y1="154.4531" y2="154.4531"/><ellipse cx="231.5" cy="168.1016" fill="#84BE84" rx="3" ry="3" style="stroke:#038048;stroke-width:1;"/><text fill="#000000" font-family="sans-serif" font-size="14" lengthAdjust="spacing" textLength="404.6465" x="240.5" y="171.4482">create(boardName : String, creatorId : MemberId) : Board</text><ellipse cx="231.5" cy="184.3984" fill="#84BE84" rx="3" ry="3" style="stroke:#038048;stroke-width:1;"/><text fill="#000000" font-family="sans-serif" font-size="14" lengthAdjust="spacing" textLength="55.0293" x="240.5" y="187.7451">delete()</text><ellipse cx="231.5" cy="200.6953" fill="#84BE84" rx="3" ry="3" style="stroke:#038048;stroke-width:1;"/><text fill="#000000" font-family="sans-serif" font-size="14" lengthAdjust="spacing" textLength="317.7275" x="240.5" y="204.042">validateBoardName() : BoardName.validate()</text></g><!--class BoardName--><g class="entity" data-entity="BoardName" data-source-line="13" data-uid="ent0004" id="entity_BoardName"><rect fill="#F1F1F1" height="88.8594" rx="2.5" ry="2.5" style="stroke:#181818;stroke-width:0.5;" width="163.375" x="22.5" y="81.5"/><ellipse cx="57.2016" cy="101.6328" fill="#ADD1B2" rx="11" ry="11" style="stroke:#181818;stroke-width:1;"/><path d="M60.1703,107.2734 Q59.5922,107.5703 58.9516,107.7109 Q58.3109,107.8672 57.6078,107.8672 Q55.1078,107.8672 53.7797,106.2266 Q52.4672,104.5703 52.4672,101.4453 Q52.4672,98.3203 53.7797,96.6641 Q55.1078,95.0078 57.6078,95.0078 Q58.3109,95.0078 58.9516,95.1641 Q59.6078,95.3203 60.1703,95.6172 L60.1703,98.3359 Q59.5453,97.7578 58.9516,97.4922 Q58.3578,97.2109 57.7328,97.2109 Q56.3891,97.2109 55.7016,98.2891 Q55.0141,99.3516 55.0141,101.4453 Q55.0141,103.5391 55.7016,104.6172 Q56.3891,105.6797 57.7328,105.6797 Q58.3578,105.6797 58.9516,105.4141 Q59.5453,105.1328 60.1703,104.5547 L60.1703,107.2734 Z " fill="#000000"/><text fill="#000000" font-family="sans-serif" font-size="12" font-style="italic" lengthAdjust="spacing" textLength="91.5938" x="73.5797" y="97.6387">&#171;Value Object&#187;</text><text fill="#000000" font-family="sans-serif" font-size="14" lengthAdjust="spacing" textLength="82.6943" x="78.0294" y="113.4639">BoardName</text><line style="stroke:#181818;stroke-width:0.5;" x1="23.5" x2="184.875" y1="121.7656" y2="121.7656"/><ellipse cx="33.5" cy="135.4141" fill="none" rx="3" ry="3" style="stroke:#038048;stroke-width:1;"/><text fill="#000000" font-family="sans-serif" font-size="14" lengthAdjust="spacing" textLength="137.375" x="42.5" y="138.7607">String : boardName</text><line style="stroke:#181818;stroke-width:1;" x1="23.5" x2="184.875" y1="146.0625" y2="146.0625"/><ellipse cx="33.5" cy="159.7109" fill="#84BE84" rx="3" ry="3" style="stroke:#038048;stroke-width:1;"/><text fill="#000000" font-family="sans-serif" font-size="14" lengthAdjust="spacing" textLength="67.1357" x="42.5" y="163.0576">validate()</text></g><!--SRC=[PP1D2y8m38Rl_egmYueVFq1aCF4oy0DKF7b9rr2cSvKQ1P7zTxjErp9pQ9lcxVEckM5sGKKG2Or6Hl3kWGqgEUSNBEexcCyJfGmfP8ATrXp7NrKTevKk5SpWn2S6nqYbBph01g_a5D2cNf4PGjOcbOrYJLT19aGu0Sc46y7I9eSy84mcNUr01AvxDdcfnX3w_4o6zknQyWH91Ld2qDyyiSYbfRQz3zfdTJRzrRzlAhVsZrktPmNUxrviHtd4ua6m5MVAEeDiEhLiyJUby8yTFsjOVG00]--></g></svg>