<svg xmlns="http://www.w3.org/2000/svg" xmlns:xlink="http://www.w3.org/1999/xlink" contentStyleType="text/css" data-diagram-type="CLASS" height="451px" preserveAspectRatio="none" style="width:380px;height:451px;background:#FFFFFF;" version="1.1" viewBox="0 0 380 451" width="380px" zoomAndPan="magnify"><defs/><g><!--cluster comment--><g class="cluster" data-entity="comment" data-source-line="1" data-uid="ent0002" id="cluster_comment"><path d="M8.5,6 L82.7471,6 A3.75,3.75 0 0 1 85.2471,8.5 L92.2471,28.2969 L370.5,28.2969 A2.5,2.5 0 0 1 373,30.7969 L373,441.5 A2.5,2.5 0 0 1 370.5,444 L8.5,444 A2.5,2.5 0 0 1 6,441.5 L6,8.5 A2.5,2.5 0 0 1 8.5,6" fill="none" style="stroke:#000000;stroke-width:1.5;"/><line style="stroke:#000000;stroke-width:1.5;" x1="6" x2="92.2471" y1="28.2969" y2="28.2969"/><text fill="#000000" font-family="sans-serif" font-size="14" font-weight="bold" lengthAdjust="spacing" textLength="73.2471" x="10" y="20.9951">comment</text></g><!--class Comment--><g class="entity" data-entity="Comment" data-source-line="2" data-uid="ent0003" id="entity_Comment"><rect fill="#F1F1F1" height="137.75" rx="2.5" ry="2.5" style="stroke:#181818;stroke-width:0.5;" width="210.5361" x="83.5" y="157"/><ellipse cx="131.9321" cy="177.1328" fill="#A9DCDF" rx="11" ry="11" style="stroke:#181818;stroke-width:1;"/><path d="M132.0415,172.4766 L130.8853,177.5547 L133.2134,177.5547 L132.0415,172.4766 Z M130.5571,170.2422 L133.5415,170.2422 L136.9009,182.6328 L134.4478,182.6328 L133.6821,179.5703 L130.4009,179.5703 L129.6509,182.6328 L127.2134,182.6328 L130.5571,170.2422 Z " fill="#000000"/><text fill="#000000" font-family="sans-serif" font-size="12" font-style="italic" lengthAdjust="spacing" textLength="109.1719" x="150.4321" y="173.1387">&#171;Aggregate Root&#187;</text><text fill="#000000" font-family="sans-serif" font-size="14" font-style="italic" lengthAdjust="spacing" textLength="68.5918" x="170.7222" y="188.9639">Comment</text><line style="stroke:#181818;stroke-width:0.5;" x1="84.5" x2="293.0361" y1="197.2656" y2="197.2656"/><ellipse cx="94.5" cy="210.9141" fill="none" rx="3" ry="3" style="stroke:#038048;stroke-width:1;"/><text fill="#000000" font-family="sans-serif" font-size="14" lengthAdjust="spacing" textLength="38.958" x="103.5" y="214.2607">Post :</text><text fill="#000000" font-family="sans-serif" font-size="14" lengthAdjust="spacing" textLength="30.2354" x="214.7549" y="214.2607">post</text><ellipse cx="94.5" cy="227.2109" fill="none" rx="3" ry="3" style="stroke:#038048;stroke-width:1;"/><text fill="#000000" font-family="sans-serif" font-size="14" lengthAdjust="spacing" textLength="64.8457" x="103.5" y="230.5576">Content :</text><text fill="#000000" font-family="sans-serif" font-size="14" lengthAdjust="spacing" textLength="53.6006" x="214.7549" y="230.5576">content</text><ellipse cx="94.5" cy="243.5078" fill="none" rx="3" ry="3" style="stroke:#038048;stroke-width:1;"/><text fill="#000000" font-family="sans-serif" font-size="14" lengthAdjust="spacing" textLength="77.3213" x="103.5" y="246.8545">DateTime :</text><text fill="#000000" font-family="sans-serif" font-size="14" lengthAdjust="spacing" textLength="68.7012" x="214.7549" y="246.8545">createdAt</text><ellipse cx="94.5" cy="259.8047" fill="none" rx="3" ry="3" style="stroke:#038048;stroke-width:1;"/><text fill="#000000" font-family="sans-serif" font-size="14" lengthAdjust="spacing" textLength="77.3213" x="103.5" y="263.1514">DateTime :</text><text fill="#000000" font-family="sans-serif" font-size="14" lengthAdjust="spacing" textLength="73.2813" x="214.7549" y="263.1514">updatedAt</text><ellipse cx="94.5" cy="276.1016" fill="none" rx="3" ry="3" style="stroke:#038048;stroke-width:1;"/><text fill="#000000" font-family="sans-serif" font-size="14" lengthAdjust="spacing" textLength="65.8574" x="103.5" y="279.4482">Boolean :</text><text fill="#000000" font-family="sans-serif" font-size="14" lengthAdjust="spacing" textLength="66.0693" x="214.7549" y="279.4482">isDeleted</text><line style="stroke:#181818;stroke-width:0.5;" x1="84.5" x2="293.0361" y1="286.75" y2="286.75"/></g><!--class GuestComment--><g class="entity" data-entity="GuestComment" data-source-line="9" data-uid="ent0004" id="entity_GuestComment"><rect fill="#F1F1F1" height="56.2656" rx="2.5" ry="2.5" style="stroke:#181818;stroke-width:0.5;" width="141.71" x="215" y="41"/><ellipse cx="230" cy="61.1328" fill="#ADD1B2" rx="11" ry="11" style="stroke:#181818;stroke-width:1;"/><path d="M232.9688,66.7734 Q232.3906,67.0703 231.75,67.2109 Q231.1094,67.3672 230.4063,67.3672 Q227.9063,67.3672 226.5781,65.7266 Q225.2656,64.0703 225.2656,60.9453 Q225.2656,57.8203 226.5781,56.1641 Q227.9063,54.5078 230.4063,54.5078 Q231.1094,54.5078 231.75,54.6641 Q232.4063,54.8203 232.9688,55.1172 L232.9688,57.8359 Q232.3438,57.2578 231.75,56.9922 Q231.1563,56.7109 230.5313,56.7109 Q229.1875,56.7109 228.5,57.7891 Q227.8125,58.8516 227.8125,60.9453 Q227.8125,63.0391 228.5,64.1172 Q229.1875,65.1797 230.5313,65.1797 Q231.1563,65.1797 231.75,64.9141 Q232.3438,64.6328 232.9688,64.0547 L232.9688,66.7734 Z " fill="#000000"/><text fill="#000000" font-family="sans-serif" font-size="12" font-style="italic" lengthAdjust="spacing" textLength="72.5625" x="262.5737" y="57.1387">&#171;ImplClass&#187;</text><text fill="#000000" font-family="sans-serif" font-size="14" lengthAdjust="spacing" textLength="109.71" x="244" y="72.9639">GuestComment</text><line style="stroke:#181818;stroke-width:0.5;" x1="216" x2="355.71" y1="81.2656" y2="81.2656"/><line style="stroke:#181818;stroke-width:0.5;" x1="216" x2="355.71" y1="89.2656" y2="89.2656"/></g><!--class MemberComment--><g class="entity" data-entity="MemberComment" data-source-line="11" data-uid="ent0005" id="entity_MemberComment"><rect fill="#F1F1F1" height="56.2656" rx="2.5" ry="2.5" style="stroke:#181818;stroke-width:0.5;" width="158.1777" x="22" y="41"/><ellipse cx="37" cy="61.1328" fill="#ADD1B2" rx="11" ry="11" style="stroke:#181818;stroke-width:1;"/><path d="M39.9688,66.7734 Q39.3906,67.0703 38.75,67.2109 Q38.1094,67.3672 37.4063,67.3672 Q34.9063,67.3672 33.5781,65.7266 Q32.2656,64.0703 32.2656,60.9453 Q32.2656,57.8203 33.5781,56.1641 Q34.9063,54.5078 37.4063,54.5078 Q38.1094,54.5078 38.75,54.6641 Q39.4063,54.8203 39.9688,55.1172 L39.9688,57.8359 Q39.3438,57.2578 38.75,56.9922 Q38.1563,56.7109 37.5313,56.7109 Q36.1875,56.7109 35.5,57.7891 Q34.8125,58.8516 34.8125,60.9453 Q34.8125,63.0391 35.5,64.1172 Q36.1875,65.1797 37.5313,65.1797 Q38.1563,65.1797 38.75,64.9141 Q39.3438,64.6328 39.9688,64.0547 L39.9688,66.7734 Z " fill="#000000"/><text fill="#000000" font-family="sans-serif" font-size="12" font-style="italic" lengthAdjust="spacing" textLength="72.5625" x="77.8076" y="57.1387">&#171;ImplClass&#187;</text><text fill="#000000" font-family="sans-serif" font-size="14" lengthAdjust="spacing" textLength="126.1777" x="51" y="72.9639">MemberComment</text><line style="stroke:#181818;stroke-width:0.5;" x1="23" x2="179.1777" y1="81.2656" y2="81.2656"/><line style="stroke:#181818;stroke-width:0.5;" x1="23" x2="179.1777" y1="89.2656" y2="89.2656"/></g><!--class Post--><g class="entity" data-entity="Post" data-source-line="16" data-uid="ent0008" id="entity_Post"><rect fill="#F1F1F1" height="72.5625" rx="2.5" ry="2.5" style="stroke:#181818;stroke-width:0.5;" width="119.5938" x="129" y="355"/><ellipse cx="144" cy="375.1328" fill="#F1F1F1" rx="11" ry="11" style="stroke:#181818;stroke-width:1;"/><path d="M143.4844,375.6953 Q141.625,374.9922 140.9688,374.2266 Q140.3281,373.4453 140.3281,372.1328 Q140.3281,370.4453 141.4063,369.4766 Q142.4844,368.5078 144.3594,368.5078 Q145.2188,368.5078 146.0625,368.7109 Q146.9219,368.8984 147.7656,369.2891 L147.7656,371.6797 Q146.9844,371.1172 146.1563,370.8359 Q145.3438,370.5391 144.5469,370.5391 Q143.6719,370.5391 143.1875,370.8984 Q142.7188,371.2578 142.7188,371.9141 Q142.7188,372.4297 143.0625,372.7734 Q143.4063,373.1016 144.5,373.5078 L145.5625,373.9141 Q147.0469,374.4609 147.75,375.3672 Q148.4688,376.2734 148.4688,377.6484 Q148.4688,379.5234 147.3594,380.4453 Q146.25,381.3672 144,381.3672 Q143.0781,381.3672 142.1563,381.1484 Q141.2344,380.9297 140.375,380.5078 L140.375,377.9766 Q141.3438,378.6641 142.2656,379.0078 Q143.1875,379.3516 144.0781,379.3516 Q144.9844,379.3516 145.4844,378.9453 Q145.9844,378.5234 145.9844,377.7891 Q145.9844,377.2266 145.6406,376.8203 Q145.3125,376.3984 144.6875,376.1484 L143.4844,375.6953 Z " fill="#000000"/><text fill="#000000" font-family="sans-serif" font-size="12" font-style="italic" lengthAdjust="spacing" textLength="91.5938" x="156" y="371.1387">&#171;Value Object&#187;</text><text fill="#000000" font-family="sans-serif" font-size="14" lengthAdjust="spacing" textLength="29.791" x="186.9014" y="386.9639">Post</text><line style="stroke:#181818;stroke-width:0.5;" x1="130" x2="247.5938" y1="395.2656" y2="395.2656"/><ellipse cx="140" cy="408.9141" fill="none" rx="3" ry="3" style="stroke:#038048;stroke-width:1;"/><text fill="#000000" font-family="sans-serif" font-size="14" lengthAdjust="spacing" textLength="90.9932" x="149" y="412.2607">Long : postId</text><line style="stroke:#181818;stroke-width:0.5;" x1="130" x2="247.5938" y1="419.5625" y2="419.5625"/></g><!--link GuestComment to Comment--><g class="link" data-entity-1="GuestComment" data-entity-2="Comment" data-source-line="13" data-uid="lnk6" id="link_GuestComment_Comment"><path codeLine="13" d="M268.88,97.35 C258.49,113.95 254.2852,120.6693 241.1252,141.7093" fill="none" id="GuestComment-to-Comment" style="stroke:#181818;stroke-width:1;"/><polygon fill="none" points="231.58,156.97,246.2121,144.891,236.0383,138.5276,231.58,156.97" style="stroke:#181818;stroke-width:1;"/></g><!--link MemberComment to Comment--><g class="link" data-entity-1="MemberComment" data-entity-2="Comment" data-source-line="14" data-uid="lnk7" id="link_MemberComment_Comment"><path codeLine="14" d="M116.53,97.35 C125.95,113.95 129.546,120.2751 141.486,141.3151" fill="none" id="MemberComment-to-Comment" style="stroke:#181818;stroke-width:1;"/><polygon fill="none" points="150.37,156.97,146.7043,138.3538,136.2677,144.2765,150.37,156.97" style="stroke:#181818;stroke-width:1;"/></g><!--link Comment to Post--><g class="link" data-entity-1="Comment" data-entity-2="Post" data-source-line="19" data-uid="lnk9" id="link_Comment_Post"><path codeLine="19" d="M189,295.39 C189,315.87 189,337.49 189,354.94" fill="none" id="Comment-Post" style="stroke:#181818;stroke-width:1;"/></g><!--SRC=[XP1H2u8m58NV-nKNNyC_82AOGWX54T6JBtDUXhKvSTUdyhytPw86qNqOk_lE3fpJCFvW0i7ZMYcioNjkm0uh3BMC4oJZCuHXB4IBWX72HMkAeb4upFQi3K6GKqxGsEiC4btJy7jaVDncd5gtQwLmuC1Rj6iP_-9TKtxpdTOIMVsnhqoA4gt42NftSicCWNs7XkOacMfaCe0fn59xH5LW-rUyilJzLpGrvUZQP8KTj-LsjbpNMnZUcEmGJiKT-RhNWwu51AxJR9bgDdOMc_uD]--></g></svg>