<svg xmlns="http://www.w3.org/2000/svg" xmlns:xlink="http://www.w3.org/1999/xlink" contentStyleType="text/css" data-diagram-type="CLASS" height="441px" preserveAspectRatio="none" style="width:559px;height:441px;background:#FFFFFF;" version="1.1" viewBox="0 0 559 441" width="559px" zoomAndPan="magnify"><defs/><g><!--cluster userBoardRole--><g class="cluster" data-entity="userBoardRole" data-source-line="1" data-uid="ent0002" id="cluster_userBoardRole"><path d="M8.5,6 L125.5537,6 A3.75,3.75 0 0 1 128.0537,8.5 L135.0537,28.2969 L549.5,28.2969 A2.5,2.5 0 0 1 552,30.7969 L552,431.5 A2.5,2.5 0 0 1 549.5,434 L8.5,434 A2.5,2.5 0 0 1 6,431.5 L6,8.5 A2.5,2.5 0 0 1 8.5,6" fill="none" style="stroke:#000000;stroke-width:1.5;"/><line style="stroke:#000000;stroke-width:1.5;" x1="6" x2="135.0537" y1="28.2969" y2="28.2969"/><text fill="#000000" font-family="sans-serif" font-size="14" font-weight="bold" lengthAdjust="spacing" textLength="116.0537" x="10" y="20.9951">userBoardRole</text></g><!--class UserBoardRole--><g class="entity" data-entity="UserBoardRole" data-source-line="2" data-uid="ent0003" id="entity_UserBoardRole"><rect fill="#F1F1F1" height="235.5313" rx="2.5" ry="2.5" style="stroke:#181818;stroke-width:0.5;" width="513.0264" x="22.5" y="41"/><ellipse cx="222.1772" cy="61.1328" fill="#ADD1B2" rx="11" ry="11" style="stroke:#181818;stroke-width:1;"/><path d="M226.2866,67.1328 L218.5679,67.1328 L218.5679,54.7422 L226.2866,54.7422 L226.2866,56.8984 L221.021,56.8984 L221.021,59.5703 L225.7866,59.5703 L225.7866,61.7266 L221.021,61.7266 L221.021,64.9766 L226.2866,64.9766 L226.2866,67.1328 Z " fill="#000000"/><text fill="#000000" font-family="sans-serif" font-size="12" font-style="italic" lengthAdjust="spacing" textLength="109.1719" x="240.6772" y="57.1387">&#171;Aggregate Root&#187;</text><text fill="#000000" font-family="sans-serif" font-size="14" lengthAdjust="spacing" textLength="104.0977" x="243.2144" y="72.9639">UserBoardRole</text><line style="stroke:#181818;stroke-width:0.5;" x1="23.5" x2="534.5264" y1="81.2656" y2="81.2656"/><ellipse cx="33.5" cy="94.9141" fill="none" rx="3" ry="3" style="stroke:#038048;stroke-width:1;"/><text fill="#000000" font-family="sans-serif" font-size="14" lengthAdjust="spacing" textLength="66.7529" x="42.5" y="98.2607">Member :</text><text fill="#000000" font-family="sans-serif" font-size="14" lengthAdjust="spacing" textLength="59.1445" x="189.3564" y="98.2607">member</text><ellipse cx="33.5" cy="111.2109" fill="none" rx="3" ry="3" style="stroke:#038048;stroke-width:1;"/><text fill="#000000" font-family="sans-serif" font-size="14" lengthAdjust="spacing" textLength="50.5586" x="42.5" y="114.5576">Board :</text><text fill="#000000" font-family="sans-serif" font-size="14" lengthAdjust="spacing" textLength="40.6738" x="153.7549" y="114.5576">board</text><text fill="#000000" font-family="sans-serif" font-size="14" lengthAdjust="spacing" textLength="62.918" x="220.5078" y="114.5576">//&#50808;&#48512; BC &#53412;</text><ellipse cx="33.5" cy="127.5078" fill="none" rx="3" ry="3" style="stroke:#038048;stroke-width:1;"/><text fill="#000000" font-family="sans-serif" font-size="14" lengthAdjust="spacing" textLength="39.9629" x="42.5" y="130.8545">Role :</text><text fill="#000000" font-family="sans-serif" font-size="14" lengthAdjust="spacing" textLength="26.8242" x="153.7549" y="130.8545">role</text><ellipse cx="33.5" cy="143.8047" fill="none" rx="3" ry="3" style="stroke:#038048;stroke-width:1;"/><text fill="#000000" font-family="sans-serif" font-size="14" lengthAdjust="spacing" textLength="77.3213" x="42.5" y="147.1514">DateTime :</text><text fill="#000000" font-family="sans-serif" font-size="14" lengthAdjust="spacing" textLength="77.3828" x="153.7549" y="147.1514">assignedAt</text><line style="stroke:#181818;stroke-width:1;" x1="23.5" x2="534.5264" y1="154.4531" y2="154.4531"/><ellipse cx="33.5" cy="168.1016" fill="#84BE84" rx="3" ry="3" style="stroke:#038048;stroke-width:1;"/><text fill="#000000" font-family="sans-serif" font-size="14" lengthAdjust="spacing" textLength="487.0264" x="42.5" y="171.4482">createManager(board : Board, creatorId : MemberId) : UserBoardRole</text><ellipse cx="33.5" cy="184.3984" fill="#84BE84" rx="3" ry="3" style="stroke:#038048;stroke-width:1;"/><text fill="#000000" font-family="sans-serif" font-size="14" lengthAdjust="spacing" textLength="257.7148" x="42.5" y="187.7451">grantRole(to : MemberId, role : Role)</text><ellipse cx="33.5" cy="200.6953" fill="#84BE84" rx="3" ry="3" style="stroke:#038048;stroke-width:1;"/><text fill="#000000" font-family="sans-serif" font-size="14" lengthAdjust="spacing" textLength="195.2822" x="42.5" y="204.042">transferRole(to : MemberId)</text><ellipse cx="33.5" cy="216.9922" fill="#84BE84" rx="3" ry="3" style="stroke:#038048;stroke-width:1;"/><text fill="#000000" font-family="sans-serif" font-size="14" lengthAdjust="spacing" textLength="89.6602" x="42.5" y="220.3389">revokeRole()</text><ellipse cx="33.5" cy="233.2891" fill="#84BE84" rx="3" ry="3" style="stroke:#038048;stroke-width:1;"/><text fill="#000000" font-family="sans-serif" font-size="14" lengthAdjust="spacing" textLength="202.7676" x="42.5" y="236.6357">assertRole(targetRole : Role)</text><ellipse cx="33.5" cy="249.5859" fill="#84BE84" rx="3" ry="3" style="stroke:#038048;stroke-width:1;"/><text fill="#000000" font-family="sans-serif" font-size="14" lengthAdjust="spacing" textLength="256.04" x="42.5" y="252.9326">assertOwner(memberId : MemberId)</text><ellipse cx="33.5" cy="265.8828" fill="#84BE84" rx="3" ry="3" style="stroke:#038048;stroke-width:1;"/><text fill="#000000" font-family="sans-serif" font-size="14" lengthAdjust="spacing" textLength="222.4756" x="42.5" y="269.2295">assertBelongsTo(board : Board)</text></g><!--class Role--><g class="entity" data-entity="Role" data-source-line="17" data-uid="ent0004" id="entity_Role"><rect fill="#F1F1F1" height="80.5938" rx="2.5" ry="2.5" style="stroke:#181818;stroke-width:0.5;" width="83.1279" x="87.5" y="337"/><ellipse cx="111.6494" cy="353" fill="#EB937F" rx="11" ry="11" style="stroke:#181818;stroke-width:1;"/><path d="M115.7588,359 L108.04,359 L108.04,346.6094 L115.7588,346.6094 L115.7588,348.7656 L110.4932,348.7656 L110.4932,351.4375 L115.2588,351.4375 L115.2588,353.5938 L110.4932,353.5938 L110.4932,356.8438 L115.7588,356.8438 L115.7588,359 Z " fill="#000000"/><text fill="#000000" font-family="sans-serif" font-size="14" lengthAdjust="spacing" textLength="30.7959" x="127.6826" y="357.8467">Role</text><line style="stroke:#181818;stroke-width:0.5;" x1="88.5" x2="169.6279" y1="369" y2="369"/><text fill="#000000" font-family="sans-serif" font-size="14" lengthAdjust="spacing" textLength="71.1279" x="93.5" y="385.9951">MANAGER</text><text fill="#000000" font-family="sans-serif" font-size="14" lengthAdjust="spacing" textLength="53.0537" x="93.5" y="402.292">EDITOR</text><line style="stroke:#181818;stroke-width:0.5;" x1="88.5" x2="169.6279" y1="409.5938" y2="409.5938"/></g><!--class Member--><g class="entity" data-entity="Member" data-source-line="23" data-uid="ent0005" id="entity_Member"><rect fill="#F1F1F1" height="72.5625" rx="2.5" ry="2.5" style="stroke:#181818;stroke-width:0.5;" width="145.9023" x="206" y="341"/><ellipse cx="232.8389" cy="361.1328" fill="#ADD1B2" rx="11" ry="11" style="stroke:#181818;stroke-width:1;"/><path d="M235.8076,366.7734 Q235.2295,367.0703 234.5889,367.2109 Q233.9482,367.3672 233.2451,367.3672 Q230.7451,367.3672 229.417,365.7266 Q228.1045,364.0703 228.1045,360.9453 Q228.1045,357.8203 229.417,356.1641 Q230.7451,354.5078 233.2451,354.5078 Q233.9482,354.5078 234.5889,354.6641 Q235.2451,354.8203 235.8076,355.1172 L235.8076,357.8359 Q235.1826,357.2578 234.5889,356.9922 Q233.9951,356.7109 233.3701,356.7109 Q232.0264,356.7109 231.3389,357.7891 Q230.6514,358.8516 230.6514,360.9453 Q230.6514,363.0391 231.3389,364.1172 Q232.0264,365.1797 233.3701,365.1797 Q233.9951,365.1797 234.5889,364.9141 Q235.1826,364.6328 235.8076,364.0547 L235.8076,366.7734 Z " fill="#000000"/><text fill="#000000" font-family="sans-serif" font-size="12" font-style="italic" lengthAdjust="spacing" textLength="91.5938" x="247.4697" y="357.1387">&#171;Value Object&#187;</text><text fill="#000000" font-family="sans-serif" font-size="14" lengthAdjust="spacing" textLength="57.5859" x="264.4736" y="372.9639">Member</text><line style="stroke:#181818;stroke-width:0.5;" x1="207" x2="350.9023" y1="381.2656" y2="381.2656"/><ellipse cx="217" cy="394.9141" fill="none" rx="3" ry="3" style="stroke:#038048;stroke-width:1;"/><text fill="#000000" font-family="sans-serif" font-size="14" lengthAdjust="spacing" textLength="119.9023" x="226" y="398.2607">Long : memberId</text><line style="stroke:#181818;stroke-width:0.5;" x1="207" x2="350.9023" y1="405.5625" y2="405.5625"/></g><!--class Board--><g class="entity" data-entity="Board" data-source-line="27" data-uid="ent0006" id="entity_Board"><rect fill="#F1F1F1" height="72.5625" rx="2.5" ry="2.5" style="stroke:#181818;stroke-width:0.5;" width="127.4316" x="387.5" y="341"/><ellipse cx="406.0271" cy="361.1328" fill="#ADD1B2" rx="11" ry="11" style="stroke:#181818;stroke-width:1;"/><path d="M408.9958,366.7734 Q408.4177,367.0703 407.7771,367.2109 Q407.1364,367.3672 406.4333,367.3672 Q403.9333,367.3672 402.6052,365.7266 Q401.2927,364.0703 401.2927,360.9453 Q401.2927,357.8203 402.6052,356.1641 Q403.9333,354.5078 406.4333,354.5078 Q407.1364,354.5078 407.7771,354.6641 Q408.4333,354.8203 408.9958,355.1172 L408.9958,357.8359 Q408.3708,357.2578 407.7771,356.9922 Q407.1833,356.7109 406.5583,356.7109 Q405.2146,356.7109 404.5271,357.7891 Q403.8396,358.8516 403.8396,360.9453 Q403.8396,363.0391 404.5271,364.1172 Q405.2146,365.1797 406.5583,365.1797 Q407.1833,365.1797 407.7771,364.9141 Q408.3708,364.6328 408.9958,364.0547 L408.9958,366.7734 Z " fill="#000000"/><text fill="#000000" font-family="sans-serif" font-size="12" font-style="italic" lengthAdjust="spacing" textLength="91.5938" x="418.8108" y="357.1387">&#171;Value Object&#187;</text><text fill="#000000" font-family="sans-serif" font-size="14" lengthAdjust="spacing" textLength="41.3916" x="443.9119" y="372.9639">Board</text><line style="stroke:#181818;stroke-width:0.5;" x1="388.5" x2="513.9316" y1="381.2656" y2="381.2656"/><ellipse cx="398.5" cy="394.9141" fill="none" rx="3" ry="3" style="stroke:#038048;stroke-width:1;"/><text fill="#000000" font-family="sans-serif" font-size="14" lengthAdjust="spacing" textLength="101.4316" x="407.5" y="398.2607">Long : boardId</text><line style="stroke:#181818;stroke-width:0.5;" x1="388.5" x2="513.9316" y1="405.5625" y2="405.5625"/></g><!--link UserBoardRole to Role--><g class="link" data-entity-1="UserBoardRole" data-entity-2="Role" data-source-line="32" data-uid="lnk7" id="link_UserBoardRole_Role"><path codeLine="32" d="M197.85,277.12 C182.94,298.64 168.36,319.69 156.48,336.84" fill="none" id="UserBoardRole-Role" style="stroke:#181818;stroke-width:1;"/></g><!--link UserBoardRole to Board--><g class="link" data-entity-1="UserBoardRole" data-entity-2="Board" data-source-line="33" data-uid="lnk8" id="link_UserBoardRole_Board"><path codeLine="33" d="M372.05,277.12 C390.41,300.24 408.34,322.81 422.47,340.58" fill="none" id="UserBoardRole-Board" style="stroke:#181818;stroke-width:1;"/></g><!--link UserBoardRole to Member--><g class="link" data-entity-1="UserBoardRole" data-entity-2="Member" data-source-line="34" data-uid="lnk9" id="link_UserBoardRole_Member"><path codeLine="34" d="M279,277.12 C279,300.24 279,322.81 279,340.58" fill="none" id="UserBoardRole-Member" style="stroke:#181818;stroke-width:1;"/></g><!--SRC=[ZL9BJiCm4Dtt5ADkQ4MZxb5LAVq8LI94YafNtJZfO9KcCN8S44AL4BTWpnaGTmBkmCHsQvTsWJVsp7j-RyQUUvPj64TernNAaM1obOWSs_3S0bfOghLwWXiVWy4Wv5mYPmeX4K8DXvRThFC8YnGbNC1IBHKKEdAeLjc1gGwMgj__Vlly-dY1qHX-NjyTMzjPigIpGoPaFbyN1WLMLMjUuYfKUqOGE78caUWHAwbHsKbj2RgK7cXGo5cJChNFLbqw7_JijBXafMfI7IMy6prT7oKQgEleYkZLBShZ6nv9ueFOeAPuMMeAfRLYagDAJZeOMlnOKck5rJvjOvWZp4N9gxauV0Z3sxRijzU5zl4-DWglmyjfie-dazayJlnRPujOxrbEJhO06fO5osk4EBt3xC-eN54XvB-hsjSo6cPQ_Y6XMt4AUZySsY20_KSU8Jeu3PasMjjV]--></g></svg>